<?xml version="1.0" standalone="no"?>
<!DOCTYPE svg PUBLIC "-//W3C//DTD SVG 20010904//EN"
 "http://www.w3.org/TR/2001/REC-SVG-20010904/DTD/svg10.dtd">
<svg version="1.0" xmlns="http://www.w3.org/2000/svg"
 width="300.000000pt" height="156.000000pt" viewBox="0 0 300.000000 156.000000"
 preserveAspectRatio="xMidYMid meet">
<metadata>
Created by potrace 1.10, written by Peter Selinger 2001-2011
</metadata>
<g transform="translate(0.000000,156.000000) scale(0.100000,-0.100000)"
fill="#797272" stroke="none">
<path d="M250 1551 c0 -5 7 -14 15 -21 14 -11 13 -14 -1 -25 -13 -9 -15 -19
-9 -41 5 -16 7 -48 6 -71 -2 -30 2 -44 14 -51 16 -8 16 -10 1 -15 -12 -5 -16
-17 -14 -47 1 -27 -3 -44 -14 -52 -18 -15 -35 -74 -18 -63 5 3 10 13 10 20 0
23 35 35 101 35 l62 0 -6 -55 c-3 -30 -10 -69 -16 -87 -5 -18 -13 -51 -18 -73
-7 -37 -11 -40 -43 -43 -48 -4 -88 -35 -72 -54 15 -18 6 -28 -25 -28 -27 0
-30 15 -5 29 15 9 16 11 1 26 -14 14 -18 14 -45 0 -16 -8 -39 -15 -52 -15 -12
0 -25 -7 -28 -15 -4 -9 -19 -15 -36 -15 -29 0 -30 -1 -16 -23 23 -34 24 -799
2 -822 -9 -8 -22 -15 -30 -15 -8 0 -14 -7 -14 -15 0 -13 80 -15 660 -15 433 0
660 3 660 10 0 6 -5 10 -10 10 -6 0 -47 26 -92 57 -74 52 -86 57 -140 59 -33
1 -64 7 -71 12 -7 6 -12 30 -12 54 0 26 -6 48 -15 55 -8 7 23 -4 70 -24 47
-19 107 -44 134 -53 29 -11 42 -19 32 -21 -14 -3 -6 -16 36 -59 29 -30 65 -65
81 -78 l27 -22 538 1 537 0 -65 33 c-92 46 -112 57 -108 62 9 9 106 -27 123
-46 11 -13 23 -17 34 -12 9 4 36 5 61 1 l45 -6 -55 -2 -55 -1 29 -15 c23 -12
78 -15 292 -15 l264 0 0 63 c0 44 -3 58 -10 47 -5 -8 -10 -10 -10 -4 0 6 3 14
8 18 4 4 7 28 7 52 0 51 -8 56 -85 51 -44 -3 -44 -4 -48 -43 -5 -53 -12 -57
-12 -6 0 22 -3 47 -6 56 -5 12 1 16 22 16 20 0 25 3 15 9 -9 6 -10 11 -2 15 6
4 8 18 5 32 -4 16 -2 24 6 24 9 0 11 11 6 40 -5 33 -2 44 15 63 12 12 19 16
15 10 -4 -7 0 -23 8 -35 16 -22 16 -22 16 11 0 43 24 37 28 -7 3 -26 0 -32
-15 -32 -39 0 -58 -44 -23 -53 11 -3 20 -12 20 -20 0 -8 9 -17 20 -20 19 -5
19 4 20 634 l0 639 -85 0 -85 0 0 -42 c0 -24 -2 -108 -5 -188 -2 -80 -6 -263
-7 -408 -1 -145 -5 -265 -9 -267 -3 -3 -4 -16 -2 -30 4 -17 0 -27 -11 -31 -9
-3 -16 -11 -16 -16 0 -6 6 -8 14 -5 12 5 14 -19 14 -149 0 -85 -4 -154 -9
-154 -5 0 -10 6 -11 13 -8 71 -20 107 -33 107 -8 0 -15 -6 -15 -12 0 -7 -5 -5
-11 5 -15 27 -21 85 -8 92 6 5 10 68 9 183 -1 124 1 176 9 174 6 -1 11 13 11
33 0 21 -5 35 -12 35 -9 0 -9 3 0 12 15 15 17 172 2 163 -6 -4 -8 -10 -5 -14
2 -5 -2 -16 -9 -26 -13 -17 -15 -17 -45 14 -31 31 -33 58 -5 47 8 -3 14 -2 15
2 0 4 2 77 5 162 3 85 6 188 8 228 l3 72 -108 0 c-66 0 -109 -4 -109 -10 0 -5
-5 -10 -11 -10 -5 0 -7 5 -4 10 10 16 -347 13 -364 -2 -11 -10 -14 -10 -18 0
-3 6 -14 12 -24 12 -11 0 -17 -4 -14 -10 3 -6 -1 -7 -9 -4 -9 3 -16 2 -16 -4
0 -5 -6 -12 -14 -15 -10 -4 -12 0 -9 14 3 11 0 19 -6 19 -7 0 -10 -4 -7 -9 8
-12 -35 -47 -67 -55 -23 -6 -27 -11 -22 -29 15 -55 29 -77 45 -77 10 0 34 -7
55 -16 21 -8 52 -14 69 -12 17 2 31 -1 31 -7 0 -5 -7 -10 -15 -10 -8 -1 -14
-6 -13 -13 2 -6 -5 -11 -15 -10 -53 4 -69 -17 -37 -49 9 -8 14 -17 13 -19 -2
-1 -35 3 -74 9 -51 9 -82 21 -114 45 -48 35 -60 39 -60 19 0 -16 48 -61 74
-71 13 -5 17 -12 12 -29 -13 -43 -13 -75 1 -70 7 3 13 1 13 -5 0 -6 -14 -15
-31 -21 -35 -12 -69 0 -69 24 0 8 -4 15 -9 15 -11 0 -22 -52 -24 -114 -2 -39
2 -51 18 -60 11 -6 22 -14 25 -18 3 -3 19 -8 35 -10 23 -2 35 -12 50 -40 11
-20 31 -42 45 -48 21 -10 27 -9 43 12 15 17 18 34 15 70 -5 48 -5 48 58 110
40 39 64 71 64 84 0 15 8 24 25 28 16 4 25 13 25 26 0 14 6 20 23 19 16 -1 18
-2 5 -6 -21 -5 -23 -20 -4 -38 9 -10 16 -11 24 -3 6 6 18 8 28 4 12 -5 15 -14
10 -37 -4 -23 0 -38 19 -63 l25 -32 -36 -35 c-51 -49 -172 -259 -223 -387 -11
-26 -36 -83 -56 -126 -33 -70 -39 -78 -50 -63 -15 21 -25 22 -25 3 0 -8 7 -16
15 -20 19 -7 19 -23 0 -60 -8 -15 -15 -35 -15 -42 0 -12 -4 -12 -25 2 -19 12
-36 14 -77 9 l-53 -8 55 -19 c30 -10 60 -26 67 -34 7 -9 19 -14 28 -11 10 5
15 0 15 -13 0 -16 7 -20 36 -20 l37 0 -6 45 c-7 51 -1 76 18 69 7 -3 15 2 18
10 4 10 1 16 -7 16 -11 0 -12 7 -3 35 11 39 21 44 32 18 6 -16 8 -15 16 6 7
17 6 27 -2 32 -8 4 -9 17 -4 35 l8 29 6 -30 6 -29 18 27 c9 15 15 27 11 27 -3
0 1 11 10 25 12 19 14 30 5 51 -12 34 19 148 54 191 12 15 40 55 62 88 22 32
56 76 76 97 35 37 35 38 17 57 -22 24 -23 50 -3 57 25 10 43 -14 40 -50 -3
-26 5 -43 36 -82 51 -63 64 -87 79 -151 8 -36 18 -54 31 -58 12 -4 19 -16 19
-31 0 -28 -24 -32 -39 -6 -8 13 -11 5 -13 -38 -3 -94 -4 -99 -11 -106 -4 -4
-7 -16 -7 -26 0 -10 -6 -18 -14 -18 -8 0 -29 -21 -47 -48 -33 -49 -50 -96 -53
-147 -2 -49 -20 -70 -58 -67 -33 2 -33 2 -8 -11 20 -10 24 -19 22 -42 -3 -29
-17 -45 -58 -72 -16 -10 -17 -14 -5 -22 12 -7 9 -15 -17 -40 -30 -31 -65 -40
-77 -21 -4 6 -3 10 2 9 4 -1 10 -1 13 1 3 1 16 4 29 6 37 7 38 14 3 14 -30 0
-31 2 -20 20 7 11 19 18 26 15 8 -3 12 0 10 6 -4 12 -132 68 -157 68 -11 1
-11 -2 -1 -14 10 -12 10 -15 -3 -15 -8 0 -17 -6 -20 -14 -15 -38 -204 -14
-269 34 -15 11 -43 20 -63 20 -19 0 -59 11 -88 25 -28 14 -65 28 -82 31 -16 3
-34 9 -39 14 -5 5 0 7 13 3 26 -7 27 8 1 32 -11 10 -17 22 -14 26 3 5 -2 9
-11 9 -8 0 -18 6 -21 14 -3 8 -13 12 -24 9 -15 -4 -21 4 -31 35 -7 25 -16 39
-24 35 -8 -2 -12 3 -12 14 1 12 -6 19 -21 21 -12 2 -19 8 -16 14 4 6 -1 8 -12
5 -11 -3 -35 -8 -54 -12 l-35 -6 30 14 c46 21 85 29 85 17 0 -5 7 -10 15 -10
8 0 25 -16 39 -36 13 -20 40 -47 60 -60 20 -14 36 -32 36 -40 0 -17 73 -53
107 -54 26 0 39 31 24 59 -16 29 -14 33 12 26 12 -4 41 -26 65 -48 57 -56 53
-35 -8 41 -27 34 -50 66 -50 71 0 5 -6 11 -12 13 -10 4 -10 19 -2 69 8 42 9
97 3 155 -14 156 23 305 105 424 29 42 37 90 16 90 -18 0 -79 -93 -110 -166
-32 -77 -66 -276 -54 -309 4 -9 -2 -25 -12 -36 -15 -17 -16 -23 -5 -41 12 -20
11 -21 -19 -14 l-32 6 23 -24 c13 -13 29 -22 36 -19 9 3 5 -9 -9 -33 -20 -34
-20 -37 -4 -31 14 6 17 4 12 -9 -3 -8 -6 -17 -6 -19 0 -2 -9 -1 -21 2 -18 5
-37 -1 -91 -28 -22 -11 -80 0 -75 15 2 6 13 12 26 14 13 2 20 10 19 19 -3 15
9 26 47 38 16 6 17 8 5 13 -8 3 -18 10 -22 16 -5 8 -8 7 -8 -1 0 -15 -54 -65
-81 -75 -11 -4 -18 -4 -15 0 3 5 -8 7 -23 4 -20 -3 -33 2 -42 15 -8 10 -25 24
-39 30 -15 7 -19 12 -9 12 17 1 59 42 59 58 0 6 16 28 35 49 19 21 34 43 33
48 -2 6 11 31 29 56 21 31 32 61 35 95 5 56 20 120 49 214 14 42 17 67 10 74
-16 16 -2 34 23 30 15 -3 39 5 65 23 26 17 67 31 109 38 47 8 68 16 70 27 2
12 -8 17 -48 22 -84 10 -96 26 -18 27 65 0 66 0 77 31 6 18 11 34 11 35 0 2
-24 4 -54 4 -30 0 -57 4 -60 9 -6 9 49 21 100 21 33 0 44 13 44 54 0 22 -3 22
-92 19 -112 -4 -90 14 29 24 194 16 30 23 -562 23 -513 0 -646 -3 -643 -12 3
-7 24 -15 48 -18 53 -6 59 -20 20 -42 -25 -14 -30 -24 -30 -53 0 -20 -5 -45
-10 -55 -7 -13 -7 -21 0 -25 12 -7 13 -45 2 -62 -10 -16 -64 26 -67 53 -4 41
-17 100 -26 123 -8 19 -6 26 11 38 11 8 20 23 20 34 0 18 -8 19 -125 19 -69 0
-125 -4 -125 -9z m80 -37 c0 -2 -7 -4 -15 -4 -8 0 -15 4 -15 10 0 5 7 7 15 4
8 -4 15 -8 15 -10z m470 -4 c25 0 50 -16 50 -32 0 -4 -7 -8 -15 -8 -9 0 -15
-10 -15 -26 0 -21 4 -24 20 -19 15 5 21 0 26 -20 9 -38 -6 -48 -57 -38 -38 7
-46 13 -56 43 -21 63 -14 135 11 110 5 -5 22 -10 36 -10z m1685 -11 c-4 -5
-16 -9 -28 -9 -20 0 -20 0 -2 14 21 15 40 12 30 -5z m-159 -14 c11 -10 14 -31
12 -67 l-3 -53 -42 -2 c-24 -1 -43 3 -43 8 0 6 11 30 25 55 14 25 25 51 25 59
0 19 8 19 26 0z m-1298 -55 c-1 -33 -6 -60 -10 -60 -5 0 -11 0 -15 0 -5 0 -9
12 -10 27 -1 16 -4 40 -7 54 -6 31 0 39 26 39 17 0 19 -7 16 -60z m1569 29
c-3 -10 2 -24 10 -30 12 -11 11 -15 -11 -26 -29 -15 -34 -44 -11 -63 8 -7 15
-23 15 -37 0 -21 -4 -24 -32 -21 -28 2 -34 8 -36 31 -2 18 2 29 13 33 12 5 13
9 5 14 -16 10 -16 63 -1 68 8 3 5 10 -8 19 -27 18 -27 31 2 35 38 6 59 -3 54
-23z m-2193 -30 c-7 -11 -44 -12 -44 -1 0 4 5 13 12 20 13 13 42 -4 32 -19z
m-77 -6 c-4 -3 -10 -3 -14 0 -3 4 0 7 7 7 7 0 10 -3 7 -7z m983 -42 c0 -10
-24 -21 -46 -21 -8 0 -14 4 -14 9 0 8 10 12 53 20 4 0 7 -3 7 -8z m-905 -41
c12 -19 -5 -30 -31 -18 -18 8 -21 14 -12 20 18 11 36 10 43 -2z m1845 -35 c0
-6 -56 -35 -67 -35 -13 1 41 40 55 40 6 0 12 -2 12 -5z m-1860 -45 c0 -5 -4
-10 -10 -10 -5 0 -10 5 -10 10 0 6 5 10 10 10 6 0 10 -4 10 -10z m240 -19 c0
-11 -5 -32 -11 -48 -7 -19 -7 -29 0 -31 6 -2 9 -13 7 -25 -3 -12 -8 -46 -11
-75 -6 -52 -5 -53 17 -47 18 5 20 4 8 -4 -8 -6 -15 -16 -15 -23 0 -7 -9 -14
-20 -16 -11 -2 -28 -11 -39 -21 -19 -16 -61 -99 -69 -136 -3 -11 -5 -1 -6 23
-1 48 1 47 -132 43 -78 -3 -101 14 -34 25 40 6 48 11 63 43 13 27 24 37 45 39
28 3 29 5 31 87 1 39 2 40 38 40 45 0 75 23 41 31 -28 8 -38 33 -15 40 47 15
62 25 62 43 0 17 11 28 33 30 4 1 7 -8 7 -18z m390 -26 c0 -38 -3 -45 -20 -45
-17 0 -20 7 -20 38 0 41 6 52 27 52 9 0 13 -14 13 -45z m1595 35 c3 -5 2 -10
-4 -10 -5 0 -13 5 -16 10 -3 6 -2 10 4 10 5 0 13 -4 16 -10z m-114 -102 c-2
-21 3 -34 18 -45 12 -8 21 -23 21 -34 0 -14 7 -19 25 -19 24 0 34 -13 18 -23
-5 -3 -33 -8 -63 -12 l-55 -7 1 94 c1 116 0 113 21 92 11 -10 16 -29 14 -46z
m-478 33 c22 -3 1 -20 -37 -31 -49 -13 -66 -8 -66 20 0 18 20 21 103 11z m627
-22 c0 -4 -11 -10 -25 -13 -34 -9 -42 -32 -19 -57 19 -21 19 -21 -5 -18 -20 3
-24 10 -26 39 -1 19 3 41 8 48 10 12 67 13 67 1z m17 -6 c-4 -3 -7 0 -7 7 0 7
3 10 7 7 3 -4 3 -10 0 -14z m-1394 -63 c-1 -14 2 -37 7 -52 9 -28 8 -28 -33
-28 -57 0 -75 13 -42 28 20 9 25 17 20 33 -8 24 12 51 34 47 10 -2 15 -13 14
-28z m537 -12 c0 -14 -18 -9 -24 8 -11 28 -6 39 9 20 8 -11 15 -23 15 -28z
m-1007 22 c12 -5 35 -20 51 -34 29 -26 66 -35 66 -16 0 6 5 10 10 10 6 0 10
-15 10 -32 0 -37 15 -67 26 -55 5 4 10 31 12 60 2 29 8 55 13 58 5 3 28 3 51
0 38 -5 43 -9 45 -33 1 -18 -3 -28 -11 -28 -8 0 -17 -16 -20 -35 -5 -26 -13
-36 -31 -41 l-25 -6 40 -45 c28 -32 38 -52 35 -67 -4 -17 4 -25 48 -46 47 -23
71 -55 40 -55 -16 0 -53 -32 -53 -45 0 -5 5 -10 10 -10 14 0 13 -12 -10 -64
-19 -43 -22 -45 -43 -33 -12 6 -32 21 -44 31 -15 12 -23 15 -23 7 0 -13 -7
-12 -83 11 -30 9 -46 24 -73 65 -29 46 -32 56 -21 73 11 18 8 25 -25 56 -21
19 -38 38 -38 41 0 3 9 18 20 33 14 20 40 35 85 50 36 12 65 25 65 30 0 21
-35 31 -114 33 -80 2 -83 3 -53 15 32 12 32 12 -13 7 -25 -3 -56 -8 -70 -11
-21 -4 -22 -3 -8 6 12 7 15 19 11 44 l-5 34 52 0 c28 1 61 -3 73 -8z m124 -16
c-3 -3 -12 -4 -19 -1 -8 3 -5 6 6 6 11 1 17 -2 13 -5z m200 -11 c-4 -3 -10 -3
-14 0 -3 4 0 7 7 7 7 0 10 -3 7 -7z m1310 -58 c0 -8 -7 -15 -15 -15 -12 0 -12
3 -2 15 7 8 13 15 15 15 1 0 2 -7 2 -15z m-1031 -24 c-5 -8 -56 -3 -56 5 0 2
14 4 31 4 16 0 28 -4 25 -9z m-125 -22 c9 -17 8 -23 -2 -30 -31 -20 -64 -1
-54 30 8 27 41 27 56 0z m1436 -40 c-2 -28 -6 -32 -35 -34 -18 -2 -35 1 -38 6
-3 5 6 9 21 9 18 0 28 7 35 25 13 34 20 31 17 -6z m-1397 -19 c0 -13 -7 -20
-20 -20 -13 0 -20 7 -20 20 0 13 7 20 20 20 13 0 20 -7 20 -20z m1267 -7 c-4
-3 -10 -3 -14 0 -3 4 0 7 7 7 7 0 10 -3 7 -7z m-2094 -203 l5 -76 -62 -20
c-33 -11 -70 -24 -81 -29 -18 -8 -18 -7 -7 7 7 9 38 27 67 39 55 22 55 23 49
60 -4 22 -2 39 5 43 6 4 11 19 11 33 0 51 8 17 13 -57z m694 -26 c-3 -16 4
-31 19 -45 30 -28 31 -42 2 -33 -21 6 -21 5 -9 -10 21 -25 0 -43 -34 -28 -28
13 -31 28 -10 56 10 13 13 32 9 58 -6 33 -4 38 11 32 11 -5 15 -14 12 -30z
m1379 -31 c34 -14 44 -25 53 -54 14 -46 14 -89 0 -89 -6 0 -4 -9 5 -22 14 -20
14 -23 -4 -35 -21 -15 -28 -73 -9 -73 6 0 9 -7 5 -15 -3 -8 -1 -15 4 -15 6 0
10 7 10 15 0 8 9 15 20 15 11 0 20 -4 20 -10 0 -5 7 -10 15 -10 17 0 18 -4 9
-38 -7 -23 -7 -23 -21 -2 -17 24 -33 26 -33 5 0 -8 -9 -15 -20 -15 -11 0 -20
7 -20 15 0 13 -4 14 -20 5 -17 -9 -20 -8 -20 9 0 11 -4 22 -9 25 -4 3 -9 35
-10 71 l-2 65 33 1 33 1 -32 9 c-35 10 -39 19 -23 50 9 15 7 21 -5 25 -8 4
-21 2 -28 -4 -10 -8 -12 -1 -11 36 1 26 2 48 3 50 3 5 18 1 57 -15z m-1749
-10 c33 -22 55 -71 42 -95 -17 -31 -83 -24 -121 13 -18 17 -27 28 -20 24 8 -4
12 1 12 14 0 14 6 21 19 21 15 0 18 -5 13 -22 -5 -20 -3 -21 10 -10 13 10 17
10 21 0 2 -7 8 -10 12 -6 8 8 -3 48 -13 46 -4 -1 -15 2 -24 6 -10 5 -27 1 -42
-9 -32 -21 -35 -2 -4 19 29 21 62 20 95 -1z m1270 -60 c-4 -3 -7 0 -7 7 0 7 3
10 7 7 3 -4 3 -10 0 -14z m364 -196 c-7 -7 -10 7 -9 44 1 82 13 103 16 30 2
-35 -2 -69 -7 -74z m-1561 92 c17 -31 48 -59 68 -60 28 -2 -40 -17 -84 -18
-29 -1 -46 5 -58 18 -17 19 -17 21 16 50 40 36 44 37 58 10z m2084 0 c-3 -5
-10 -7 -15 -3 -5 3 -7 10 -3 15 3 5 10 7 15 3 5 -3 7 -10 3 -15z m-1460 -4
c-4 -8 -10 -12 -15 -9 -14 8 -10 24 6 24 9 0 12 -6 9 -15z m-231 -85 c27 -6
60 -22 75 -36 l27 -26 -52 5 c-63 6 -83 17 -116 61 -33 42 -35 57 -4 28 12
-11 44 -26 70 -32z m1564 33 c-4 -3 -7 0 -7 7 0 7 3 10 7 7 3 -4 3 -10 0 -14z
m-1686 -23 l24 -21 -32 16 c-32 15 -42 25 -24 25 5 0 19 -9 32 -20z m1219 -16
c0 -8 -5 -12 -10 -9 -6 4 -8 11 -5 16 9 14 15 11 15 -7z m37 10 c-3 -3 -12 -4
-19 -1 -8 3 -5 6 6 6 11 1 17 -2 13 -5z m43 -74 c-5 -25 -9 -62 -10 -83 0 -36
-2 -38 -27 -35 -25 3 -28 7 -31 48 -2 24 -1 59 3 77 5 27 11 32 38 35 18 2 33
3 34 3 1 0 -3 -20 -7 -45z m270 40 c0 -5 -4 -10 -10 -10 -5 0 -10 5 -10 10 0
6 5 10 10 10 6 0 10 -4 10 -10z m250 6 c0 -3 -5 -8 -12 -12 -7 -4 -8 -3 -4 4
7 12 16 16 16 8z m-2412 -109 c12 -37 22 -71 22 -75 -1 -24 -60 120 -60 147 0
28 17 -3 38 -72z m687 43 c3 -6 -4 -10 -17 -10 -18 0 -20 2 -8 10 19 12 18 12
25 0z m1602 -17 c-15 -16 -17 -16 -17 -1 0 9 6 18 13 21 20 7 22 -2 4 -20z
m-1658 -38 c25 -12 64 -28 86 -36 22 -7 48 -20 57 -27 10 -8 24 -12 33 -8 9 3
28 -2 43 -12 l26 -17 -44 -5 c-54 -7 -70 -3 -70 17 0 8 -5 11 -10 8 -6 -4 -9
-1 -8 5 2 7 -24 22 -57 35 -56 20 -135 62 -135 71 0 5 23 -5 79 -31z m-752
-17 c-3 -7 -5 -2 -5 12 0 14 2 19 5 13 2 -7 2 -19 0 -25z m2270 5 c-4 -3 -7 0
-7 7 0 7 3 10 7 7 3 -4 3 -10 0 -14z m-52 -3 c3 -5 1 -10 -4 -10 -6 0 -11 5
-11 10 0 6 2 10 4 10 3 0 8 -4 11 -10z m-1770 -30 c3 -5 4 -10 1 -10 -3 0 -8
5 -11 10 -3 6 -4 10 -1 10 3 0 8 -4 11 -10z m81 -17 c-7 -7 -26 7 -26 19 0 6
6 6 15 -2 9 -7 13 -15 11 -17z m1474 -23 c0 -22 -5 -30 -17 -30 -16 0 -16 2
-3 11 11 8 12 12 3 16 -18 7 -16 33 2 33 10 0 15 -10 15 -30z m-883 3 c-4 -3
-7 0 -7 7 0 7 3 10 7 7 3 -4 3 -10 0 -14z m53 -13 c0 -5 -2 -10 -4 -10 -3 0
-8 5 -11 10 -3 6 -1 10 4 10 6 0 11 -4 11 -10z m46 -26 c18 -14 18 -14 -6 -3
-31 14 -36 19 -24 19 6 0 19 -7 30 -16z m1250 -44 c8 0 14 9 14 20 0 11 7 20
15 20 10 0 15 -10 15 -30 0 -16 1 -33 3 -37 3 -8 -82 -8 -90 1 -4 3 -1 6 5 6
7 0 13 15 13 33 1 23 3 26 6 10 2 -13 11 -23 19 -23z m-1196 20 c8 -5 11 -10
5 -10 -5 0 -17 5 -25 10 -8 5 -10 10 -5 10 6 0 17 -5 25 -10z m-206 -9 c3 -5
-1 -11 -9 -14 -9 -4 -12 -1 -8 9 6 16 10 17 17 5z m23 -38 c-4 -3 -7 0 -7 7 0
7 3 10 7 7 3 -4 3 -10 0 -14z m-17 -8 c7 -9 8 -15 2 -15 -5 0 -12 7 -16 15 -7
19 -2 19 14 0z"/>
<path d="M2276 1404 c-8 -21 -8 -24 4 -24 5 0 14 9 20 20 8 16 8 20 -4 20 -7
0 -17 -7 -20 -16z"/>
<path d="M541 964 c0 -11 3 -14 6 -6 3 7 2 16 -1 19 -3 4 -6 -2 -5 -13z"/>
<path d="M743 1053 c9 -2 23 -2 30 0 6 3 -1 5 -18 5 -16 0 -22 -2 -12 -5z"/>
<path d="M992 824 c-21 -11 -35 -27 -41 -48 -10 -40 -6 -46 28 -43 52 6 73 39
62 100 -2 10 -12 9 -49 -9z m28 -39 c7 -8 9 -15 4 -15 -5 0 -19 -3 -31 -6 -18
-5 -21 -3 -16 15 6 25 25 27 43 6z"/>
<path d="M820 576 c0 -2 7 -7 16 -10 8 -3 12 -2 9 4 -6 10 -25 14 -25 6z"/>
<path d="M1797 1213 c-4 -3 -7 -11 -7 -17 0 -6 5 -5 12 2 6 6 9 14 7 17 -3 3
-9 2 -12 -2z"/>
<path d="M210 1072 c0 -24 4 -30 15 -26 8 4 15 12 15 19 0 7 -7 18 -15 25 -13
11 -15 8 -15 -18z"/>
<path d="M198 1004 c-5 -4 -8 -16 -8 -28 0 -14 3 -17 11 -9 6 6 9 19 7 28 -1
9 -6 13 -10 9z"/>
<path d="M2130 670 c0 -7 3 -10 7 -7 3 4 3 10 0 14 -4 3 -7 0 -7 -7z"/>
<path d="M2125 640 c-3 -5 -1 -10 4 -10 6 0 11 5 11 10 0 6 -2 10 -4 10 -3 0
-8 -4 -11 -10z"/>
<path d="M2253 643 c4 -3 10 -3 14 0 3 4 0 7 -7 7 -7 0 -10 -3 -7 -7z"/>
<path d="M2780 640 c0 -7 3 -10 7 -7 3 4 3 10 0 14 -4 3 -7 0 -7 -7z"/>
<path d="M1358 605 c-33 -29 -35 -46 -7 -63 18 -12 24 -11 44 8 21 20 22 23 8
51 -8 16 -15 29 -16 29 -1 0 -14 -12 -29 -25z"/>
<path d="M2220 620 c-9 -6 -10 -10 -3 -10 6 0 15 5 18 10 8 12 4 12 -15 0z"/>
<path d="M1480 610 c0 -7 3 -10 7 -7 3 4 3 10 0 14 -4 3 -7 0 -7 -7z"/>
<path d="M1523 558 c-2 -16 1 -18 10 -9 7 7 8 14 1 21 -6 6 -10 2 -11 -12z"/>
<path d="M2252 563 c-35 -8 -62 -17 -59 -19 8 -8 186 19 181 28 -7 11 -49 9
-122 -9z"/>
<path d="M2163 533 c4 -3 10 -3 14 0 3 4 0 7 -7 7 -7 0 -10 -3 -7 -7z"/>
<path d="M1450 520 c-13 -8 -12 -10 3 -10 9 0 17 5 17 10 0 12 -1 12 -20 0z"/>
<path d="M1880 480 c0 -5 5 -10 11 -10 5 0 7 5 4 10 -3 6 -8 10 -11 10 -2 0
-4 -4 -4 -10z"/>
<path d="M1800 434 c0 -6 7 -19 16 -30 14 -18 14 -18 3 6 -14 31 -19 36 -19
24z"/>
<path d="M2239 363 c-13 -16 -12 -17 4 -4 16 13 21 21 13 21 -2 0 -10 -8 -17
-17z"/>
<path d="M2273 293 c4 -3 10 -3 14 0 3 4 0 7 -7 7 -7 0 -10 -3 -7 -7z"/>
<path d="M2918 293 c6 -2 10 -9 6 -14 -3 -5 0 -9 5 -9 6 0 11 7 11 15 0 8 -8
15 -17 14 -11 0 -13 -3 -5 -6z"/>
<path d="M2955 270 c-6 -9 11 -23 33 -26 18 -3 15 10 -8 23 -11 7 -21 9 -25 3z"/>
<path d="M2918 253 c7 -3 16 -2 19 1 4 3 -2 6 -13 5 -11 0 -14 -3 -6 -6z"/>
<path d="M2243 223 c4 -3 10 -3 14 0 3 4 0 7 -7 7 -7 0 -10 -3 -7 -7z"/>
<path d="M2250 190 c0 -5 5 -10 11 -10 5 0 7 5 4 10 -3 6 -8 10 -11 10 -2 0
-4 -4 -4 -10z"/>
</g>
</svg>
