<?xml version="1.0" standalone="no"?>
<!DOCTYPE svg PUBLIC "-//W3C//DTD SVG 20010904//EN"
 "http://www.w3.org/TR/2001/REC-SVG-20010904/DTD/svg10.dtd">
<svg version="1.0" xmlns="http://www.w3.org/2000/svg"
 width="300.000000pt" height="264.000000pt" viewBox="0 0 300.000000 264.000000"
 preserveAspectRatio="xMidYMid meet">
<metadata>
Created by potrace 1.10, written by Peter Selinger 2001-2011
</metadata>
<g transform="translate(0.000000,264.000000) scale(0.100000,-0.100000)"
fill="#0781f2" stroke="none">
<path d="M0 2615 c0 -20 5 -25 25 -25 20 0 25 5 25 25 0 20 -5 25 -25 25 -20
0 -25 -5 -25 -25z"/>
<path d="M60 2631 c0 -6 5 -13 10 -16 6 -3 10 1 10 9 0 9 -4 16 -10 16 -5 0
-10 -4 -10 -9z"/>
<path d="M100 2615 c0 -20 5 -25 25 -25 20 0 25 5 25 25 0 20 -5 25 -25 25
-20 0 -25 -5 -25 -25z"/>
<path d="M160 2625 c0 -8 5 -15 10 -15 6 0 10 7 10 15 0 8 -4 15 -10 15 -5 0
-10 -7 -10 -15z"/>
<path d="M190 2615 c0 -18 -5 -25 -20 -25 -11 0 -21 -4 -21 -10 -1 -5 -2 -16
-3 -22 0 -7 -11 -14 -23 -16 -14 -2 -23 -11 -25 -25 -2 -14 -10 -22 -23 -22
-13 0 -21 -8 -23 -22 -3 -17 -10 -23 -28 -23 -20 0 -24 -5 -24 -30 0 -25 4
-30 25 -30 18 0 25 -5 25 -19 0 -12 9 -21 25 -25 16 -4 25 -13 25 -26 0 -13 7
-20 20 -20 13 0 22 -9 26 -25 4 -16 13 -25 25 -25 14 0 19 -7 19 -25 0 -18 -5
-25 -19 -25 -13 0 -21 -8 -23 -22 -2 -15 -11 -24 -25 -26 -35 -5 -32 -52 2
-52 20 0 25 5 25 25 0 18 5 25 20 25 15 0 20 -7 20 -25 0 -18 -5 -25 -20 -25
-13 0 -20 -7 -20 -19 0 -12 -9 -21 -25 -25 -16 -4 -25 -13 -25 -26 0 -15 -7
-20 -25 -20 -18 0 -25 5 -25 20 0 15 7 20 25 20 20 0 25 5 25 25 0 20 -5 25
-25 25 -18 0 -25 -5 -25 -20 0 -11 -4 -20 -10 -20 -5 0 -7 7 -4 15 4 10 0 15
-15 15 -18 0 -21 -6 -21 -45 0 -41 2 -45 25 -45 18 0 25 -5 25 -20 0 -15 -7
-20 -25 -20 -23 0 -25 -4 -25 -45 0 -35 4 -45 16 -45 10 0 14 6 11 14 -3 8 1
17 9 20 8 3 14 15 14 26 0 15 7 20 25 20 18 0 25 -5 25 -19 0 -12 9 -21 25
-25 16 -4 25 -13 25 -26 0 -13 7 -20 20 -20 15 0 20 -7 20 -25 0 -18 -5 -25
-20 -25 -15 0 -20 -7 -20 -25 0 -18 5 -25 20 -25 30 0 28 -47 -2 -52 -13 -2
-24 -9 -24 -15 -1 -7 -2 -17 -3 -23 0 -5 -10 -10 -21 -10 -13 0 -20 -7 -20
-19 0 -12 -9 -21 -25 -25 -16 -4 -25 -13 -25 -26 0 -15 -7 -20 -25 -20 -21 0
-25 -5 -25 -30 0 -25 4 -30 24 -30 18 0 25 -6 28 -22 2 -15 10 -23 23 -23 13
0 21 -8 23 -22 2 -14 11 -23 25 -25 14 -2 23 -11 25 -25 2 -15 10 -23 23 -23
14 0 19 -7 19 -25 0 -18 -5 -25 -20 -25 -13 0 -22 -9 -26 -25 -4 -16 -13 -25
-25 -25 -14 0 -19 -7 -19 -25 0 -20 5 -25 25 -25 20 0 25 5 25 25 0 18 5 25
20 25 30 0 28 -47 -2 -52 -12 -2 -25 -12 -28 -23 -3 -11 -12 -20 -20 -20 -8 0
-16 -10 -18 -22 -5 -31 -52 -33 -52 -3 0 15 7 20 25 20 20 0 25 5 25 25 0 20
-5 25 -25 25 -18 0 -25 -5 -25 -20 0 -15 -7 -20 -25 -20 -21 0 -25 -5 -25 -30
0 -25 4 -30 25 -30 18 0 25 -5 25 -20 0 -15 -7 -20 -25 -20 -23 0 -25 -4 -25
-45 0 -38 3 -45 20 -45 13 0 18 5 14 15 -4 8 -1 15 5 15 6 0 11 -9 11 -20 0
-15 7 -20 25 -20 20 0 25 5 25 25 0 20 -5 25 -25 25 -18 0 -25 5 -25 20 0 15
7 20 25 20 18 0 25 -5 25 -19 0 -12 9 -21 24 -25 15 -4 23 -13 22 -23 0 -12 7
-19 22 -21 30 -5 32 -52 2 -52 -15 0 -20 7 -20 25 0 20 -5 25 -25 25 -34 0
-37 -47 -2 -52 14 -2 23 -11 25 -25 2 -14 10 -23 22 -23 10 0 20 -9 23 -19 6
-24 0 -31 -25 -31 -10 0 -19 -4 -19 -10 -1 -5 -2 -16 -3 -22 0 -7 -11 -14 -23
-16 -14 -2 -23 -11 -25 -25 -2 -14 -10 -22 -23 -22 -13 0 -21 -8 -23 -23 -3
-16 -10 -22 -28 -22 -20 0 -24 -5 -24 -30 0 -25 4 -30 24 -30 18 0 25 -6 28
-22 2 -15 10 -23 23 -23 13 0 21 -8 23 -22 2 -14 11 -23 25 -25 14 -2 23 -11
25 -26 2 -14 10 -22 23 -22 14 0 19 -7 19 -25 0 -18 -5 -25 -19 -25 -13 0 -21
-8 -23 -23 -2 -14 -11 -23 -25 -25 -35 -5 -32 -52 2 -52 20 0 25 5 25 25 0 18
5 25 20 25 15 0 20 -7 20 -25 0 -19 -5 -25 -21 -25 -12 0 -23 -8 -26 -19 -3
-11 -13 -21 -24 -24 -11 -3 -19 -14 -19 -26 0 -16 -6 -21 -25 -21 -18 0 -25 5
-25 20 0 15 7 20 25 20 20 0 25 5 25 25 0 20 -5 25 -25 25 -18 0 -25 -5 -25
-20 0 -11 -5 -20 -10 -20 -6 0 -9 5 -8 12 2 6 -5 14 -14 16 -15 3 -18 -4 -18
-42 0 -42 2 -46 25 -46 18 0 25 -5 25 -20 0 -15 -7 -20 -25 -20 -23 0 -25 -4
-25 -46 0 -38 3 -45 18 -42 9 2 16 10 14 16 -1 7 2 12 8 12 5 0 10 -9 10 -20
0 -15 7 -20 25 -20 20 0 25 5 25 25 0 20 -5 25 -25 25 -18 0 -25 5 -25 20 0
15 7 20 25 20 18 0 25 -5 25 -20 0 -11 7 -20 15 -20 9 0 20 -11 25 -25 6 -15
17 -25 30 -25 15 0 20 -7 20 -25 0 -18 -5 -25 -20 -25 -15 0 -20 7 -20 25 0
20 -5 25 -25 25 -20 0 -25 -5 -25 -25 0 -18 5 -25 20 -25 13 0 20 -6 19 -17 0
-11 -3 -13 -6 -5 -7 18 -23 14 -23 -6 0 -15 9 -19 45 -20 42 -2 45 0 45 23 0
18 5 25 20 25 15 0 20 -7 20 -25 0 -23 4 -25 45 -25 38 0 45 3 45 20 0 22 -15
27 -23 8 -3 -8 -6 -6 -6 5 -1 11 6 17 19 17 15 0 20 7 20 25 0 20 -5 25 -25
25 -20 0 -25 -5 -25 -25 0 -18 -5 -25 -20 -25 -15 0 -20 7 -20 25 0 18 5 25
20 25 13 0 20 7 20 19 0 13 8 21 23 23 14 2 23 11 25 26 5 30 52 32 52 2 0
-15 -7 -20 -25 -20 -20 0 -25 -5 -25 -25 0 -20 5 -25 25 -25 18 0 25 5 25 20
0 13 9 22 25 26 16 4 25 13 25 25 0 14 7 19 25 19 18 0 25 -5 25 -19 0 -12 9
-21 25 -25 16 -4 25 -13 25 -25 0 -13 8 -21 23 -23 14 -2 23 -11 25 -25 2 -15
10 -23 23 -23 12 0 19 -7 18 -17 0 -11 -3 -13 -6 -5 -7 18 -23 14 -23 -6 0
-15 9 -19 45 -20 42 -2 45 0 45 23 0 18 5 25 20 25 15 0 20 -7 20 -25 0 -23 3
-25 45 -23 36 1 45 5 45 20 0 21 -11 23 -29 6 -10 -11 -12 -10 -9 2 2 9 -6 16
-19 18 -31 5 -33 52 -3 52 13 0 20 7 20 20 0 13 9 22 25 26 16 4 25 13 25 25
0 14 7 19 25 19 18 0 25 -5 25 -19 0 -11 4 -22 9 -25 16 -10 41 5 41 25 0 14
7 19 25 19 18 0 25 -5 25 -19 0 -12 9 -21 25 -25 16 -4 25 -13 25 -26 0 -13 7
-20 20 -20 15 0 20 -7 20 -25 0 -17 -6 -25 -16 -25 -9 0 -23 -8 -30 -17 -8
-11 -13 -13 -14 -5 0 20 -20 14 -20 -6 0 -15 9 -19 45 -20 42 -2 45 0 45 23 0
18 5 25 20 25 15 0 20 -7 20 -25 0 -21 5 -25 30 -25 25 0 30 4 30 25 0 18 5
25 20 25 15 0 20 7 20 25 0 18 -5 25 -20 25 -15 0 -20 7 -20 25 0 14 3 24 8
24 22 -4 32 3 32 21 0 30 47 28 52 -3 4 -30 42 -30 46 0 2 17 10 23 27 23 17
0 25 -6 27 -23 2 -14 11 -23 26 -25 14 -2 22 -10 22 -22 0 -12 8 -20 23 -22
14 -2 23 -11 25 -26 2 -13 10 -22 22 -22 10 0 20 -7 24 -15 3 -8 1 -15 -4 -15
-6 0 -10 5 -10 10 0 6 -4 10 -10 10 -5 0 -10 -8 -10 -18 0 -15 9 -19 45 -20
42 -2 45 0 45 23 0 18 5 25 20 25 15 0 20 -7 20 -25 0 -23 4 -25 45 -25 33 0
45 4 45 14 0 19 -20 32 -20 14 0 -8 -5 -6 -11 4 -5 10 -19 18 -29 18 -30 0
-27 48 3 52 13 2 22 10 22 20 0 10 3 18 8 18 4 0 14 0 22 0 8 0 15 -9 15 -20
0 -30 47 -28 52 2 2 15 10 23 23 23 13 0 21 8 23 23 5 31 49 31 54 -1 2 -12 9
-23 16 -23 6 -1 17 -2 22 -3 6 0 10 -10 10 -20 0 -13 8 -21 23 -23 14 -2 22
-10 22 -23 0 -13 8 -21 23 -23 16 -3 22 -10 22 -28 0 -22 4 -24 45 -22 29 1
45 6 45 14 0 18 -17 27 -23 12 -3 -8 -6 -6 -6 5 -1 10 6 17 18 17 13 0 21 8
23 23 2 14 11 23 25 25 14 2 23 11 25 25 2 14 11 23 26 25 14 2 22 10 22 23 0
29 48 26 52 -3 2 -15 11 -24 26 -26 14 -2 22 -10 22 -23 0 -14 7 -19 25 -19
20 0 25 5 25 25 0 20 -5 25 -25 25 -18 0 -25 5 -25 20 0 15 7 20 25 20 18 0
25 -5 25 -19 0 -12 9 -21 25 -25 16 -4 25 -13 25 -26 0 -13 7 -20 20 -20 15 0
20 -7 20 -25 0 -18 -5 -25 -20 -25 -15 0 -20 7 -20 25 0 20 -5 25 -25 25 -20
0 -25 -5 -25 -25 0 -18 5 -25 20 -25 13 0 20 -6 19 -17 0 -11 -3 -13 -6 -5 -7
18 -23 14 -23 -6 0 -15 9 -19 45 -20 42 -2 45 0 45 23 0 18 5 25 20 25 15 0
20 -7 20 -25 0 -23 3 -25 45 -23 29 1 45 6 45 14 0 18 -17 27 -23 12 -3 -8 -6
-6 -6 5 -1 11 6 17 19 17 15 0 20 7 20 25 0 20 -5 25 -25 25 -20 0 -25 -5 -25
-25 0 -18 -5 -25 -20 -25 -15 0 -20 7 -20 25 0 18 5 25 19 25 13 0 21 8 23 23
2 14 10 22 23 22 13 0 21 8 23 22 5 32 49 32 54 1 2 -15 10 -23 23 -23 13 0
21 8 23 23 5 31 49 31 54 -1 2 -14 10 -22 23 -22 13 0 21 -8 23 -22 2 -14 11
-23 25 -25 14 -2 23 -11 25 -25 2 -15 10 -23 23 -23 12 0 19 -7 18 -17 0 -11
-3 -13 -6 -5 -6 15 -23 6 -23 -12 0 -8 16 -13 45 -14 42 -2 45 0 45 23 0 18 5
25 20 25 15 0 20 -7 20 -25 0 -14 4 -25 8 -25 5 0 9 34 9 75 0 41 -4 75 -9 75
-4 0 -8 -11 -8 -25 0 -18 -5 -25 -20 -25 -15 0 -20 7 -20 26 0 19 4 25 14 21
32 -12 41 23 42 159 0 74 -3 134 -8 134 -4 0 -8 11 -8 25 0 14 4 25 8 25 10 0
10 236 0 246 -10 10 -10 44 0 44 7 0 9 927 2 940 -1 3 -1 10 0 15 8 30 7 175
-1 175 -5 0 -9 -11 -9 -25 0 -18 -5 -25 -20 -25 -14 0 -20 7 -20 24 0 17 5 23
17 22 12 0 19 7 21 22 2 12 8 22 13 22 12 0 12 46 -1 70 -6 10 -7 21 -2 24 6
3 9 478 3 574 -1 18 -7 22 -31 22 -25 0 -30 -4 -30 -25 0 -18 -5 -25 -20 -25
-15 0 -20 7 -20 25 0 20 -5 25 -25 25 -20 0 -25 -5 -25 -25 0 -18 5 -25 20
-25 15 0 20 -7 20 -25 0 -18 -5 -25 -19 -25 -13 0 -21 -8 -23 -22 -2 -15 -10
-23 -23 -23 -13 0 -21 -8 -23 -22 -5 -31 -52 -33 -52 -3 0 15 7 20 25 20 20 0
25 5 25 25 0 20 -5 25 -25 25 -18 0 -25 -5 -25 -19 0 -20 -25 -35 -41 -25 -5
3 -9 14 -9 25 0 14 -7 19 -25 19 -20 0 -25 -5 -25 -25 0 -20 5 -25 25 -25 18
0 25 -5 25 -20 0 -15 -7 -20 -25 -20 -18 0 -25 5 -25 20 0 11 -4 21 -10 21 -5
1 -16 2 -22 3 -7 0 -14 11 -16 23 -2 14 -11 23 -25 25 -14 2 -23 11 -25 26 -2
14 -10 22 -23 22 -14 0 -19 7 -19 25 0 21 -5 25 -30 25 -25 0 -30 -4 -30 -25
0 -18 -5 -25 -19 -25 -13 0 -21 -8 -23 -22 -2 -15 -11 -24 -25 -26 -14 -2 -23
-11 -25 -25 -2 -15 -9 -21 -21 -19 -10 2 -21 -6 -27 -20 -5 -13 -9 -17 -9 -10
-1 6 -7 12 -15 12 -8 0 -17 -6 -19 -12 -4 -8 -6 -7 -6 3 -2 32 -51 32 -51 1 0
-14 -2 -14 -9 -3 -5 7 -13 11 -19 7 -5 -3 -15 1 -22 9 -7 8 -21 15 -31 15 -12
0 -19 7 -19 20 0 13 -7 20 -20 20 -15 0 -20 7 -20 25 0 18 5 25 20 25 10 0 23
8 29 18 5 9 12 16 15 15 3 -2 7 0 9 4 1 4 -17 9 -40 11 -40 3 -43 2 -43 -22 0
-19 -5 -26 -20 -26 -15 0 -20 7 -20 25 0 34 -47 37 -52 3 -2 -15 -11 -24 -25
-26 -35 -5 -32 -52 2 -52 20 0 25 5 25 25 0 18 5 25 20 25 15 0 20 -7 20 -25
0 -18 -5 -25 -19 -25 -13 0 -21 -8 -23 -22 -2 -15 -9 -22 -20 -20 -9 1 -19 -2
-23 -8 -3 -5 -15 -10 -25 -10 -10 0 -21 -6 -23 -12 -4 -8 -6 -7 -6 3 -1 18
-27 33 -42 23 -5 -3 -9 -13 -9 -22 0 -14 -2 -14 -9 -3 -5 8 -16 11 -24 8 -9
-3 -17 -1 -19 4 -2 6 -12 11 -23 13 -12 2 -21 12 -23 24 -2 16 -10 22 -28 22
-19 0 -24 -5 -24 -25 0 -20 5 -25 25 -25 17 0 25 -5 24 -17 0 -11 -3 -13 -6
-5 -2 6 -11 12 -18 12 -8 0 -26 5 -40 12 -30 14 -34 48 -5 48 15 0 20 7 20 25
0 20 -5 25 -25 25 -20 0 -25 -5 -25 -25 0 -18 -5 -25 -20 -25 -30 0 -28 47 3
52 14 2 23 11 25 26 3 19 -1 22 -27 22 -26 0 -31 -4 -31 -25 0 -18 -5 -25 -19
-25 -13 0 -21 -8 -23 -22 -2 -15 -11 -24 -25 -26 -14 -2 -23 -11 -25 -25 -2
-15 -9 -21 -21 -19 -9 2 -20 -4 -23 -12 -3 -8 -12 -12 -21 -9 -8 3 -19 0 -24
-8 -7 -11 -9 -11 -9 2 0 32 -50 32 -50 1 0 -13 -2 -14 -8 -4 -5 7 -16 10 -24
7 -9 -4 -18 0 -21 9 -4 9 -16 16 -27 16 -13 0 -20 7 -20 20 0 13 -7 20 -19 20
-37 0 -34 44 3 51 12 3 20 13 21 27 1 18 -3 22 -27 22 -23 0 -28 -4 -28 -25 0
-18 -5 -25 -20 -25 -15 0 -20 7 -20 25 0 21 -5 25 -30 25 -25 0 -30 -4 -30
-25 0 -18 -5 -25 -19 -25 -13 0 -21 -8 -23 -22 -2 -15 -11 -24 -25 -26 -35 -5
-32 -52 2 -52 20 0 25 5 25 25 0 18 5 25 20 25 13 0 20 -7 20 -20 0 -11 -6
-20 -14 -20 -7 0 -19 -7 -26 -15 -7 -8 -17 -12 -22 -9 -6 4 -14 0 -19 -7 -7
-11 -9 -11 -9 2 0 23 -32 34 -45 16 -13 -17 -46 -18 -63 0 -7 7 -20 13 -28 13
-8 0 -14 9 -14 20 0 15 -7 20 -25 20 -20 0 -25 -5 -25 -25 0 -20 5 -25 25 -25
16 0 25 -6 25 -16 0 -13 -3 -14 -15 -4 -8 6 -18 9 -24 6 -5 -3 -11 1 -15 9 -3
8 -12 15 -21 15 -8 0 -15 9 -15 20 0 13 7 20 20 20 15 0 20 7 20 25 0 18 -5
25 -19 25 -13 0 -21 8 -23 23 -2 16 -11 23 -30 25 -24 3 -28 0 -28 -22 0 -19
-5 -26 -20 -26 -15 0 -20 7 -20 25 0 20 -5 25 -25 25 -20 0 -25 -5 -25 -25 0
-18 5 -25 20 -25 15 0 20 -7 20 -25 0 -18 -5 -25 -20 -25 -13 0 -20 -7 -20
-18 0 -25 -7 -31 -31 -25 -10 3 -19 14 -19 24 0 14 -7 19 -25 19 -20 0 -25 -5
-25 -25 0 -20 5 -25 25 -25 18 0 25 -5 25 -20 0 -30 -47 -28 -52 3 -2 14 -10
22 -23 22 -13 0 -21 -8 -23 -22 -2 -17 -10 -23 -27 -23 -17 0 -25 6 -27 23 -2
14 -10 22 -23 22 -13 0 -21 8 -23 23 -2 14 -10 22 -22 22 -12 0 -20 8 -22 23
-2 14 -11 23 -25 25 -17 3 -23 10 -23 28 0 20 -5 24 -30 24 -25 0 -30 -4 -30
-25z m50 -50 c0 -18 -5 -25 -20 -25 -15 0 -20 7 -20 25 0 18 5 25 20 25 15 0
20 -7 20 -25z m490 0 c0 -18 -5 -25 -20 -25 -15 0 -20 7 -20 25 0 18 5 25 20
25 15 0 20 -7 20 -25z m390 0 c0 -18 -5 -25 -20 -25 -15 0 -20 7 -20 25 0 18
5 25 20 25 15 0 20 -7 20 -25z m1370 0 c0 -18 -5 -25 -20 -25 -15 0 -20 7 -20
25 0 18 5 25 20 25 15 0 20 -7 20 -25z m490 0 c0 -18 -5 -25 -20 -25 -15 0
-20 7 -20 25 0 18 5 25 20 25 15 0 20 -7 20 -25z m-2790 -45 c0 -13 -7 -20
-20 -20 -13 0 -20 7 -20 20 0 13 7 20 20 20 13 0 20 -7 20 -20z m100 -5 c0
-20 5 -25 25 -25 18 0 25 -5 25 -20 0 -15 -7 -20 -25 -20 -19 0 -25 5 -25 21
0 12 -8 23 -20 26 -11 3 -20 14 -20 24 0 12 7 19 20 19 15 0 20 -7 20 -25z
m390 -1 c0 -20 -4 -25 -16 -20 -9 3 -18 6 -20 6 -2 0 -4 9 -4 20 0 13 7 20 20
20 15 0 20 -7 20 -26z m490 2 c0 -19 -4 -23 -20 -19 -11 3 -20 14 -20 24 0 12
7 19 20 19 14 0 20 -7 20 -24z m390 1 c0 -16 -6 -23 -20 -23 -14 0 -20 7 -20
23 0 16 6 23 20 23 14 0 20 -7 20 -23z m490 -1 c0 -19 -4 -23 -20 -19 -11 3
-20 14 -20 24 0 12 7 19 20 19 14 0 20 -7 20 -24z m390 4 c0 -13 -7 -20 -20
-20 -13 0 -20 7 -20 20 0 13 7 20 20 20 13 0 20 -7 20 -20z m100 -5 c0 -20 5
-25 25 -25 18 0 25 -5 25 -20 0 -30 -47 -28 -52 3 -2 14 -9 21 -21 21 -12 -1
-17 5 -17 22 0 17 6 24 20 24 15 0 20 -7 20 -25z m390 1 c0 -19 -4 -23 -20
-19 -11 3 -20 14 -20 24 0 12 7 19 20 19 14 0 20 -7 20 -24z m-2780 -46 c0
-15 -7 -20 -25 -20 -18 0 -25 5 -25 20 0 15 7 20 25 20 18 0 25 -5 25 -20z
m90 0 c0 -13 -7 -20 -20 -20 -13 0 -20 7 -20 20 0 13 7 20 20 20 13 0 20 -7
20 -20z m390 0 c0 -13 -7 -20 -20 -20 -13 0 -20 7 -20 20 0 13 7 20 20 20 13
0 20 -7 20 -20z m100 0 c0 -13 -7 -20 -20 -20 -13 0 -20 7 -20 20 0 13 7 20
20 20 13 0 20 -7 20 -20z m390 12 c0 -4 -9 -8 -20 -8 -11 0 -20 4 -20 8 0 4 9
8 20 8 11 0 20 -4 20 -8z m100 -1 c0 -6 -9 -9 -20 -8 -11 1 -20 5 -20 9 0 4 9
8 20 8 11 0 20 -4 20 -9z m290 1 c0 -4 -9 -8 -20 -8 -11 0 -20 4 -20 8 0 4 9
8 20 8 11 0 20 -4 20 -8z m100 0 c0 -4 -9 -8 -20 -8 -11 0 -20 4 -20 8 0 4 9
8 20 8 11 0 20 -4 20 -8z m390 0 c0 -4 -9 -8 -20 -8 -11 0 -20 4 -20 8 0 4 9
8 20 8 11 0 20 -4 20 -8z m100 -9 c0 -14 -2 -15 -9 -4 -5 7 -14 10 -20 7 -6
-4 -11 -2 -11 3 0 6 9 11 20 11 12 0 20 -7 20 -17z m293 11 c11 -11 -5 -34
-24 -34 -12 0 -19 7 -19 20 0 19 28 28 43 14z m97 -14 c0 -13 -7 -20 -20 -20
-13 0 -20 7 -20 20 0 13 7 20 20 20 13 0 20 -7 20 -20z m390 0 c0 -13 -7 -20
-20 -20 -13 0 -20 7 -20 20 0 13 7 20 20 20 13 0 20 -7 20 -20z m100 0 c0 -13
-7 -20 -20 -20 -13 0 -20 7 -20 20 0 13 7 20 20 20 13 0 20 -7 20 -20z m-2880
-50 c0 -15 -7 -20 -25 -20 -18 0 -25 5 -25 20 0 15 7 20 25 20 18 0 25 -5 25
-20z m90 0 c0 -13 -7 -20 -20 -20 -13 0 -20 7 -20 20 0 13 7 20 20 20 13 0 20
-7 20 -20z m100 0 c0 -13 -7 -20 -20 -20 -13 0 -20 7 -20 20 0 13 7 20 20 20
13 0 20 -7 20 -20z m100 0 c0 -15 -7 -20 -25 -20 -18 0 -25 5 -25 20 0 15 7
20 25 20 18 0 25 -5 25 -20z m100 0 c0 -15 -7 -20 -25 -20 -18 0 -25 5 -25 20
0 15 7 20 25 20 18 0 25 -5 25 -20z m100 0 c0 -15 -7 -20 -25 -20 -18 0 -25 5
-25 20 0 15 7 20 25 20 18 0 25 -5 25 -20z m80 13 c-8 -3 -18 -11 -22 -17 -5
-7 -8 -4 -8 7 0 11 7 17 23 16 15 0 17 -2 7 -6z m1733 -20 c67 -31 153 -117
191 -188 l31 -60 0 -805 0 -805 -32 -60 c-37 -71 -93 -133 -156 -169 -90 -53
-118 -54 -922 -52 -732 2 -741 2 -794 24 -111 44 -189 121 -233 229 l-23 58
-3 740 c-2 528 0 757 8 800 27 137 116 244 249 296 43 17 95 18 841 16 l795
-2 48 -22z m37 18 c0 -5 -9 -7 -20 -4 -11 3 -20 7 -20 9 0 2 9 4 20 4 11 0 20
-4 20 -9z m100 -11 c0 -13 -7 -20 -20 -20 -13 0 -20 7 -20 20 0 13 7 20 20 20
13 0 20 -7 20 -20z m100 0 c0 -15 -7 -20 -25 -20 -18 0 -25 5 -25 20 0 15 7
20 25 20 18 0 25 -5 25 -20z m100 0 c0 -15 -7 -20 -25 -20 -18 0 -25 5 -25 20
0 15 7 20 25 20 18 0 25 -5 25 -20z m90 16 c0 -2 3 -11 6 -20 5 -12 0 -16 -20
-16 -19 0 -26 5 -26 20 0 13 7 20 20 20 11 0 20 -2 20 -4z m100 -16 c0 -13 -7
-20 -20 -20 -13 0 -20 7 -20 20 0 13 7 20 20 20 13 0 20 -7 20 -20z m-2778
-52 c2 -13 10 -23 18 -23 8 0 16 -10 18 -22 3 -18 -2 -23 -17 -23 -16 0 -21 6
-21 25 0 20 -5 25 -25 25 -18 0 -25 5 -25 20 0 30 47 28 52 -2z m88 2 c0 -13
-7 -20 -20 -20 -13 0 -20 7 -20 20 0 13 7 20 20 20 13 0 20 -7 20 -20z m100 0
c0 -15 -7 -20 -25 -20 -20 0 -25 -5 -25 -25 0 -18 -5 -25 -20 -25 -15 0 -20 7
-20 26 0 19 4 25 15 21 13 -6 28 6 31 26 1 4 2 9 3 12 0 3 10 5 21 5 13 0 20
-7 20 -20z m102 -2 c2 -15 10 -23 23 -23 13 0 21 8 23 23 5 30 52 32 52 2 0
-15 -7 -20 -25 -20 -20 0 -25 -5 -25 -25 0 -17 6 -25 18 -26 10 0 12 -3 5 -6
-7 -2 -13 -13 -13 -24 0 -11 -11 -24 -25 -31 -19 -9 -22 -14 -14 -25 9 -10 7
-13 -6 -13 -14 0 -17 -7 -13 -42 3 -24 3 -35 1 -25 -3 10 -14 17 -29 17 -19 0
-24 -5 -24 -25 0 -20 5 -25 25 -25 18 0 25 -5 25 -20 0 -15 -7 -20 -25 -20
-18 0 -25 5 -25 20 0 15 -7 20 -25 20 -20 0 -25 -5 -25 -25 0 -20 5 -25 25
-25 18 0 25 -5 25 -20 0 -30 -47 -28 -52 3 -2 14 -11 23 -25 25 -15 2 -23 10
-23 23 0 12 -7 19 -20 19 -15 0 -20 7 -20 25 0 18 5 25 19 25 20 0 35 25 25
41 -3 5 -14 9 -25 9 -14 0 -19 7 -19 25 0 18 5 25 19 25 13 0 21 8 23 23 2 14
11 23 26 25 13 2 22 10 22 22 0 10 9 20 19 23 24 6 31 0 31 -25 0 -13 7 -18
25 -18 20 0 25 5 25 25 0 20 -5 25 -25 25 -18 0 -25 5 -25 20 0 30 47 28 52
-2z m168 18 c0 -3 -4 -8 -10 -11 -5 -3 -10 -1 -10 4 0 6 5 11 10 11 6 0 10 -2
10 -4z m1980 -16 c0 -13 -7 -20 -19 -20 -22 0 -35 15 -26 30 12 19 45 11 45
-10z m102 -2 c2 -13 9 -24 16 -24 6 -1 17 -2 22 -3 6 0 10 -10 10 -21 0 -15 7
-20 25 -20 20 0 25 5 25 25 0 20 -5 25 -25 25 -18 0 -25 5 -25 20 0 30 47 28
52 -2 2 -13 9 -24 16 -24 6 -1 17 -2 22 -3 6 0 10 -9 8 -18 -2 -12 4 -19 20
-21 29 -4 32 -52 3 -52 -20 0 -31 -17 -24 -37 3 -7 13 -13 24 -13 14 0 19 -7
19 -25 0 -18 -5 -25 -19 -25 -13 0 -21 -8 -23 -22 -2 -15 -11 -24 -25 -26 -14
-2 -23 -11 -25 -25 -2 -14 -10 -22 -23 -22 -13 0 -21 -8 -23 -22 -4 -30 -52
-33 -52 -3 0 10 -8 24 -17 29 -10 6 -12 11 -5 11 18 0 15 18 -5 23 -14 4 -12
5 5 6 17 1 22 7 22 26 0 20 -5 25 -25 25 -20 0 -25 5 -25 25 0 14 -4 25 -9 25
-5 0 -7 10 -3 22 3 14 2 19 -6 14 -7 -4 -12 -2 -12 3 0 6 7 11 15 11 9 0 15 9
15 25 0 20 -5 25 -25 25 -14 0 -25 -5 -25 -12 0 -6 -2 -9 -5 -7 -2 3 -1 18 4
35 5 19 14 29 27 29 12 0 20 8 22 23 2 16 10 22 27 22 17 0 25 -6 27 -22z
m188 2 c0 -13 -7 -20 -20 -20 -13 0 -20 7 -20 20 0 13 7 20 20 20 13 0 20 -7
20 -20z m100 0 c0 -13 -7 -20 -20 -20 -13 0 -20 7 -20 20 0 13 7 20 20 20 13
0 20 -7 20 -20z m-50 -47 c0 -16 -6 -23 -20 -23 -14 0 -20 7 -20 23 0 16 6 23
20 23 14 0 20 -7 20 -23z m-2690 -48 c0 -18 -5 -25 -20 -25 -15 0 -20 7 -20
25 0 18 5 25 20 25 15 0 20 -7 20 -25z m2740 0 c0 -18 -5 -25 -20 -25 -15 0
-20 7 -20 25 0 18 5 25 20 25 15 0 20 -7 20 -25z m-50 -50 c0 -18 -5 -25 -20
-25 -15 0 -20 7 -20 25 0 18 5 25 20 25 15 0 20 -7 20 -25z m-2690 -50 c0 -18
-5 -25 -20 -25 -15 0 -20 7 -20 25 0 18 5 25 20 25 15 0 20 -7 20 -25z m2740
0 c0 -18 -5 -25 -20 -25 -15 0 -20 7 -20 25 0 18 5 25 20 25 15 0 20 -7 20
-25z m-50 -50 c0 -18 -5 -25 -20 -25 -15 0 -20 7 -20 25 0 18 5 25 20 25 15 0
20 -7 20 -25z m-2690 -45 c0 -13 -7 -20 -20 -20 -13 0 -20 7 -20 20 0 13 7 20
20 20 13 0 20 -7 20 -20z m2640 1 c0 -10 -9 -21 -20 -24 -12 -3 -20 -14 -20
-26 0 -16 -6 -21 -25 -21 -18 0 -25 5 -25 20 0 15 7 20 25 20 20 0 25 5 25 25
0 18 5 25 20 25 13 0 20 -7 20 -19z m100 1 c0 -24 -8 -32 -26 -25 -22 8 -17
43 6 43 13 0 20 -7 20 -18z m-2790 -52 c0 -13 -7 -20 -20 -20 -13 0 -20 7 -20
20 0 13 7 20 20 20 13 0 20 -7 20 -20z m100 0 c0 -13 -7 -20 -20 -20 -13 0
-20 7 -20 20 0 13 7 20 20 20 13 0 20 -7 20 -20z m157 -12 c-3 -7 -5 -2 -5 12
0 14 2 19 5 13 2 -7 2 -19 0 -25z m2483 12 c0 -13 -7 -20 -20 -20 -13 0 -20 7
-20 20 0 13 7 20 20 20 13 0 20 -7 20 -20z m-2787 -50 c4 -16 0 -20 -19 -20
-17 0 -24 6 -24 20 0 13 7 20 19 20 10 0 21 -9 24 -20z m97 0 c0 -13 -7 -20
-20 -20 -13 0 -20 7 -20 20 0 13 7 20 20 20 13 0 20 -7 20 -20z m100 0 c0 -15
-7 -20 -25 -20 -18 0 -25 5 -25 20 0 15 7 20 25 20 18 0 25 -5 25 -20z m100 0
c0 -15 -7 -20 -25 -20 -18 0 -25 5 -25 20 0 15 7 20 25 20 18 0 25 -5 25 -20z
m2250 0 c0 -13 -6 -20 -17 -19 -11 0 -13 3 -5 6 17 7 15 21 -5 26 -14 4 -12 5
5 6 16 1 22 -5 22 -19z m100 0 c0 -15 -7 -20 -25 -20 -18 0 -25 5 -25 20 0 15
7 20 25 20 18 0 25 -5 25 -20z m90 0 c0 -13 -7 -20 -20 -20 -13 0 -20 7 -20
20 0 13 7 20 20 20 13 0 20 -7 20 -20z m100 0 c0 -13 -7 -20 -20 -20 -13 0
-20 7 -20 20 0 13 7 20 20 20 13 0 20 -7 20 -20z m-2790 -50 c0 -13 -7 -20
-20 -20 -13 0 -20 7 -20 20 0 13 7 20 20 20 13 0 20 -7 20 -20z m100 0 c0 -13
-7 -20 -20 -20 -13 0 -20 7 -20 20 0 13 7 20 20 20 13 0 20 -7 20 -20z m100 0
c0 -15 -7 -20 -25 -20 -20 0 -25 -5 -25 -25 0 -20 5 -25 25 -25 18 0 25 5 25
18 0 25 7 31 31 25 29 -8 25 -43 -6 -43 -20 0 -25 -5 -25 -25 0 -34 47 -37 52
-2 2 12 3 -9 3 -48 0 -38 -1 -60 -3 -47 -5 34 -52 31 -52 -3 0 -20 5 -25 24
-25 18 0 25 -6 28 -28 4 -26 2 -28 -24 -24 -25 4 -28 1 -28 -22 0 -21 5 -26
25 -26 18 0 25 -5 25 -20 0 -30 -47 -28 -52 3 -2 14 -11 23 -25 25 -15 2 -23
10 -23 23 0 12 -7 19 -19 19 -13 0 -21 8 -23 23 -2 14 -11 23 -25 25 -30 4
-33 52 -4 52 13 0 21 8 23 23 2 14 11 23 26 25 34 5 31 52 -3 52 -20 0 -25 -5
-25 -25 0 -18 -5 -25 -20 -25 -30 0 -28 47 3 52 14 2 21 9 21 21 -1 9 2 18 7
18 5 1 15 2 22 3 6 0 13 11 15 24 5 30 52 32 52 2z m57 -12 c-3 -7 -5 -2 -5
12 0 14 2 19 5 13 2 -7 2 -19 0 -25z m2293 13 c0 -20 25 -35 41 -25 5 3 9 14
9 25 0 29 48 26 52 -3 2 -13 10 -23 18 -23 8 0 16 -10 18 -22 3 -18 -2 -23
-17 -23 -16 0 -21 6 -21 25 0 20 -5 25 -25 25 -34 0 -37 -47 -2 -52 14 -2 23
-11 25 -25 2 -15 10 -23 23 -23 14 0 19 -7 19 -25 0 -18 -5 -25 -20 -25 -15 0
-20 -7 -20 -25 0 -18 5 -25 20 -25 15 0 20 -7 20 -25 0 -18 -5 -25 -19 -25
-13 0 -21 -8 -23 -22 -2 -15 -10 -23 -23 -23 -13 0 -21 -8 -23 -22 -5 -31 -52
-33 -52 -3 0 15 7 20 25 20 20 0 25 5 25 25 0 20 -5 25 -25 25 -18 0 -25 -5
-25 -19 0 -12 -9 -21 -25 -25 -16 -4 -25 -13 -25 -26 0 -12 -7 -20 -17 -20
-15 0 -16 2 -3 10 13 9 13 11 0 20 -13 8 -12 10 3 10 11 0 17 8 17 25 0 16 -6
25 -15 25 -8 0 -15 5 -15 10 0 6 5 10 10 10 17 0 11 18 -7 23 -14 4 -12 5 5 6
17 1 22 7 22 26 0 19 -5 25 -22 25 -21 1 -21 2 -5 11 9 5 17 14 17 19 0 5 -8
11 -17 13 -14 4 -12 5 5 6 17 1 22 7 22 26 0 19 -5 25 -22 26 -17 1 -19 2 -5
6 20 5 22 19 5 26 -8 3 -6 6 5 6 11 1 17 -6 17 -19 0 -15 7 -20 25 -20 20 0
25 5 25 25 0 20 -5 25 -25 25 -18 0 -25 5 -25 20 0 15 7 20 25 20 18 0 25 -5
25 -19z m190 -1 c0 -13 -7 -20 -20 -20 -13 0 -20 7 -20 20 0 13 7 20 20 20 13
0 20 -7 20 -20z m-2690 -45 c0 -18 -5 -25 -20 -25 -15 0 -20 7 -20 25 0 18 5
25 20 25 15 0 20 -7 20 -25z m2690 -50 c0 -18 -5 -25 -20 -25 -15 0 -20 7 -20
25 0 18 5 25 20 25 15 0 20 -7 20 -25z m-2690 -50 c0 -18 -5 -25 -20 -25 -15
0 -20 7 -20 25 0 18 5 25 20 25 15 0 20 -7 20 -25z m2740 0 c0 -18 -5 -25 -20
-25 -15 0 -20 7 -20 25 0 18 5 25 20 25 15 0 20 -7 20 -25z m-50 -50 c0 -18
-5 -25 -20 -25 -15 0 -20 7 -20 25 0 18 5 25 20 25 15 0 20 -7 20 -25z m-2690
-50 c0 -18 -5 -25 -20 -25 -15 0 -20 7 -20 25 0 18 5 25 20 25 15 0 20 -7 20
-25z m2740 0 c0 -18 -5 -25 -20 -25 -15 0 -20 7 -20 25 0 18 5 25 20 25 15 0
20 -7 20 -25z m-2790 -45 c0 -13 -7 -20 -20 -20 -13 0 -20 7 -20 20 0 13 7 20
20 20 13 0 20 -7 20 -20z m100 -5 c0 -20 5 -25 25 -25 18 0 25 -5 25 -20 0
-15 -7 -20 -25 -20 -19 0 -25 5 -25 21 0 12 -8 23 -20 26 -11 3 -20 14 -20 24
0 12 7 19 20 19 15 0 20 -7 20 -25z m2640 5 c0 -13 -7 -20 -20 -20 -13 0 -20
7 -20 20 0 13 7 20 20 20 13 0 20 -7 20 -20z m-2785 -50 c0 -8 -10 -16 -22
-18 -18 -3 -23 2 -23 18 0 16 5 21 23 18 12 -2 22 -10 22 -18z m95 0 c0 -13
-7 -20 -20 -20 -13 0 -20 7 -20 20 0 13 7 20 20 20 13 0 20 -7 20 -20z m2640
0 c0 -13 -7 -20 -20 -20 -13 0 -20 7 -20 20 0 13 7 20 20 20 13 0 20 -7 20
-20z m100 0 c0 -13 -7 -20 -20 -20 -13 0 -20 7 -20 20 0 13 7 20 20 20 13 0
20 -7 20 -20z m-2880 -50 c0 -15 -7 -20 -25 -20 -18 0 -25 5 -25 20 0 15 7 20
25 20 18 0 25 -5 25 -20z m90 0 c0 -13 -7 -20 -20 -20 -13 0 -20 7 -20 20 0
13 7 20 20 20 13 0 20 -7 20 -20z m100 0 c0 -13 -7 -20 -20 -20 -13 0 -20 7
-20 20 0 13 7 20 20 20 13 0 20 -7 20 -20z m100 0 c0 -15 -7 -20 -25 -20 -18
0 -25 5 -25 20 0 15 7 20 25 20 18 0 25 -5 25 -20z m57 -12 c-3 -7 -5 -2 -5
12 0 14 2 19 5 13 2 -7 2 -19 0 -25z m2293 12 c0 -15 -7 -20 -25 -20 -18 0
-25 5 -25 20 0 15 7 20 25 20 18 0 25 -5 25 -20z m100 0 c0 -15 -7 -20 -25
-20 -18 0 -25 5 -25 20 0 15 7 20 25 20 18 0 25 -5 25 -20z m90 0 c0 -13 -7
-20 -20 -20 -13 0 -20 7 -20 20 0 13 7 20 20 20 13 0 20 -7 20 -20z m-2778
-52 c2 -13 10 -23 18 -23 8 0 16 -10 18 -22 3 -18 -2 -23 -17 -23 -16 0 -21 6
-21 25 0 20 -5 25 -25 25 -18 0 -25 5 -25 20 0 30 47 28 52 -2z m88 2 c0 -13
-7 -20 -20 -20 -13 0 -20 7 -20 20 0 13 7 20 20 20 13 0 20 -7 20 -20z m100 0
c0 -15 -7 -20 -25 -20 -20 0 -25 -5 -25 -25 0 -19 -5 -25 -21 -25 -15 0 -20 5
-17 23 2 12 10 22 18 22 8 0 16 10 18 23 5 30 52 32 52 2z m100 0 c0 -15 -7
-20 -25 -20 -18 0 -25 5 -25 20 0 15 7 20 25 20 18 0 25 -5 25 -20z m2252 -2
c2 -15 11 -24 26 -26 14 -2 22 -10 22 -23 0 -14 7 -19 25 -19 20 0 25 5 25 25
0 20 -5 25 -25 25 -18 0 -25 5 -25 20 0 30 47 28 52 -2 2 -15 11 -24 26 -26
14 -2 22 -10 22 -23 0 -12 7 -19 20 -19 15 0 20 -7 20 -25 0 -18 -5 -25 -20
-25 -15 0 -20 -7 -20 -25 0 -18 5 -25 20 -25 15 0 20 -7 20 -25 0 -18 -5 -25
-19 -25 -13 0 -21 -8 -23 -22 -2 -15 -11 -24 -25 -26 -14 -2 -23 -11 -25 -25
-2 -14 -10 -22 -23 -22 -13 0 -21 -8 -23 -22 -5 -31 -52 -33 -52 -3 0 15 7 20
25 20 20 0 25 5 25 25 0 20 -5 25 -25 25 -18 0 -25 -5 -25 -20 0 -13 -6 -20
-17 -19 -11 0 -13 3 -5 6 17 7 15 21 -5 26 -14 4 -12 5 5 6 17 1 22 7 22 26 0
17 -6 25 -17 25 -16 0 -16 2 -3 10 13 9 12 12 -4 25 -19 15 -19 15 2 15 32 0
32 50 0 51 -17 1 -19 2 -5 6 20 5 22 14 5 31 -9 9 -8 12 5 12 11 0 17 8 17 25
0 19 -5 25 -22 26 -17 1 -19 2 -5 6 20 5 22 19 5 26 -8 3 -7 6 4 6 10 1 18 -8
20 -21z m188 2 c0 -13 -7 -20 -20 -20 -13 0 -20 7 -20 20 0 13 7 20 20 20 13
0 20 -7 20 -20z m100 0 c0 -13 -7 -20 -20 -20 -13 0 -20 7 -20 20 0 13 7 20
20 20 13 0 20 -7 20 -20z m-2590 -51 c0 -29 48 -26 52 4 2 12 4 -23 3 -78 l0
-101 -27 4 c-25 4 -28 1 -28 -22 0 -21 5 -26 25 -26 31 0 35 -35 6 -43 -24 -6
-31 0 -31 25 0 13 -7 18 -25 18 -20 0 -25 -5 -25 -25 0 -20 5 -25 25 -25 18 0
25 -5 25 -20 0 -30 -47 -28 -52 3 -2 14 -11 23 -25 25 -15 2 -23 10 -23 23 0
12 -7 19 -20 19 -15 0 -20 7 -20 25 0 18 5 25 20 25 15 0 20 -7 20 -25 0 -20
5 -25 25 -25 34 0 37 47 3 52 -15 2 -24 11 -26 26 -2 14 -10 22 -23 22 -14 0
-19 7 -19 25 0 18 5 25 20 25 13 0 22 9 26 25 4 16 13 25 25 25 12 0 19 7 19
18 0 25 7 31 31 25 10 -3 19 -14 19 -24z m2540 6 c0 -18 -5 -25 -20 -25 -15 0
-20 7 -20 25 0 18 5 25 20 25 15 0 20 -7 20 -25z m-2690 -50 c0 -18 -5 -25
-20 -25 -15 0 -20 7 -20 25 0 18 5 25 20 25 15 0 20 -7 20 -25z m2740 0 c0
-18 -5 -25 -20 -25 -15 0 -20 7 -20 25 0 18 5 25 20 25 15 0 20 -7 20 -25z
m-50 -50 c0 -18 -5 -25 -20 -25 -15 0 -20 7 -20 25 0 18 5 25 20 25 15 0 20
-7 20 -25z m-2690 -50 c0 -18 -5 -25 -20 -25 -15 0 -20 7 -20 25 0 18 5 25 20
25 15 0 20 -7 20 -25z m2740 0 c0 -18 -5 -25 -20 -25 -15 0 -20 7 -20 25 0 18
5 25 20 25 15 0 20 -7 20 -25z m-50 -50 c0 -18 -5 -25 -20 -25 -15 0 -20 7
-20 25 0 18 5 25 20 25 15 0 20 -7 20 -25z m-2690 -44 c0 -10 -9 -21 -20 -24
-16 -4 -20 0 -20 19 0 17 6 24 20 24 13 0 20 -7 20 -19z m2640 0 c0 -11 -9
-23 -20 -26 -11 -3 -20 -15 -20 -26 0 -14 -7 -19 -25 -19 -18 0 -25 5 -25 20
0 15 7 20 25 20 20 0 25 5 25 25 0 18 5 25 20 25 13 0 20 -7 20 -19z m100 -5
c0 -19 -4 -23 -20 -19 -11 3 -20 14 -20 24 0 12 7 19 20 19 14 0 20 -7 20 -24z
m-2790 -46 c0 -13 -7 -20 -20 -20 -13 0 -20 7 -20 20 0 13 7 20 20 20 13 0 20
-7 20 -20z m100 0 c0 -13 -7 -20 -20 -20 -13 0 -20 7 -20 20 0 13 7 20 20 20
13 0 20 -7 20 -20z m2640 0 c0 -13 -7 -20 -20 -20 -13 0 -20 7 -20 20 0 13 7
20 20 20 13 0 20 -7 20 -20z m-2780 -50 c0 -15 -7 -20 -25 -20 -18 0 -25 5
-25 20 0 15 7 20 25 20 18 0 25 -5 25 -20z m90 0 c0 -13 -7 -20 -20 -20 -13 0
-20 7 -20 20 0 13 7 20 20 20 13 0 20 -7 20 -20z m100 0 c0 -15 -7 -20 -25
-20 -18 0 -25 5 -25 20 0 15 7 20 25 20 18 0 25 -5 25 -20z m100 0 c0 -15 -7
-20 -25 -20 -18 0 -25 5 -25 20 0 15 7 20 25 20 18 0 25 -5 25 -20z m2250 0
c0 -13 -6 -20 -17 -19 -11 0 -13 3 -5 6 17 7 15 21 -5 26 -14 4 -12 5 5 6 16
1 22 -5 22 -19z m100 0 c0 -15 -7 -20 -25 -20 -18 0 -25 5 -25 20 0 15 7 20
25 20 18 0 25 -5 25 -20z m90 0 c0 -13 -7 -20 -20 -20 -13 0 -20 7 -20 20 0
13 7 20 20 20 13 0 20 -7 20 -20z m100 0 c0 -13 -7 -20 -20 -20 -13 0 -20 7
-20 20 0 13 7 20 20 20 13 0 20 -7 20 -20z m-2790 -50 c0 -13 -7 -20 -20 -20
-13 0 -20 7 -20 20 0 13 7 20 20 20 13 0 20 -7 20 -20z m100 0 c0 -13 -7 -20
-20 -20 -13 0 -20 7 -20 20 0 13 7 20 20 20 13 0 20 -7 20 -20z m100 0 c0 -15
-7 -20 -25 -20 -20 0 -25 -5 -25 -25 0 -20 5 -25 25 -25 18 0 25 5 25 20 0 15
7 20 25 20 18 0 25 -5 25 -20 0 -15 -7 -20 -25 -20 -20 0 -25 -5 -25 -25 0
-34 47 -37 52 -2 2 12 4 -4 4 -35 -1 -32 -2 -53 -4 -48 -2 6 -15 10 -28 10
-19 0 -24 -5 -24 -25 0 -20 5 -25 24 -25 18 0 25 -6 28 -28 4 -26 2 -28 -24
-24 -25 4 -28 1 -28 -22 0 -21 5 -26 25 -26 18 0 25 -5 25 -20 0 -30 -47 -28
-52 3 -2 14 -11 23 -25 25 -15 2 -23 10 -23 22 0 12 -8 20 -22 22 -15 2 -24
11 -26 26 -2 14 -10 22 -23 22 -14 0 -19 7 -19 25 0 18 5 25 19 25 13 0 21 8
23 23 2 14 11 23 26 25 34 5 31 52 -3 52 -20 0 -25 -5 -25 -25 0 -18 -5 -25
-20 -25 -30 0 -28 47 3 52 14 2 22 10 22 23 0 13 7 20 20 20 13 0 21 8 23 23
5 30 52 32 52 2z m2350 1 c0 -12 9 -21 25 -25 16 -4 25 -13 25 -25 0 -13 8
-21 23 -23 14 -2 23 -11 25 -25 2 -15 10 -23 23 -23 14 0 19 -7 19 -25 0 -18
-5 -25 -18 -25 -25 0 -31 -7 -25 -31 3 -10 14 -19 24 -19 14 0 19 -7 19 -25 0
-18 -5 -25 -19 -25 -13 0 -21 -8 -23 -22 -2 -15 -10 -23 -23 -23 -13 0 -21 -8
-23 -22 -5 -31 -52 -33 -52 -3 0 15 7 20 25 20 20 0 25 5 25 25 0 20 -5 25
-25 25 -18 0 -25 -5 -25 -19 0 -12 -9 -21 -25 -25 -16 -4 -25 -13 -25 -26 0
-14 -6 -20 -22 -19 -17 1 -19 2 -5 6 20 5 22 19 5 26 -8 3 -6 6 5 6 22 1 24
51 2 51 -18 0 -20 20 -2 20 7 0 4 7 -7 15 -19 15 -19 15 2 15 32 0 32 50 0 51
-17 1 -19 2 -5 6 9 2 17 11 17 18 0 7 -8 16 -17 18 -14 4 -12 5 5 6 17 1 22 7
22 26 0 17 -6 25 -17 25 -15 0 -16 2 -3 10 12 8 13 12 2 19 -11 7 -11 9 2 14
9 4 16 16 16 27 0 15 7 20 25 20 18 0 25 -5 25 -19z m100 -1 c0 -13 7 -20 20
-20 15 0 20 -7 20 -25 0 -18 -5 -25 -20 -25 -15 0 -20 7 -20 25 0 20 -5 25
-25 25 -18 0 -25 5 -25 20 0 15 7 20 25 20 18 0 25 -5 25 -20z m90 0 c0 -13
-7 -20 -20 -20 -13 0 -20 7 -20 20 0 13 7 20 20 20 13 0 20 -7 20 -20z m-2690
-45 c0 -18 -5 -25 -20 -25 -15 0 -20 7 -20 25 0 18 5 25 20 25 15 0 20 -7 20
-25z m2740 -2 c0 -16 -6 -23 -20 -23 -14 0 -20 7 -20 23 0 16 6 23 20 23 14 0
20 -7 20 -23z m-50 -48 c0 -18 -5 -25 -20 -25 -15 0 -20 7 -20 25 0 18 5 25
20 25 15 0 20 -7 20 -25z m-2690 -50 c0 -18 -5 -25 -20 -25 -15 0 -20 7 -20
25 0 18 5 25 20 25 15 0 20 -7 20 -25z m2740 0 c0 -18 -5 -25 -20 -25 -15 0
-20 7 -20 25 0 18 5 25 20 25 15 0 20 -7 20 -25z m-50 -50 c0 -18 -5 -25 -20
-25 -15 0 -20 7 -20 25 0 18 5 25 20 25 15 0 20 -7 20 -25z m-2690 -50 c0 -18
-5 -25 -20 -25 -15 0 -20 7 -20 25 0 18 5 25 20 25 15 0 20 -7 20 -25z m2740
0 c0 -18 -5 -25 -20 -25 -15 0 -20 7 -20 25 0 18 5 25 20 25 15 0 20 -7 20
-25z m-2790 -43 c0 -11 -11 -24 -25 -30 -14 -6 -25 -18 -25 -27 0 -8 -9 -15
-20 -15 -13 0 -20 7 -20 20 0 15 7 20 25 20 20 0 25 5 25 25 0 18 5 25 20 25
13 0 20 -7 20 -18z m100 -1 c0 -19 -23 -35 -34 -24 -14 15 -5 43 14 43 13 0
20 -7 20 -19z m2640 -1 c0 -13 -7 -20 -20 -20 -13 0 -20 7 -20 20 0 13 7 20
20 20 13 0 20 -7 20 -20z m-2690 -50 c0 -13 -7 -20 -20 -20 -13 0 -20 7 -20
20 0 13 7 20 20 20 13 0 20 -7 20 -20z m100 0 c0 -13 -7 -20 -19 -20 -10 0
-21 9 -24 20 -4 16 0 20 19 20 17 0 24 -6 24 -20z m2540 0 c0 -13 -7 -20 -20
-20 -13 0 -20 7 -20 20 0 13 7 20 20 20 13 0 20 -7 20 -20z m100 0 c0 -13 -7
-20 -20 -20 -13 0 -20 7 -20 20 0 13 7 20 20 20 13 0 20 -7 20 -20z m-2880
-50 c0 -15 -7 -20 -25 -20 -18 0 -25 5 -25 20 0 15 7 20 25 20 18 0 25 -5 25
-20z m90 0 c0 -13 -7 -20 -20 -20 -13 0 -20 7 -20 20 0 13 7 20 20 20 13 0 20
-7 20 -20z m100 0 c0 -13 -7 -20 -20 -20 -13 0 -20 7 -20 20 0 13 7 20 20 20
13 0 20 -7 20 -20z m100 0 c0 -15 -7 -20 -25 -20 -18 0 -25 5 -25 20 0 15 7
20 25 20 18 0 25 -5 25 -20z m2350 0 c0 -15 -7 -20 -25 -20 -18 0 -25 5 -25
20 0 15 7 20 25 20 18 0 25 -5 25 -20z m100 0 c0 -15 -7 -20 -25 -20 -18 0
-25 5 -25 20 0 15 7 20 25 20 18 0 25 -5 25 -20z m90 0 c0 -13 -7 -20 -20 -20
-13 0 -20 7 -20 20 0 13 7 20 20 20 13 0 20 -7 20 -20z m-2778 -52 c2 -16 9
-22 21 -20 12 2 17 -4 17 -23 0 -18 -5 -25 -20 -25 -15 0 -20 7 -20 25 0 20
-5 25 -25 25 -18 0 -25 5 -25 20 0 30 47 28 52 -2z m88 2 c0 -13 -7 -20 -20
-20 -13 0 -20 7 -20 20 0 13 7 20 20 20 13 0 20 -7 20 -20z m100 0 c0 -15 -7
-20 -25 -20 -20 0 -25 -5 -25 -25 0 -18 -5 -25 -20 -25 -15 0 -20 7 -20 25 0
19 5 25 17 23 11 -2 22 6 28 20 12 28 45 30 45 2z m100 0 c0 -15 -7 -20 -25
-20 -18 0 -25 5 -25 20 0 15 7 20 25 20 18 0 25 -5 25 -20z m2250 0 c0 -13 9
-22 25 -26 16 -4 25 -13 25 -25 0 -14 7 -19 25 -19 20 0 25 5 25 25 0 20 -5
25 -25 25 -18 0 -25 5 -25 20 0 15 7 20 25 20 18 0 25 -5 25 -20 0 -13 9 -22
25 -26 16 -4 24 -12 23 -23 -2 -10 5 -17 20 -19 30 -5 32 -52 2 -52 -15 0 -20
-7 -20 -25 0 -18 5 -25 20 -25 15 0 20 -7 20 -25 0 -18 -5 -25 -19 -25 -13 0
-21 -8 -23 -22 -2 -15 -11 -24 -25 -26 -14 -2 -23 -11 -25 -25 -2 -14 -10 -22
-23 -22 -13 0 -21 -8 -23 -22 -5 -31 -52 -33 -52 -3 0 11 -4 21 -10 21 -5 1
-16 2 -22 3 -7 0 -14 11 -16 24 -5 34 -52 31 -52 -3 0 -20 5 -25 25 -25 18 0
25 -5 25 -20 0 -15 -7 -20 -25 -20 -19 0 -25 5 -25 21 0 12 -8 23 -20 26 -11
3 -20 14 -20 24 0 12 7 19 20 19 31 0 28 50 -2 51 -13 0 -17 3 -10 6 7 3 17
16 22 29 6 15 18 24 30 24 18 0 19 3 10 20 -9 16 -8 20 6 20 12 0 15 7 12 30
-3 19 -1 27 5 21 16 -16 47 0 47 25 0 18 -6 24 -22 25 -17 1 -19 2 -5 6 9 2
17 8 17 13 0 5 -8 11 -17 13 -14 4 -12 5 5 6 16 1 22 -5 22 -19z m190 0 c0
-13 -7 -20 -20 -20 -13 0 -20 7 -20 20 0 13 7 20 20 20 13 0 20 -7 20 -20z
m100 0 c0 -13 -7 -20 -20 -20 -13 0 -20 7 -20 20 0 13 7 20 20 20 13 0 20 -7
20 -20z m-2590 -51 c0 -30 50 -26 51 4 0 21 1 21 8 2 5 -11 4 -21 0 -23 -5 -2
-9 -14 -9 -27 0 -17 6 -25 23 -27 14 -2 23 -11 25 -25 2 -13 7 -23 12 -23 5 0
7 -6 4 -14 -3 -9 3 -17 16 -21 12 -4 25 -18 31 -31 5 -14 13 -22 19 -19 5 3
10 1 10 -4 0 -6 -9 -11 -19 -11 -13 0 -21 -8 -23 -22 -2 -15 -10 -23 -23 -23
-13 0 -21 -8 -23 -22 -5 -31 -52 -33 -52 -3 0 11 -4 21 -10 21 -5 1 -16 2 -22
3 -7 0 -14 11 -16 24 -5 34 -52 31 -52 -3 0 -20 5 -25 25 -25 18 0 25 -5 25
-20 0 -15 -7 -20 -25 -20 -18 0 -25 5 -25 20 0 13 -9 22 -25 26 -16 4 -25 13
-25 25 0 12 -7 19 -20 19 -15 0 -20 7 -20 25 0 18 5 25 20 25 15 0 20 -7 20
-25 0 -20 5 -25 25 -25 34 0 37 47 3 52 -15 2 -24 11 -26 26 -2 14 -10 22 -23
22 -14 0 -19 7 -19 25 0 18 5 25 19 25 13 0 21 8 23 23 2 14 11 23 26 25 14 2
22 10 22 22 0 10 6 20 13 23 20 7 37 -4 37 -24z m2540 5 c0 -17 -5 -24 -20
-24 -14 0 -20 7 -20 23 0 16 6 23 20 24 15 1 20 -4 20 -23z m-2690 -49 c0 -18
-5 -25 -20 -25 -15 0 -20 7 -20 25 0 18 5 25 20 25 15 0 20 -7 20 -25z m2740
0 c0 -18 -5 -25 -20 -25 -15 0 -20 7 -20 25 0 18 5 25 20 25 15 0 20 -7 20
-25z m-50 -50 c0 -18 -5 -25 -20 -25 -15 0 -20 7 -20 25 0 18 5 25 20 25 15 0
20 -7 20 -25z m-2690 -50 c0 -18 -5 -25 -20 -25 -15 0 -20 7 -20 25 0 18 5 25
20 25 15 0 20 -7 20 -25z m2740 0 c0 -18 -5 -25 -20 -25 -15 0 -20 7 -20 25 0
18 5 25 20 25 15 0 20 -7 20 -25z m-50 -50 c0 -18 -5 -25 -20 -25 -15 0 -20 7
-20 25 0 18 5 25 20 25 15 0 20 -7 20 -25z m-390 -5 c0 -11 -7 -20 -15 -20
-13 0 -13 3 -3 20 7 11 14 20 15 20 2 0 3 -9 3 -20z m-2300 -40 c0 -13 -7 -20
-20 -20 -13 0 -20 7 -20 20 0 13 7 20 20 20 13 0 20 -7 20 -20z m363 3 c-5
-12 -2 -15 10 -10 9 3 17 2 17 -3 0 -5 -9 -12 -20 -15 -11 -3 -20 -15 -20 -26
0 -14 -7 -19 -25 -19 -18 0 -25 5 -25 20 0 15 7 20 25 20 20 0 25 5 25 25 0
14 4 25 10 25 5 0 6 -8 3 -17z m1887 -3 c0 -11 -4 -20 -9 -20 -5 0 -7 9 -4 20
3 11 7 20 9 20 2 0 4 -9 4 -20z m390 1 c0 -10 -9 -21 -20 -24 -12 -3 -20 -14
-20 -26 0 -16 -6 -21 -25 -21 -18 0 -25 5 -25 20 0 15 7 20 25 20 20 0 25 5
25 25 0 18 5 25 20 25 13 0 20 -7 20 -19z m100 -5 c0 -19 -4 -23 -20 -19 -11
3 -20 14 -20 24 0 12 7 19 20 19 14 0 20 -7 20 -24z m-2790 -46 c0 -13 -7 -20
-20 -20 -13 0 -20 7 -20 20 0 13 7 20 20 20 13 0 20 -7 20 -20z m100 0 c0 -13
-7 -20 -20 -20 -13 0 -20 7 -20 20 0 13 7 20 20 20 13 0 20 -7 20 -20z m390 0
c0 -13 -7 -20 -20 -20 -13 0 -20 7 -20 20 0 13 7 20 20 20 13 0 20 -7 20 -20z
m1760 0 c0 -13 -7 -20 -20 -20 -13 0 -20 7 -20 20 0 13 7 20 20 20 13 0 20 -7
20 -20z m100 0 c0 -14 -6 -20 -22 -19 -18 1 -19 2 -5 6 9 2 15 9 11 14 -3 5
-10 7 -15 4 -5 -4 -9 -1 -9 4 0 6 9 11 20 11 13 0 20 -7 20 -20z m390 0 c0
-13 -7 -20 -20 -20 -13 0 -20 7 -20 20 0 13 7 20 20 20 13 0 20 -7 20 -20z
m-2150 -16 c0 -2 -9 -4 -20 -4 -11 0 -20 4 -20 9 0 5 9 7 20 4 11 -3 20 -7 20
-9z m1563 -1 c-7 -2 -21 -2 -30 0 -10 3 -4 5 12 5 17 0 24 -2 18 -5z m-2200
-19 c11 -11 -5 -34 -24 -34 -12 0 -19 7 -19 20 0 19 28 28 43 14z m97 -14 c0
-13 -7 -20 -20 -20 -13 0 -20 7 -20 20 0 13 7 20 20 20 13 0 20 -7 20 -20z
m100 0 c0 -13 -7 -20 -18 -20 -24 0 -32 8 -25 26 8 22 43 17 43 -6z m100 0 c0
-15 -7 -20 -25 -20 -18 0 -25 5 -25 20 0 15 7 20 25 20 18 0 25 -5 25 -20z
m100 0 c0 -15 -7 -20 -25 -20 -18 0 -25 5 -25 20 0 15 7 20 25 20 18 0 25 -5
25 -20z m90 0 c0 -13 -7 -20 -20 -20 -13 0 -20 7 -20 20 0 13 7 20 20 20 13 0
20 -7 20 -20z m100 0 c0 -13 -7 -20 -20 -20 -13 0 -20 7 -20 20 0 13 7 20 20
20 13 0 20 -7 20 -20z m100 0 c0 -15 -7 -20 -25 -20 -18 0 -25 5 -25 20 0 15
7 20 25 20 18 0 25 -5 25 -20z m100 0 c0 -15 -7 -20 -25 -20 -18 0 -25 5 -25
20 0 15 7 20 25 20 18 0 25 -5 25 -20z m100 0 c0 -15 -7 -20 -25 -20 -18 0
-25 5 -25 20 0 15 7 20 25 20 18 0 25 -5 25 -20z m90 0 c0 -13 -7 -20 -20 -20
-13 0 -20 7 -20 20 0 13 7 20 20 20 13 0 20 -7 20 -20z m100 0 c0 -14 -7 -20
-23 -20 -16 0 -23 6 -23 20 0 14 7 20 23 20 16 0 23 -6 23 -20z m100 0 c0 -15
-7 -20 -25 -20 -18 0 -25 5 -25 20 0 15 7 20 25 20 18 0 25 -5 25 -20z m100 0
c0 -15 -7 -20 -25 -20 -18 0 -25 5 -25 20 0 15 7 20 25 20 18 0 25 -5 25 -20z
m90 0 c0 -13 -7 -20 -20 -20 -13 0 -20 7 -20 20 0 13 7 20 20 20 13 0 20 -7
20 -20z m100 0 c0 -13 -7 -20 -20 -20 -13 0 -20 7 -20 20 0 13 7 20 20 20 13
0 20 -7 20 -20z m100 -1 c0 -15 -5 -20 -22 -17 -34 5 -37 38 -4 38 20 0 26 -5
26 -21z m100 1 c0 -15 -7 -20 -25 -20 -18 0 -25 5 -25 20 0 15 7 20 25 20 18
0 25 -5 25 -20z m100 0 c0 -15 -7 -20 -25 -20 -18 0 -25 5 -25 20 0 15 7 20
25 20 18 0 25 -5 25 -20z m90 0 c0 -13 -7 -20 -20 -20 -13 0 -20 7 -20 20 0
13 7 20 20 20 13 0 20 -7 20 -20z m100 0 c0 -13 -7 -20 -20 -20 -13 0 -20 7
-20 20 0 13 7 20 20 20 13 0 20 -7 20 -20z m100 0 c0 -15 -7 -20 -25 -20 -18
0 -25 5 -25 20 0 15 7 20 25 20 18 0 25 -5 25 -20z m100 0 c0 -15 -7 -20 -25
-20 -18 0 -25 5 -25 20 0 15 7 20 25 20 18 0 25 -5 25 -20z m100 0 c0 -15 -7
-20 -25 -20 -18 0 -25 5 -25 20 0 15 7 20 25 20 18 0 25 -5 25 -20z m90 0 c0
-13 -7 -20 -20 -20 -13 0 -20 7 -20 20 0 13 7 20 20 20 13 0 20 -7 20 -20z
m100 0 c0 -15 -7 -20 -25 -20 -18 0 -25 5 -25 20 0 15 7 20 25 20 18 0 25 -5
25 -20z m100 0 c0 -15 -7 -20 -25 -20 -18 0 -25 5 -25 20 0 15 7 20 25 20 18
0 25 -5 25 -20z m100 0 c0 -15 -7 -20 -25 -20 -18 0 -25 5 -25 20 0 15 7 20
25 20 18 0 25 -5 25 -20z m90 0 c0 -13 -7 -20 -20 -20 -13 0 -20 7 -20 20 0
13 7 20 20 20 13 0 20 -7 20 -20z m100 0 c0 -13 -7 -20 -20 -20 -13 0 -20 7
-20 20 0 13 7 20 20 20 13 0 20 -7 20 -20z m-2790 -50 c0 -13 -7 -20 -20 -20
-13 0 -20 7 -20 20 0 13 7 20 20 20 13 0 20 -7 20 -20z m100 0 c0 -13 -7 -20
-20 -20 -13 0 -20 7 -20 20 0 13 7 20 20 20 13 0 20 -7 20 -20z m300 -1 c0
-12 8 -23 20 -26 11 -3 20 -14 20 -24 0 -12 -7 -19 -20 -19 -15 0 -20 7 -20
25 0 20 -5 25 -25 25 -18 0 -25 5 -25 20 0 15 7 20 25 20 19 0 25 -5 25 -21z
m90 1 c0 -13 -7 -20 -20 -20 -13 0 -20 7 -20 20 0 13 7 20 20 20 13 0 20 -7
20 -20z m100 -1 c0 -15 -5 -20 -22 -17 -31 4 -33 38 -2 38 18 0 24 -5 24 -21z
m290 1 c0 -13 -7 -20 -20 -20 -13 0 -20 7 -20 20 0 13 7 20 20 20 13 0 20 -7
20 -20z m100 0 c0 -13 -7 -20 -20 -20 -13 0 -20 7 -20 20 0 13 7 20 20 20 13
0 20 -7 20 -20z m300 1 c0 -13 8 -21 23 -23 14 -2 23 -11 25 -25 2 -15 10 -23
23 -23 14 0 19 -7 19 -25 0 -18 -5 -25 -20 -25 -15 0 -20 7 -20 25 0 20 -5 25
-25 25 -20 0 -25 5 -25 25 0 20 -5 25 -25 25 -18 0 -25 5 -25 20 0 15 7 20 25
20 18 0 25 -5 25 -19z m90 -1 c0 -13 -7 -20 -20 -20 -13 0 -20 7 -20 20 0 13
7 20 20 20 13 0 20 -7 20 -20z m100 0 c0 -13 -7 -20 -20 -20 -13 0 -20 7 -20
20 0 13 7 20 20 20 13 0 20 -7 20 -20z m100 0 c0 -15 -7 -20 -25 -20 -18 0
-25 5 -25 20 0 15 7 20 25 20 18 0 25 -5 25 -20z m202 -2 c2 -16 9 -22 21 -20
12 2 17 -4 17 -23 0 -18 -5 -25 -20 -25 -15 0 -20 7 -20 25 0 20 -5 25 -25 25
-18 0 -25 5 -25 20 0 30 47 28 52 -2z m88 2 c0 -13 -7 -20 -20 -20 -13 0 -20
7 -20 20 0 13 7 20 20 20 13 0 20 -7 20 -20z m100 0 c0 -15 -7 -20 -25 -20
-20 0 -25 -5 -25 -25 0 -18 -5 -25 -20 -25 -15 0 -20 7 -20 25 0 19 5 25 18
23 11 -2 18 4 20 20 5 30 52 32 52 2z m293 6 c7 -18 -1 -26 -25 -26 -11 0 -18
7 -18 20 0 23 35 28 43 6z m97 -6 c0 -13 -7 -20 -20 -20 -13 0 -20 7 -20 20 0
13 7 20 20 20 13 0 20 -7 20 -20z m302 -2 c2 -14 10 -23 20 -23 10 0 18 -4 18
-8 0 -4 0 -14 0 -22 0 -8 -9 -15 -20 -15 -15 0 -20 7 -20 25 0 20 -5 25 -25
25 -18 0 -25 5 -25 20 0 30 47 28 52 -2z m88 2 c0 -13 -7 -20 -20 -20 -13 0
-20 7 -20 20 0 13 7 20 20 20 13 0 20 -7 20 -20z m-2690 -47 c0 -16 -6 -23
-20 -23 -14 0 -20 7 -20 23 0 16 6 23 20 23 14 0 20 -7 20 -23z m490 0 c0 -16
-6 -23 -20 -23 -14 0 -20 7 -20 23 0 16 6 23 20 23 14 0 20 -7 20 -23z m390 1
c0 -17 -5 -24 -20 -24 -14 0 -20 7 -20 23 0 16 6 23 20 24 15 1 20 -4 20 -23z
m490 1 c0 -18 -5 -25 -20 -25 -15 0 -20 7 -20 25 0 18 5 25 20 25 15 0 20 -7
20 -25z m880 0 c0 -18 -5 -25 -20 -25 -15 0 -20 7 -20 25 0 18 5 25 20 25 15
0 20 -7 20 -25z m-1810 -50 c0 -18 -5 -25 -20 -25 -15 0 -20 7 -20 25 0 18 5
25 20 25 15 0 20 -7 20 -25z m490 0 c0 -18 -5 -25 -20 -25 -15 0 -20 7 -20 25
0 18 5 25 20 25 15 0 20 -7 20 -25z m880 0 c0 -18 -5 -25 -20 -25 -15 0 -20 7
-20 25 0 18 5 25 20 25 15 0 20 -7 20 -25z m880 0 c0 -18 -5 -25 -20 -25 -15
0 -20 7 -20 25 0 18 5 25 20 25 15 0 20 -7 20 -25z"/>
<path d="M215 2570 c-3 -5 -1 -10 4 -10 6 0 11 5 11 10 0 6 -2 10 -4 10 -3 0
-8 -4 -11 -10z"/>
<path d="M2467 2573 c-4 -3 -7 -11 -7 -17 0 -6 5 -5 12 2 6 6 9 14 7 17 -3 3
-9 2 -12 -2z"/>
<path d="M1535 2520 c-3 -5 -1 -10 4 -10 6 0 11 5 11 10 0 6 -2 10 -4 10 -3 0
-8 -4 -11 -10z"/>
<path d="M2560 2469 c0 -5 5 -7 10 -4 6 3 10 8 10 11 0 2 -4 4 -10 4 -5 0 -10
-5 -10 -11z"/>
<path d="M210 2469 c0 -5 5 -7 10 -4 6 3 10 8 10 11 0 2 -4 4 -10 4 -5 0 -10
-5 -10 -11z"/>
<path d="M2360 2470 c0 -5 5 -10 10 -10 6 0 10 5 10 10 0 6 -4 10 -10 10 -5 0
-10 -4 -10 -10z"/>
<path d="M2855 2470 c3 -5 8 -10 11 -10 2 0 4 5 4 10 0 6 -5 10 -11 10 -5 0
-7 -4 -4 -10z"/>
<path d="M2955 2470 c3 -5 8 -10 11 -10 2 0 4 5 4 10 0 6 -5 10 -11 10 -5 0
-7 -4 -4 -10z"/>
<path d="M60 2420 c0 -5 5 -10 10 -10 6 0 10 5 10 10 0 6 -4 10 -10 10 -5 0
-10 -4 -10 -10z"/>
<path d="M165 2420 c3 -5 8 -10 11 -10 2 0 4 5 4 10 0 6 -5 10 -11 10 -5 0 -7
-4 -4 -10z"/>
<path d="M825 2422 c-33 -2 -64 -7 -69 -13 -6 -5 -17 -9 -26 -9 -26 0 -93 -40
-131 -79 -40 -40 -87 -111 -93 -138 -1 -10 -6 -25 -9 -33 -10 -25 -13 -100 -4
-91 8 8 17 36 34 111 10 42 73 119 131 160 30 22 61 40 69 40 7 0 13 5 13 10
0 6 11 10 25 10 14 0 25 4 25 10 0 6 271 9 758 7 l757 -2 67 -33 c47 -23 84
-51 123 -94 30 -34 55 -67 55 -73 0 -17 27 -38 33 -28 10 17 -32 93 -75 136
-24 24 -72 58 -108 76 l-65 31 -725 3 c-399 1 -752 1 -785 -1z"/>
<path d="M815 2390 c-118 -24 -233 -117 -275 -225 -22 -54 -25 -81 -30 -260
-3 -110 -7 -192 -8 -182 -3 24 -17 22 -19 -3 -1 -11 4 -20 12 -20 12 0 15 -87
17 -547 l3 -548 27 -57 c32 -68 94 -138 153 -173 96 -56 99 -56 882 -53 l718
3 59 28 c143 67 214 167 230 326 3 30 10 59 16 65 5 5 9 35 8 65 l-1 56 -7
-60 -7 -60 -2 53 c-1 28 -2 241 -4 472 -2 366 0 421 13 425 13 4 15 32 13 182
-2 260 -2 265 -12 259 -5 -4 -7 4 -4 15 5 16 2 20 -8 17 -8 -3 -13 -10 -12
-16 2 -6 7 -29 12 -52 5 -22 6 -42 2 -44 -4 -3 -8 10 -9 27 -4 52 -57 152
-105 201 -53 52 -121 89 -193 104 -61 13 -1406 14 -1469 2z m1295 -77 c-63 -2
-376 -4 -695 -5 -359 -2 -586 -7 -595 -13 -8 -5 -17 -10 -20 -10 -23 -3 -86
-44 -116 -77 -73 -81 -81 -114 -83 -330 -1 -105 -4 -194 -6 -197 -3 -2 -5 81
-5 186 0 208 6 239 59 316 35 52 94 94 164 118 48 17 101 18 732 17 374 -1
628 -4 565 -5z m236 -38 c53 -31 111 -96 137 -154 19 -41 22 -68 25 -246 2
-110 1 -197 -3 -194 -3 4 -7 94 -9 202 -3 192 -3 197 -31 251 -15 30 -32 53
-37 50 -5 -3 -7 -1 -6 4 7 23 -125 112 -166 112 -8 0 -17 4 -21 9 -9 15 66 -8
111 -34z m-66 -125 c16 -24 15 -289 0 -304 -5 -5 -24 -10 -42 -11 -18 0 -38
-4 -45 -8 -6 -4 -14 -3 -18 2 -3 6 -25 8 -48 5 -43 -6 -93 -31 -83 -41 3 -4 2
-11 -3 -17 -9 -11 -14 -51 -12 -93 1 -21 5 -22 117 -22 111 0 152 -9 138 -32
-8 -14 24 -11 129 15 l98 23 -3 -511 -3 -511 -26 -56 c-33 -71 -87 -125 -158
-158 l-56 -26 -699 -3 c-789 -3 -765 -5 -858 71 -35 28 -63 64 -83 102 l-30
59 -3 519 c-2 486 -1 519 15 513 26 -11 180 -43 266 -57 43 -6 76 -14 73 -16
-6 -7 -149 16 -242 38 -45 10 -86 19 -92 19 -6 0 -9 -173 -8 -502 2 -500 2
-503 25 -549 36 -75 84 -123 153 -155 l63 -29 695 0 c764 0 760 0 833 61 44
37 109 125 103 139 -2 7 1 18 7 24 9 9 12 143 13 504 1 271 0 495 -2 498 -2 4
-21 3 -41 -2 -21 -5 -51 -12 -68 -14 -16 -3 -43 -9 -60 -13 l-30 -8 -5 -129
c-6 -148 -1 -143 -115 -139 -38 2 -87 0 -107 -2 l-37 -6 -1 -410 c0 -259 -4
-417 -10 -429 -10 -18 -24 -19 -200 -19 -170 0 -190 2 -199 18 -5 10 -9 187
-8 424 1 224 -2 410 -6 414 -3 4 -52 8 -107 9 -62 1 -106 7 -113 14 -6 6 -13
49 -15 99 -2 53 -8 89 -15 94 -7 4 -34 8 -62 9 -27 0 -75 4 -105 9 -35 5 -9 6
68 2 l124 -5 -3 35 c-5 60 9 68 128 68 91 0 104 2 99 16 -3 8 -2 12 4 9 6 -3
10 -1 10 4 0 6 -6 11 -12 12 -10 0 -10 2 0 6 8 3 12 31 12 88 0 121 25 183
104 260 95 92 160 110 403 110 117 0 145 -3 153 -15z m322 -202 c-4 -138 -9
-148 -11 -20 0 61 2 112 7 112 4 0 6 -42 4 -92z m-5 -190 c-2 -13 -4 -5 -4 17
-1 22 1 32 4 23 2 -10 2 -28 0 -40z m-1499 -178 c17 0 32 -5 32 -11 0 -6 -11
-8 -27 -5 -16 3 -53 8 -83 12 -30 3 -57 8 -60 11 -3 3 20 3 50 -1 30 -3 70 -6
88 -6z"/>
<path d="M1875 2126 c-91 -29 -158 -85 -203 -171 -24 -45 -27 -63 -30 -182
l-4 -133 -119 0 -119 0 0 -140 0 -140 120 0 120 0 -2 -435 -3 -435 188 0 187
0 0 435 0 435 130 0 130 0 0 140 0 140 -130 0 -130 0 0 69 c0 113 45 151 180
151 l80 0 0 140 0 140 -177 -1 c-114 0 -192 -5 -218 -13z"/>
<path d="M485 2031 c-3 -5 -2 -12 3 -15 5 -3 9 1 9 9 0 17 -3 19 -12 6z"/>
<path d="M484 1985 c3 -23 12 -26 13 -5 1 11 -2 20 -7 20 -4 0 -7 -7 -6 -15z"/>
<path d="M485 1771 c-3 -5 -2 -12 3 -15 5 -3 9 1 9 9 0 17 -3 19 -12 6z"/>
<path d="M2604 1470 c0 -113 2 -159 3 -102 2 56 2 148 0 205 -1 56 -3 10 -3
-103z"/>
<path d="M2602 1215 c0 -16 2 -22 5 -12 2 9 2 23 0 30 -3 6 -5 -1 -5 -18z"/>
<path d="M2604 1085 c0 -55 1 -76 3 -47 2 29 2 74 0 100 -2 26 -3 2 -3 -53z"/>
<path d="M2601 964 c0 -11 3 -14 6 -6 3 7 2 16 -1 19 -3 4 -6 -2 -5 -13z"/>
<path d="M2601 904 c0 -11 3 -14 6 -6 3 7 2 16 -1 19 -3 4 -6 -2 -5 -13z"/>
<path d="M491 655 c-4 -176 137 -334 311 -352 65 -6 79 3 17 11 -19 3 -35 6
-36 7 -2 1 -7 3 -13 4 -5 1 -12 4 -15 5 -3 1 -8 3 -12 4 -13 2 -96 54 -118 73
-59 51 -113 157 -124 244 l-8 64 -2 -60z"/>
<path d="M2598 668 c0 -24 -1 -49 -1 -55 1 -7 -4 -13 -10 -13 -6 0 -7 -3 -4
-7 4 -3 2 -12 -4 -20 -6 -7 -9 -13 -5 -13 13 0 -59 -104 -103 -147 -42 -41
-108 -80 -150 -88 -9 -2 -17 -4 -18 -5 -4 -3 -20 -7 -33 -9 -5 0 -10 -5 -10
-10 0 -13 89 8 145 35 53 26 125 82 125 96 0 5 11 24 25 42 13 18 31 50 38 72
14 39 23 164 13 164 -3 0 -7 -19 -8 -42z"/>
<path d="M898 303 c7 -3 16 -2 19 1 4 3 -2 6 -13 5 -11 0 -14 -3 -6 -6z"/>
<path d="M930 306 c0 -9 40 -13 46 -5 3 5 -6 9 -20 9 -14 0 -26 -2 -26 -4z"/>
<path d="M1035 300 c4 -7 65 -1 65 6 0 3 -15 4 -34 2 -19 -1 -33 -5 -31 -8z"/>
<path d="M1121 305 c8 -7 149 -8 156 -1 4 3 -31 6 -77 6 -46 0 -81 -2 -79 -5z"/>
<path d="M1313 299 c16 -4 38 -4 50 1 16 6 9 8 -28 8 -42 -1 -46 -2 -22 -9z"/>
<path d="M1403 303 c9 -2 25 -2 35 0 9 3 1 5 -18 5 -19 0 -27 -2 -17 -5z"/>
<path d="M1466 302 c-3 -5 1 -9 9 -9 8 0 15 4 15 9 0 4 -4 8 -9 8 -6 0 -12 -4
-15 -8z"/>
<path d="M1500 306 c0 -2 16 -6 35 -8 19 -2 35 0 35 4 0 4 -16 8 -35 8 -19 0
-35 -2 -35 -4z"/>
<path d="M1586 298 c3 -4 11 -5 19 -1 21 7 19 12 -4 10 -11 0 -18 -5 -15 -9z"/>
<path d="M1656 298 c3 -5 10 -6 15 -3 13 9 11 12 -6 12 -8 0 -12 -4 -9 -9z"/>
<path d="M1713 304 c9 -9 287 -10 287 -1 0 4 -66 7 -147 7 -80 0 -144 -3 -140
-6z"/>
<path d="M2014 303 c7 -8 95 -7 102 0 4 4 -18 6 -50 6 -31 -1 -55 -4 -52 -6z"/>
<path d="M2160 305 c0 -7 30 -13 34 -7 3 4 -4 9 -15 9 -10 1 -19 0 -19 -2z"/>
<path d="M2210 305 c0 -7 30 -13 34 -7 3 4 -4 9 -15 9 -10 1 -19 0 -19 -2z"/>
<path d="M2610 2420 c0 -5 5 -10 11 -10 5 0 7 5 4 10 -3 6 -8 10 -11 10 -2 0
-4 -4 -4 -10z"/>
<path d="M2705 2420 c-3 -5 -1 -10 4 -10 6 0 11 5 11 10 0 6 -2 10 -4 10 -3 0
-8 -4 -11 -10z"/>
<path d="M2900 2420 c0 -5 5 -10 10 -10 6 0 10 5 10 10 0 6 -4 10 -10 10 -5 0
-10 -4 -10 -10z"/>
<path d="M115 2370 c3 -5 8 -10 11 -10 2 0 4 5 4 10 0 6 -5 10 -11 10 -5 0 -7
-4 -4 -10z"/>
<path d="M310 2370 c0 -5 5 -10 10 -10 6 0 10 5 10 10 0 6 -4 10 -10 10 -5 0
-10 -4 -10 -10z"/>
<path d="M410 2369 c0 -5 5 -7 10 -4 6 3 10 8 10 11 0 2 -4 4 -10 4 -5 0 -10
-5 -10 -11z"/>
<path d="M360 2320 c0 -5 5 -10 10 -10 6 0 10 5 10 10 0 6 -4 10 -10 10 -5 0
-10 -4 -10 -10z"/>
<path d="M340 2275 c0 -20 5 -25 25 -25 20 0 25 5 25 25 0 20 -5 25 -25 25
-20 0 -25 -5 -25 -25z"/>
<path d="M440 2275 c0 -20 5 -25 25 -25 20 0 25 5 25 25 0 20 -5 25 -25 25
-20 0 -25 -5 -25 -25z"/>
<path d="M310 2269 c0 -5 5 -7 10 -4 6 3 10 8 10 11 0 2 -4 4 -10 4 -5 0 -10
-5 -10 -11z"/>
<path d="M290 2225 c0 -20 5 -25 25 -25 20 0 25 5 25 25 0 20 -5 25 -25 25
-20 0 -25 -5 -25 -25z"/>
<path d="M390 2225 c0 -20 5 -25 25 -25 20 0 25 5 25 25 0 20 -5 25 -25 25
-20 0 -25 -5 -25 -25z"/>
<path d="M367 2233 c-4 -3 -7 -11 -7 -17 0 -6 5 -5 12 2 6 6 9 14 7 17 -3 3
-9 2 -12 -2z"/>
<path d="M340 2175 c0 -20 5 -25 25 -25 20 0 25 5 25 25 0 20 -5 25 -25 25
-20 0 -25 -5 -25 -25z"/>
<path d="M310 2180 c0 -5 5 -10 11 -10 5 0 7 5 4 10 -3 6 -8 10 -11 10 -2 0
-4 -4 -4 -10z"/>
<path d="M290 2125 c0 -20 5 -25 25 -25 20 0 25 5 25 25 0 20 -5 25 -25 25
-20 0 -25 -5 -25 -25z"/>
<path d="M365 2130 c-3 -5 -1 -10 4 -10 6 0 11 5 11 10 0 6 -2 10 -4 10 -3 0
-8 -4 -11 -10z"/>
<path d="M410 2080 c0 -5 5 -10 11 -10 5 0 7 5 4 10 -3 6 -8 10 -11 10 -2 0
-4 -4 -4 -10z"/>
<path d="M2565 2370 c3 -5 8 -10 11 -10 2 0 4 5 4 10 0 6 -5 10 -11 10 -5 0
-7 -4 -4 -10z"/>
<path d="M2750 2369 c0 -5 5 -7 10 -4 6 3 10 8 10 11 0 2 -4 4 -10 4 -5 0 -10
-5 -10 -11z"/>
<path d="M2640 2325 c0 -20 5 -25 25 -25 20 0 25 5 25 25 0 20 -5 25 -25 25
-20 0 -25 -5 -25 -25z"/>
<path d="M2805 2320 c3 -5 8 -10 11 -10 2 0 4 5 4 10 0 6 -5 10 -11 10 -5 0
-7 -4 -4 -10z"/>
<path d="M2690 2275 c0 -20 5 -25 25 -25 20 0 25 5 25 25 0 20 -5 25 -25 25
-20 0 -25 -5 -25 -25z"/>
<path d="M2790 2275 c0 -20 5 -25 25 -25 20 0 25 5 25 25 0 20 -5 25 -25 25
-20 0 -25 -5 -25 -25z"/>
<path d="M2750 2269 c0 -5 5 -7 10 -4 6 3 10 8 10 11 0 2 -4 4 -10 4 -5 0 -10
-5 -10 -11z"/>
<path d="M2640 2225 c0 -20 5 -25 25 -25 20 0 25 5 25 25 0 20 -5 25 -25 25
-20 0 -25 -5 -25 -25z"/>
<path d="M2740 2225 c0 -20 5 -25 25 -25 20 0 25 5 25 25 0 20 -5 25 -25 25
-20 0 -25 -5 -25 -25z"/>
<path d="M2717 2233 c-10 -9 -9 -23 1 -23 5 0 9 7 9 15 0 17 -1 18 -10 8z"/>
<path d="M2690 2175 c0 -20 5 -25 25 -25 20 0 25 5 25 25 0 20 -5 25 -25 25
-20 0 -25 -5 -25 -25z"/>
<path d="M2790 2175 c0 -20 5 -25 25 -25 20 0 25 5 25 25 0 20 -5 25 -25 25
-20 0 -25 -5 -25 -25z"/>
<path d="M2652 2181 c2 -7 7 -12 11 -12 12 1 9 15 -3 20 -7 2 -11 -2 -8 -8z"/>
<path d="M2750 2169 c0 -5 5 -7 10 -4 6 3 10 8 10 11 0 2 -4 4 -10 4 -5 0 -10
-5 -10 -11z"/>
<path d="M2740 2125 c0 -20 5 -25 25 -25 20 0 25 5 25 25 0 20 -5 25 -25 25
-20 0 -25 -5 -25 -25z"/>
<path d="M2690 2075 c0 -20 5 -25 25 -25 20 0 25 5 25 25 0 20 -5 25 -25 25
-20 0 -25 -5 -25 -25z"/>
<path d="M2750 2080 c0 -5 5 -10 10 -10 6 0 10 5 10 10 0 6 -4 10 -10 10 -5 0
-10 -4 -10 -10z"/>
<path d="M2950 2369 c0 -5 5 -7 10 -4 6 3 10 8 10 11 0 2 -4 4 -10 4 -5 0 -10
-5 -10 -11z"/>
<path d="M2900 2320 c0 -5 5 -10 10 -10 6 0 10 5 10 10 0 6 -4 10 -10 10 -5 0
-10 -4 -10 -10z"/>
<path d="M210 2270 c0 -5 5 -10 10 -10 6 0 10 5 10 10 0 6 -4 10 -10 10 -5 0
-10 -4 -10 -10z"/>
<path d="M2950 2270 c0 -5 5 -10 10 -10 6 0 10 5 10 10 0 6 -4 10 -10 10 -5 0
-10 -4 -10 -10z"/>
<path d="M2905 2220 c-3 -5 -1 -10 4 -10 6 0 11 5 11 10 0 6 -2 10 -4 10 -3 0
-8 -4 -11 -10z"/>
<path d="M2905 2130 c-3 -5 -1 -10 4 -10 6 0 11 5 11 10 0 6 -2 10 -4 10 -3 0
-8 -4 -11 -10z"/>
<path d="M2800 2030 c0 -5 5 -10 10 -10 6 0 10 5 10 10 0 6 -4 10 -10 10 -5 0
-10 -4 -10 -10z"/>
<path d="M165 2030 c3 -5 8 -10 11 -10 2 0 4 5 4 10 0 6 -5 10 -11 10 -5 0 -7
-4 -4 -10z"/>
<path d="M260 2030 c0 -5 5 -10 10 -10 6 0 10 5 10 10 0 6 -4 10 -10 10 -5 0
-10 -4 -10 -10z"/>
<path d="M2900 2030 c0 -5 5 -10 10 -10 6 0 10 5 10 10 0 6 -4 10 -10 10 -5 0
-10 -4 -10 -10z"/>
<path d="M215 1980 c3 -5 8 -10 11 -10 2 0 4 5 4 10 0 6 -5 10 -11 10 -5 0 -7
-4 -4 -10z"/>
<path d="M310 1980 c0 -5 5 -10 10 -10 6 0 10 5 10 10 0 6 -4 10 -10 10 -5 0
-10 -4 -10 -10z"/>
<path d="M2750 1980 c0 -5 5 -10 10 -10 6 0 10 5 10 10 0 6 -4 10 -10 10 -5 0
-10 -4 -10 -10z"/>
<path d="M2850 1980 c0 -5 5 -10 10 -10 6 0 10 5 10 10 0 6 -4 10 -10 10 -5 0
-10 -4 -10 -10z"/>
<path d="M165 1930 c3 -5 8 -10 11 -10 2 0 4 5 4 10 0 6 -5 10 -11 10 -5 0 -7
-4 -4 -10z"/>
<path d="M310 1879 c0 -5 5 -7 10 -4 6 3 10 8 10 11 0 2 -4 4 -10 4 -5 0 -10
-5 -10 -11z"/>
<path d="M410 1880 c0 -5 5 -10 10 -10 6 0 10 5 10 10 0 6 -4 10 -10 10 -5 0
-10 -4 -10 -10z"/>
<path d="M340 1785 c0 -20 5 -25 25 -25 20 0 25 5 25 25 0 20 -5 25 -25 25
-20 0 -25 -5 -25 -25z"/>
<path d="M410 1784 c0 -8 5 -12 10 -9 6 4 8 11 5 16 -9 14 -15 11 -15 -7z"/>
<path d="M310 1780 c0 -5 5 -10 10 -10 6 0 10 5 10 10 0 6 -4 10 -10 10 -5 0
-10 -4 -10 -10z"/>
<path d="M290 1735 c0 -20 5 -25 25 -25 20 0 25 5 25 25 0 20 -5 25 -25 25
-20 0 -25 -5 -25 -25z"/>
<path d="M260 1729 c0 -5 5 -7 10 -4 6 3 10 8 10 11 0 2 -4 4 -10 4 -5 0 -10
-5 -10 -11z"/>
<path d="M340 1685 c0 -20 5 -25 25 -25 20 0 25 5 25 25 0 20 -5 25 -25 25
-20 0 -25 -5 -25 -25z"/>
<path d="M310 1690 c0 -5 5 -10 11 -10 5 0 7 5 4 10 -3 6 -8 10 -11 10 -2 0
-4 -4 -4 -10z"/>
<path d="M415 1690 c-3 -5 -1 -10 4 -10 6 0 11 5 11 10 0 6 -2 10 -4 10 -3 0
-8 -4 -11 -10z"/>
<path d="M410 1590 c0 -5 5 -10 10 -10 6 0 10 5 10 10 0 6 -4 10 -10 10 -5 0
-10 -4 -10 -10z"/>
<path d="M2710 1930 c0 -5 5 -10 10 -10 6 0 10 5 10 10 0 6 -4 10 -10 10 -5 0
-10 -4 -10 -10z"/>
<path d="M2805 1930 c3 -5 8 -10 11 -10 2 0 4 5 4 10 0 6 -5 10 -11 10 -5 0
-7 -4 -4 -10z"/>
<path d="M2750 1880 c0 -5 7 -10 16 -10 8 0 12 5 9 10 -3 6 -10 10 -16 10 -5
0 -9 -4 -9 -10z"/>
<path d="M2740 1835 c0 -20 5 -25 25 -25 20 0 25 5 25 25 0 20 -5 25 -25 25
-20 0 -25 -5 -25 -25z"/>
<path d="M2710 1829 c0 -5 5 -7 10 -4 6 3 10 8 10 11 0 2 -4 4 -10 4 -5 0 -10
-5 -10 -11z"/>
<path d="M2805 1830 c-3 -5 -1 -10 4 -10 6 0 11 5 11 10 0 6 -2 10 -4 10 -3 0
-8 -4 -11 -10z"/>
<path d="M2690 1785 c0 -20 5 -25 25 -25 20 0 25 5 25 25 0 20 -5 25 -25 25
-20 0 -25 -5 -25 -25z"/>
<path d="M2790 1785 c0 -20 5 -25 25 -25 20 0 25 5 25 25 0 20 -5 25 -25 25
-20 0 -25 -5 -25 -25z"/>
<path d="M2750 1780 c0 -5 5 -10 10 -10 6 0 10 5 10 10 0 6 -4 10 -10 10 -5 0
-10 -4 -10 -10z"/>
<path d="M2740 1735 c0 -20 5 -25 25 -25 20 0 25 5 25 25 0 20 -5 25 -25 25
-20 0 -25 -5 -25 -25z"/>
<path d="M2690 1685 c0 -20 5 -25 25 -25 20 0 25 5 25 25 0 20 -5 25 -25 25
-20 0 -25 -5 -25 -25z"/>
<path d="M2790 1685 c0 -20 5 -25 25 -25 20 0 25 5 25 25 0 20 -5 25 -25 25
-20 0 -25 -5 -25 -25z"/>
<path d="M2750 1690 c0 -5 5 -10 10 -10 6 0 10 5 10 10 0 6 -4 10 -10 10 -5 0
-10 -4 -10 -10z"/>
<path d="M2855 1690 c-3 -5 -1 -10 4 -10 6 0 11 5 11 10 0 6 -2 10 -4 10 -3 0
-8 -4 -11 -10z"/>
<path d="M2800 1640 c0 -5 5 -10 10 -10 6 0 10 5 10 10 0 6 -4 10 -10 10 -5 0
-10 -4 -10 -10z"/>
<path d="M2900 1929 c0 -5 5 -7 10 -4 6 3 10 8 10 11 0 2 -4 4 -10 4 -5 0 -10
-5 -10 -11z"/>
<path d="M215 1880 c3 -5 8 -10 11 -10 2 0 4 5 4 10 0 6 -5 10 -11 10 -5 0 -7
-4 -4 -10z"/>
<path d="M2900 1830 c0 -5 5 -10 10 -10 6 0 10 5 10 10 0 6 -4 10 -10 10 -5 0
-10 -4 -10 -10z"/>
<path d="M215 1790 c-3 -5 -1 -10 4 -10 6 0 11 5 11 10 0 6 -2 10 -4 10 -3 0
-8 -4 -11 -10z"/>
<path d="M2900 1740 c0 -5 5 -10 10 -10 6 0 10 5 10 10 0 6 -4 10 -10 10 -5 0
-10 -4 -10 -10z"/>
<path d="M215 1680 c3 -5 8 -10 11 -10 2 0 4 5 4 10 0 6 -5 10 -11 10 -5 0 -7
-4 -4 -10z"/>
<path d="M160 1640 c0 -5 5 -10 10 -10 6 0 10 5 10 10 0 6 -4 10 -10 10 -5 0
-10 -4 -10 -10z"/>
<path d="M2900 1639 c0 -5 5 -7 10 -4 6 3 10 8 10 11 0 2 -4 4 -10 4 -5 0 -10
-5 -10 -11z"/>
<path d="M115 1590 c-3 -5 -1 -10 4 -10 6 0 11 5 11 10 0 6 -2 10 -4 10 -3 0
-8 -4 -11 -10z"/>
<path d="M210 1590 c0 -5 5 -10 10 -10 6 0 10 5 10 10 0 6 -4 10 -10 10 -5 0
-10 -4 -10 -10z"/>
<path d="M2955 1590 c3 -5 8 -10 11 -10 2 0 4 5 4 10 0 6 -5 10 -11 10 -5 0
-7 -4 -4 -10z"/>
<path d="M60 1540 c0 -5 5 -10 10 -10 6 0 10 5 10 10 0 6 -4 10 -10 10 -5 0
-10 -4 -10 -10z"/>
<path d="M165 1540 c3 -5 8 -10 11 -10 2 0 4 5 4 10 0 6 -5 10 -11 10 -5 0 -7
-4 -4 -10z"/>
<path d="M260 1540 c0 -5 5 -10 11 -10 5 0 7 5 4 10 -3 6 -8 10 -11 10 -2 0
-4 -4 -4 -10z"/>
<path d="M360 1540 c0 -5 5 -10 11 -10 5 0 7 5 4 10 -3 6 -8 10 -11 10 -2 0
-4 -4 -4 -10z"/>
<path d="M2700 1540 c0 -5 7 -10 15 -10 8 0 15 5 15 10 0 6 -7 10 -15 10 -8 0
-15 -4 -15 -10z"/>
<path d="M2900 1540 c0 -5 5 -10 10 -10 6 0 10 5 10 10 0 6 -4 10 -10 10 -5 0
-10 -4 -10 -10z"/>
<path d="M115 1490 c3 -5 8 -10 11 -10 2 0 4 5 4 10 0 6 -5 10 -11 10 -5 0 -7
-4 -4 -10z"/>
<path d="M165 1440 c3 -5 8 -10 11 -10 2 0 4 5 4 10 0 6 -5 10 -11 10 -5 0 -7
-4 -4 -10z"/>
<path d="M210 1490 c0 -5 5 -10 10 -10 6 0 10 5 10 10 0 6 -4 10 -10 10 -5 0
-10 -4 -10 -10z"/>
<path d="M310 1490 c0 -5 5 -10 10 -10 6 0 10 5 10 10 0 6 -4 10 -10 10 -5 0
-10 -4 -10 -10z"/>
<path d="M260 1440 c0 -5 5 -10 11 -10 5 0 7 5 4 10 -3 6 -8 10 -11 10 -2 0
-4 -4 -4 -10z"/>
<path d="M410 1490 c0 -5 5 -10 10 -10 6 0 10 5 10 10 0 6 -4 10 -10 10 -5 0
-10 -4 -10 -10z"/>
<path d="M2690 1395 c0 -20 5 -25 25 -25 20 0 25 5 25 25 0 20 -5 25 -25 25
-20 0 -25 -5 -25 -25z"/>
<path d="M2790 1395 c0 -20 5 -25 25 -25 20 0 25 5 25 25 0 20 -5 25 -25 25
-20 0 -25 -5 -25 -25z"/>
<path d="M2750 1390 c0 -5 5 -10 11 -10 5 0 7 5 4 10 -3 6 -8 10 -11 10 -2 0
-4 -4 -4 -10z"/>
<path d="M2855 1390 c-3 -5 -1 -10 4 -10 6 0 11 5 11 10 0 6 -2 10 -4 10 -3 0
-8 -4 -11 -10z"/>
<path d="M2740 1345 c0 -20 5 -25 25 -25 20 0 25 5 25 25 0 20 -5 25 -25 25
-20 0 -25 -5 -25 -25z"/>
<path d="M2710 1345 c0 -8 4 -15 8 -15 5 0 9 7 9 15 0 8 -4 15 -9 15 -4 0 -8
-7 -8 -15z"/>
<path d="M2690 1295 c0 -20 5 -25 25 -25 20 0 25 5 25 25 0 20 -5 25 -25 25
-20 0 -25 -5 -25 -25z"/>
<path d="M2790 1295 c0 -20 5 -25 25 -25 20 0 25 5 25 25 0 20 -5 25 -25 25
-20 0 -25 -5 -25 -25z"/>
<path d="M2756 1301 c-4 -5 -2 -12 3 -15 5 -4 12 -2 15 3 4 5 2 12 -3 15 -5 4
-12 2 -15 -3z"/>
<path d="M2850 1300 c0 -5 5 -10 10 -10 6 0 10 5 10 10 0 6 -4 10 -10 10 -5 0
-10 -4 -10 -10z"/>
<path d="M2740 1245 c0 -20 5 -25 25 -25 20 0 25 5 25 25 0 20 -5 25 -25 25
-20 0 -25 -5 -25 -25z"/>
<path d="M2710 1250 c0 -5 5 -10 11 -10 5 0 7 5 4 10 -3 6 -8 10 -11 10 -2 0
-4 -4 -4 -10z"/>
<path d="M2805 1250 c-3 -5 -1 -10 4 -10 6 0 11 5 11 10 0 6 -2 10 -4 10 -3 0
-8 -4 -11 -10z"/>
<path d="M2750 1200 c0 -5 5 -10 10 -10 6 0 10 5 10 10 0 6 -4 10 -10 10 -5 0
-10 -4 -10 -10z"/>
<path d="M2705 1150 c-3 -5 -1 -10 4 -10 6 0 11 5 11 10 0 6 -2 10 -4 10 -3 0
-8 -4 -11 -10z"/>
<path d="M360 1440 c0 -5 5 -10 11 -10 5 0 7 5 4 10 -3 6 -8 10 -11 10 -2 0
-4 -4 -4 -10z"/>
<path d="M340 1395 c0 -20 5 -25 25 -25 20 0 25 5 25 25 0 20 -5 25 -25 25
-20 0 -25 -5 -25 -25z"/>
<path d="M310 1390 c0 -5 5 -10 10 -10 6 0 10 5 10 10 0 6 -4 10 -10 10 -5 0
-10 -4 -10 -10z"/>
<path d="M410 1390 c0 -5 5 -10 10 -10 6 0 10 5 10 10 0 6 -4 10 -10 10 -5 0
-10 -4 -10 -10z"/>
<path d="M290 1345 c0 -20 5 -25 25 -25 20 0 25 5 25 25 0 20 -5 25 -25 25
-20 0 -25 -5 -25 -25z"/>
<path d="M390 1345 c0 -20 5 -25 25 -25 20 0 25 5 25 25 0 20 -5 25 -25 25
-20 0 -25 -5 -25 -25z"/>
<path d="M261 1344 c0 -11 3 -14 6 -6 3 7 2 16 -1 19 -3 4 -6 -2 -5 -13z"/>
<path d="M340 1295 c0 -20 5 -25 25 -25 20 0 25 5 25 25 0 20 -5 25 -25 25
-20 0 -25 -5 -25 -25z"/>
<path d="M310 1300 c0 -5 5 -10 11 -10 5 0 7 5 4 10 -3 6 -8 10 -11 10 -2 0
-4 -4 -4 -10z"/>
<path d="M410 1300 c0 -5 5 -10 11 -10 5 0 7 5 4 10 -3 6 -8 10 -11 10 -2 0
-4 -4 -4 -10z"/>
<path d="M410 1199 c0 -5 5 -7 10 -4 6 3 10 8 10 11 0 2 -4 4 -10 4 -5 0 -10
-5 -10 -11z"/>
<path d="M2900 1440 c0 -5 5 -10 10 -10 6 0 10 5 10 10 0 6 -4 10 -10 10 -5 0
-10 -4 -10 -10z"/>
<path d="M210 1390 c0 -5 5 -10 10 -10 6 0 10 5 10 10 0 6 -4 10 -10 10 -5 0
-10 -4 -10 -10z"/>
<path d="M2955 1390 c3 -5 8 -10 11 -10 2 0 4 5 4 10 0 6 -5 10 -11 10 -5 0
-7 -4 -4 -10z"/>
<path d="M2900 1340 c0 -5 5 -10 10 -10 6 0 10 5 10 10 0 6 -4 10 -10 10 -5 0
-10 -4 -10 -10z"/>
<path d="M210 1300 c0 -5 5 -10 10 -10 6 0 10 5 10 10 0 6 -4 10 -10 10 -5 0
-10 -4 -10 -10z"/>
<path d="M2900 1250 c0 -5 5 -10 10 -10 6 0 10 5 10 10 0 6 -4 10 -10 10 -5 0
-10 -4 -10 -10z"/>
<path d="M2805 1150 c3 -5 8 -10 11 -10 2 0 4 5 4 10 0 6 -5 10 -11 10 -5 0
-7 -4 -4 -10z"/>
<path d="M2900 1149 c0 -5 5 -7 10 -4 6 3 10 8 10 11 0 2 -4 4 -10 4 -5 0 -10
-5 -10 -11z"/>
<path d="M210 1100 c0 -5 5 -10 10 -10 6 0 10 5 10 10 0 6 -4 10 -10 10 -5 0
-10 -4 -10 -10z"/>
<path d="M310 1100 c0 -5 5 -10 10 -10 6 0 10 5 10 10 0 6 -4 10 -10 10 -5 0
-10 -4 -10 -10z"/>
<path d="M410 1100 c0 -5 5 -10 10 -10 6 0 10 5 10 10 0 6 -4 10 -10 10 -5 0
-10 -4 -10 -10z"/>
<path d="M2750 1100 c0 -5 5 -10 10 -10 6 0 10 5 10 10 0 6 -4 10 -10 10 -5 0
-10 -4 -10 -10z"/>
<path d="M2850 1100 c0 -5 5 -10 10 -10 6 0 10 5 10 10 0 6 -4 10 -10 10 -5 0
-10 -4 -10 -10z"/>
<path d="M165 1050 c3 -5 8 -10 11 -10 2 0 4 5 4 10 0 6 -5 10 -11 10 -5 0 -7
-4 -4 -10z"/>
<path d="M260 1049 c0 -5 5 -7 10 -4 6 3 10 8 10 11 0 2 -4 4 -10 4 -5 0 -10
-5 -10 -11z"/>
<path d="M310 999 c0 -5 5 -7 10 -4 6 3 10 8 10 11 0 2 -4 4 -10 4 -5 0 -10
-5 -10 -11z"/>
<path d="M410 1000 c0 -5 5 -10 10 -10 6 0 10 5 10 10 0 6 -4 10 -10 10 -5 0
-10 -4 -10 -10z"/>
<path d="M265 950 c-3 -5 -1 -10 4 -10 6 0 11 5 11 10 0 6 -2 10 -4 10 -3 0
-8 -4 -11 -10z"/>
<path d="M340 905 c0 -20 5 -25 25 -25 20 0 25 5 25 25 0 20 -5 25 -25 25 -20
0 -25 -5 -25 -25z"/>
<path d="M410 905 c0 -8 4 -15 10 -15 5 0 7 7 4 15 -4 8 -8 15 -10 15 -2 0 -4
-7 -4 -15z"/>
<path d="M310 900 c0 -5 5 -10 10 -10 6 0 10 5 10 10 0 6 -4 10 -10 10 -5 0
-10 -4 -10 -10z"/>
<path d="M290 855 c0 -20 5 -25 25 -25 20 0 25 5 25 25 0 20 -5 25 -25 25 -20
0 -25 -5 -25 -25z"/>
<path d="M360 860 c0 -5 5 -10 11 -10 5 0 7 5 4 10 -3 6 -8 10 -11 10 -2 0 -4
-4 -4 -10z"/>
<path d="M340 805 c0 -20 5 -25 25 -25 20 0 25 5 25 25 0 20 -5 25 -25 25 -20
0 -25 -5 -25 -25z"/>
<path d="M410 810 c0 -5 5 -10 11 -10 5 0 7 5 4 10 -3 6 -8 10 -11 10 -2 0 -4
-4 -4 -10z"/>
<path d="M410 710 c0 -5 5 -10 10 -10 6 0 10 5 10 10 0 6 -4 10 -10 10 -5 0
-10 -4 -10 -10z"/>
<path d="M2710 1049 c0 -5 5 -7 10 -4 6 3 10 8 10 11 0 2 -4 4 -10 4 -5 0 -10
-5 -10 -11z"/>
<path d="M2690 1005 c0 -20 5 -25 25 -25 20 0 25 5 25 25 0 20 -5 25 -25 25
-20 0 -25 -5 -25 -25z"/>
<path d="M2750 1000 c0 -5 5 -10 10 -10 6 0 10 5 10 10 0 6 -4 10 -10 10 -5 0
-10 -4 -10 -10z"/>
<path d="M2740 955 c0 -20 5 -25 25 -25 20 0 25 5 25 25 0 20 -5 25 -25 25
-20 0 -25 -5 -25 -25z"/>
<path d="M2710 956 c0 -9 5 -16 10 -16 6 0 10 4 10 9 0 6 -4 13 -10 16 -5 3
-10 -1 -10 -9z"/>
<path d="M2690 905 c0 -20 5 -25 25 -25 20 0 25 5 25 25 0 20 -5 25 -25 25
-20 0 -25 -5 -25 -25z"/>
<path d="M2790 905 c0 -20 5 -25 25 -25 20 0 25 5 25 25 0 20 -5 25 -25 25
-20 0 -25 -5 -25 -25z"/>
<path d="M2856 911 c-4 -7 -5 -15 -2 -18 9 -9 19 4 14 18 -4 11 -6 11 -12 0z"/>
<path d="M2750 899 c0 -5 5 -7 10 -4 6 3 10 8 10 11 0 2 -4 4 -10 4 -5 0 -10
-5 -10 -11z"/>
<path d="M2740 855 c0 -20 5 -25 25 -25 20 0 25 5 25 25 0 20 -5 25 -25 25
-20 0 -25 -5 -25 -25z"/>
<path d="M2710 860 c0 -5 5 -10 11 -10 5 0 7 5 4 10 -3 6 -8 10 -11 10 -2 0
-4 -4 -4 -10z"/>
<path d="M2690 805 c0 -20 5 -25 25 -25 20 0 25 5 25 25 0 20 -5 25 -25 25
-20 0 -25 -5 -25 -25z"/>
<path d="M2790 805 c0 -20 5 -25 25 -25 20 0 25 5 25 25 0 20 -5 25 -25 25
-20 0 -25 -5 -25 -25z"/>
<path d="M2850 810 c0 -5 5 -10 10 -10 6 0 10 5 10 10 0 6 -4 10 -10 10 -5 0
-10 -4 -10 -10z"/>
<path d="M2750 710 c0 -5 5 -10 10 -10 6 0 10 5 10 10 0 6 -4 10 -10 10 -5 0
-10 -4 -10 -10z"/>
<path d="M2805 1050 c3 -5 8 -10 11 -10 2 0 4 5 4 10 0 6 -5 10 -11 10 -5 0
-7 -4 -4 -10z"/>
<path d="M2855 1000 c-3 -5 -1 -10 4 -10 6 0 11 5 11 10 0 6 -2 10 -4 10 -3 0
-8 -4 -11 -10z"/>
<path d="M215 1000 c3 -5 8 -10 11 -10 2 0 4 5 4 10 0 6 -5 10 -11 10 -5 0 -7
-4 -4 -10z"/>
<path d="M2955 1000 c3 -5 8 -10 11 -10 2 0 4 5 4 10 0 6 -5 10 -11 10 -5 0
-7 -4 -4 -10z"/>
<path d="M2905 950 c3 -5 8 -10 11 -10 2 0 4 5 4 10 0 6 -5 10 -11 10 -5 0 -7
-4 -4 -10z"/>
<path d="M210 900 c0 -5 5 -10 10 -10 6 0 10 5 10 10 0 6 -4 10 -10 10 -5 0
-10 -4 -10 -10z"/>
<path d="M2950 900 c0 -5 5 -10 11 -10 5 0 7 5 4 10 -3 6 -8 10 -11 10 -2 0
-4 -4 -4 -10z"/>
<path d="M2950 810 c0 -5 5 -10 11 -10 5 0 7 5 4 10 -3 6 -8 10 -11 10 -2 0
-4 -4 -4 -10z"/>
<path d="M110 710 c0 -5 5 -10 10 -10 6 0 10 5 10 10 0 6 -4 10 -10 10 -5 0
-10 -4 -10 -10z"/>
<path d="M210 709 c0 -5 5 -7 10 -4 6 3 10 8 10 11 0 2 -4 4 -10 4 -5 0 -10
-5 -10 -11z"/>
<path d="M2850 710 c0 -5 5 -10 10 -10 6 0 10 5 10 10 0 6 -4 10 -10 10 -5 0
-10 -4 -10 -10z"/>
<path d="M2950 709 c0 -5 5 -7 10 -4 6 3 10 8 10 11 0 2 -4 4 -10 4 -5 0 -10
-5 -10 -11z"/>
<path d="M60 660 c0 -5 5 -10 10 -10 6 0 10 5 10 10 0 6 -4 10 -10 10 -5 0
-10 -4 -10 -10z"/>
<path d="M260 659 c0 -5 5 -7 10 -4 6 3 10 8 10 11 0 2 -4 4 -10 4 -5 0 -10
-5 -10 -11z"/>
<path d="M365 660 c3 -5 8 -10 11 -10 2 0 4 5 4 10 0 6 -5 10 -11 10 -5 0 -7
-4 -4 -10z"/>
<path d="M2705 660 c3 -5 11 -10 16 -10 6 0 7 5 4 10 -3 6 -11 10 -16 10 -6 0
-7 -4 -4 -10z"/>
<path d="M2805 660 c3 -5 8 -10 11 -10 2 0 4 5 4 10 0 6 -5 10 -11 10 -5 0 -7
-4 -4 -10z"/>
<path d="M2900 660 c0 -5 5 -10 10 -10 6 0 10 5 10 10 0 6 -4 10 -10 10 -5 0
-10 -4 -10 -10z"/>
<path d="M215 610 c-3 -5 -1 -10 4 -10 6 0 11 5 11 10 0 6 -2 10 -4 10 -3 0
-8 -4 -11 -10z"/>
<path d="M265 560 c3 -5 8 -10 11 -10 2 0 4 5 4 10 0 6 -5 10 -11 10 -5 0 -7
-4 -4 -10z"/>
<path d="M410 610 c0 -5 5 -10 10 -10 6 0 10 5 10 10 0 6 -4 10 -10 10 -5 0
-10 -4 -10 -10z"/>
<path d="M2700 566 c0 -2 7 -6 15 -10 8 -3 15 -1 15 4 0 6 -7 10 -15 10 -8 0
-15 -2 -15 -4z"/>
<path d="M2800 560 c0 -5 5 -10 10 -10 6 0 10 5 10 10 0 6 -4 10 -10 10 -5 0
-10 -4 -10 -10z"/>
<path d="M2690 515 c0 -20 5 -25 25 -25 20 0 25 5 25 25 0 20 -5 25 -25 25
-20 0 -25 -5 -25 -25z"/>
<path d="M2790 515 c0 -20 5 -25 25 -25 20 0 25 5 25 25 0 20 -5 25 -25 25
-20 0 -25 -5 -25 -25z"/>
<path d="M2755 510 c3 -5 8 -10 11 -10 2 0 4 5 4 10 0 6 -5 10 -11 10 -5 0 -7
-4 -4 -10z"/>
<path d="M2640 465 c0 -20 5 -25 25 -25 20 0 25 5 25 25 0 20 -5 25 -25 25
-20 0 -25 -5 -25 -25z"/>
<path d="M2740 465 c0 -20 5 -25 25 -25 20 0 25 5 25 25 0 20 -5 25 -25 25
-20 0 -25 -5 -25 -25z"/>
<path d="M2706 465 c-3 -9 0 -15 9 -15 9 0 12 6 9 15 -4 8 -7 15 -9 15 -2 0
-5 -7 -9 -15z"/>
<path d="M2805 471 c-3 -5 -1 -12 5 -16 5 -3 10 1 10 9 0 18 -6 21 -15 7z"/>
<path d="M2590 415 c0 -20 5 -25 25 -25 20 0 25 5 25 25 0 20 -5 25 -25 25
-20 0 -25 -5 -25 -25z"/>
<path d="M2690 415 c0 -20 5 -25 25 -25 20 0 25 5 25 25 0 20 -5 25 -25 25
-20 0 -25 -5 -25 -25z"/>
<path d="M2790 415 c0 -20 5 -25 25 -25 20 0 25 5 25 25 0 20 -5 25 -25 25
-20 0 -25 -5 -25 -25z"/>
<path d="M2640 365 c0 -20 5 -25 25 -25 20 0 25 5 25 25 0 20 -5 25 -25 25
-20 0 -25 -5 -25 -25z"/>
<path d="M2740 365 c0 -20 5 -25 25 -25 20 0 25 5 25 25 0 20 -5 25 -25 25
-20 0 -25 -5 -25 -25z"/>
<path d="M2705 370 c-3 -5 1 -10 10 -10 9 0 13 5 10 10 -3 6 -8 10 -10 10 -2
0 -7 -4 -10 -10z"/>
<path d="M2690 315 c0 -20 5 -25 25 -25 20 0 25 5 25 25 0 20 -5 25 -25 25
-20 0 -25 -5 -25 -25z"/>
<path d="M2560 319 c0 -5 5 -7 10 -4 6 3 10 8 10 11 0 2 -4 4 -10 4 -5 0 -10
-5 -10 -11z"/>
<path d="M2655 320 c3 -5 8 -10 11 -10 2 0 4 5 4 10 0 6 -5 10 -11 10 -5 0 -7
-4 -4 -10z"/>
<path d="M2755 320 c-3 -5 -1 -10 4 -10 6 0 11 5 11 10 0 6 -2 10 -4 10 -3 0
-8 -4 -11 -10z"/>
<path d="M2610 270 c0 -5 5 -10 11 -10 5 0 7 5 4 10 -3 6 -8 10 -11 10 -2 0
-4 -4 -4 -10z"/>
<path d="M2850 610 c0 -5 5 -10 10 -10 6 0 10 5 10 10 0 6 -4 10 -10 10 -5 0
-10 -4 -10 -10z"/>
<path d="M2955 610 c3 -5 8 -10 11 -10 2 0 4 5 4 10 0 6 -5 10 -11 10 -5 0 -7
-4 -4 -10z"/>
<path d="M340 515 c0 -20 5 -25 25 -25 20 0 25 5 25 25 0 20 -5 25 -25 25 -20
0 -25 -5 -25 -25z"/>
<path d="M310 509 c0 -5 5 -7 10 -4 6 3 10 8 10 11 0 2 -4 4 -10 4 -5 0 -10
-5 -10 -11z"/>
<path d="M290 465 c0 -20 5 -25 25 -25 20 0 25 5 25 25 0 20 -5 25 -25 25 -20
0 -25 -5 -25 -25z"/>
<path d="M390 465 c0 -20 5 -25 25 -25 20 0 25 5 25 25 0 20 -5 25 -25 25 -20
0 -25 -5 -25 -25z"/>
<path d="M361 464 c0 -11 3 -14 6 -6 3 7 2 16 -1 19 -3 4 -6 -2 -5 -13z"/>
<path d="M456 471 c-4 -7 -5 -15 -2 -18 9 -9 19 4 14 18 -4 11 -6 11 -12 0z"/>
<path d="M265 460 c-3 -5 -1 -10 4 -10 6 0 11 5 11 10 0 6 -2 10 -4 10 -3 0
-8 -4 -11 -10z"/>
<path d="M340 415 c0 -20 5 -25 25 -25 20 0 25 5 25 25 0 20 -5 25 -25 25 -20
0 -25 -5 -25 -25z"/>
<path d="M440 415 c0 -20 5 -25 25 -25 20 0 25 5 25 25 0 20 -5 25 -25 25 -20
0 -25 -5 -25 -25z"/>
<path d="M310 421 c0 -6 4 -13 10 -16 6 -3 7 1 4 9 -7 18 -14 21 -14 7z"/>
<path d="M390 365 c0 -20 5 -25 25 -25 20 0 25 5 25 25 0 20 -5 25 -25 25 -20
0 -25 -5 -25 -25z"/>
<path d="M490 365 c0 -20 5 -25 25 -25 20 0 25 5 25 25 0 20 -5 25 -25 25 -20
0 -25 -5 -25 -25z"/>
<path d="M455 370 c-3 -5 1 -10 10 -10 9 0 13 5 10 10 -3 6 -8 10 -10 10 -2 0
-7 -4 -10 -10z"/>
<path d="M260 359 c0 -5 5 -7 10 -4 6 3 10 8 10 11 0 2 -4 4 -10 4 -5 0 -10
-5 -10 -11z"/>
<path d="M440 315 c0 -20 5 -25 25 -25 20 0 25 5 25 25 0 20 -5 25 -25 25 -20
0 -25 -5 -25 -25z"/>
<path d="M315 320 c-3 -5 -1 -10 4 -10 6 0 11 5 11 10 0 6 -2 10 -4 10 -3 0
-8 -4 -11 -10z"/>
<path d="M405 320 c-3 -5 1 -10 10 -10 9 0 13 5 10 10 -3 6 -8 10 -10 10 -2 0
-7 -4 -10 -10z"/>
<path d="M360 269 c0 -5 5 -7 10 -4 6 3 10 8 10 11 0 2 -4 4 -10 4 -5 0 -10
-5 -10 -11z"/>
<path d="M455 270 c-3 -5 1 -10 9 -10 9 0 16 5 16 10 0 6 -4 10 -9 10 -6 0
-13 -4 -16 -10z"/>
<path d="M210 510 c0 -5 5 -10 10 -10 6 0 10 5 10 10 0 6 -4 10 -10 10 -5 0
-10 -4 -10 -10z"/>
<path d="M2950 509 c0 -5 5 -7 10 -4 6 3 10 8 10 11 0 2 -4 4 -10 4 -5 0 -10
-5 -10 -11z"/>
<path d="M2900 459 c0 -5 5 -7 10 -4 6 3 10 8 10 11 0 2 -4 4 -10 4 -5 0 -10
-5 -10 -11z"/>
<path d="M550 270 c0 -5 5 -10 10 -10 6 0 10 5 10 10 0 6 -4 10 -10 10 -5 0
-10 -4 -10 -10z"/>
<path d="M2850 320 c0 -5 5 -10 11 -10 5 0 7 5 4 10 -3 6 -8 10 -11 10 -2 0
-4 -4 -4 -10z"/>
<path d="M2800 270 c0 -5 7 -10 16 -10 8 0 12 5 9 10 -3 6 -10 10 -16 10 -5 0
-9 -4 -9 -10z"/>
<path d="M160 270 c0 -5 5 -10 10 -10 6 0 10 5 10 10 0 6 -4 10 -10 10 -5 0
-10 -4 -10 -10z"/>
<path d="M265 270 c-3 -5 -1 -10 4 -10 6 0 11 5 11 10 0 6 -2 10 -4 10 -3 0
-8 -4 -11 -10z"/>
<path d="M655 270 c-3 -5 -1 -10 4 -10 6 0 11 5 11 10 0 6 -2 10 -4 10 -3 0
-8 -4 -11 -10z"/>
<path d="M2410 269 c0 -5 5 -7 10 -4 6 3 10 8 10 11 0 2 -4 4 -10 4 -5 0 -10
-5 -10 -11z"/>
<path d="M2900 270 c0 -5 5 -10 10 -10 6 0 10 5 10 10 0 6 -4 10 -10 10 -5 0
-10 -4 -10 -10z"/>
<path d="M215 220 c3 -5 8 -10 11 -10 2 0 4 5 4 10 0 6 -5 10 -11 10 -5 0 -7
-4 -4 -10z"/>
<path d="M310 220 c0 -5 5 -10 10 -10 6 0 10 5 10 10 0 6 -4 10 -10 10 -5 0
-10 -4 -10 -10z"/>
<path d="M405 220 c3 -5 8 -10 11 -10 2 0 4 5 4 10 0 6 -5 10 -11 10 -5 0 -7
-4 -4 -10z"/>
<path d="M500 220 c0 -5 5 -10 10 -10 6 0 10 5 10 10 0 6 -4 10 -10 10 -5 0
-10 -4 -10 -10z"/>
<path d="M605 220 c-3 -5 -1 -10 4 -10 6 0 11 5 11 10 0 6 -2 10 -4 10 -3 0
-8 -4 -11 -10z"/>
<path d="M900 219 c0 -5 5 -7 10 -4 6 3 10 8 10 11 0 2 -4 4 -10 4 -5 0 -10
-5 -10 -11z"/>
<path d="M990 220 c0 -5 5 -10 10 -10 6 0 10 5 10 10 0 6 -4 10 -10 10 -5 0
-10 -4 -10 -10z"/>
<path d="M1090 220 c0 -5 5 -10 10 -10 6 0 10 5 10 10 0 6 -4 10 -10 10 -5 0
-10 -4 -10 -10z"/>
<path d="M1190 220 c0 -5 5 -10 11 -10 5 0 7 5 4 10 -3 6 -8 10 -11 10 -2 0
-4 -4 -4 -10z"/>
<path d="M1385 220 c3 -5 8 -10 11 -10 2 0 4 5 4 10 0 6 -5 10 -11 10 -5 0 -7
-4 -4 -10z"/>
<path d="M1480 220 c0 -5 5 -10 10 -10 6 0 10 5 10 10 0 6 -4 10 -10 10 -5 0
-10 -4 -10 -10z"/>
<path d="M1585 220 c3 -5 8 -10 11 -10 2 0 4 5 4 10 0 6 -5 10 -11 10 -5 0 -7
-4 -4 -10z"/>
<path d="M1775 220 c3 -5 8 -10 11 -10 2 0 4 5 4 10 0 6 -5 10 -11 10 -5 0 -7
-4 -4 -10z"/>
<path d="M1875 220 c-3 -5 -1 -10 4 -10 6 0 11 5 11 10 0 6 -2 10 -4 10 -3 0
-8 -4 -11 -10z"/>
<path d="M1975 220 c-3 -5 -1 -10 4 -10 6 0 11 5 11 10 0 6 -2 10 -4 10 -3 0
-8 -4 -11 -10z"/>
<path d="M2170 219 c0 -5 5 -7 10 -4 6 3 10 8 10 11 0 2 -4 4 -10 4 -5 0 -10
-5 -10 -11z"/>
<path d="M2270 220 c0 -5 5 -10 11 -10 5 0 7 5 4 10 -3 6 -8 10 -11 10 -2 0
-4 -4 -4 -10z"/>
<path d="M2365 220 c-3 -5 -1 -10 4 -10 6 0 11 5 11 10 0 6 -2 10 -4 10 -3 0
-8 -4 -11 -10z"/>
<path d="M2465 220 c3 -5 8 -10 11 -10 2 0 4 5 4 10 0 6 -5 10 -11 10 -5 0 -7
-4 -4 -10z"/>
<path d="M2560 220 c0 -5 5 -10 11 -10 5 0 7 5 4 10 -3 6 -8 10 -11 10 -2 0
-4 -4 -4 -10z"/>
<path d="M2660 219 c0 -5 5 -7 10 -4 6 3 10 8 10 11 0 2 -4 4 -10 4 -5 0 -10
-5 -10 -11z"/>
<path d="M2850 219 c0 -5 5 -7 10 -4 6 3 10 8 10 11 0 2 -4 4 -10 4 -5 0 -10
-5 -10 -11z"/>
<path d="M2950 220 c0 -5 5 -10 11 -10 5 0 7 5 4 10 -3 6 -8 10 -11 10 -2 0
-4 -4 -4 -10z"/>
<path d="M260 170 c0 -5 5 -10 11 -10 5 0 7 5 4 10 -3 6 -8 10 -11 10 -2 0 -4
-4 -4 -10z"/>
<path d="M555 170 c-3 -5 -1 -10 4 -10 6 0 11 5 11 10 0 6 -2 10 -4 10 -3 0
-8 -4 -11 -10z"/>
<path d="M600 120 c0 -5 5 -10 10 -10 6 0 10 5 10 10 0 6 -4 10 -10 10 -5 0
-10 -4 -10 -10z"/>
<path d="M650 170 c0 -5 5 -10 10 -10 6 0 10 5 10 10 0 6 -4 10 -10 10 -5 0
-10 -4 -10 -10z"/>
<path d="M750 170 c0 -5 5 -10 11 -10 5 0 7 5 4 10 -3 6 -8 10 -11 10 -2 0 -4
-4 -4 -10z"/>
<path d="M1040 170 c0 -5 5 -10 10 -10 6 0 10 5 10 10 0 6 -4 10 -10 10 -5 0
-10 -4 -10 -10z"/>
<path d="M1140 170 c0 -5 5 -10 10 -10 6 0 10 5 10 10 0 6 -4 10 -10 10 -5 0
-10 -4 -10 -10z"/>
<path d="M1435 170 c-3 -5 -1 -10 4 -10 6 0 11 5 11 10 0 6 -2 10 -4 10 -3 0
-8 -4 -11 -10z"/>
<path d="M1530 170 c0 -5 5 -10 10 -10 6 0 10 5 10 10 0 6 -4 10 -10 10 -5 0
-10 -4 -10 -10z"/>
<path d="M1925 170 c4 -6 11 -8 16 -5 14 9 11 15 -7 15 -8 0 -12 -5 -9 -10z"/>
<path d="M1970 120 c0 -5 5 -10 10 -10 6 0 10 5 10 10 0 6 -4 10 -10 10 -5 0
-10 -4 -10 -10z"/>
<path d="M2020 170 c0 -5 5 -10 10 -10 6 0 10 5 10 10 0 6 -4 10 -10 10 -5 0
-10 -4 -10 -10z"/>
<path d="M2125 170 c3 -5 8 -10 11 -10 2 0 4 5 4 10 0 6 -5 10 -11 10 -5 0 -7
-4 -4 -10z"/>
<path d="M2070 120 c0 -5 5 -10 10 -10 6 0 10 5 10 10 0 6 -4 10 -10 10 -5 0
-10 -4 -10 -10z"/>
<path d="M2510 170 c0 -5 5 -10 10 -10 6 0 10 5 10 10 0 6 -4 10 -10 10 -5 0
-10 -4 -10 -10z"/>
<path d="M2805 170 c3 -5 8 -10 11 -10 2 0 4 5 4 10 0 6 -5 10 -11 10 -5 0 -7
-4 -4 -10z"/>
<path d="M210 120 c0 -5 5 -10 10 -10 6 0 10 5 10 10 0 6 -4 10 -10 10 -5 0
-10 -4 -10 -10z"/>
<path d="M1090 120 c0 -5 5 -10 10 -10 6 0 10 5 10 10 0 6 -4 10 -10 10 -5 0
-10 -4 -10 -10z"/>
<path d="M1580 119 c0 -5 5 -7 10 -4 6 3 10 8 10 11 0 2 -4 4 -10 4 -5 0 -10
-5 -10 -11z"/>
<path d="M2465 120 c3 -5 8 -10 11 -10 2 0 4 5 4 10 0 6 -5 10 -11 10 -5 0 -7
-4 -4 -10z"/>
<path d="M650 70 c0 -5 5 -10 10 -10 6 0 10 5 10 10 0 6 -4 10 -10 10 -5 0
-10 -4 -10 -10z"/>
<path d="M2025 80 c-3 -5 -1 -10 4 -10 6 0 11 5 11 10 0 6 -2 10 -4 10 -3 0
-8 -4 -11 -10z"/>
<path d="M2905 70 c3 -5 8 -10 11 -10 2 0 4 5 4 10 0 6 -5 10 -11 10 -5 0 -7
-4 -4 -10z"/>
<path d="M260 2624 c0 -8 5 -12 10 -9 6 4 8 11 5 16 -9 14 -15 11 -15 -7z"/>
<path d="M290 2615 c0 -20 5 -25 25 -25 20 0 25 5 25 25 0 20 -5 25 -25 25
-20 0 -25 -5 -25 -25z"/>
<path d="M360 2625 c0 -8 5 -15 10 -15 6 0 10 7 10 15 0 8 -4 15 -10 15 -5 0
-10 -7 -10 -15z"/>
<path d="M390 2615 c0 -20 5 -25 25 -25 20 0 25 5 25 25 0 20 -5 25 -25 25
-20 0 -25 -5 -25 -25z"/>
<path d="M456 2632 c-3 -6 -1 -14 5 -17 15 -10 25 3 12 16 -7 7 -13 7 -17 1z"/>
<path d="M490 2615 c0 -20 5 -25 25 -25 20 0 25 5 25 25 0 20 -5 25 -25 25
-20 0 -25 -5 -25 -25z"/>
<path d="M550 2626 c0 -8 5 -18 10 -21 6 -3 10 3 10 14 0 12 -4 21 -10 21 -5
0 -10 -6 -10 -14z"/>
<path d="M650 2625 c0 -8 5 -15 10 -15 6 0 10 7 10 15 0 8 -4 15 -10 15 -5 0
-10 -7 -10 -15z"/>
<path d="M750 2624 c0 -8 5 -12 10 -9 6 4 8 11 5 16 -9 14 -15 11 -15 -7z"/>
<path d="M780 2615 c0 -20 5 -25 25 -25 20 0 25 5 25 25 0 20 -5 25 -25 25
-20 0 -25 -5 -25 -25z"/>
<path d="M847 2633 c-11 -11 -8 -23 6 -23 8 0 14 7 14 15 0 16 -9 19 -20 8z"/>
<path d="M880 2615 c0 -20 5 -25 25 -25 20 0 25 5 25 25 0 20 -5 25 -25 25
-20 0 -25 -5 -25 -25z"/>
<path d="M940 2625 c0 -8 5 -15 10 -15 6 0 10 7 10 15 0 8 -4 15 -10 15 -5 0
-10 -7 -10 -15z"/>
<path d="M980 2615 c0 -20 5 -25 25 -25 20 0 25 5 25 25 0 20 -5 25 -25 25
-20 0 -25 -5 -25 -25z"/>
<path d="M1040 2625 c0 -8 5 -15 10 -15 6 0 10 7 10 15 0 8 -4 15 -10 15 -5 0
-10 -7 -10 -15z"/>
<path d="M1140 2624 c0 -8 5 -12 10 -9 6 4 8 11 5 16 -9 14 -15 11 -15 -7z"/>
<path d="M1240 2624 c0 -8 5 -12 10 -9 6 4 8 11 5 16 -9 14 -15 11 -15 -7z"/>
<path d="M1270 2615 c0 -20 5 -25 25 -25 20 0 25 5 25 25 0 20 -5 25 -25 25
-20 0 -25 -5 -25 -25z"/>
<path d="M1336 2631 c-4 -5 -2 -12 3 -15 5 -4 12 -2 15 3 4 5 2 12 -3 15 -5 4
-12 2 -15 -3z"/>
<path d="M1370 2615 c0 -20 5 -25 25 -25 20 0 25 5 25 25 0 20 -5 25 -25 25
-20 0 -25 -5 -25 -25z"/>
<path d="M1435 2631 c-3 -5 -1 -12 5 -16 5 -3 10 1 10 9 0 18 -6 21 -15 7z"/>
<path d="M1470 2615 c0 -20 5 -25 25 -25 20 0 25 5 25 25 0 20 -5 25 -25 25
-20 0 -25 -5 -25 -25z"/>
<path d="M1536 2631 c-4 -7 -5 -15 -2 -18 9 -9 19 4 14 18 -4 11 -6 11 -12 0z"/>
<path d="M1636 2631 c-4 -7 -5 -15 -2 -18 9 -9 19 4 14 18 -4 11 -6 11 -12 0z"/>
<path d="M1660 2615 c0 -20 5 -25 25 -25 20 0 25 5 25 25 0 20 -5 25 -25 25
-20 0 -25 -5 -25 -25z"/>
<path d="M1730 2624 c0 -8 5 -12 10 -9 6 4 8 11 5 16 -9 14 -15 11 -15 -7z"/>
<path d="M1760 2615 c0 -20 5 -25 25 -25 20 0 25 5 25 25 0 20 -5 25 -25 25
-20 0 -25 -5 -25 -25z"/>
<path d="M1820 2625 c0 -9 5 -15 11 -13 6 2 11 8 11 13 0 5 -5 11 -11 13 -6 2
-11 -4 -11 -13z"/>
<path d="M1860 2615 c0 -20 5 -25 25 -25 20 0 25 5 25 25 0 20 -5 25 -25 25
-20 0 -25 -5 -25 -25z"/>
<path d="M1920 2625 c0 -8 5 -15 10 -15 6 0 10 7 10 15 0 8 -4 15 -10 15 -5 0
-10 -7 -10 -15z"/>
<path d="M2020 2625 c0 -8 5 -15 10 -15 6 0 10 7 10 15 0 8 -4 15 -10 15 -5 0
-10 -7 -10 -15z"/>
<path d="M2150 2615 c0 -20 5 -25 25 -25 20 0 25 5 25 25 0 20 -5 25 -25 25
-20 0 -25 -5 -25 -25z"/>
<path d="M2216 2632 c-3 -6 -1 -14 5 -17 15 -10 25 3 12 16 -7 7 -13 7 -17 1z"/>
<path d="M2250 2615 c0 -20 5 -25 25 -25 20 0 25 5 25 25 0 20 -5 25 -25 25
-20 0 -25 -5 -25 -25z"/>
<path d="M2310 2625 c0 -8 5 -15 10 -15 6 0 10 7 10 15 0 8 -4 15 -10 15 -5 0
-10 -7 -10 -15z"/>
<path d="M2350 2615 c0 -20 5 -25 25 -25 20 0 25 5 25 25 0 20 -5 25 -25 25
-20 0 -25 -5 -25 -25z"/>
<path d="M2410 2625 c0 -8 5 -15 10 -15 6 0 10 7 10 15 0 8 -4 15 -10 15 -5 0
-10 -7 -10 -15z"/>
<path d="M2510 2626 c0 -9 5 -16 10 -16 6 0 10 4 10 9 0 6 -4 13 -10 16 -5 3
-10 -1 -10 -9z"/>
<path d="M2540 2615 c0 -20 5 -25 25 -25 20 0 25 5 25 25 0 20 -5 25 -25 25
-20 0 -25 -5 -25 -25z"/>
<path d="M2640 2615 c0 -20 5 -25 25 -25 20 0 25 5 25 25 0 20 -5 25 -25 25
-20 0 -25 -5 -25 -25z"/>
<path d="M2710 2626 c0 -9 5 -16 10 -16 6 0 10 4 10 9 0 6 -4 13 -10 16 -5 3
-10 -1 -10 -9z"/>
<path d="M2740 2615 c0 -20 5 -25 25 -25 20 0 25 5 25 25 0 20 -5 25 -25 25
-20 0 -25 -5 -25 -25z"/>
<path d="M2800 2625 c0 -8 5 -15 10 -15 6 0 10 7 10 15 0 8 -4 15 -10 15 -5 0
-10 -7 -10 -15z"/>
<path d="M2900 2625 c0 -8 5 -15 10 -15 6 0 10 7 10 15 0 8 -4 15 -10 15 -5 0
-10 -7 -10 -15z"/>
<path d="M50 2565 c0 -20 5 -25 25 -25 20 0 25 5 25 25 0 20 -5 25 -25 25 -20
0 -25 -5 -25 -25z"/>
<path d="M340 2565 c0 -20 5 -25 25 -25 20 0 25 5 25 25 0 20 -5 25 -25 25
-20 0 -25 -5 -25 -25z"/>
<path d="M440 2565 c0 -20 5 -25 25 -25 20 0 25 5 25 25 0 20 -5 25 -25 25
-20 0 -25 -5 -25 -25z"/>
<path d="M540 2565 c0 -20 5 -25 25 -25 20 0 25 5 25 25 0 20 -5 25 -25 25
-20 0 -25 -5 -25 -25z"/>
<path d="M830 2565 c0 -20 5 -25 25 -25 20 0 25 5 25 25 0 20 -5 25 -25 25
-20 0 -25 -5 -25 -25z"/>
<path d="M930 2565 c0 -20 5 -25 25 -25 20 0 25 5 25 25 0 20 -5 25 -25 25
-20 0 -25 -5 -25 -25z"/>
<path d="M1220 2565 c0 -20 5 -25 25 -25 20 0 25 5 25 25 0 20 -5 25 -25 25
-20 0 -25 -5 -25 -25z"/>
<path d="M1320 2565 c0 -20 5 -25 25 -25 20 0 25 5 25 25 0 20 -5 25 -25 25
-20 0 -25 -5 -25 -25z"/>
<path d="M1420 2565 c0 -20 5 -25 25 -25 20 0 25 5 25 25 0 20 -5 25 -25 25
-20 0 -25 -5 -25 -25z"/>
<path d="M1710 2565 c0 -20 5 -25 25 -25 20 0 25 5 25 25 0 20 -5 25 -25 25
-20 0 -25 -5 -25 -25z"/>
<path d="M1810 2565 c0 -20 5 -25 25 -25 20 0 25 5 25 25 0 20 -5 25 -25 25
-20 0 -25 -5 -25 -25z"/>
<path d="M2100 2565 c0 -20 5 -25 25 -25 20 0 25 5 25 25 0 20 -5 25 -25 25
-20 0 -25 -5 -25 -25z"/>
<path d="M2200 2565 c0 -20 5 -25 25 -25 20 0 25 5 25 25 0 20 -5 25 -25 25
-20 0 -25 -5 -25 -25z"/>
<path d="M2300 2565 c0 -20 5 -25 25 -25 20 0 25 5 25 25 0 20 -5 25 -25 25
-20 0 -25 -5 -25 -25z"/>
<path d="M2590 2565 c0 -20 5 -25 25 -25 20 0 25 5 25 25 0 20 -5 25 -25 25
-20 0 -25 -5 -25 -25z"/>
<path d="M2690 2565 c0 -20 5 -25 25 -25 20 0 25 5 25 25 0 20 -5 25 -25 25
-20 0 -25 -5 -25 -25z"/>
<path d="M2790 2565 c0 -20 5 -25 25 -25 20 0 25 5 25 25 0 20 -5 25 -25 25
-20 0 -25 -5 -25 -25z"/>
<path d="M0 2564 c0 -9 7 -14 17 -12 25 5 28 28 4 28 -12 0 -21 -6 -21 -16z"/>
<path d="M110 2570 c0 -5 5 -10 11 -10 5 0 7 5 4 10 -3 6 -8 10 -11 10 -2 0
-4 -4 -4 -10z"/>
<path d="M310 2570 c0 -5 5 -10 11 -10 5 0 7 5 4 10 -3 6 -8 10 -11 10 -2 0
-4 -4 -4 -10z"/>
<path d="M600 2570 c0 -5 5 -10 11 -10 5 0 7 5 4 10 -3 6 -8 10 -11 10 -2 0
-4 -4 -4 -10z"/>
<path d="M800 2570 c0 -5 5 -10 11 -10 5 0 7 5 4 10 -3 6 -8 10 -11 10 -2 0
-4 -4 -4 -10z"/>
<path d="M895 2570 c-3 -5 -1 -10 4 -10 6 0 11 5 11 10 0 6 -2 10 -4 10 -3 0
-8 -4 -11 -10z"/>
<path d="M995 2570 c-3 -5 -1 -10 4 -10 6 0 11 5 11 10 0 6 -2 10 -4 10 -3 0
-8 -4 -11 -10z"/>
<path d="M1780 2570 c0 -5 5 -10 11 -10 5 0 7 5 4 10 -3 6 -8 10 -11 10 -2 0
-4 -4 -4 -10z"/>
<path d="M1870 2570 c0 -5 5 -10 10 -10 6 0 10 5 10 10 0 6 -4 10 -10 10 -5 0
-10 -4 -10 -10z"/>
<path d="M1975 2570 c-3 -5 -1 -10 4 -10 6 0 11 5 11 10 0 6 -2 10 -4 10 -3 0
-8 -4 -11 -10z"/>
<path d="M2365 2570 c-3 -5 -1 -10 4 -10 6 0 11 5 11 10 0 6 -2 10 -4 10 -3 0
-8 -4 -11 -10z"/>
<path d="M2755 2570 c3 -5 8 -10 11 -10 2 0 4 5 4 10 0 6 -5 10 -11 10 -5 0
-7 -4 -4 -10z"/>
<path d="M2268 2563 c7 -3 16 -2 19 1 4 3 -2 6 -13 5 -11 0 -14 -3 -6 -6z"/>
<path d="M2658 2563 c7 -3 16 -2 19 1 4 3 -2 6 -13 5 -11 0 -14 -3 -6 -6z"/>
<path d="M0 2515 c0 -20 5 -25 25 -25 20 0 25 5 25 25 0 20 -5 25 -25 25 -20
0 -25 -5 -25 -25z"/>
<path d="M390 2515 c0 -20 5 -25 25 -25 20 0 25 5 25 25 0 20 -5 25 -25 25
-20 0 -25 -5 -25 -25z"/>
<path d="M880 2515 c0 -20 5 -25 25 -25 20 0 25 5 25 25 0 20 -5 25 -25 25
-20 0 -25 -5 -25 -25z"/>
<path d="M1270 2515 c0 -20 5 -25 25 -25 20 0 25 5 25 25 0 20 -5 25 -25 25
-20 0 -25 -5 -25 -25z"/>
<path d="M1370 2515 c0 -20 5 -25 25 -25 20 0 25 5 25 25 0 20 -5 25 -25 25
-20 0 -25 -5 -25 -25z"/>
<path d="M1760 2515 c0 -20 5 -25 25 -25 20 0 25 5 25 25 0 20 -5 25 -25 25
-20 0 -25 -5 -25 -25z"/>
<path d="M1860 2515 c0 -20 5 -25 25 -25 20 0 25 5 25 25 0 20 -5 25 -25 25
-20 0 -25 -5 -25 -25z"/>
<path d="M2150 2515 c0 -20 5 -25 25 -25 20 0 25 5 25 25 0 20 -5 25 -25 25
-20 0 -25 -5 -25 -25z"/>
<path d="M2250 2515 c0 -20 5 -25 25 -25 20 0 25 5 25 25 0 20 -5 25 -25 25
-20 0 -25 -5 -25 -25z"/>
<path d="M550 2520 c0 -5 5 -10 10 -10 6 0 10 5 10 10 0 6 -4 10 -10 10 -5 0
-10 -4 -10 -10z"/>
<path d="M945 2520 c-3 -5 -2 -10 4 -10 5 0 13 5 16 10 3 6 2 10 -4 10 -5 0
-13 -4 -16 -10z"/>
<path d="M1040 2519 c0 -5 5 -7 10 -4 6 3 10 8 10 11 0 2 -4 4 -10 4 -5 0 -10
-5 -10 -11z"/>
<path d="M1430 2520 c0 -5 5 -10 10 -10 6 0 10 5 10 10 0 6 -4 10 -10 10 -5 0
-10 -4 -10 -10z"/>
<path d="M1630 2520 c0 -5 5 -10 11 -10 5 0 7 5 4 10 -3 6 -8 10 -11 10 -2 0
-4 -4 -4 -10z"/>
<path d="M1725 2520 c3 -5 11 -10 16 -10 6 0 7 5 4 10 -3 6 -11 10 -16 10 -6
0 -7 -4 -4 -10z"/>
<path d="M1825 2520 c-3 -5 -1 -10 4 -10 6 0 11 5 11 10 0 6 -2 10 -4 10 -3 0
-8 -4 -11 -10z"/>
<path d="M2220 2520 c0 -5 5 -10 10 -10 6 0 10 5 10 10 0 6 -4 10 -10 10 -5 0
-10 -4 -10 -10z"/>
<path d="M2708 2513 c7 -3 16 -2 19 1 4 3 -2 6 -13 5 -11 0 -14 -3 -6 -6z"/>
<path d="M0 2470 c0 -5 9 -10 20 -10 11 0 20 5 20 10 0 6 -9 10 -20 10 -11 0
-20 -4 -20 -10z"/>
<path d="M410 2470 c0 -5 5 -10 11 -10 5 0 7 5 4 10 -3 6 -8 10 -11 10 -2 0
-4 -4 -4 -10z"/>
<path d="M505 2470 c-3 -5 -1 -10 4 -10 6 0 11 5 11 10 0 6 -2 10 -4 10 -3 0
-8 -4 -11 -10z"/>
<path d="M2655 2470 c3 -5 8 -10 11 -10 2 0 4 5 4 10 0 6 -5 10 -11 10 -5 0
-7 -4 -4 -10z"/>
<path d="M2750 2470 c0 -5 5 -10 10 -10 6 0 10 5 10 10 0 6 -4 10 -10 10 -5 0
-10 -4 -10 -10z"/>
<path d="M0 2370 c0 -5 9 -10 20 -10 11 0 20 5 20 10 0 6 -9 10 -20 10 -11 0
-20 -4 -20 -10z"/>
<path d="M2 2305 c0 -37 4 -45 20 -45 16 0 17 3 8 20 -9 16 -8 20 5 20 9 0 15
9 15 25 0 20 -5 25 -25 25 -22 0 -24 -4 -23 -45z"/>
<path d="M60 2320 c0 -5 5 -10 10 -10 6 0 10 5 10 10 0 6 -4 10 -10 10 -5 0
-10 -4 -10 -10z"/>
<path d="M50 2275 c0 -20 5 -25 25 -25 20 0 25 5 25 25 0 20 -5 25 -25 25 -20
0 -25 -5 -25 -25z"/>
<path d="M110 2270 c0 -5 5 -10 10 -10 6 0 10 5 10 10 0 6 -4 10 -10 10 -5 0
-10 -4 -10 -10z"/>
<path d="M0 2225 c0 -20 5 -25 25 -25 20 0 25 5 25 25 0 20 -5 25 -25 25 -20
0 -25 -5 -25 -25z"/>
<path d="M100 2225 c0 -20 5 -25 25 -25 20 0 25 5 25 25 0 20 -5 25 -25 25
-20 0 -25 -5 -25 -25z"/>
<path d="M65 2230 c-3 -5 -1 -10 4 -10 6 0 11 5 11 10 0 6 -2 10 -4 10 -3 0
-8 -4 -11 -10z"/>
<path d="M50 2175 c0 -20 5 -25 25 -25 20 0 25 5 25 25 0 20 -5 25 -25 25 -20
0 -25 -5 -25 -25z"/>
<path d="M0 2174 c0 -9 7 -14 17 -12 25 5 28 28 4 28 -12 0 -21 -6 -21 -16z"/>
<path d="M0 2125 c0 -20 5 -25 25 -25 20 0 25 5 25 25 0 20 -5 25 -25 25 -20
0 -25 -5 -25 -25z"/>
<path d="M65 2130 c-3 -5 -1 -10 4 -10 6 0 11 5 11 10 0 6 -2 10 -4 10 -3 0
-8 -4 -11 -10z"/>
<path d="M60 2030 c0 -5 5 -10 10 -10 6 0 10 5 10 10 0 6 -4 10 -10 10 -5 0
-10 -4 -10 -10z"/>
<path d="M0 1980 c0 -5 9 -10 20 -10 11 0 20 5 20 10 0 6 -9 10 -20 10 -11 0
-20 -4 -20 -10z"/>
<path d="M65 1930 c-3 -5 -1 -10 4 -10 6 0 11 5 11 10 0 6 -2 10 -4 10 -3 0
-8 -4 -11 -10z"/>
<path d="M50 1885 c0 -20 5 -25 25 -25 20 0 25 5 25 25 0 20 -5 25 -25 25 -20
0 -25 -5 -25 -25z"/>
<path d="M2955 1880 c3 -5 8 -10 11 -10 2 0 4 5 4 10 0 6 -5 10 -11 10 -5 0
-7 -4 -4 -10z"/>
<path d="M0 1835 c0 -20 5 -25 25 -25 20 0 25 5 25 25 0 20 -5 25 -25 25 -20
0 -25 -5 -25 -25z"/>
<path d="M100 1835 c0 -20 5 -25 25 -25 20 0 25 5 25 25 0 20 -5 25 -25 25
-20 0 -25 -5 -25 -25z"/>
<path d="M60 1830 c0 -5 5 -10 10 -10 6 0 10 5 10 10 0 6 -4 10 -10 10 -5 0
-10 -4 -10 -10z"/>
<path d="M50 1785 c0 -20 5 -25 25 -25 20 0 25 5 25 25 0 20 -5 25 -25 25 -20
0 -25 -5 -25 -25z"/>
<path d="M0 1785 c0 -10 7 -15 18 -13 21 4 19 22 -2 26 -10 2 -16 -3 -16 -13z"/>
<path d="M0 1735 c0 -20 5 -25 25 -25 20 0 25 5 25 25 0 20 -5 25 -25 25 -20
0 -25 -5 -25 -25z"/>
<path d="M100 1735 c0 -20 5 -25 25 -25 20 0 25 5 25 25 0 20 -5 25 -25 25
-20 0 -25 -5 -25 -25z"/>
<path d="M66 1733 c-6 -14 -5 -15 5 -6 7 7 10 15 7 18 -3 3 -9 -2 -12 -12z"/>
<path d="M160 1740 c0 -5 5 -10 10 -10 6 0 10 5 10 10 0 6 -4 10 -10 10 -5 0
-10 -4 -10 -10z"/>
<path d="M50 1685 c0 -20 5 -25 25 -25 20 0 25 5 25 25 0 20 -5 25 -25 25 -20
0 -25 -5 -25 -25z"/>
<path d="M0 1685 c0 -13 4 -14 20 -5 11 6 20 13 20 15 0 3 -9 5 -20 5 -11 0
-20 -7 -20 -15z"/>
<path d="M0 1635 c0 -20 5 -25 25 -25 20 0 25 5 25 25 0 20 -5 25 -25 25 -20
0 -25 -5 -25 -25z"/>
<path d="M65 1640 c-3 -5 -1 -10 4 -10 6 0 11 5 11 10 0 6 -2 10 -4 10 -3 0
-8 -4 -11 -10z"/>
<path d="M0 1590 c0 -5 9 -10 21 -10 11 0 17 5 14 10 -3 6 -13 10 -21 10 -8 0
-14 -4 -14 -10z"/>
<path d="M0 1490 c0 -5 6 -10 14 -10 8 0 18 5 21 10 3 6 -3 10 -14 10 -12 0
-21 -4 -21 -10z"/>
<path d="M2 1425 c1 -43 18 -60 33 -35 3 6 1 10 -4 10 -6 0 -11 5 -11 10 0 6
7 10 15 10 9 0 15 9 15 25 0 20 -5 25 -25 25 -23 0 -25 -3 -23 -45z"/>
<path d="M65 1440 c-3 -5 -1 -10 4 -10 6 0 11 5 11 10 0 6 -2 10 -4 10 -3 0
-8 -4 -11 -10z"/>
<path d="M50 1395 c0 -20 5 -25 25 -25 20 0 25 5 25 25 0 20 -5 25 -25 25 -20
0 -25 -5 -25 -25z"/>
<path d="M115 1390 c-3 -5 -1 -10 4 -10 6 0 11 5 11 10 0 6 -2 10 -4 10 -3 0
-8 -4 -11 -10z"/>
<path d="M0 1345 c0 -20 5 -25 25 -25 20 0 25 5 25 25 0 20 -5 25 -25 25 -20
0 -25 -5 -25 -25z"/>
<path d="M100 1345 c0 -20 5 -25 25 -25 20 0 25 5 25 25 0 20 -5 25 -25 25
-20 0 -25 -5 -25 -25z"/>
<path d="M65 1350 c-3 -5 -1 -10 4 -10 6 0 11 5 11 10 0 6 -2 10 -4 10 -3 0
-8 -4 -11 -10z"/>
<path d="M50 1295 c0 -20 5 -25 25 -25 20 0 25 5 25 25 0 20 -5 25 -25 25 -20
0 -25 -5 -25 -25z"/>
<path d="M0 1295 c0 -8 7 -15 15 -15 8 0 15 7 15 15 0 8 -7 15 -15 15 -8 0
-15 -7 -15 -15z"/>
<path d="M115 1300 c-3 -5 -1 -10 4 -10 6 0 11 5 11 10 0 6 -2 10 -4 10 -3 0
-8 -4 -11 -10z"/>
<path d="M0 1245 c0 -20 5 -25 25 -25 20 0 25 5 25 25 0 20 -5 25 -25 25 -20
0 -25 -5 -25 -25z"/>
<path d="M65 1250 c-3 -5 -1 -10 4 -10 6 0 11 5 11 10 0 6 -2 10 -4 10 -3 0
-8 -4 -11 -10z"/>
<path d="M0 1200 c0 -5 9 -10 20 -10 11 0 20 5 20 10 0 6 -9 10 -20 10 -11 0
-20 -4 -20 -10z"/>
<path d="M0 1100 c0 -5 9 -10 20 -10 11 0 20 5 20 10 0 6 -9 10 -20 10 -11 0
-20 -4 -20 -10z"/>
<path d="M60 1049 c0 -5 5 -7 10 -4 6 3 10 8 10 11 0 2 -4 4 -10 4 -5 0 -10
-5 -10 -11z"/>
<path d="M0 955 c0 -20 5 -25 25 -25 20 0 25 5 25 25 0 20 -5 25 -25 25 -20 0
-25 -5 -25 -25z"/>
<path d="M60 950 c0 -5 5 -10 10 -10 6 0 10 5 10 10 0 6 -4 10 -10 10 -5 0
-10 -4 -10 -10z"/>
<path d="M165 950 c3 -5 8 -10 11 -10 2 0 4 5 4 10 0 6 -5 10 -11 10 -5 0 -7
-4 -4 -10z"/>
<path d="M50 905 c0 -20 5 -25 25 -25 20 0 25 5 25 25 0 20 -5 25 -25 25 -20
0 -25 -5 -25 -25z"/>
<path d="M0 905 c0 -8 7 -15 15 -15 8 0 15 7 15 15 0 8 -7 15 -15 15 -8 0 -15
-7 -15 -15z"/>
<path d="M115 900 c-3 -5 -1 -10 4 -10 6 0 11 5 11 10 0 6 -2 10 -4 10 -3 0
-8 -4 -11 -10z"/>
<path d="M0 855 c0 -20 5 -25 25 -25 20 0 25 5 25 25 0 20 -5 25 -25 25 -20 0
-25 -5 -25 -25z"/>
<path d="M100 855 c0 -20 5 -25 25 -25 20 0 25 5 25 25 0 20 -5 25 -25 25 -20
0 -25 -5 -25 -25z"/>
<path d="M160 859 c0 -5 5 -7 10 -4 6 3 10 8 10 11 0 2 -4 4 -10 4 -5 0 -10
-5 -10 -11z"/>
<path d="M50 805 c0 -20 5 -25 25 -25 20 0 25 5 25 25 0 20 -5 25 -25 25 -20
0 -25 -5 -25 -25z"/>
<path d="M0 806 c0 -9 7 -12 20 -9 26 7 26 23 0 23 -11 0 -20 -6 -20 -14z"/>
<path d="M0 755 c0 -20 5 -25 25 -25 20 0 25 5 25 25 0 20 -5 25 -25 25 -20 0
-25 -5 -25 -25z"/>
<path d="M0 710 c0 -5 9 -10 20 -10 11 0 20 5 20 10 0 6 -9 10 -20 10 -11 0
-20 -4 -20 -10z"/>
<path d="M0 610 c0 -5 9 -10 21 -10 11 0 17 5 14 10 -3 6 -13 10 -21 10 -8 0
-14 -4 -14 -10z"/>
<path d="M0 565 c0 -20 5 -25 25 -25 20 0 25 5 25 25 0 20 -5 25 -25 25 -20 0
-25 -5 -25 -25z"/>
<path d="M60 560 c0 -5 5 -10 10 -10 6 0 10 5 10 10 0 6 -4 10 -10 10 -5 0
-10 -4 -10 -10z"/>
<path d="M50 515 c0 -20 5 -25 25 -25 20 0 25 5 25 25 0 20 -5 25 -25 25 -20
0 -25 -5 -25 -25z"/>
<path d="M0 515 c0 -8 9 -15 20 -15 24 0 27 15 4 24 -22 9 -24 8 -24 -9z"/>
<path d="M115 510 c-3 -5 -1 -10 4 -10 6 0 11 5 11 10 0 6 -2 10 -4 10 -3 0
-8 -4 -11 -10z"/>
<path d="M0 465 c0 -20 5 -25 25 -25 20 0 25 5 25 25 0 20 -5 25 -25 25 -20 0
-25 -5 -25 -25z"/>
<path d="M100 465 c0 -20 5 -25 25 -25 20 0 25 5 25 25 0 20 -5 25 -25 25 -20
0 -25 -5 -25 -25z"/>
<path d="M66 471 c-4 -7 -5 -15 -2 -18 9 -9 19 4 14 18 -4 11 -6 11 -12 0z"/>
<path d="M50 415 c0 -20 5 -25 25 -25 20 0 25 5 25 25 0 20 -5 25 -25 25 -20
0 -25 -5 -25 -25z"/>
<path d="M0 415 c0 -10 7 -15 18 -13 21 4 19 22 -2 26 -10 2 -16 -3 -16 -13z"/>
<path d="M0 365 c0 -20 5 -25 25 -25 20 0 25 5 25 25 0 20 -5 25 -25 25 -20 0
-25 -5 -25 -25z"/>
<path d="M65 370 c-3 -5 -1 -10 4 -10 6 0 11 5 11 10 0 6 -2 10 -4 10 -3 0 -8
-4 -11 -10z"/>
<path d="M0 220 c0 -5 9 -10 21 -10 11 0 17 5 14 10 -3 6 -13 10 -21 10 -8 0
-14 -4 -14 -10z"/>
<path d="M65 170 c3 -5 8 -10 11 -10 2 0 4 5 4 10 0 6 -5 10 -11 10 -5 0 -7
-4 -4 -10z"/>
<path d="M360 170 c0 -5 5 -10 10 -10 6 0 10 5 10 10 0 6 -4 10 -10 10 -5 0
-10 -4 -10 -10z"/>
<path d="M455 170 c-3 -5 -2 -10 4 -10 5 0 13 5 16 10 3 6 2 10 -4 10 -5 0
-13 -4 -16 -10z"/>
<path d="M940 170 c0 -5 5 -10 10 -10 6 0 10 5 10 10 0 6 -4 10 -10 10 -5 0
-10 -4 -10 -10z"/>
<path d="M1335 170 c3 -5 8 -10 11 -10 2 0 4 5 4 10 0 6 -5 10 -11 10 -5 0 -7
-4 -4 -10z"/>
<path d="M1825 170 c4 -6 11 -8 16 -5 14 9 11 15 -7 15 -8 0 -12 -5 -9 -10z"/>
<path d="M2215 170 c3 -5 11 -10 16 -10 6 0 7 5 4 10 -3 6 -11 10 -16 10 -6 0
-7 -4 -4 -10z"/>
<path d="M2315 170 c3 -5 8 -10 11 -10 2 0 4 5 4 10 0 6 -5 10 -11 10 -5 0 -7
-4 -4 -10z"/>
<path d="M2615 170 c3 -5 8 -10 11 -10 2 0 4 5 4 10 0 6 -5 10 -11 10 -5 0 -7
-4 -4 -10z"/>
<path d="M2710 169 c0 -5 5 -7 10 -4 6 3 10 8 10 11 0 2 -4 4 -10 4 -5 0 -10
-5 -10 -11z"/>
<path d="M440 125 c0 -20 5 -25 25 -25 20 0 25 5 25 25 0 20 -5 25 -25 25 -20
0 -25 -5 -25 -25z"/>
<path d="M830 125 c0 -20 5 -25 25 -25 20 0 25 5 25 25 0 20 -5 25 -25 25 -20
0 -25 -5 -25 -25z"/>
<path d="M930 125 c0 -20 5 -25 25 -25 20 0 25 5 25 25 0 20 -5 25 -25 25 -20
0 -25 -5 -25 -25z"/>
<path d="M1220 125 c0 -20 5 -25 25 -25 20 0 25 5 25 25 0 20 -5 25 -25 25
-20 0 -25 -5 -25 -25z"/>
<path d="M1320 125 c0 -20 5 -25 25 -25 20 0 25 5 25 25 0 20 -5 25 -25 25
-20 0 -25 -5 -25 -25z"/>
<path d="M1810 125 c0 -20 5 -25 25 -25 20 0 25 5 25 25 0 20 -5 25 -25 25
-20 0 -25 -5 -25 -25z"/>
<path d="M2200 125 c0 -20 5 -25 25 -25 20 0 25 5 25 25 0 20 -5 25 -25 25
-20 0 -25 -5 -25 -25z"/>
<path d="M2590 125 c0 -20 5 -25 25 -25 20 0 25 5 25 25 0 20 -5 25 -25 25
-20 0 -25 -5 -25 -25z"/>
<path d="M2690 125 c0 -20 5 -25 25 -25 20 0 25 5 25 25 0 20 -5 25 -25 25
-20 0 -25 -5 -25 -25z"/>
<path d="M310 119 c0 -5 5 -7 10 -4 6 3 10 8 10 11 0 2 -4 4 -10 4 -5 0 -10
-5 -10 -11z"/>
<path d="M500 120 c0 -5 5 -10 10 -10 6 0 10 5 10 10 0 6 -4 10 -10 10 -5 0
-10 -4 -10 -10z"/>
<path d="M1380 120 c0 -5 5 -10 10 -10 6 0 10 5 10 10 0 6 -4 10 -10 10 -5 0
-10 -4 -10 -10z"/>
<path d="M1680 119 c0 -5 5 -7 10 -4 6 3 10 8 10 11 0 2 -4 4 -10 4 -5 0 -10
-5 -10 -11z"/>
<path d="M1875 120 c3 -5 8 -10 11 -10 2 0 4 5 4 10 0 6 -5 10 -11 10 -5 0 -7
-4 -4 -10z"/>
<path d="M2265 120 c3 -5 8 -10 11 -10 2 0 4 5 4 10 0 6 -5 10 -11 10 -5 0 -7
-4 -4 -10z"/>
<path d="M2565 120 c3 -5 8 -10 11 -10 2 0 4 5 4 10 0 6 -5 10 -11 10 -5 0 -7
-4 -4 -10z"/>
<path d="M2665 120 c-3 -5 -1 -10 4 -10 6 0 11 5 11 10 0 6 -2 10 -4 10 -3 0
-8 -4 -11 -10z"/>
<path d="M2750 120 c0 -5 5 -10 10 -10 6 0 10 5 10 10 0 6 -4 10 -10 10 -5 0
-10 -4 -10 -10z"/>
<path d="M0 75 c0 -20 5 -25 25 -25 20 0 25 5 25 25 0 20 -5 25 -25 25 -20 0
-25 -5 -25 -25z"/>
<path d="M390 75 c0 -20 5 -25 25 -25 20 0 25 5 25 25 0 20 -5 25 -25 25 -20
0 -25 -5 -25 -25z"/>
<path d="M490 75 c0 -20 5 -25 25 -25 20 0 25 5 25 25 0 20 -5 25 -25 25 -20
0 -25 -5 -25 -25z"/>
<path d="M780 75 c0 -20 5 -25 25 -25 20 0 25 5 25 25 0 20 -5 25 -25 25 -20
0 -25 -5 -25 -25z"/>
<path d="M880 75 c0 -20 5 -25 25 -25 20 0 25 5 25 25 0 20 -5 25 -25 25 -20
0 -25 -5 -25 -25z"/>
<path d="M980 75 c0 -20 5 -25 25 -25 20 0 25 5 25 25 0 20 -5 25 -25 25 -20
0 -25 -5 -25 -25z"/>
<path d="M1270 75 c0 -20 5 -25 25 -25 20 0 25 5 25 25 0 20 -5 25 -25 25 -20
0 -25 -5 -25 -25z"/>
<path d="M1370 75 c0 -20 5 -25 25 -25 20 0 25 5 25 25 0 20 -5 25 -25 25 -20
0 -25 -5 -25 -25z"/>
<path d="M1660 75 c0 -20 5 -25 25 -25 20 0 25 5 25 25 0 20 -5 25 -25 25 -20
0 -25 -5 -25 -25z"/>
<path d="M1760 75 c0 -20 5 -25 25 -25 20 0 25 5 25 25 0 20 -5 25 -25 25 -20
0 -25 -5 -25 -25z"/>
<path d="M1860 75 c0 -20 5 -25 25 -25 20 0 25 5 25 25 0 20 -5 25 -25 25 -20
0 -25 -5 -25 -25z"/>
<path d="M2150 75 c0 -20 5 -25 25 -25 20 0 25 5 25 25 0 20 -5 25 -25 25 -20
0 -25 -5 -25 -25z"/>
<path d="M2250 75 c0 -20 5 -25 25 -25 20 0 25 5 25 25 0 20 -5 25 -25 25 -20
0 -25 -5 -25 -25z"/>
<path d="M2640 75 c0 -20 5 -25 25 -25 20 0 25 5 25 25 0 20 -5 25 -25 25 -20
0 -25 -5 -25 -25z"/>
<path d="M2740 75 c0 -20 5 -25 25 -25 20 0 25 5 25 25 0 20 -5 25 -25 25 -20
0 -25 -5 -25 -25z"/>
<path d="M1826 81 c-4 -7 -5 -15 -2 -18 9 -9 19 4 14 18 -4 11 -6 11 -12 0z"/>
<path d="M60 70 c0 -5 5 -10 10 -10 6 0 10 5 10 10 0 6 -4 10 -10 10 -5 0 -10
-4 -10 -10z"/>
<path d="M165 70 c3 -5 8 -10 11 -10 2 0 4 5 4 10 0 6 -5 10 -11 10 -5 0 -7
-4 -4 -10z"/>
<path d="M265 70 c-3 -5 -1 -10 4 -10 6 0 11 5 11 10 0 6 -2 10 -4 10 -3 0 -8
-4 -11 -10z"/>
<path d="M940 69 c0 -5 5 -7 10 -4 6 3 10 8 10 11 0 2 -4 4 -10 4 -5 0 -10 -5
-10 -11z"/>
<path d="M2120 69 c0 -5 5 -7 10 -4 6 3 10 8 10 11 0 2 -4 4 -10 4 -5 0 -10
-5 -10 -11z"/>
<path d="M2220 69 c0 -5 5 -7 10 -4 6 3 10 8 10 11 0 2 -4 4 -10 4 -5 0 -10
-5 -10 -11z"/>
<path d="M2415 70 c3 -5 8 -10 11 -10 2 0 4 5 4 10 0 6 -5 10 -11 10 -5 0 -7
-4 -4 -10z"/>
<path d="M50 25 c0 -20 5 -25 25 -25 20 0 25 5 25 25 0 20 -5 25 -25 25 -20 0
-25 -5 -25 -25z"/>
<path d="M340 25 c0 -20 5 -25 25 -25 20 0 25 5 25 25 0 20 -5 25 -25 25 -20
0 -25 -5 -25 -25z"/>
<path d="M440 25 c0 -20 5 -25 25 -25 20 0 25 5 25 25 0 20 -5 25 -25 25 -20
0 -25 -5 -25 -25z"/>
<path d="M540 25 c0 -20 5 -25 25 -25 20 0 25 5 25 25 0 20 -5 25 -25 25 -20
0 -25 -5 -25 -25z"/>
<path d="M830 25 c0 -20 5 -25 25 -25 20 0 25 5 25 25 0 20 -5 25 -25 25 -20
0 -25 -5 -25 -25z"/>
<path d="M930 25 c0 -20 5 -25 25 -25 20 0 25 5 25 25 0 20 -5 25 -25 25 -20
0 -25 -5 -25 -25z"/>
<path d="M1220 25 c0 -20 5 -25 25 -25 20 0 25 5 25 25 0 20 -5 25 -25 25 -20
0 -25 -5 -25 -25z"/>
<path d="M1320 25 c0 -20 5 -25 25 -25 20 0 25 5 25 25 0 20 -5 25 -25 25 -20
0 -25 -5 -25 -25z"/>
<path d="M1420 25 c0 -20 5 -25 25 -25 20 0 25 5 25 25 0 20 -5 25 -25 25 -20
0 -25 -5 -25 -25z"/>
<path d="M1710 25 c0 -20 5 -25 25 -25 20 0 25 5 25 25 0 20 -5 25 -25 25 -20
0 -25 -5 -25 -25z"/>
<path d="M1810 25 c0 -20 5 -25 25 -25 20 0 25 5 25 25 0 20 -5 25 -25 25 -20
0 -25 -5 -25 -25z"/>
<path d="M1910 25 c0 -20 5 -25 25 -25 20 0 25 5 25 25 0 20 -5 25 -25 25 -20
0 -25 -5 -25 -25z"/>
<path d="M2100 25 c0 -20 5 -25 25 -25 20 0 25 5 25 25 0 20 -5 25 -25 25 -20
0 -25 -5 -25 -25z"/>
<path d="M2200 25 c0 -20 5 -25 25 -25 20 0 25 5 25 25 0 20 -5 25 -25 25 -20
0 -25 -5 -25 -25z"/>
<path d="M2300 25 c0 -20 5 -25 25 -25 20 0 25 5 25 25 0 20 -5 25 -25 25 -20
0 -25 -5 -25 -25z"/>
<path d="M2590 25 c0 -20 5 -25 25 -25 20 0 25 5 25 25 0 20 -5 25 -25 25 -20
0 -25 -5 -25 -25z"/>
<path d="M2690 25 c0 -20 5 -25 25 -25 20 0 25 5 25 25 0 20 -5 25 -25 25 -20
0 -25 -5 -25 -25z"/>
<path d="M2790 25 c0 -20 5 -25 25 -25 20 0 25 5 25 25 0 20 -5 25 -25 25 -20
0 -25 -5 -25 -25z"/>
<path d="M0 20 c0 -13 7 -20 20 -20 13 0 20 7 20 20 0 13 -7 20 -20 20 -13 0
-20 -7 -20 -20z"/>
<path d="M210 20 c0 -11 5 -20 10 -20 6 0 10 9 10 20 0 11 -4 20 -10 20 -5 0
-10 -9 -10 -20z"/>
<path d="M406 33 c-12 -12 -6 -33 9 -33 8 0 15 6 15 14 0 17 -14 28 -24 19z"/>
<path d="M500 21 c0 -12 6 -21 16 -21 9 0 14 7 12 17 -5 25 -28 28 -28 4z"/>
<path d="M700 20 c0 -11 5 -20 10 -20 6 0 10 9 10 20 0 11 -4 20 -10 20 -5 0
-10 -9 -10 -20z"/>
<path d="M890 20 c0 -11 7 -20 15 -20 8 0 15 9 15 20 0 11 -7 20 -15 20 -8 0
-15 -9 -15 -20z"/>
<path d="M1090 20 c0 -11 5 -20 10 -20 6 0 10 9 10 20 0 11 -4 20 -10 20 -5 0
-10 -9 -10 -20z"/>
<path d="M1190 20 c0 -11 5 -20 10 -20 6 0 10 9 10 20 0 11 -4 20 -10 20 -5 0
-10 -9 -10 -20z"/>
<path d="M1286 33 c-12 -12 -6 -33 9 -33 8 0 15 6 15 14 0 17 -14 28 -24 19z"/>
<path d="M1386 33 c-12 -12 -6 -33 9 -33 8 0 15 6 15 14 0 17 -14 28 -24 19z"/>
<path d="M1585 27 c-4 -10 -5 -21 -1 -24 10 -10 18 4 13 24 -4 17 -4 17 -12 0z"/>
<path d="M1779 38 c-7 -28 -5 -38 7 -38 16 0 19 26 4 35 -5 3 -10 5 -11 3z"/>
<path d="M1870 20 c0 -13 5 -20 13 -18 6 3 12 11 12 18 0 7 -6 15 -12 18 -8 2
-13 -5 -13 -18z"/>
<path d="M1975 27 c-4 -10 -5 -21 -1 -24 10 -10 18 4 13 24 -4 17 -4 17 -12 0z"/>
<path d="M2167 34 c-8 -8 3 -34 14 -34 11 0 12 27 0 34 -4 3 -11 3 -14 0z"/>
<path d="M2260 20 c0 -11 7 -20 15 -20 8 0 15 9 15 20 0 11 -7 20 -15 20 -8 0
-15 -9 -15 -20z"/>
<path d="M2465 27 c-4 -10 -5 -21 -1 -24 10 -10 18 4 13 24 -4 17 -4 17 -12 0z"/>
<path d="M2655 30 c-7 -12 2 -30 16 -30 12 0 12 27 0 35 -5 3 -12 1 -16 -5z"/>
<path d="M2750 20 c0 -13 5 -20 13 -18 6 3 12 11 12 18 0 7 -6 15 -12 18 -8 2
-13 -5 -13 -18z"/>
<path d="M2955 27 c-4 -10 -5 -21 -1 -24 10 -10 18 4 13 24 -4 17 -4 17 -12 0z"/>
</g>
</svg>
