<?xml version="1.0" standalone="no"?>
<!DOCTYPE svg PUBLIC "-//W3C//DTD SVG 20010904//EN"
 "http://www.w3.org/TR/2001/REC-SVG-20010904/DTD/svg10.dtd">
<svg version="1.0" xmlns="http://www.w3.org/2000/svg"
 width="300.000000pt" height="300.000000pt" viewBox="0 0 300.000000 300.000000"
 preserveAspectRatio="xMidYMid meet">
<metadata>
Created by potrace 1.10, written by Peter Selinger 2001-2011
</metadata>
<g transform="translate(0.000000,300.000000) scale(0.100000,-0.100000)"
fill="#000000" stroke="none">
<path d="M1390 2920 c-30 -5 -73 -10 -95 -13 -83 -11 -253 -57 -280 -77 -5 -4
-21 -11 -35 -15 -85 -26 -284 -161 -388 -265 -71 -71 -80 -94 -57 -144 17 -35
17 -36 -10 -83 -16 -27 -48 -70 -73 -96 -38 -42 -44 -53 -39 -82 6 -37 -10
-68 -67 -129 -41 -45 -45 -74 -17 -120 18 -29 19 -50 18 -308 -1 -152 1 -274
6 -271 9 5 9 -11 0 -21 -4 -4 -8 -44 -8 -89 0 -62 -4 -88 -17 -107 -30 -41
-23 -72 28 -126 54 -58 63 -78 57 -121 -4 -27 2 -39 39 -80 25 -26 57 -69 73
-96 26 -46 27 -48 11 -82 -24 -50 -12 -81 58 -149 286 -276 681 -411 1060
-361 17 2 52 7 78 10 69 9 249 70 339 115 83 41 222 129 228 143 9 22 42 46
55 41 11 -4 13 0 9 16 -5 18 -8 19 -23 8 -9 -7 -46 -35 -81 -61 -434 -329
-1030 -340 -1482 -27 -96 65 -237 197 -237 219 0 10 11 28 24 40 l24 22 -39
71 c-22 39 -39 75 -39 79 0 5 -4 9 -9 9 -17 0 -71 54 -71 71 0 9 7 22 15 29
14 12 14 15 0 30 -8 9 -15 21 -15 27 0 5 -22 32 -50 59 -55 54 -60 72 -30 99
19 18 20 31 20 415 0 384 -1 397 -20 415 -30 27 -25 46 25 94 60 58 81 101 63
130 -16 26 -5 47 40 76 17 11 31 23 32 26 0 3 17 38 39 77 l39 71 -24 22 c-13
12 -24 30 -24 40 0 25 149 160 252 229 223 149 437 214 708 215 270 0 484 -64
708 -215 100 -67 252 -204 252 -228 0 -9 -11 -27 -24 -41 l-25 -26 37 -77 c20
-42 42 -77 49 -77 20 -1 73 -52 73 -70 0 -9 -5 -22 -11 -28 -17 -17 12 -71 66
-124 50 -48 55 -67 25 -94 -19 -18 -20 -31 -20 -415 0 -384 1 -397 20 -415 30
-27 25 -45 -30 -99 -28 -27 -50 -55 -50 -61 0 -7 -7 -18 -15 -25 -14 -12 -14
-15 0 -30 8 -9 15 -23 15 -31 0 -16 -56 -69 -74 -70 -6 0 -28 -35 -48 -77
l-37 -77 25 -26 c13 -14 24 -31 24 -38 0 -7 -23 -36 -51 -66 -63 -67 -49 -82
17 -15 54 55 63 87 38 130 -17 28 -17 31 6 77 13 26 46 69 73 95 47 45 49 49
43 87 -6 38 -3 43 49 102 61 69 66 88 34 150 -20 37 -21 51 -16 155 3 66 1
116 -4 120 -5 3 -7 10 -3 15 3 5 7 115 9 243 2 196 5 238 19 257 26 37 20 74
-19 116 -19 21 -35 41 -35 45 0 4 -8 9 -19 13 -18 5 -28 55 -10 55 19 0 -14
68 -49 100 -21 19 -52 59 -68 87 l-29 53 19 34 c24 45 17 69 -40 131 -25 28
-42 44 -38 36 5 -9 3 -12 -4 -7 -7 4 -12 13 -12 19 0 13 -155 132 -187 144
-10 4 -34 18 -53 31 -56 38 -224 114 -228 103 -2 -7 -9 -5 -17 3 -13 13 -86
30 -175 42 -19 3 -65 9 -102 14 -76 11 -138 11 -218 0z"/>
<path d="M1380 2879 c-46 -4 -107 -13 -135 -19 -236 -53 -493 -194 -644 -355
l-53 -56 27 -29 28 -29 -42 -81 c-46 -88 -42 -103 20 -81 46 16 47 15 43 -26
-2 -21 -6 -69 -10 -106 -5 -58 -8 -66 -20 -56 -26 21 -48 79 -35 92 26 26 -6
77 -49 77 -43 0 -75 -51 -49 -77 18 -18 -11 -69 -72 -130 l-53 -53 22 -20 c22
-21 22 -22 22 -427 0 -401 0 -407 -21 -429 l-22 -23 52 -53 c61 -62 90 -113
72 -131 -16 -16 -14 -33 6 -57 22 -26 64 -26 86 0 20 24 22 41 5 58 -9 9 -6
22 12 57 13 25 27 45 31 45 4 0 10 -30 13 -68 4 -37 8 -84 10 -105 4 -36 3
-38 -17 -33 -64 19 -77 19 -77 1 0 -9 16 -48 36 -86 l37 -70 -29 -30 -29 -30
81 -77 c497 -475 1256 -475 1749 0 l80 78 -32 31 -31 32 41 78 c23 42 38 81
34 85 -4 4 -27 3 -50 -3 -23 -6 -43 -10 -45 -8 -2 2 -1 49 3 104 9 115 19 126
55 56 18 -35 21 -48 12 -57 -17 -17 -15 -34 5 -58 22 -26 64 -26 86 0 20 24
22 41 6 57 -18 18 11 69 72 131 l52 53 -22 23 c-21 22 -21 28 -21 429 0 405 0
406 22 427 l22 20 -53 53 c-61 61 -90 112 -72 130 26 26 -6 77 -49 77 -43 0
-75 -51 -49 -77 9 -9 8 -20 -4 -46 -16 -33 -44 -64 -51 -56 -2 2 -7 51 -11
108 -7 99 -6 104 11 97 11 -4 34 -10 52 -13 42 -7 41 5 -7 92 l-39 70 31 33
31 33 -80 77 c-165 160 -375 275 -601 327 -58 14 -260 37 -293 34 -8 -1 -53
-5 -100 -10z m336 -35 c231 -40 457 -154 633 -320 l81 -76 -90 -75 -90 -75
-65 61 c-214 200 -509 304 -772 272 -240 -29 -431 -116 -598 -272 l-64 -61
-25 19 c-24 17 -33 33 -19 33 3 0 15 -8 25 -17 18 -16 21 -15 66 31 l47 48
-40 -24 c-22 -14 -47 -27 -56 -30 -23 -9 -59 19 -60 45 0 19 -1 20 -8 4 -6
-18 -7 -18 -22 0 -27 31 -29 40 -18 70 l12 28 13 -40 c13 -41 17 -22 5 28 l-6
28 -35 -36 -35 -36 55 -49 c70 -63 56 -65 -21 -3 l-59 48 53 53 c168 172 416
302 662 348 91 16 331 16 431 -2z m-10 -254 c112 -26 203 -62 297 -117 96 -57
253 -203 243 -228 -3 -9 13 -53 37 -103 70 -141 73 -149 52 -172 -18 -20 -18
-21 3 -41 22 -20 22 -22 22 -426 l0 -407 -22 -24 c-22 -22 -22 -24 -5 -36 9
-7 17 -19 17 -27 0 -23 -95 -212 -137 -276 -22 -32 -42 -66 -46 -75 -20 -54
-277 -201 -422 -240 -116 -32 -374 -32 -490 0 -145 39 -402 186 -422 240 -4 9
-24 43 -46 75 -42 64 -137 253 -137 276 0 8 8 20 18 27 16 12 16 14 -5 36
l-23 24 0 407 c0 404 0 406 22 426 21 20 21 21 3 41 -15 17 -16 23 -5 52 26
65 93 194 129 248 20 30 41 63 46 74 16 31 139 120 228 164 205 103 430 131
643 82z m-1018 -265 c25 -21 31 -33 27 -53 -2 -14 -10 -29 -17 -33 -7 -5 -14
-16 -14 -26 -1 -10 -5 -27 -9 -38 -4 -11 8 5 27 36 18 31 49 69 68 85 l34 29
-41 -60 c-48 -71 -77 -127 -109 -209 -27 -71 -29 -60 -14 98 6 60 9 110 7 112
-2 3 -23 -3 -47 -11 -24 -8 -45 -13 -47 -11 -9 9 28 66 39 60 7 -4 8 -3 4 4
-4 6 0 25 9 41 14 27 17 29 33 16 9 -7 32 -26 50 -40z m1705 20 c20 -42 21
-49 5 -39 -7 4 -8 3 -4 -5 4 -6 11 -9 15 -7 4 3 15 -8 25 -25 20 -34 17 -35
-41 -13 -24 9 -45 15 -47 13 -2 -2 2 -58 9 -124 6 -66 10 -122 8 -124 -1 -2
-8 11 -15 30 -6 19 -28 66 -48 106 -25 48 -32 69 -22 65 13 -5 13 -2 -1 18
-21 30 -22 44 -1 36 9 -3 12 -2 8 5 -7 11 43 69 60 69 5 0 19 -8 30 -17 20
-18 20 -18 3 9 -19 30 -21 38 -9 38 5 0 16 -16 25 -35z m-1870 -164 c-2 -6 4
-11 12 -11 8 0 15 -4 15 -10 0 -5 -21 -10 -46 -10 l-46 0 23 25 c24 24 46 28
42 6z m1982 -1 c-3 -5 1 -10 9 -10 8 0 18 -4 21 -10 4 -6 -12 -10 -39 -10 -25
0 -46 5 -46 10 0 6 7 10 16 10 8 0 12 5 9 10 -3 6 3 10 15 10 12 0 18 -4 15
-10z m-1977 -63 c2 -12 -3 -17 -17 -17 -15 0 -21 6 -21 21 0 25 33 22 38 -4z
m1982 3 c0 -13 -7 -20 -20 -20 -19 0 -27 20 -13 33 13 14 33 6 33 -13z m-1960
-42 c0 -7 -10 -14 -23 -14 -12 -1 -28 -4 -36 -5 -8 -2 -17 4 -19 14 -3 14 4
17 37 17 26 0 41 -5 41 -12z m1978 -5 c-2 -10 -11 -16 -19 -14 -8 1 -24 4 -36
5 -42 2 -25 26 18 26 33 0 40 -3 37 -17z m-1958 -32 c0 -3 -27 -8 -61 -9 -34
-2 -59 0 -56 5 6 10 117 14 117 4z m1978 -6 c4 -3 -21 -5 -56 -4 -34 1 -62 6
-62 10 0 9 109 4 118 -6z m-1948 -29 c0 -11 -21 -14 -90 -15 -64 0 -90 4 -90
12 0 8 28 13 90 14 71 2 90 -1 90 -11z m1980 -3 c0 -9 -23 -12 -90 -12 -70 0
-90 3 -90 14 0 11 19 14 90 13 66 -1 90 -5 90 -15z m-2007 -30 c-35 -2 -91 -2
-125 0 -35 2 -7 3 62 3 69 0 97 -1 63 -3z m1980 0 c-35 -2 -91 -2 -125 0 -35
2 -7 3 62 3 69 0 97 -1 63 -3z m-1893 -23 c0 -5 -7 -10 -15 -10 -8 0 -15 -4
-15 -10 0 -6 -47 -10 -120 -10 -73 0 -120 4 -120 10 0 6 -7 10 -15 10 -8 0
-15 5 -15 10 0 6 57 10 150 10 93 0 150 -4 150 -10z m1980 0 c0 -5 -7 -10 -15
-10 -8 0 -15 -4 -15 -10 0 -6 -47 -10 -120 -10 -73 0 -120 4 -120 10 0 6 -7
10 -15 10 -8 0 -15 5 -15 10 0 6 57 10 150 10 93 0 150 -4 150 -10z m-2020
-450 l0 -410 -67 1 c-65 1 -66 2 -23 9 25 4 48 6 51 4 4 -2 9 9 11 25 l4 30
-34 -15 c-19 -8 -55 -15 -81 -15 -46 -2 -46 -2 -11 -9 22 -5 27 -8 13 -9 -12
0 -25 -5 -28 -11 -3 -5 -17 -10 -31 -10 l-24 0 0 410 0 410 110 0 110 0 0
-410z m1784 373 c-2 -30 -1 -31 84 -73 21 -10 22 -9 22 27 0 36 -3 39 -47 60
l-48 22 83 0 82 1 2 -42 1 -43 7 45 c4 25 7 -142 7 -370 0 -228 -2 -396 -4
-372 -2 23 -8 42 -13 42 -5 0 -10 14 -12 32 -4 46 -28 49 -28 3 0 -28 5 -38
20 -42 15 -4 20 -14 20 -39 0 -19 -4 -34 -9 -34 -5 0 -44 16 -86 36 -43 19
-79 33 -82 31 -2 -3 -1 -16 2 -30 6 -24 12 -26 63 -30 54 -3 53 -3 -15 -5
l-73 -2 0 411 c0 324 3 410 13 406 6 -2 11 -18 11 -34z m-1831 -800 c-35 -2
-91 -2 -125 0 -35 2 -7 3 62 3 69 0 97 -1 63 -3z m1980 0 c-35 -2 -91 -2 -125
0 -35 2 -7 3 62 3 69 0 97 -1 63 -3z m-1893 -23 c0 -8 -41 -9 -127 -4 -92 5
-125 3 -118 -4 6 -6 57 -13 115 -15 l105 -3 -122 -2 c-77 -1 -123 2 -123 8 0
6 -7 10 -15 10 -8 0 -15 5 -15 10 0 6 57 10 150 10 98 0 150 -4 150 -10z
m1980 0 c0 -5 -7 -10 -15 -10 -8 0 -15 -4 -15 -10 0 -6 -46 -9 -122 -8 l-123
2 112 5 c61 3 115 10 120 15 5 5 -47 6 -124 3 -83 -4 -133 -3 -133 3 0 6 60
10 150 10 93 0 150 -4 150 -10z m-2040 -55 c0 -13 -15 -15 -87 -12 -55 2 -88
8 -91 15 -3 9 22 12 87 12 74 0 91 -3 91 -15z m64 -72 c15 -40 52 -111 82
-158 50 -80 51 -84 21 -60 -17 15 -47 52 -65 83 -19 32 -31 48 -27 37 4 -11 9
-36 10 -55 2 -19 6 -47 9 -62 5 -22 0 -31 -25 -49 l-32 -22 -19 24 -20 24 17
-28 c9 -16 15 -31 12 -33 -3 -3 -21 25 -42 61 -20 37 -35 68 -32 71 2 2 23 -3
47 -11 24 -8 45 -14 47 -12 5 5 -16 235 -24 262 -12 44 15 -4 41 -72z m1914
75 c-3 -7 -36 -13 -91 -15 -72 -3 -87 -1 -87 12 0 12 17 15 91 15 65 0 90 -3
87 -12z m-219 -98 c-5 -47 -11 -104 -13 -127 -5 -48 -3 -49 47 -28 53 22 61
19 41 -14 -10 -17 -21 -28 -25 -25 -4 2 -11 -1 -15 -7 -4 -8 -3 -9 4 -5 7 4
12 5 12 2 0 -13 -35 -76 -42 -76 -12 0 -10 7 8 38 11 19 12 22 1 10 -20 -25
-39 -22 -69 10 -20 21 -25 36 -24 66 2 33 1 36 -10 21 -7 -9 -10 -24 -7 -33 4
-10 2 -14 -2 -9 -5 4 -22 -5 -38 -20 -22 -22 -16 -8 26 60 31 48 68 119 83
157 15 39 28 69 30 68 1 -2 -2 -41 -7 -88z m-1796 53 c-7 -3 -13 -13 -13 -24
0 -16 -7 -19 -41 -19 -33 0 -40 3 -37 18 4 18 19 20 53 7 11 -5 17 -5 13 0 -4
4 0 14 10 21 9 7 19 10 22 7 3 -3 -1 -8 -7 -10z m1901 -15 c-8 -12 10 -10 23
3 15 15 43 4 43 -16 0 -11 -11 -15 -40 -15 -33 0 -40 3 -40 20 0 11 -4 20 -10
20 -5 0 -10 5 -10 10 0 6 8 5 19 -2 11 -7 17 -16 15 -20z m-1936 -55 c-5 -26
-38 -29 -38 -4 0 15 6 21 21 21 14 0 19 -5 17 -17z m1982 -4 c0 -25 -33 -22
-38 4 -2 12 3 17 17 17 15 0 21 -6 21 -21z m-1960 -39 c0 -6 -10 -9 -22 -7
-13 2 -17 2 -10 0 6 -3 12 -9 12 -14 0 -16 -30 -10 -52 11 l-22 20 47 0 c26 0
47 -5 47 -10z m1972 -10 c-22 -21 -52 -27 -52 -11 0 5 6 11 13 14 6 2 2 2 -10
0 -13 -2 -23 1 -23 7 0 5 21 10 47 10 l47 0 -22 -20z m-1704 -191 c36 -34 93
-80 126 -101 34 -22 60 -44 58 -50 -1 -5 2 -7 7 -4 5 3 42 -10 83 -29 139 -64
222 -80 408 -80 198 0 278 18 438 96 109 54 174 100 259 182 l52 50 71 -59
c40 -32 81 -66 92 -75 19 -15 17 -17 -54 -85 -87 -83 -174 -145 -282 -204
l-78 -43 7 44 c3 24 15 76 24 114 29 112 33 133 21 112 -6 -9 -17 -14 -23 -11
-9 5 -9 4 -1 -5 9 -10 8 -25 -1 -62 -7 -27 -19 -81 -25 -120 l-12 -71 -46 -19
c-26 -11 -89 -32 -142 -47 -88 -24 -109 -26 -300 -26 -191 0 -212 2 -300 26
-116 32 -231 80 -325 135 -113 66 -112 65 -134 183 -10 58 -19 92 -20 75 0
-16 6 -61 14 -99 8 -38 13 -71 11 -73 -2 -2 -42 34 -90 79 l-87 83 58 47 c32
25 72 58 88 72 17 14 32 26 34 26 2 0 33 -28 69 -61z"/>
<path d="M1687 2720 c26 -55 48 -98 51 -96 5 5 -84 196 -92 196 -2 0 16 -45
41 -100z"/>
<path d="M968 2734 c-27 -13 -48 -27 -48 -29 0 -5 99 42 109 51 13 11 -20 0
-61 -22z"/>
<path d="M897 2650 c-54 -34 -65 -37 -46 -13 10 12 5 11 -17 -4 -17 -12 -37
-30 -45 -40 -13 -17 -12 -17 6 -2 43 35 48 28 7 -10 -24 -22 -45 -46 -46 -53
-1 -7 -5 -19 -9 -25 -5 -8 -3 -13 3 -13 6 0 8 -5 4 -12 -4 -7 -3 -8 5 -4 6 4
9 11 7 15 -3 4 10 23 29 41 19 18 32 37 29 41 -3 5 23 29 58 55 69 50 74 54
67 54 -3 0 -26 -13 -52 -30z"/>
<path d="M2050 2677 c3 -3 33 -26 68 -51 35 -26 61 -50 58 -55 -3 -4 10 -23
29 -41 19 -18 31 -38 28 -43 -3 -6 -1 -7 4 -4 24 15 10 56 -29 87 -22 18 -37
35 -34 38 3 3 14 -1 24 -9 10 -8 6 -2 -9 13 -15 14 -25 28 -23 31 3 3 1 8 -4
11 -12 7 -10 -13 1 -31 12 -20 -1 -16 -36 11 -30 22 -88 55 -77 43z"/>
<path d="M1265 2635 c-60 -16 -157 -53 -169 -65 -4 -4 32 7 80 26 49 18 98 34
109 34 25 2 67 19 45 19 -8 0 -37 -6 -65 -14z"/>
<path d="M910 2525 c-39 -27 -55 -31 -44 -12 5 8 3 8 -9 -2 -9 -7 -14 -17 -11
-22 3 -5 -2 -6 -11 -3 -13 5 -13 9 -3 23 12 14 11 14 -4 3 -9 -8 -23 -10 -30
-6 -7 4 -10 3 -5 -1 4 -5 0 -16 -9 -26 -15 -16 -12 -17 40 -14 31 1 62 8 71
15 8 6 19 9 25 5 6 -4 9 -2 8 4 -2 5 6 17 17 25 20 16 20 16 0 10 -20 -6 -20
-5 -1 10 30 24 5 18 -34 -9z"/>
<path d="M2056 2534 c19 -15 19 -16 -1 -10 -20 6 -20 6 0 -10 11 -8 19 -20 17
-25 -1 -6 2 -8 8 -4 6 4 17 1 25 -5 9 -7 40 -14 71 -15 52 -3 55 -2 40 14 -9
10 -13 21 -9 26 5 4 2 5 -5 1 -7 -4 -21 -2 -30 6 -15 11 -16 11 -4 -3 10 -14
10 -18 -3 -23 -9 -3 -14 -2 -11 3 3 5 -2 15 -12 22 -15 13 -16 12 -3 -3 19
-26 8 -22 -42 12 -47 32 -74 41 -41 14z"/>
<path d="M2345 2498 c24 -39 13 -70 -37 -107 -42 -31 -72 -39 -82 -22 -3 5
-23 19 -43 31 l-38 22 49 -51 c41 -42 52 -48 65 -38 9 6 43 34 76 61 33 28 62
52 65 53 2 2 -13 20 -34 41 -32 31 -35 32 -21 10z"/>
<path d="M1333 2585 c-138 -25 -280 -85 -399 -170 -72 -52 -148 -159 -221
-311 -44 -94 -50 -118 -33 -129 16 -10 11 -41 -10 -60 -19 -18 -20 -31 -20
-415 0 -384 1 -397 20 -415 21 -19 26 -50 10 -60 -5 -3 -10 -13 -10 -22 0 -26
84 -193 133 -267 26 -38 47 -72 47 -77 0 -18 151 -121 241 -163 140 -67 244
-90 409 -90 167 0 271 23 415 93 103 50 221 131 233 160 4 9 29 49 56 89 51
78 126 229 126 255 0 9 -4 19 -10 22 -16 10 -11 41 10 60 19 18 20 31 20 415
0 384 -1 397 -20 415 -21 19 -26 50 -10 60 18 11 11 36 -39 144 -27 58 -52
118 -55 132 -4 16 -36 55 -80 95 -213 199 -526 291 -813 239z m172 -26 c-4 -5
-17 -9 -30 -9 -93 0 -193 -52 -278 -143 -44 -49 -48 -51 -61 -34 -10 13 -12
27 -5 49 5 17 6 41 3 53 -5 20 1 25 43 40 89 31 157 46 238 54 84 7 99 6 90
-10z m83 -29 c18 -11 35 -27 38 -35 4 -8 11 -12 17 -8 7 4 8 0 3 -13 -5 -15
-4 -16 5 -7 6 6 18 9 27 6 11 -5 13 -3 7 7 -5 8 -4 11 2 7 13 -8 39 20 29 31
-4 4 -27 7 -51 7 -24 0 -41 4 -38 9 3 4 25 6 50 3 52 -6 121 -50 138 -89 9
-23 14 -25 24 -15 11 10 11 8 2 -10 -14 -28 -14 -44 0 -19 9 15 13 16 20 5 5
-8 8 -25 8 -39 l-1 -25 -9 25 c-7 20 -8 18 -4 -11 3 -20 1 -48 -4 -61 -9 -25
2 -59 15 -45 4 4 10 35 13 69 4 40 9 58 15 50 4 -8 4 -39 0 -70 -5 -31 -7 -65
-6 -75 1 -10 -2 -16 -7 -13 -4 3 -7 -7 -5 -23 4 -37 -31 -85 -57 -78 -10 3
-24 -2 -30 -9 -7 -8 -26 -24 -43 -36 l-31 -21 28 30 c16 17 29 35 28 40 -1 4
4 9 9 9 6 1 12 3 15 4 3 1 9 3 15 4 5 0 15 8 22 16 11 12 11 12 -2 4 -15 -11
-40 -13 -41 -4 0 3 9 25 20 50 34 75 23 79 -12 5 -39 -80 -75 -126 -131 -166
-61 -45 -60 -34 6 34 83 86 102 114 121 176 18 57 21 154 6 186 -6 13 -8 -8
-5 -65 3 -53 2 -78 -4 -65 -7 16 -9 12 -11 -20 l-2 -40 -7 40 c-4 22 -8 31
-10 20 -3 -27 -3 -26 4 -60 6 -23 5 -27 -4 -19 -7 7 -16 36 -20 65 l-8 54 0
-55 c0 -72 -2 -79 -13 -55 -6 14 -7 8 -3 -21 4 -28 1 -46 -9 -55 -8 -8 -19
-25 -26 -37 -11 -20 -15 -21 -29 -10 -9 7 -14 9 -11 5 6 -8 -32 -59 -39 -52
-2 2 10 30 26 62 37 72 58 147 67 233 4 36 12 73 17 84 7 12 6 22 -2 30 -8 8
-10 7 -5 -5 4 -10 2 -20 -4 -24 -6 -3 -11 -2 -11 3 0 6 -6 12 -14 15 -12 5
-12 0 0 -36 10 -31 11 -50 4 -72 l-10 -30 5 35 c3 21 2 31 -4 25 -5 -6 -11
-41 -14 -80 -2 -38 -9 -71 -15 -73 -5 -1 -8 -12 -5 -22 3 -11 0 -20 -6 -20 -6
0 -11 -4 -11 -10 0 -5 -9 -34 -21 -65 -17 -46 -23 -54 -35 -44 -10 8 -11 16
-3 31 6 11 8 22 5 26 -3 3 -6 -1 -6 -9 0 -12 -2 -11 -11 1 -8 12 -9 10 -4 -9
5 -17 4 -22 -5 -16 -9 5 -11 4 -6 -3 4 -7 3 -12 -2 -12 -4 0 -19 -18 -31 -41
-13 -22 -25 -38 -28 -35 -3 2 6 24 20 48 20 35 24 59 26 128 1 47 4 94 7 105
5 19 4 19 -7 1 -10 -17 -13 -15 -29 20 -18 42 -91 114 -114 114 -32 0 -23 -19
20 -46 59 -37 98 -101 89 -146 -4 -19 -3 -28 2 -21 12 16 3 -115 -8 -142 -7
-14 -8 -5 -5 29 3 33 1 44 -6 35 -6 -9 -8 5 -5 44 2 33 0 52 -4 44 -11 -18
-12 -61 -5 -112 5 -37 5 -36 -9 10 -8 28 -13 56 -10 63 3 7 1 10 -4 7 -5 -3
-13 4 -16 15 -5 17 -10 19 -21 9 -8 -6 -15 -9 -15 -5 -1 3 -2 10 -3 15 0 5 -4
13 -8 17 -16 15 -8 26 9 13 14 -12 16 -12 11 1 -9 29 -88 80 -121 79 l-32 -1
30 -7 c61 -15 109 -53 80 -64 -8 -4 -14 -1 -12 5 1 6 -13 20 -30 30 -18 11
-33 17 -33 14 0 -3 14 -13 31 -21 17 -9 29 -19 26 -21 -3 -3 -19 2 -36 10 -18
10 -55 16 -94 16 -45 0 -68 5 -77 15 -7 8 -17 12 -23 8 -6 -3 -7 -1 -3 5 4 7
2 12 -4 12 -6 0 -8 5 -5 10 3 6 1 10 -4 10 -16 0 -13 -26 4 -40 8 -7 12 -16 9
-21 -3 -5 3 -6 12 -2 11 4 15 2 11 -4 -5 -7 13 -9 56 -6 122 10 215 -57 258
-184 11 -35 19 -67 16 -69 -3 -3 -12 17 -21 44 -31 93 -112 186 -141 162 -7
-6 -14 -8 -16 -6 -11 9 -69 15 -64 6 3 -6 18 -10 33 -11 23 0 24 -2 7 -8 -16
-6 -14 -9 15 -15 19 -4 29 -10 22 -13 -8 -3 -5 -11 10 -24 17 -13 19 -18 8
-19 -13 0 -13 -2 0 -11 13 -10 13 -10 0 -6 -52 16 -138 28 -168 23 -39 -6 -89
12 -113 40 -19 23 -35 79 -19 69 5 -3 10 -15 10 -26 0 -13 4 -18 12 -13 6 4 8
3 5 -3 -4 -6 2 -18 13 -28 22 -20 155 -31 165 -14 4 5 -15 9 -45 9 -28 0 -64
7 -81 15 -55 29 -87 112 -59 155 7 11 10 1 10 -35 0 -45 11 -81 21 -74 2 2 13
-3 24 -10 16 -10 17 -11 2 -7 -10 3 -16 2 -13 -3 8 -12 92 -34 108 -28 8 3 1
9 -16 16 -16 7 -35 10 -41 7 -6 -2 -12 1 -12 8 0 8 17 13 44 15 24 1 54 6 66
11 15 6 1 7 -43 4 -56 -5 -69 -3 -91 15 -34 27 -42 67 -23 122 19 54 31 69 55
69 18 0 18 -1 -1 -20 -29 -29 -25 -72 9 -109 30 -32 43 -36 76 -20 15 7 13 8
-12 3 -19 -3 -34 -1 -39 7 -4 7 -3 10 3 6 6 -4 13 -1 16 7 7 19 99 39 137 31
33 -7 90 -50 90 -68 0 -6 -12 1 -27 15 -25 24 -83 54 -83 44 0 -2 20 -16 44
-30 50 -29 78 -67 70 -93 -5 -14 -4 -15 4 -4 8 11 11 9 17 -8 5 -18 8 -19 21
-7 19 19 18 32 -1 16 -17 -14 -21 0 -4 17 12 12 -16 77 -30 69 -4 -3 -21 8
-36 24 -15 16 -42 32 -59 36 l-31 7 30 13 30 13 -30 1 c-17 0 -41 -7 -53 -16
-12 -8 -22 -12 -22 -8 0 3 -7 1 -15 -6 -22 -19 -18 4 5 25 11 10 27 15 37 11
17 -6 17 -5 0 8 -16 12 -16 14 -1 20 72 27 188 -18 237 -94 16 -25 26 -35 23
-23 -4 12 -3 24 3 27 17 11 38 -68 36 -139 -2 -54 -1 -58 2 -15 4 43 7 51 14
35 7 -14 7 -10 3 15 -4 19 -7 49 -6 65 0 17 -2 24 -5 17 -3 -9 -14 2 -29 28
-27 48 -30 57 -11 41 16 -13 28 -5 21 14 -3 7 -1 16 5 20 7 4 8 0 4 -11 -5
-12 -3 -15 6 -9 7 4 5 -5 -5 -21 -15 -24 -16 -27 -2 -16 14 11 17 8 27 -19 6
-18 11 -49 11 -70 0 -22 4 -39 10 -39 5 0 9 12 8 28 0 15 3 51 7 79 6 44 5 54
-9 59 -9 3 -13 11 -9 17 3 6 1 7 -5 3 -13 -8 -5 -36 10 -36 5 0 6 -5 2 -11 -4
-7 -15 4 -28 27 -11 20 -25 37 -31 36 -5 0 -18 7 -27 15 -10 9 -18 13 -18 9 0
-3 -13 0 -30 9 -16 8 -35 15 -42 15 -7 -1 0 -6 16 -13 28 -12 46 -47 23 -47
-6 0 0 -11 12 -24 17 -18 19 -26 10 -31 -8 -6 -10 -4 -4 5 6 9 4 11 -5 5 -9
-5 -11 -4 -6 4 5 7 2 10 -5 9 -7 -2 -13 3 -14 10 0 7 -7 17 -15 23 -13 10 -13
10 1 6 9 -3 16 1 16 8 0 10 -7 11 -26 4 -23 -8 -24 -7 -9 4 14 11 7 13 -49 12
-57 -2 -63 0 -47 12 10 7 35 13 55 13 40 0 61 15 32 23 -10 3 3 3 29 2 26 -2
57 -9 70 -16 13 -7 33 -14 46 -14 27 -2 45 -24 72 -90 11 -27 18 -36 14 -20
-4 17 -8 41 -9 54 -5 31 -42 70 -90 92 -34 16 -36 19 -15 19 14 0 40 -9 58
-20z m282 -33 c113 -40 340 -224 340 -275 0 -20 17 -59 49 -112 30 -50 42 -93
36 -134 -5 -33 -3 -50 11 -71 16 -25 18 -62 22 -390 3 -354 3 -364 -18 -410
-16 -35 -20 -57 -15 -85 6 -33 0 -52 -40 -131 -76 -152 -140 -236 -220 -291
-68 -46 -132 -81 -207 -112 -47 -19 -217 -56 -258 -56 -34 0 -40 15 -10 25 11
3 20 10 20 15 0 6 26 18 52 24 3 0 10 4 14 9 4 4 15 7 25 7 10 0 41 23 69 50
28 28 54 50 58 50 12 0 62 57 62 72 0 10 2 10 9 -1 8 -12 11 -9 17 13 5 19 10
24 17 17 6 -6 17 -11 24 -11 10 0 11 5 3 19 -11 22 -13 38 -3 27 4 -3 12 3 19
15 l12 22 26 -26 c30 -30 35 -14 6 23 -26 34 -25 44 3 25 32 -20 41 -8 17 23
-11 14 -18 27 -15 30 2 3 13 -6 23 -18 11 -13 24 -20 31 -16 8 5 2 19 -19 44
-33 40 -41 65 -12 39 9 -8 21 -17 27 -19 5 -2 10 -10 10 -18 0 -8 8 -16 18
-18 27 -5 20 11 -24 62 -50 56 -40 61 16 6 32 -32 41 -36 41 -21 0 12 -5 17
-15 13 -10 -4 -12 -1 -7 7 5 8 -4 25 -25 47 -38 39 -28 47 12 8 21 -20 28 -22
32 -10 4 9 -10 28 -39 51 -25 21 -43 39 -40 42 3 3 25 -11 49 -31 36 -29 46
-34 51 -21 4 11 -10 27 -44 51 -28 20 -50 41 -50 46 0 7 5 7 13 1 6 -5 31 -24
55 -42 37 -29 42 -30 42 -13 0 12 -20 32 -56 56 -31 21 -53 40 -50 43 3 3 30
-10 61 -30 56 -38 71 -44 60 -27 -3 6 0 10 7 10 7 0 -18 19 -57 42 -81 48 -80
47 -74 52 3 3 34 -12 70 -33 59 -34 65 -36 65 -18 0 15 -17 28 -63 49 -35 17
-63 34 -63 39 0 5 31 -7 70 -26 81 -41 79 -40 76 -18 -2 10 -27 27 -65 43 -53
23 -97 50 -79 50 3 0 35 -14 72 -30 55 -25 69 -28 80 -17 11 11 -3 19 -80 46
-52 18 -94 37 -94 41 0 5 43 -7 95 -26 69 -24 93 -29 89 -19 -4 9 0 15 7 16 8
0 -30 13 -83 27 -90 25 -130 42 -97 42 8 0 52 -12 98 -25 100 -29 97 -29 82
-11 -9 11 -9 15 0 18 6 2 -33 12 -87 22 -55 10 -110 25 -124 32 -34 18 -28 17
98 -11 120 -27 146 -30 123 -16 -7 5 -11 13 -8 18 4 6 -41 15 -108 23 -63 7
-115 16 -115 21 0 12 8 11 120 -6 116 -18 131 -19 110 -5 -8 5 -10 10 -5 10 6
0 3 5 -5 10 -8 5 -49 10 -90 11 -41 0 -86 5 -100 10 -16 5 19 7 91 3 100 -5
116 -3 116 10 0 14 -17 16 -109 16 -65 0 -108 4 -108 10 0 6 45 10 113 11 61
0 106 3 98 6 -11 5 -11 7 0 15 9 5 -32 7 -106 4 -75 -4 -111 -2 -95 3 14 5 59
10 100 11 41 1 84 5 95 10 13 6 15 9 5 9 -13 1 -13 2 0 11 13 8 13 10 -2 10
-9 0 -39 -4 -65 -9 -81 -16 -153 -22 -153 -13 0 8 143 32 192 32 18 0 27 7 31
21 5 19 2 20 -21 15 -15 -4 -36 -8 -47 -10 -11 -2 -20 -4 -20 -5 0 -3 -22 -7
-84 -16 -35 -5 -51 -4 -47 3 3 5 31 13 61 17 30 3 61 13 69 20 10 11 16 11 26
2 10 -9 11 -9 6 0 -3 6 -2 14 4 18 5 3 10 1 10 -4 0 -6 5 -11 12 -11 9 0 8 5
-2 15 -13 12 -25 11 -95 -9 -73 -22 -97 -25 -83 -11 3 3 47 17 99 31 58 16
100 34 111 46 10 12 18 22 18 24 0 3 -159 -51 -214 -72 -13 -5 -17 -4 -13 3 4
6 49 26 101 44 76 27 91 36 80 46 -10 11 -27 7 -93 -22 -45 -19 -81 -31 -81
-26 0 5 41 26 92 47 50 21 86 40 79 42 -6 2 -9 8 -5 13 9 15 -3 11 -77 -27
-39 -19 -74 -33 -77 -30 -8 8 -4 11 68 43 49 22 66 35 67 51 2 20 -1 19 -50
-10 -29 -16 -58 -35 -66 -42 -11 -9 -13 -8 -9 4 2 8 34 32 69 52 35 21 58 38
51 38 -7 0 -10 5 -7 10 10 17 -5 11 -48 -18 -60 -41 -67 -44 -67 -34 0 6 22
24 49 42 33 20 49 38 48 50 -1 16 -5 16 -37 -9 -47 -37 -60 -44 -60 -33 0 5
20 23 45 41 28 20 42 37 39 46 -5 12 -13 9 -40 -12 -19 -14 -37 -23 -40 -20
-3 2 8 14 23 25 16 11 29 30 30 42 l2 22 -23 -21 c-34 -32 -44 -25 -12 8 20
21 24 30 14 34 -7 2 -21 -2 -30 -11 -11 -9 -18 -10 -18 -4 0 6 5 14 10 17 6 3
10 11 10 16 0 6 -4 7 -10 4 -5 -3 -10 2 -10 12 0 11 -15 34 -33 51 -26 26 -41
32 -67 30 -32 -3 -34 -1 -36 31 -1 19 1 28 6 21 12 -20 22 23 15 67 l-7 38 16
-29 c20 -36 20 -44 -3 -89 l-19 -38 21 7 c12 4 27 7 34 7 8 0 9 6 4 16 -5 9
-6 22 -4 28 9 25 -31 118 -73 170 -48 58 -69 93 -57 93 4 0 24 -6 43 -13z
m-325 -50 c5 5 3 0 -4 -9 -7 -10 -9 -23 -5 -30 6 -10 3 -9 -9 1 -9 7 -17 10
-17 5 0 -13 -25 16 -25 29 -1 20 19 27 36 11 8 -8 20 -11 24 -7z m-512 -24
c-3 -10 -16 -36 -28 -58 -29 -52 -41 -168 -20 -185 17 -14 21 -65 5 -55 -14 9
-13 -8 2 -23 18 -18 -3 -15 -23 4 -26 23 -32 0 -8 -30 21 -27 11 -38 -11 -12
-6 8 -18 12 -26 9 -12 -4 -10 -11 10 -32 35 -37 33 -52 -2 -18 -26 25 -28 25
-29 7 -1 -11 11 -28 28 -40 16 -12 29 -26 29 -32 0 -5 -19 5 -42 24 -23 18
-39 28 -35 21 4 -6 2 -13 -4 -15 -6 -2 9 -19 34 -38 37 -29 45 -41 44 -66 -1
-18 -6 -31 -13 -31 -7 0 -11 4 -8 9 3 4 -2 5 -10 2 -10 -4 -16 -1 -16 8 0 13
-16 25 -64 46 -5 3 -6 0 -2 -7 4 -6 1 -11 -6 -11 -7 0 19 -19 57 -42 83 -49
80 -46 72 -54 -3 -3 -20 4 -36 16 -17 12 -31 17 -31 12 0 -6 -14 3 -32 20 -28
26 -33 27 -41 12 -11 -19 13 -41 24 -22 4 7 13 3 25 -10 10 -12 21 -19 26 -16
4 3 8 0 8 -5 0 -6 16 -18 37 -26 20 -8 33 -18 30 -22 -4 -3 -24 1 -44 10 -21
8 -51 18 -66 22 -15 3 -26 9 -23 14 3 4 -6 13 -21 20 -23 10 -25 10 -14 -2 9
-12 9 -16 0 -19 -7 -2 30 -21 82 -43 105 -43 104 -43 97 -50 -3 -3 -42 10 -87
30 -68 29 -85 33 -96 22 -10 -11 6 -19 89 -47 115 -39 111 -38 103 -46 -3 -3
-51 10 -107 30 -56 20 -98 31 -94 25 3 -6 2 -14 -4 -18 -6 -4 38 -20 98 -35
61 -16 110 -33 110 -38 0 -5 -9 -7 -19 -3 -11 3 -52 15 -93 26 -40 11 -82 23
-93 26 -17 5 -18 4 -7 -10 10 -11 10 -16 1 -19 -6 -2 33 -12 87 -22 110 -21
124 -25 124 -36 0 -4 -46 3 -102 16 -124 28 -114 28 -114 5 0 -16 14 -20 113
-31 62 -7 113 -17 113 -22 0 -11 -8 -10 -120 7 -116 18 -131 19 -110 5 8 -5
11 -10 5 -10 -5 0 -3 -5 5 -10 8 -5 49 -10 90 -11 41 -1 89 -5 105 -10 18 -5
-17 -6 -91 -3 -105 4 -121 3 -121 -10 0 -14 18 -16 114 -16 74 0 112 -4 108
-10 -4 -6 -53 -10 -114 -10 -91 0 -108 -2 -108 -16 0 -13 16 -15 116 -10 72 4
107 2 91 -3 -14 -5 -59 -10 -100 -10 -41 -1 -82 -6 -90 -11 -8 -5 -10 -10 -5
-10 6 0 3 -5 -5 -10 -21 -14 -6 -13 110 5 112 17 120 18 120 6 0 -5 -51 -14
-113 -21 -99 -11 -113 -15 -113 -31 0 -11 2 -19 4 -19 2 0 53 11 114 25 61 14
113 23 116 20 8 -8 -39 -22 -142 -41 -54 -10 -93 -20 -87 -22 9 -3 9 -7 0 -18
-15 -18 -18 -18 82 11 46 13 90 25 98 25 33 0 -7 -17 -97 -42 -53 -14 -91 -27
-83 -27 7 -1 11 -7 7 -16 -4 -10 20 -5 89 19 52 19 95 31 95 26 0 -4 -42 -23
-94 -41 -77 -27 -91 -35 -80 -46 11 -11 23 -9 70 12 32 14 62 24 68 21 6 -2 0
-8 -14 -14 -111 -45 -125 -53 -108 -63 13 -7 33 -2 78 21 33 17 60 27 60 22 0
-4 -31 -23 -68 -41 -49 -24 -68 -38 -68 -52 0 -21 7 -24 22 -11 20 19 124 73
124 65 0 -5 -20 -19 -45 -33 -30 -16 -40 -27 -32 -33 9 -6 8 -7 -3 -5 -27 4
-58 -12 -64 -34 -3 -12 -4 -23 -2 -25 5 -5 86 59 86 68 0 6 5 7 10 4 6 -4 18
-1 26 6 8 6 17 10 19 7 2 -2 -13 -20 -35 -39 -22 -20 -41 -31 -44 -25 -3 7 -5
7 -5 -1 -2 -24 20 -23 54 3 19 14 35 22 35 17 0 -9 -94 -83 -107 -83 -4 0 -2
5 5 12 7 7 12 17 12 23 -1 12 -23 -25 -26 -43 -2 -8 3 -11 13 -8 11 5 13 2 9
-10 -3 -9 17 3 44 26 28 24 53 40 56 37 3 -3 -13 -20 -35 -38 -24 -18 -41 -41
-41 -53 0 -18 2 -18 28 7 40 38 52 34 14 -6 -19 -20 -28 -37 -23 -45 5 -9 14
-6 31 13 34 36 47 31 16 -6 -32 -37 -24 -60 10 -28 29 27 31 17 4 -21 -11 -16
-16 -31 -11 -34 5 -4 12 -2 16 4 3 5 10 10 16 10 13 0 11 -28 -3 -32 -6 -2 -8
-10 -4 -17 6 -9 11 -9 23 0 12 11 14 10 13 -2 -4 -28 0 -40 12 -33 8 5 9 2 5
-9 -6 -16 4 -22 27 -18 5 1 6 -5 3 -14 -6 -13 -2 -17 20 -14 3 0 12 -12 19
-28 7 -15 13 -21 14 -13 1 11 3 10 9 -3 4 -10 11 -18 15 -17 9 2 26 -19 26
-33 0 -5 -6 -5 -12 -1 -9 5 -8 2 1 -10 9 -11 17 -13 21 -6 4 6 30 -12 64 -45
32 -30 65 -55 73 -55 31 0 133 -57 133 -75 0 -15 -197 18 -275 46 -38 14 -157
71 -170 81 -5 5 -38 28 -71 52 -50 36 -74 64 -133 157 -39 62 -71 119 -71 127
0 8 -8 20 -17 27 -14 10 -17 27 -16 81 0 46 -4 76 -14 91 -13 20 -15 79 -14
406 2 303 5 386 16 403 7 12 13 46 13 80 -1 68 20 115 114 261 56 87 115 147
175 178 37 19 44 19 36 -2z m391 -175 c-9 -15 -34 31 -26 50 4 11 9 7 19 -12
8 -15 11 -31 7 -38z m-110 -39 c9 2 66 -64 66 -75 0 -5 -5 -1 -11 9 -8 14 -14
16 -25 6 -12 -10 -8 -17 26 -41 63 -47 50 -61 -30 -33 -33 12 -62 13 -124 8
-76 -7 -78 -8 -36 -14 l45 -6 -40 -3 c-22 -2 9 -6 68 -10 106 -7 187 -30 187
-54 0 -6 -5 -5 -12 2 -14 14 -32 16 -23 2 3 -5 -13 -2 -37 6 -26 9 -58 13 -80
10 -47 -8 -50 0 -5 13 22 6 4 7 -65 4 -94 -6 -97 -5 -123 21 -14 14 -24 30
-21 35 3 5 -2 15 -12 22 -16 13 -16 12 -3 -4 14 -17 13 -18 -5 -15 -14 2 -18
-2 -16 -16 2 -12 -1 -16 -10 -10 -7 4 -10 4 -6 -1 4 -4 3 -17 -3 -29 -9 -19
-8 -19 7 2 16 21 52 33 39 12 -3 -5 0 -10 7 -10 7 0 2 -7 -10 -16 -16 -11 -20
-20 -14 -32 5 -10 -1 -42 -14 -82 l-21 -65 -11 65 -11 65 4 -90 c2 -55 0 -80
-5 -65 -12 36 -12 169 0 211 5 19 19 45 31 58 16 17 18 26 10 34 -6 6 -11 16
-11 22 0 5 7 1 15 -9 8 -11 15 -16 15 -12 0 4 8 3 17 -3 10 -5 24 -6 33 -2 26
14 77 23 60 11 -11 -7 -3 -10 32 -10 26 0 59 -5 74 -10 28 -11 59 3 48 21 -3
5 1 9 8 9 8 1 6 6 -6 15 -11 8 -21 29 -22 47 -2 19 0 27 5 19 5 -7 11 -12 15
-12z m652 -59 c37 -31 69 -245 45 -300 -10 -21 -11 -14 -6 37 3 38 -1 79 -10
108 -7 26 -11 54 -8 63 5 11 3 13 -7 7 -7 -5 -11 -4 -7 1 6 11 -20 50 -29 42
-3 -3 4 -24 15 -47 26 -51 26 -63 1 -31 -11 14 -18 18 -14 9 7 -23 -11 -32
-26 -14 -7 8 -9 15 -5 15 4 0 2 7 -5 15 -7 8 -17 15 -23 15 -6 0 -2 -7 9 -15
10 -8 15 -14 9 -14 -5 0 -19 6 -29 14 -12 9 -22 11 -26 5 -3 -5 -11 0 -18 10
-7 12 -8 20 -2 20 5 0 10 -4 10 -8 0 -10 30 -9 47 1 6 4 19 4 29 0 12 -4 15
-3 10 5 -4 7 -19 12 -34 13 -24 0 -25 1 -7 9 11 5 15 9 9 9 -6 1 -11 7 -11 15
0 10 9 11 34 6 42 -10 42 -4 1 15 l-33 15 34 -5 c19 -3 40 -10 47 -15z m-337
-96 c-19 -20 -46 -42 -61 -50 -47 -24 -43 -15 6 17 26 18 54 43 63 56 9 13 18
21 21 18 3 -3 -10 -21 -29 -41z m-68 5 c8 -15 8 -19 0 -15 -6 4 -11 2 -11 -5
0 -7 -3 -10 -6 -6 -4 3 -15 -4 -25 -16 -10 -12 -18 -19 -19 -14 0 7 42 77 47
77 1 0 7 -10 14 -21z m267 -12 c7 -5 10 -18 7 -28 -8 -25 0 -24 25 3 l20 22 0
-32 c0 -17 5 -34 11 -38 7 -4 9 -42 4 -120 -5 -74 -4 -118 3 -127 6 -7 7 -28
2 -57 -5 -25 -5 -47 -1 -50 5 -3 11 -12 14 -20 4 -8 4 0 1 19 -4 23 -3 31 5
27 6 -4 11 -17 11 -30 0 -12 12 -46 27 -75 32 -65 25 -98 -26 -122 -32 -15
-33 -16 -11 -22 18 -5 21 -11 17 -29 -5 -17 1 -32 19 -53 14 -17 22 -24 18
-16 -4 8 -8 24 -10 35 -2 12 -6 32 -10 45 -6 21 -5 22 14 12 25 -13 38 -31 22
-31 -8 0 -8 -6 0 -21 7 -11 9 -27 6 -34 -3 -8 0 -17 6 -21 7 -5 8 -2 3 6 -5 8
-4 11 2 7 6 -4 9 -33 8 -69 -2 -35 -4 -101 -5 -148 0 -54 -8 -107 -20 -145
-11 -33 -22 -72 -25 -87 -3 -15 -17 -40 -31 -55 -26 -29 -25 -26 13 41 7 11
12 37 12 56 l-2 35 -6 -40 c-6 -37 -39 -100 -81 -156 -14 -18 -15 -12 -18 73
-1 51 -6 96 -10 100 -4 4 -6 -14 -4 -40 2 -26 -1 -58 -7 -72 -8 -20 -10 -13
-9 40 1 74 -35 183 -39 120 -1 -13 2 -18 9 -14 7 5 8 2 4 -5 -5 -7 -13 -10
-20 -8 -7 3 -2 -16 12 -42 20 -38 23 -58 20 -117 -3 -75 5 -77 30 -9 11 28 11
27 6 -15 -6 -45 -54 -140 -54 -108 0 9 5 20 10 23 6 3 10 11 10 18 0 6 -7 2
-15 -9 -14 -18 -15 -16 -10 21 3 22 2 33 -1 25 -23 -62 -41 -98 -56 -115 -10
-11 -24 -28 -31 -38 -6 -9 -22 -19 -35 -22 -12 -2 -27 -7 -34 -11 -7 -5 -8 -2
-3 7 5 8 -3 5 -16 -7 -13 -12 -31 -25 -39 -29 -13 -8 -13 -6 0 11 8 11 2 5
-15 -13 -35 -38 -50 -42 -39 -10 8 22 7 218 -2 226 -2 2 -4 -48 -4 -113 0 -76
-4 -115 -10 -111 -5 3 -11 54 -12 113 -1 104 -1 105 -8 37 -4 -38 -3 -92 2
-119 4 -27 6 -52 2 -55 -3 -3 -20 10 -37 30 -18 19 -25 26 -17 16 14 -19 14
-19 -6 -9 -12 6 -24 18 -28 27 -3 8 -10 15 -16 15 -6 0 -8 -5 -4 -11 5 -8 1
-8 -13 0 -11 6 -22 8 -25 6 -4 -5 -10 1 -58 53 -12 13 -31 42 -42 65 -15 33
-18 36 -13 13 6 -27 5 -28 -11 -15 -16 13 -16 12 -5 -9 19 -36 4 -25 -20 16
-13 20 -32 47 -43 58 -12 12 -37 47 -56 77 -19 31 -37 54 -39 51 -3 -2 5 -18
17 -34 27 -37 28 -49 2 -25 -11 10 -25 37 -31 59 -6 23 -19 68 -29 101 -12 38
-19 95 -19 154 -1 51 -4 98 -7 103 -9 15 6 99 17 93 5 -3 6 1 3 9 -3 8 -1 24
6 35 8 15 8 21 0 21 -16 0 -3 18 22 31 19 10 20 9 14 -12 -4 -13 -9 -37 -11
-54 l-4 -30 20 24 c11 14 17 31 14 42 -4 11 -2 19 3 19 14 0 35 -28 28 -38 -3
-5 1 -9 8 -9 8 0 12 7 9 16 -4 14 -4 14 6 1 9 -13 11 -12 12 5 1 20 1 20 7 0
4 -19 5 -19 11 -2 6 17 8 16 20 -9 11 -25 11 -26 -5 -13 -15 12 -17 12 -12 -1
2 -8 16 -16 30 -18 25 -3 26 -1 30 48 4 37 18 21 18 -20 0 -22 -3 -39 -7 -39
-5 1 -16 1 -25 0 -17 -1 -17 -3 -1 -37 15 -31 15 -36 3 -44 -13 -9 -13 -10 0
-10 13 0 13 -1 0 -10 -28 -18 -59 -11 -74 18 -9 15 -15 20 -16 12 0 -26 30
-60 54 -60 29 0 59 33 61 67 0 15 6 28 13 31 7 2 10 8 6 13 -3 5 2 9 10 9 9 0
16 7 16 15 0 9 6 12 15 9 8 -4 22 -1 30 6 8 7 15 9 15 4 0 -5 15 -9 33 -8 17
0 40 -4 50 -8 10 -5 25 -4 37 2 39 21 19 1 -25 -24 -25 -15 -45 -29 -45 -31 0
-8 27 2 58 22 43 27 105 23 137 -7 14 -13 25 -18 29 -11 4 6 -11 19 -34 31
-22 11 -40 23 -40 26 0 2 9 0 20 -6 12 -7 27 -7 38 -2 9 5 44 8 77 7 33 -1 54
0 48 2 -7 3 -13 14 -12 26 0 12 3 16 6 9 4 -10 9 -10 22 2 17 15 18 14 18 -21
1 -33 0 -35 -7 -13 l-8 25 -1 -27 c-1 -20 4 -28 16 -28 9 0 13 -3 10 -7 -4 -3
0 -11 8 -17 8 -6 16 -23 17 -37 8 -60 64 -80 94 -34 9 14 14 28 11 31 -3 3
-10 -4 -17 -15 -16 -31 -58 -28 -71 5 -7 20 -6 32 6 51 9 13 21 21 27 17 8 -5
5 -10 -8 -15 -10 -4 -14 -8 -7 -8 14 -1 13 -43 -2 -53 -5 -4 -1 -8 11 -8 12 0
27 7 34 15 16 20 -18 80 -46 80 -10 1 -25 4 -32 8 -15 10 -16 63 0 73 6 4 8 3
5 -3 -12 -19 17 -61 45 -67 15 -3 29 -14 33 -26 4 -12 9 -19 12 -17 2 3 -1 16
-7 29 -8 17 -3 14 19 -11 17 -18 31 -43 31 -55 0 -24 -13 -47 -26 -48 -5 -1
-22 -7 -38 -13 -36 -16 -52 -11 -93 28 -34 32 -46 59 -15 36 16 -13 16 -13 -1
7 -9 11 -14 23 -11 27 4 3 -1 13 -9 22 -23 22 -33 18 -12 -5 23 -26 9 -25 -35
1 -19 12 -30 15 -24 8 6 -8 17 -31 23 -51 9 -25 17 -35 27 -31 8 3 14 -1 14
-8 0 -7 3 -9 7 -6 3 4 16 -10 27 -30 17 -30 28 -38 57 -41 30 -3 41 2 62 27
19 23 27 27 31 16 3 -8 -6 -23 -21 -34 l-25 -21 20 -37 c11 -21 24 -37 30 -36
5 1 16 -11 22 -28 10 -22 15 -27 21 -17 5 7 8 20 8 28 0 10 -3 8 -9 -5 -6 -14
-9 -16 -9 -4 -1 8 -14 36 -31 62 -16 25 -25 49 -21 52 11 6 27 -13 45 -56 9
-19 15 -26 16 -16 0 15 11 21 32 18 9 -1 -12 58 -23 65 -13 8 -11 24 3 21 7
-1 19 -9 26 -17 11 -13 11 -12 3 7 -6 12 -9 28 -6 35 3 8 -10 32 -28 53 -44
51 -60 82 -51 98 4 6 4 9 0 5 -5 -4 -19 -3 -32 2 -18 7 -22 6 -18 -4 3 -8 0
-17 -7 -22 -8 -4 -10 -3 -5 4 5 8 1 10 -10 5 -15 -6 -15 -4 1 20 17 26 35 36
35 19 0 -4 11 -8 25 -8 13 0 22 2 20 5 -3 2 1 11 8 19 10 13 9 14 -2 8 -7 -5
-35 -1 -66 9 -46 16 -58 17 -100 5 -39 -11 -50 -19 -61 -47 -8 -18 -17 -33
-20 -33 -3 0 -3 4 1 9 3 6 -5 15 -17 22 -13 7 -26 17 -30 23 -4 6 -9 4 -14 -7
-5 -13 -10 -15 -19 -7 -9 8 -10 21 -4 49 7 31 4 50 -16 101 -31 78 -41 90 -75
90 -35 0 -44 -11 -75 -94 -28 -75 -31 -92 -9 -56 l15 25 -8 -25 c-4 -14 -8
-37 -9 -52 -2 -40 -2 -40 -23 -28 -11 5 -21 7 -23 2 -5 -11 -66 -52 -78 -52
-12 0 -12 3 -4 25 5 13 8 14 15 3 7 -10 9 -10 9 3 0 8 -5 20 -10 25 -8 8 -6
15 4 23 12 10 16 8 22 -11 l7 -23 8 24 c5 12 7 27 3 32 -7 12 -61 11 -69 -1
-3 -5 2 -10 11 -10 12 0 15 -3 8 -10 -6 -6 -25 -5 -53 2 -36 9 -52 8 -90 -6
-48 -17 -85 -13 -78 8 2 6 -6 15 -17 21 -38 19 -43 58 -13 113 15 28 27 61 27
75 0 14 5 29 11 33 8 5 10 -4 6 -32 -3 -21 -3 -31 -1 -21 3 9 9 17 13 17 5 0
8 28 9 63 0 34 0 91 1 127 1 36 -2 66 -6 67 -5 2 -6 36 -4 75 4 61 6 67 11 38
l7 -35 2 33 1 32 94 -5 c52 -3 114 -12 137 -20 22 -8 45 -13 49 -10 5 3 20 1
35 -5 17 -6 32 -7 39 -1 6 5 29 11 51 14 62 7 155 35 205 61 44 23 72 24 98 3z
m125 -92 c23 -44 26 -68 32 -235 3 -107 3 -111 -8 -60 l-12 55 -5 -80 -5 -80
-6 76 c-4 52 -13 87 -27 111 -20 33 -21 78 -1 78 5 0 9 10 9 23 1 22 1 22 15
-3 22 -38 18 -10 -4 32 -11 19 -18 38 -15 40 2 3 -5 31 -16 63 l-20 58 21 -19
c12 -10 30 -37 42 -59z m22 28 c8 -20 13 -38 10 -41 -3 -3 -5 0 -5 6 0 6 -9
20 -21 31 -12 11 -18 24 -14 30 10 17 14 14 30 -26z m-894 -72 c-14 -25 -14
-61 -1 -61 5 0 7 -6 4 -14 -3 -8 -1 -23 4 -33 8 -13 4 -24 -15 -47 -22 -26
-25 -37 -21 -83 3 -30 1 -48 -3 -41 -6 8 -9 0 -10 -22 l-1 -35 -10 40 c-15 64
-6 254 12 268 9 7 22 28 30 47 10 24 16 29 18 18 2 -9 -2 -26 -7 -37z m437
-400 c3 -37 1 -42 -15 -39 -19 3 -30 46 -19 75 11 28 31 7 34 -36z m-68 -71
c-12 -41 -18 -52 -16 -30 7 55 31 137 34 115 1 -11 -7 -49 -18 -85z m118 -20
c0 -16 -7 -6 -18 30 -24 72 -24 110 0 45 10 -27 18 -61 18 -75z m-65 8 c6 -3
11 -15 12 -25 2 -29 14 -43 40 -43 13 0 27 -5 30 -11 4 -5 19 -8 33 -5 15 3
34 1 42 -5 12 -8 11 -9 -6 -4 -12 3 -34 1 -49 -5 -33 -13 -96 -3 -74 11 9 6
-1 9 -31 9 -29 0 -40 -3 -32 -9 23 -14 -36 -23 -74 -11 -18 6 -39 8 -45 4 -7
-4 -9 -3 -6 3 4 6 18 13 32 15 13 3 22 1 19 -3 -3 -5 -1 -9 5 -9 5 0 14 6 18
13 4 6 19 12 33 12 21 0 25 5 26 30 1 54 5 72 11 55 3 -8 11 -18 16 -22z m447
-213 c12 8 31 -21 24 -38 -6 -18 -29 -16 -47 3 -9 11 -8 11 7 0 18 -14 19 -13
13 3 -9 22 -15 44 -10 34 3 -4 8 -5 13 -2z m-5 -81 c20 -26 24 -39 16 -47 -8
-8 -11 -8 -12 1 -1 7 -2 17 -3 22 0 6 -7 15 -15 20 -12 7 -25 40 -16 40 1 0
15 -16 30 -36z"/>
<path d="M1723 2498 c-7 -9 -5 -22 9 -43 11 -16 18 -22 14 -12 -9 29 4 19 20
-15 11 -23 13 -25 9 -8 -4 14 -8 33 -9 43 -1 10 -9 24 -18 33 -12 12 -17 13
-25 2z"/>
<path d="M860 1952 c0 -23 76 -77 86 -61 3 6 4 11 3 13 -2 1 -23 17 -46 35
-38 29 -43 30 -43 13z"/>
<path d="M1305 2200 c-3 -5 -1 -10 5 -10 6 0 9 -4 6 -9 -3 -5 1 -14 8 -20 22
-19 26 2 6 27 -11 13 -21 18 -25 12z"/>
<path d="M1187 1964 c2 -7 24 -17 46 -23 38 -8 39 -9 12 -10 -31 -2 -69 -23
-59 -34 3 -3 17 -1 31 4 29 11 125 -11 184 -42 52 -27 55 -24 15 16 -20 19
-46 36 -58 36 -13 1 -27 2 -33 4 -5 1 -19 3 -30 4 -20 2 -20 2 0 10 16 7 13 9
-21 15 -22 4 -52 13 -67 21 -22 11 -25 11 -20 -1z"/>
<path d="M1755 1954 c-27 -7 -61 -20 -75 -27 -14 -8 -37 -17 -52 -21 -15 -3
-36 -20 -48 -36 -24 -34 -20 -37 15 -14 39 25 156 52 190 43 29 -8 29 -7 10 8
-19 14 -19 15 13 11 17 -3 32 -1 32 3 0 4 3 15 7 25 6 17 5 17 -17 1 -14 -9
-34 -17 -45 -17 -17 1 -16 3 8 16 15 8 27 17 27 19 0 6 -4 6 -65 -11z"/>
<path d="M1121 1864 c-1 -11 5 -42 13 -67 10 -32 10 -46 3 -44 -6 1 -13 -9
-15 -23 -1 -14 1 -20 5 -14 13 17 71 37 93 31 11 -3 18 -1 14 4 -7 12 -4 12
46 -6 58 -20 62 -18 18 9 -21 12 -35 25 -32 29 5 5 -28 13 -86 20 -8 1 -20 18
-27 37 -7 19 -12 28 -13 20 -1 -10 -4 -9 -10 5 -8 20 -9 20 -9 -1z"/>
<path d="M1847 1842 c-7 -34 -11 -37 -70 -47 -21 -3 -36 -9 -33 -13 2 -4 -13
-16 -35 -26 -51 -25 -42 -33 12 -12 39 16 45 16 95 0 30 -9 54 -21 54 -26 0
-5 4 -7 10 -3 12 8 1 35 -15 35 -10 0 -10 7 1 38 15 43 19 95 5 73 -7 -11 -9
-11 -13 0 -3 8 -7 -1 -11 -19z"/>
<path d="M1465 1807 c6 -38 3 -56 -11 -83 -21 -39 -29 -40 -99 -18 -27 9 -76
18 -109 21 -49 4 -62 1 -81 -17 -15 -14 -28 -18 -41 -13 -17 6 -17 5 -5 -10 8
-10 11 -29 8 -44 -6 -33 19 -100 42 -112 15 -8 97 4 161 24 51 15 10 -7 -47
-26 -52 -18 -40 -19 27 -4 l25 6 -25 -16 c-15 -10 -18 -14 -7 -11 10 3 23 6
27 6 15 0 80 61 75 70 -3 5 -1 11 5 15 5 3 10 22 10 41 0 38 19 39 21 1 1 -17
3 -15 8 8 4 17 12 29 18 28 14 -3 23 86 13 131 -12 56 -23 58 -15 3z m-175
-109 c10 -6 4 -7 -17 -3 -18 4 -46 4 -63 0 -25 -6 -30 -12 -31 -38 -1 -18 -5
-43 -9 -57 -6 -20 -8 -15 -9 26 -1 51 12 74 49 87 17 6 58 -2 80 -15z m58 -34
c18 -8 32 -20 32 -25 0 -6 4 -8 9 -5 5 4 8 -2 6 -11 -2 -10 -4 -22 -4 -26 -1
-13 -61 -34 -116 -42 -65 -10 -54 2 15 15 59 11 104 35 95 51 -4 5 -17 1 -32
-11 -14 -11 -37 -20 -52 -20 -14 0 -43 -5 -65 -11 -21 -6 -42 -7 -47 -2 -10
10 10 84 26 95 18 13 101 8 133 -8z"/>
<path d="M1522 1808 c-12 -49 -4 -158 9 -136 6 9 10 3 15 -20 4 -18 10 -35 15
-38 5 -3 6 2 3 10 -3 8 -1 23 5 33 9 15 10 13 11 -16 0 -19 8 -43 18 -54 9
-11 12 -17 5 -14 -14 9 -12 -40 3 -67 9 -15 12 -16 17 -3 3 9 -1 21 -9 27 -8
7 -14 17 -14 22 0 5 14 -2 31 -16 17 -14 34 -26 39 -26 5 0 16 -3 26 -7 12 -4
15 -3 10 6 -6 9 1 11 31 6 33 -5 35 -4 14 5 -14 6 -36 9 -50 7 -14 -2 -19 -2
-11 1 9 3 5 9 -15 18 -24 11 -25 13 -5 7 108 -27 145 -31 167 -17 21 13 50 90
39 102 -3 3 -6 -3 -6 -13 0 -10 -3 -15 -7 -12 -3 4 -2 17 4 30 21 43 23 56 7
50 -8 -3 -26 4 -38 16 -20 19 -32 22 -82 18 -33 -2 -85 -13 -116 -24 -54 -18
-59 -19 -73 -3 -8 9 -15 22 -15 29 0 7 -4 9 -10 6 -6 -4 -7 17 -4 55 3 33 3
60 1 60 -3 0 -9 -19 -15 -42z m312 -126 c14 -48 18 -95 8 -88 -6 3 -14 27 -18
51 -7 51 -28 63 -87 51 -19 -4 -28 -3 -22 3 27 25 110 13 119 -17z m-48 -10
c16 -10 37 -79 29 -93 -4 -6 -17 -8 -29 -4 -11 3 -47 10 -79 15 -90 14 -115
48 -54 74 34 15 115 20 133 8z m-78 -101 c51 -8 82 -21 49 -21 -48 0 -117 23
-138 47 l-24 26 30 -22 c17 -12 54 -25 83 -30z"/>
<path d="M1434 1763 c-7 -31 -14 -39 -39 -43 -30 -6 -30 -6 -5 -13 31 -9 60
22 60 64 0 39 -5 36 -16 -8z"/>
<path d="M1557 1765 c7 -52 24 -70 54 -59 24 8 24 8 -5 13 -23 5 -32 14 -42
46 l-13 40 6 -40z"/>
<path d="M1473 1625 c-10 -10 -3 -14 32 -17 47 -3 50 5 7 20 -20 7 -31 6 -39
-3z"/>
<path d="M1384 1528 c-16 -17 -23 -28 -16 -24 7 4 12 2 12 -6 0 -7 10 2 21 20
29 44 20 49 -17 10z"/>
<path d="M1052 1498 c-12 -43 17 -78 62 -78 25 0 28 -2 16 -11 -12 -9 -11 -9
5 -3 11 4 40 10 65 14 25 4 34 8 20 9 -18 1 -21 4 -12 10 9 5 -4 10 -35 14
-56 6 -105 26 -97 38 3 5 1 9 -5 9 -6 0 -8 7 -5 15 4 8 4 15 0 15 -3 0 -9 -15
-14 -32z"/>
<path d="M1938 1508 c3 -13 1 -19 -5 -15 -6 4 -13 0 -16 -7 -7 -17 -67 -36
-112 -36 -22 0 -26 -3 -16 -9 11 -7 9 -10 -10 -14 -13 -2 -3 -5 23 -6 26 0 50
-5 53 -11 3 -5 11 -10 16 -10 6 0 7 5 4 10 -3 6 4 10 17 10 13 0 34 9 47 19
19 15 22 23 16 49 -3 18 -10 34 -15 37 -4 3 -6 -5 -2 -17z"/>
<path d="M1350 1455 c-31 -11 -32 -13 -13 -19 12 -4 23 -15 25 -24 2 -10 8 -1
15 21 6 20 10 36 10 36 -1 -1 -18 -7 -37 -14z"/>
<path d="M1623 1441 c10 -28 11 -29 33 -13 19 14 20 18 6 20 -10 2 -21 8 -26
13 -19 17 -24 9 -13 -20z"/>
<path d="M1656 1421 c-4 -5 -2 -20 3 -33 l9 -23 9 23 c5 13 12 23 16 23 26 -3
37 0 32 9 -8 12 -62 13 -69 1z"/>
<path d="M1116 1318 c-9 -13 -14 -16 -11 -8 4 8 -1 6 -9 -4 -9 -11 -16 -25
-16 -31 0 -5 -9 -16 -20 -22 -10 -7 -24 -22 -31 -34 -8 -15 -8 -19 0 -15 16
11 13 -2 -10 -43 -21 -36 -21 -36 0 -11 11 14 21 21 21 16 0 -5 9 -1 20 9 11
10 20 13 20 8 0 -6 -7 -16 -16 -24 -23 -19 -45 -66 -38 -83 3 -9 10 -13 16
-10 5 3 4 13 -4 22 -11 15 -11 15 3 4 10 -7 15 -22 12 -40 -3 -21 0 -18 10 11
17 44 36 69 48 62 4 -3 -5 -27 -21 -52 -17 -26 -30 -56 -29 -67 0 -17 3 -16
13 8 8 16 15 24 17 17 3 -7 15 8 28 33 l23 47 -26 20 c-15 12 -25 26 -24 32 1
7 -1 26 -6 42 l-8 30 -18 -35 c-17 -33 -18 -34 -17 -8 1 14 4 25 6 22 2 -2 14
10 26 26 12 16 25 27 28 23 4 -3 7 1 7 9 0 9 7 22 17 29 15 13 15 12 4 -9 -17
-31 -10 -36 10 -8 14 18 15 25 4 39 -11 16 -14 16 -29 -5z"/>
<path d="M1040 1275 c-19 -19 -29 -35 -24 -35 11 0 45 34 58 58 12 21 1 14
-34 -23z"/>
<path d="M1592 1303 c-10 -4 -8 -8 5 -18 10 -7 18 -19 18 -27 0 -7 8 -14 18
-16 15 -3 17 -1 9 15 -20 34 -37 51 -50 46z"/>
<path d="M1929 1293 c5 -10 26 -34 47 -53 43 -40 35 -21 -13 34 -35 39 -50 47
-34 19z"/>
<path d="M1326 1285 c-11 -8 -27 -13 -37 -10 -9 3 -22 -1 -29 -10 -7 -8 -9
-15 -5 -15 4 0 1 -8 -6 -17 -13 -16 -12 -17 4 -4 30 24 18 -4 -15 -36 -42 -39
-56 -43 -95 -27 -39 15 -42 6 -9 -25 16 -15 34 -22 53 -20 31 4 63 26 63 44 0
14 50 51 50 38 1 -11 18 20 36 62 16 40 16 40 -10 20z"/>
<path d="M1365 1268 c-15 -26 -15 -28 0 -28 9 0 14 4 10 9 -3 5 6 19 21 30 22
17 23 20 6 18 -11 0 -28 -14 -37 -29z"/>
<path d="M1155 1280 c-3 -5 -3 -10 0 -10 4 0 -1 -7 -9 -16 -20 -19 -5 -54 24
-54 16 0 17 4 10 29 -4 16 -6 32 -2 35 3 3 0 6 -7 6 -7 0 -9 5 -6 10 3 6 4 10
1 10 -3 0 -8 -4 -11 -10z"/>
<path d="M1465 1259 c-16 -9 -39 -18 -50 -18 -42 -2 -69 -25 -70 -58 0 -17 -7
-39 -15 -49 -14 -16 -13 -17 3 -11 10 4 21 7 23 7 2 0 4 9 4 20 0 11 5 20 10
20 16 0 11 -32 -7 -45 -10 -7 -13 -17 -8 -25 11 -18 35 15 35 47 0 13 5 23 10
23 6 0 10 -9 10 -20 0 -31 -1 -35 -11 -32 -5 1 -9 -7 -9 -18 0 -11 3 -20 8
-20 13 0 32 39 26 54 -3 8 -1 17 4 20 5 3 12 -5 14 -19 3 -14 1 -25 -3 -25 -5
0 -9 -10 -9 -22 1 -22 1 -22 15 -4 8 11 12 29 9 43 -5 18 -2 23 14 23 12 0 24
-5 28 -12 4 -7 3 -8 -4 -4 -8 5 -12 -2 -12 -18 0 -14 -4 -26 -10 -26 -5 0 -10
-4 -10 -10 0 -19 27 -10 38 13 l11 22 0 -22 c1 -22 31 -34 31 -13 0 6 -5 10
-11 10 -7 0 -9 10 -7 25 3 13 0 26 -6 29 -6 2 -1 5 12 5 21 1 23 -2 17 -27 -4
-20 -1 -33 10 -42 12 -10 15 -10 15 4 0 9 5 16 10 16 6 0 10 -4 10 -10 0 -5 5
-10 10 -10 6 0 10 7 10 15 0 8 -4 15 -10 15 -5 0 -10 14 -10 30 0 17 5 30 10
30 6 0 10 -9 10 -21 0 -25 17 -59 30 -59 16 0 11 27 -5 34 -23 8 -18 43 6 49
13 4 18 10 13 18 -4 7 -3 10 4 5 6 -3 14 -1 18 5 4 7 3 9 -4 5 -6 -3 -14 -1
-17 4 -7 12 -49 31 -75 34 -13 2 -62 20 -79 30 -3 2 -19 -5 -36 -15z m47 -19
c-5 -13 -3 -13 11 -1 22 18 27 13 30 -35 2 -33 -1 -39 -17 -39 -11 0 -21 7
-23 15 -4 13 -3 13 6 0 10 -13 11 -13 11 0 0 8 -10 28 -23 44 -19 23 -23 25
-23 10 0 -11 -4 -30 -8 -43 -6 -16 -5 -21 3 -17 6 4 11 2 11 -3 0 -14 -23 -14
-36 -1 -16 16 -5 78 15 82 35 7 49 4 43 -12z m-82 -40 c0 -30 -13 -40 -25 -20
-8 13 4 50 16 50 5 0 9 -13 9 -30z m165 0 c0 -13 -5 -25 -12 -27 -7 -3 -11 7
-11 27 1 35 23 36 23 0z m43 3 c-5 -25 -28 -28 -28 -4 0 12 6 21 16 21 9 0 14
-7 12 -17z"/>
<path d="M1308 1186 c-9 -13 -13 -28 -9 -34 10 -16 35 3 28 21 -3 9 -1 17 6
20 6 2 7 6 2 9 -6 3 -17 -4 -27 -16z"/>
<path d="M1677 1183 c-10 -9 12 -43 28 -43 20 0 19 -15 -1 -35 -9 -9 -14 -25
-11 -35 3 -11 1 -20 -4 -20 -6 0 2 -17 17 -37 41 -56 42 -57 38 -27 -1 15 -9
31 -16 35 -10 7 -10 9 2 9 9 0 11 3 5 8 -12 8 -13 27 -3 38 9 8 38 -14 38 -29
0 -5 -10 -2 -22 9 -22 19 -23 19 -8 -1 32 -44 60 -76 60 -69 0 4 -7 16 -17 26
-9 10 -14 21 -10 24 7 7 76 -86 77 -104 0 -7 4 -10 10 -7 6 4 8 -7 5 -27 -4
-26 -3 -29 4 -13 7 15 10 8 10 -34 1 -50 2 -53 16 -35 35 46 10 144 -49 189
-37 28 -40 47 -6 40 14 -3 17 1 13 13 -6 15 -5 16 12 2 17 -14 17 -14 4 8 -9
14 -24 22 -42 22 -15 0 -26 4 -22 9 3 5 0 13 -6 17 -8 4 -9 3 -5 -4 13 -22
-10 -12 -42 16 -18 16 -29 32 -26 35 4 4 -3 4 -15 2 -12 -2 -19 0 -16 5 6 10
-10 22 -18 13z m126 -118 c-1 -17 0 -18 10 -5 16 21 38 24 30 4 -3 -8 -8 -12
-11 -10 -3 3 -11 1 -19 -5 -10 -9 -18 -8 -33 6 -22 20 -17 38 8 33 10 -2 16
-12 15 -23z"/>
<path d="M1261 1138 c-7 -11 -8 -17 -3 -14 10 6 24 -18 16 -27 -10 -10 -44 5
-37 17 4 6 -1 4 -12 -4 -16 -13 -16 -15 -2 -18 23 -5 21 -15 -6 -40 -29 -27
-37 -28 -32 -1 3 15 1 18 -8 12 -7 -4 -4 0 6 10 19 17 19 17 -5 17 -14 0 -33
-10 -44 -22 -19 -22 -19 -22 0 -8 18 14 19 13 13 -3 -4 -10 -3 -16 2 -13 5 3
14 0 20 -8 9 -11 5 -19 -20 -37 -17 -12 -38 -37 -45 -55 -16 -37 -19 -118 -5
-109 5 3 12 -5 14 -17 2 -13 5 0 7 27 2 46 3 48 11 20 7 -24 8 -21 5 20 -2 28
-1 44 1 37 3 -7 16 9 29 35 28 57 90 127 104 118 6 -4 8 -10 5 -15 -3 -5 0
-12 6 -16 7 -4 1 -15 -17 -31 -16 -13 -22 -22 -14 -18 9 4 8 1 -3 -8 -15 -12
-15 -16 -3 -20 10 -4 25 9 45 38 17 25 27 45 22 45 -5 0 -6 12 -3 26 3 19 1
25 -7 20 -10 -7 -16 11 -12 41 3 21 -15 22 -28 1z"/>
<path d="M1232 1031 c-18 -22 -32 -43 -32 -48 0 -4 12 6 25 24 17 21 31 30 43
27 13 -5 14 -4 3 4 -7 5 -10 15 -7 21 15 24 -2 9 -32 -28z"/>
<path d="M1135 1023 c-31 -8 -44 -22 -57 -65 -8 -26 -14 -35 -20 -26 -4 7 -5
-2 -2 -22 8 -42 14 -51 14 -21 0 33 28 82 63 113 18 15 30 27 27 27 -3 -1 -14
-4 -25 -6z"/>
<path d="M1859 1012 c32 -22 71 -86 72 -119 2 -26 2 -26 6 -4 5 27 -21 104
-42 121 -7 6 -24 13 -36 15 l-24 4 24 -17z"/>
<path d="M1313 1012 c-6 -4 -22 -30 -37 -59 -24 -48 -24 -52 -6 -48 14 3 17 0
13 -13 -5 -12 -8 -13 -11 -2 -3 9 -9 5 -19 -11 -13 -23 -14 -23 -8 -1 4 12 2
22 -4 22 -6 0 -17 -23 -26 -52 -18 -61 -19 -71 -5 -63 7 4 9 -3 5 -22 -5 -21
-4 -24 4 -13 8 12 11 8 12 -20 1 -30 3 -27 10 17 11 65 55 167 69 158 6 -4 1
-22 -14 -48 -34 -58 -49 -121 -40 -171 5 -33 8 -37 15 -21 4 11 8 34 8 50 1
17 12 53 25 82 18 38 21 50 10 46 -12 -4 -13 -1 -3 20 10 23 30 30 45 15 3 -4
-6 -30 -20 -59 -50 -99 -54 -194 -9 -230 15 -13 16 -11 9 11 -19 66 -18 107 7
187 15 45 24 93 21 108 -4 23 -3 25 16 15 17 -9 22 -6 34 22 8 18 15 28 15 21
1 -7 -10 -38 -24 -69 -27 -60 -31 -78 -14 -54 8 12 9 9 4 -10 -13 -48 -18
-223 -6 -216 6 4 11 29 11 55 0 26 7 70 15 97 18 59 17 54 5 54 -5 0 -10 -8
-10 -17 0 -9 -2 -14 -5 -11 -4 3 -3 18 1 33 5 20 9 23 15 13 12 -18 11 -1 -1
22 -7 13 -5 30 9 62 15 33 20 38 20 20 1 -23 1 -23 26 5 l25 28 24 -27 c24
-27 25 -27 29 -5 3 20 4 20 16 -8 7 -16 13 -40 13 -52 0 -13 4 -20 9 -17 15 9
10 -14 -7 -30 -14 -15 -14 -20 0 -63 9 -26 16 -70 16 -99 0 -58 14 -80 23 -36
5 27 -6 144 -18 192 -5 19 -4 22 4 10 15 -21 13 -5 -4 37 -19 44 -20 40 10 45
22 5 24 2 20 -19 -2 -14 7 -61 21 -105 25 -77 27 -121 11 -185 -8 -31 6 -29
24 4 23 43 17 131 -13 189 -33 62 -38 88 -18 89 17 1 45 -33 35 -43 -3 -3 -11
0 -16 8 -9 12 -10 12 -5 -3 3 -10 6 -21 6 -24 0 -3 8 1 18 8 15 13 16 12 4 -3
-11 -14 -11 -22 2 -47 9 -16 16 -47 16 -68 0 -61 17 -75 25 -20 8 51 -4 99
-41 164 -15 26 -20 44 -14 48 6 4 22 -19 38 -52 20 -43 27 -73 27 -120 0 -33
3 -56 7 -50 4 7 8 28 8 47 0 24 3 31 9 21 7 -10 11 -6 16 17 8 36 -9 105 -31
127 -9 9 -29 41 -45 72 -17 34 -29 49 -30 37 0 -15 -2 -16 -7 -4 -4 8 -16 16
-27 18 -17 3 -15 -1 10 -25 16 -15 33 -27 37 -26 10 4 11 -21 1 -30 -3 -4 -13
-1 -22 6 -14 11 -14 10 -2 -6 18 -22 9 -33 -10 -11 -7 9 -13 28 -14 42 0 14
-6 27 -14 30 -9 3 -11 0 -6 -9 6 -11 5 -11 -5 -2 -9 8 -19 9 -32 2 -12 -7 -18
-6 -18 1 0 13 -31 9 -47 -6 -13 -12 -42 -11 -83 3 -14 4 -43 8 -65 8 -36 0
-40 -2 -40 -27 -1 -14 -7 -33 -14 -42 -19 -22 -28 -11 -10 11 12 16 12 17 -2
6 -17 -14 -29 -8 -29 14 0 7 5 12 11 11 6 -2 14 4 16 12 4 13 3 13 -7 0 -10
-13 -11 -13 -7 0 2 8 11 14 19 12 9 -1 20 4 26 11 8 10 7 13 -7 14 -9 1 -22
-2 -28 -5z m77 -54 c0 -7 -5 -20 -10 -28 -9 -13 -10 -13 -10 0 -1 12 -3 11
-11 -3 -5 -9 -8 -21 -4 -26 6 -11 -22 -8 -32 4 -4 4 -3 5 3 2 6 -3 17 9 24 28
13 34 40 49 40 23z m240 2 c0 8 8 0 16 -17 9 -18 21 -33 26 -33 5 0 6 -5 2
-11 -4 -7 -14 0 -25 18 -11 16 -19 22 -19 13 0 -13 -1 -13 -10 0 -5 8 -10 22
-10 30 0 13 1 13 10 0 9 -13 10 -13 10 0z m116 -62 c8 -16 13 -32 11 -35 -3
-2 -8 5 -12 16 -3 12 -10 19 -15 16 -11 -7 -32 30 -23 38 9 10 22 -1 39 -35z"/>
<path d="M1194 935 c-7 -19 -14 -58 -13 -87 l1 -53 13 41 c7 23 21 54 32 70
16 26 16 27 1 21 -10 -3 -20 -1 -24 5 -4 6 -3 8 4 4 6 -3 14 -1 18 5 5 8 3 9
-6 4 -10 -6 -12 -4 -7 8 12 33 -4 16 -19 -18z"/>
<path d="M1477 903 c-14 -21 -28 -56 -32 -78 l-6 -40 16 30 c15 29 15 29 10
-32 -4 -42 -2 -64 6 -69 8 -5 10 1 7 19 -3 15 -1 24 3 21 5 -3 9 24 9 60 0 36
5 68 10 71 6 4 10 -17 10 -57 0 -72 8 -110 22 -102 5 3 6 33 3 67 -5 60 -5 61
10 32 9 -20 14 -24 15 -12 0 21 -23 79 -43 107 -14 20 -15 19 -40 -17z"/>
<path d="M1156 898 c-10 -33 -14 -155 -6 -168 6 -10 8 -3 5 25 l-5 40 11 -34
c11 -37 39 -83 39 -65 0 6 -9 37 -21 70 -13 38 -19 74 -16 102 4 40 1 56 -7
30z"/>
<path d="M1559 778 c-1 -7 -3 -49 -4 -93 -1 -44 -5 -99 -8 -122 -2 -24 -1 -43
3 -43 20 0 45 137 29 156 -6 8 -12 36 -12 64 -2 47 -6 65 -8 38z"/>
<path d="M1354 773 c3 -6 2 -14 -3 -18 -6 -3 -13 -25 -16 -50 -6 -35 -2 -55
19 -101 25 -53 27 -56 40 -38 8 10 12 21 10 24 -3 2 -9 -2 -13 -9 -7 -11 -10
-11 -17 0 -11 18 -22 139 -12 133 10 -7 4 54 -7 64 -5 4 -5 2 -1 -5z"/>
<path d="M1436 735 c-24 -96 -14 -206 20 -219 9 -3 12 -1 9 4 -10 17 -19 101
-19 173 1 37 0 67 -1 67 -2 0 -6 -11 -9 -25z"/>
<path d="M1642 684 c-2 -44 -9 -89 -18 -107 l-15 -32 20 25 c29 35 44 96 36
147 -10 67 -21 51 -23 -33z"/>
<path d="M445 1940 c-28 -5 -9 -7 65 -7 80 -1 96 1 65 8 -46 9 -74 9 -130 -1z"/>
<path d="M2435 1940 c-39 -5 -27 -7 55 -8 67 0 98 3 85 8 -23 10 -68 10 -140
0z"/>
<path d="M535 1885 c-16 -7 -43 -12 -60 -10 -16 1 -21 0 -9 -2 18 -4 20 -9 14
-49 l-7 -44 31 1 c23 0 26 2 13 7 -14 6 -9 12 28 30 39 19 45 26 45 52 0 33
-9 35 -55 15z"/>
<path d="M436 1838 c-9 -28 -12 -78 -5 -78 12 0 23 22 25 52 3 29 -13 49 -20
26z"/>
<path d="M535 1740 c-22 -10 -49 -19 -60 -19 -15 -1 -17 -3 -6 -10 9 -6 12
-20 9 -40 -2 -17 -3 -31 -1 -31 1 0 27 12 57 27 47 23 55 31 58 60 5 38 -1 39
-57 13z"/>
<path d="M428 1660 c-2 -28 0 -40 9 -40 7 0 13 3 14 8 6 51 4 72 -7 72 -7 0
-14 -17 -16 -40z"/>
<path d="M530 1582 c-52 -25 -55 -29 -52 -59 2 -18 5 -33 8 -33 3 0 27 11 53
25 42 21 49 29 53 60 2 19 2 35 -2 34 -3 0 -30 -13 -60 -27z"/>
<path d="M436 1538 c-9 -28 -12 -78 -5 -78 13 0 23 22 24 53 2 30 -12 47 -19
25z"/>
<path d="M548 1444 c-22 -12 -28 -22 -28 -49 l0 -35 34 17 c27 12 35 23 38 49
4 38 -3 41 -44 18z"/>
<path d="M494 1422 c-13 -8 -24 -71 -14 -77 16 -10 31 15 28 48 -2 24 -7 34
-14 29z"/>
<path d="M428 1360 c-3 -32 0 -40 11 -38 10 2 16 16 16 41 2 51 -22 49 -27 -3z"/>
<path d="M553 1285 c-17 -7 -33 -22 -36 -32 -4 -16 -5 -16 -6 -1 -2 27 -31 10
-31 -17 0 -13 -4 -27 -10 -30 -9 -6 -14 8 -11 28 0 4 -6 7 -14 7 -11 0 -15
-11 -15 -40 0 -39 15 -54 26 -26 3 8 14 14 24 13 9 0 38 10 63 23 38 20 46 30
49 57 4 37 5 37 -39 18z"/>
<path d="M2540 1812 c0 -31 4 -41 19 -45 15 -4 21 -16 24 -48 3 -43 4 -43 5 9
1 31 -2 51 -7 47 -6 -3 -11 11 -13 32 -4 52 -28 56 -28 5z"/>
<path d="M2404 1731 c2 -30 8 -38 41 -52 l39 -17 -34 -5 c-30 -3 -27 -4 13 -5
l47 -2 0 40 c0 33 -3 40 -20 40 -11 0 -20 3 -20 8 0 4 -16 12 -35 18 l-34 11
3 -36z"/>
<path d="M2540 1670 c0 -30 5 -40 19 -45 15 -5 21 -17 24 -53 3 -45 3 -45 5
11 1 37 -2 56 -8 52 -6 -4 -10 8 -10 28 0 22 -6 37 -15 41 -12 4 -15 -3 -15
-34z"/>
<path d="M2403 1577 c2 -32 7 -38 55 -61 l52 -26 0 38 c0 38 -6 43 -97 79 -8
3 -11 -7 -10 -30z"/>
<path d="M2540 1512 c0 -32 4 -42 19 -47 15 -5 21 -17 24 -53 l3 -47 2 53 c1
28 -2 52 -7 52 -6 0 -11 17 -13 37 -4 52 -28 56 -28 5z"/>
<path d="M2404 1429 c2 -26 10 -35 50 -55 26 -13 49 -24 52 -24 2 0 4 18 4 40
0 27 -4 40 -14 40 -7 0 -27 7 -42 15 -43 22 -53 19 -50 -16z"/>
<path d="M2540 1370 c0 -30 5 -40 19 -45 16 -5 21 -17 24 -58 l3 -52 2 58 c1
32 -2 57 -8 57 -5 0 -10 15 -10 34 0 21 -6 36 -15 40 -12 4 -15 -3 -15 -34z"/>
<path d="M2404 1268 c2 -24 10 -37 32 -49 44 -26 54 -23 54 14 0 28 -5 36 -35
50 -49 23 -54 22 -51 -15z"/>
<path d="M2500 1221 c0 -40 0 -40 -42 -44 l-43 -4 45 1 c44 1 45 2 51 39 3 21
2 40 -3 43 -4 3 -8 -13 -8 -35z"/>
<path d="M672 619 c-40 -34 -72 -64 -72 -68 0 -4 17 -23 37 -42 21 -18 30 -25
22 -14 -39 49 -30 80 34 123 46 31 52 31 112 -6 l40 -24 -45 46 c-24 25 -47
46 -50 46 -3 0 -38 -27 -78 -61z"/>
<path d="M2194 629 l-49 -51 38 22 c20 12 40 26 43 31 10 17 40 9 82 -22 50
-37 61 -68 37 -107 -14 -22 -11 -21 21 10 21 21 36 39 34 41 -3 1 -32 25 -65
53 -33 27 -67 55 -76 61 -13 10 -24 4 -65 -38z"/>
<path d="M2229 546 c-2 -2 -20 -6 -39 -9 -19 -2 -34 -9 -33 -15 2 -6 -4 -9
-12 -6 -8 4 -12 11 -9 16 4 5 -12 -2 -35 -17 -45 -30 -51 -37 -23 -29 14 5 14
3 -2 -10 -29 -23 -6 -19 24 4 31 24 47 26 29 3 -8 -10 5 -3 27 15 51 39 66 41
33 5 -15 -18 -11 -16 14 6 20 19 37 36 37 38 0 4 -6 4 -11 -1z"/>
<path d="M800 536 c0 -2 19 -19 43 -37 23 -19 36 -26 28 -16 -18 22 -6 22 27
-1 43 -30 59 -36 32 -12 -17 15 -19 20 -7 16 27 -9 20 -1 -24 29 -23 15 -39
22 -35 17 3 -5 -1 -13 -10 -16 -8 -3 -12 -2 -9 3 3 5 0 13 -6 17 -8 4 -9 3 -5
-4 4 -7 2 -12 -3 -12 -6 0 -11 5 -11 10 0 6 -4 10 -10 10 -5 0 -10 -2 -10 -4z"/>
<path d="M2207 469 c-26 -22 -45 -45 -42 -50 3 -4 -22 -29 -57 -55 -35 -25
-65 -48 -68 -52 -8 -9 73 40 91 55 22 19 34 16 18 -4 -10 -12 -5 -11 17 4 34
25 61 53 48 53 -4 0 3 11 16 25 13 14 20 28 17 32 -4 3 -2 12 4 20 20 23 5 14
-44 -28z"/>
<path d="M765 469 c3 -12 11 -29 19 -38 8 -9 14 -20 13 -25 -1 -5 14 -20 33
-35 19 -14 29 -18 21 -8 -20 25 -9 21 50 -18 30 -19 58 -35 64 -35 5 0 -6 10
-25 21 -56 35 -110 80 -105 89 4 7 -58 70 -70 70 -2 0 -2 -10 0 -21z"/>
<path d="M1442 343 c8 -10 43 -52 78 -93 77 -92 86 -101 72 -75 -12 24 -151
185 -159 185 -3 0 1 -8 9 -17z"/>
<path d="M578 2213 c-19 -5 -25 -23 -9 -23 18 0 23 -41 8 -58 -13 -15 -12 -21
4 -47 16 -26 19 -27 19 -9 0 12 3 49 6 83 4 34 3 60 -2 60 -5 -1 -17 -3 -26
-6z"/>
<path d="M2383 2199 c4 -13 7 -50 7 -81 0 -32 3 -58 8 -58 4 0 15 13 24 29 14
26 14 32 2 42 -18 15 -18 34 2 54 19 19 18 21 -20 31 -27 6 -29 5 -23 -17z"/>
<path d="M578 910 c-14 -25 -14 -31 -2 -41 18 -15 18 -34 -2 -54 -19 -18 -18
-20 14 -29 20 -7 22 -4 21 26 0 18 -4 54 -7 80 l-7 48 -17 -30z"/>
<path d="M2390 883 c0 -32 -3 -69 -7 -82 -6 -22 -4 -23 23 -17 38 10 39 12 20
31 -20 20 -20 39 -2 54 12 10 12 16 -2 42 -9 16 -20 29 -24 29 -5 0 -8 -26 -8
-57z"/>
</g>
</svg>
