<?xml version="1.0" standalone="no"?>
<!DOCTYPE svg PUBLIC "-//W3C//DTD SVG 20010904//EN"
 "http://www.w3.org/TR/2001/REC-SVG-20010904/DTD/svg10.dtd">
<svg version="1.0" xmlns="http://www.w3.org/2000/svg"
 width="126.000000pt" height="126.000000pt" viewBox="0 0 126.000000 126.000000"
 preserveAspectRatio="xMidYMid meet">
<metadata>
Created by potrace 1.10, written by Peter Selinger 2001-2011
</metadata>
<g transform="translate(0.000000,126.000000) scale(0.100000,-0.100000)"
fill="#a19b9b" stroke="none">
<path d="M625 1251 c-11 -4 -37 -7 -57 -6 -20 1 -35 -2 -33 -6 7 -10 -63 -22
-77 -13 -6 4 -8 3 -5 -3 4 -6 -5 -15 -19 -22 -36 -16 -39 -14 -13 10 21 18 19
17 -11 -2 -19 -13 -41 -31 -48 -41 -7 -9 -18 -15 -25 -12 -7 2 -28 -10 -47
-28 -19 -18 -38 -31 -42 -30 -5 1 -7 -2 -5 -7 1 -4 -9 -18 -23 -29 -23 -18
-24 -23 -13 -51 6 -18 7 -29 1 -25 -5 3 -12 -3 -15 -15 -3 -11 -9 -18 -14 -15
-8 5 -10 -2 -14 -46 -1 -23 -31 -61 -40 -52 -4 4 -6 0 -2 -10 3 -9 3 -18 1
-21 -9 -8 -10 -397 -1 -397 4 0 7 -6 7 -13 0 -7 9 -18 20 -25 16 -10 18 -16
10 -31 -7 -14 -6 -22 5 -31 8 -7 12 -17 8 -24 -4 -6 1 -5 10 3 9 7 14 17 11
22 -3 5 -1 9 5 9 5 0 15 -8 20 -18 6 -9 11 -15 11 -12 1 3 4 14 7 25 3 11 5
30 5 43 0 16 5 22 14 18 7 -3 16 0 20 6 4 7 3 8 -4 4 -13 -8 -16 6 -5 18 4 4
7 39 7 79 -1 59 0 62 3 16 3 -40 10 -62 24 -74 10 -10 22 -15 26 -11 4 4 2 11
-6 15 -10 6 -9 10 4 15 23 8 27 8 21 -3 -4 -5 0 -11 6 -14 8 -2 1 -10 -15 -18
-23 -10 -30 -11 -36 0 -6 9 -11 10 -15 2 -4 -5 3 -29 14 -51 11 -22 18 -46 14
-52 -4 -6 -3 -8 4 -4 10 6 55 -55 58 -81 3 -21 -14 -25 -25 -6 -6 11 -11 13
-11 5 0 -10 -5 -10 -20 -2 -34 18 -22 3 16 -19 39 -23 48 -26 39 -11 -3 6 1
13 9 16 9 3 14 10 11 14 -3 5 13 -1 34 -13 46 -25 48 -36 2 -13 -23 12 -31 13
-37 3 -4 -6 -4 -9 0 -5 4 3 33 -6 64 -20 46 -21 72 -26 132 -26 54 1 67 -1 45
-7 -20 -5 -12 -6 25 -3 30 3 78 13 105 22 28 9 53 15 58 14 4 -1 7 3 7 8 0 6
5 10 10 10 6 0 10 -9 10 -20 0 -11 -4 -20 -10 -20 -5 0 -6 -8 -3 -17 5 -14 8
-12 16 10 5 17 13 24 20 20 7 -3 4 3 -6 14 -9 11 -14 23 -10 26 11 12 23 8 23
-7 0 -8 4 -17 8 -20 5 -3 8 4 8 16 -1 12 5 22 12 24 7 1 8 0 2 -3 -5 -2 -10
-9 -10 -14 0 -6 8 -6 19 1 11 5 22 7 24 3 6 -12 -19 -54 -26 -46 -4 3 -7 1 -7
-6 0 -7 -3 -10 -7 -8 -5 3 -15 -2 -23 -11 -13 -14 -12 -15 3 -9 9 4 25 10 35
13 32 11 -20 -27 -68 -49 -152 -69 -339 -61 -477 20 -23 13 -46 22 -51 19 -5
-3 -18 4 -28 17 l-19 22 25 -20 25 -20 -24 28 c-24 27 -38 36 -26 17 10 -17
-12 -11 -26 7 -12 14 -12 16 1 9 8 -4 5 1 -8 11 -18 14 -20 21 -10 31 6 6 9
14 6 17 -3 4 -15 -4 -27 -16 l-21 -22 29 -28 c16 -15 26 -30 23 -34 -4 -4 -2
-5 3 -3 6 2 24 -9 40 -24 16 -15 33 -24 39 -21 5 4 7 -1 3 -10 -3 -9 -3 -16 1
-16 22 4 42 -2 37 -11 -6 -10 6 -14 38 -11 9 1 17 -2 17 -7 0 -13 137 -44 185
-41 22 1 67 -1 100 -4 41 -4 49 -3 25 2 l-35 8 40 3 c22 1 46 2 54 1 7 -2 10
2 6 8 -4 7 3 11 18 11 13 0 27 3 31 7 4 4 17 8 29 9 12 1 31 5 41 10 14 5 17
4 11 -5 -6 -10 -3 -11 14 -2 25 14 28 23 4 14 -10 -4 -14 -2 -9 5 3 6 2 13 -4
17 -5 3 -10 2 -10 -4 0 -6 -10 -16 -22 -22 l-23 -11 23 21 c12 12 20 26 17 31
-3 5 5 16 17 24 13 9 17 16 9 16 -11 0 -9 5 4 20 10 11 14 20 10 20 -5 0 -4 5
3 12 16 16 15 31 -1 25 -23 -9 -40 8 -24 21 11 10 20 7 41 -13 14 -13 26 -20
26 -15 0 5 -5 12 -10 15 -6 4 -8 11 -4 16 3 5 13 1 22 -9 9 -10 13 -12 8 -5
-5 8 -4 24 3 41 10 23 9 24 -2 10 -14 -18 -54 -18 -50 1 2 6 -2 11 -7 11 -6 0
-10 5 -10 11 0 5 4 7 10 4 6 -4 7 1 3 11 -3 10 -2 15 3 12 5 -4 10 6 11 20 1
24 0 24 -9 7 -33 -64 -60 -106 -65 -101 -3 3 4 17 15 33 41 59 64 114 52 128
-8 10 -8 15 0 20 8 5 11 67 9 198 -2 170 -4 197 -22 234 -11 23 -24 40 -28 37
-4 -2 -5 5 -2 16 5 17 10 12 28 -27 13 -26 24 -44 24 -40 1 4 -6 22 -15 38
-16 33 -12 65 7 53 7 -4 9 -3 6 3 -13 22 22 21 37 0 l17 -22 -11 23 c-7 13 -9
30 -6 38 4 11 -1 10 -22 -3 l-27 -17 19 22 c16 18 17 25 7 35 -10 9 -11 8 -6
-5 4 -11 2 -18 -4 -18 -6 0 -11 5 -11 10 0 6 -8 10 -17 10 -15 0 -14 -2 3 -15
19 -15 19 -15 -1 -9 -15 4 -16 3 -6 -4 9 -6 10 -12 3 -16 -6 -4 -16 3 -22 14
-6 11 -7 20 -3 20 4 0 1 5 -7 10 -8 5 -22 10 -30 10 -10 -1 -8 -7 9 -20 13
-11 21 -26 18 -34 -4 -10 3 -12 25 -10 26 3 29 2 18 -11 -10 -12 -16 -13 -28
-3 -13 11 -14 11 -7 -2 5 -8 -7 -1 -26 15 -19 17 -46 38 -59 48 -17 13 -13 11
15 -3 22 -12 31 -15 20 -6 -11 9 -29 25 -41 35 -14 13 -25 17 -35 10 -18 -11
-32 -12 -25 0 4 5 -4 7 -16 4 -18 -4 -20 -2 -9 5 12 9 10 12 -10 16 -67 14
-103 16 -151 10 -45 -7 -49 -9 -28 -16 18 -6 14 -6 -15 -3 -29 3 -54 -2 -90
-19 -61 -29 -135 -91 -135 -114 0 -11 7 -5 19 14 11 18 25 35 33 40 11 6 11 5
0 -9 -17 -20 -7 -38 16 -31 14 5 14 4 2 -4 -8 -6 -18 -8 -24 -5 -5 3 -6 1 -2
-5 9 -14 -24 -73 -36 -66 -5 3 1 17 12 31 11 14 17 30 14 35 -7 12 -7 12 -39
-42 -15 -25 -24 -36 -20 -25 4 11 8 36 9 55 0 19 7 40 15 46 11 9 12 12 1 19
-9 5 -11 4 -6 -3 4 -7 3 -12 -3 -12 -17 0 -21 17 -7 29 10 8 16 9 21 1 10 -16
23 -12 36 11 9 17 8 20 -3 16 -7 -2 -12 -10 -11 -16 4 -15 -12 -14 -26 3 -9
11 -4 20 26 45 46 38 33 41 -19 5 -28 -20 -35 -30 -28 -39 11 -13 -11 -40 -23
-28 -12 11 -8 25 5 17 7 -5 8 -3 4 5 -6 9 -13 8 -27 -5 -10 -9 -16 -20 -14
-25 7 -11 -26 -77 -41 -83 -7 -3 -16 0 -20 6 -4 7 -3 8 4 4 7 -4 20 6 32 26
21 34 21 55 1 50 -9 -2 -9 3 -2 16 14 26 38 45 50 38 5 -4 13 -1 17 5 5 8 3 9
-7 4 -12 -7 -12 -6 -1 6 7 8 17 15 23 15 5 1 13 2 19 3 5 0 9 6 7 12 -1 6 9
18 23 26 l25 15 -25 -22 -25 -22 35 20 c73 43 180 70 295 75 61 2 102 2 92 -2
-13 -5 -2 -12 42 -25 34 -10 88 -36 121 -57 33 -21 60 -36 60 -34 0 3 -28 24
-62 46 -35 23 -52 38 -39 34 18 -5 22 -4 16 5 -5 9 -4 11 4 6 6 -4 9 -11 6
-16 -3 -5 2 -13 12 -19 30 -16 99 -75 80 -68 -11 4 -16 3 -12 -4 4 -6 13 -8
21 -5 20 8 47 -34 32 -51 -8 -10 -7 -21 3 -41 13 -26 46 -57 61 -57 3 0 8 -2
10 -5 1 -3 1 -4 -1 -2 -2 1 -13 -6 -24 -15 -19 -17 -19 -17 -13 4 4 12 3 24
-2 27 -8 5 -9 -36 -1 -60 4 -12 1 -14 -28 -14 -11 0 -14 3 -8 8 12 8 14 66 3
70 -33 10 -44 1 -40 -33 2 -19 8 -32 13 -29 5 3 6 10 3 16 -4 7 -2 8 4 4 16
-9 15 7 0 22 -8 8 -8 12 -1 12 17 0 24 -29 12 -52 -6 -11 -16 -18 -22 -15 -9
3 -11 -26 -9 -112 2 -64 5 -120 7 -126 2 -5 4 41 3 103 -1 75 2 116 10 124 7
7 12 8 12 2 0 -14 43 -15 52 -1 6 9 8 9 8 -1 0 -9 7 -11 21 -7 20 7 21 5 15
-25 -3 -18 -6 -57 -6 -87 0 -34 -4 -52 -10 -48 -6 4 -10 -9 -9 -32 1 -38 1
-38 9 -8 l8 30 1 -32 c1 -20 -4 -33 -11 -33 -10 0 -10 -2 0 -9 9 -5 13 -25 12
-57 -2 -27 1 -61 4 -75 6 -20 1 -32 -25 -60 -18 -19 -29 -28 -24 -20 5 10 4
12 -3 7 -17 -10 -15 -26 3 -26 21 0 19 -17 -4 -29 -26 -14 -47 -67 -33 -84 7
-8 7 -18 2 -27 -5 -8 -6 -19 -2 -25 3 -5 -2 -4 -12 4 -15 13 -20 12 -39 -9
-12 -12 -15 -20 -7 -16 8 4 1 -6 -16 -22 -30 -28 -30 -30 -11 -41 10 -7 16 -8
13 -2 -8 12 27 32 46 28 7 -2 10 -2 6 0 -4 3 3 19 17 37 17 22 25 46 25 72 0
31 7 45 32 69 18 17 26 21 18 10 -11 -16 -12 -18 0 -8 18 17 21 42 8 66 -7 13
-7 17 0 13 21 -13 25 21 24 231 0 211 0 215 -23 240 -16 18 -19 24 -8 20 31
-11 15 33 -25 67 -30 27 -36 37 -29 51 11 19 5 67 -7 60 -4 -3 -14 3 -21 12
-12 15 -12 16 4 10 11 -4 16 -3 12 4 -4 6 -13 8 -21 5 -8 -3 -14 -1 -14 4 0 5
-9 12 -21 15 -12 4 -18 12 -15 21 3 8 -1 17 -9 20 -8 4 -12 11 -8 17 3 6 1 7
-6 3 -6 -4 -8 -12 -5 -18 4 -6 1 -9 -5 -7 -7 3 -13 9 -14 14 -1 12 -48 37 -55
30 -3 -3 1 -5 8 -5 7 0 11 -2 8 -5 -2 -3 -22 4 -44 15 -21 10 -33 19 -25 20 8
0 12 3 9 6 -4 3 -16 1 -27 -6 -17 -8 -21 -8 -19 2 3 13 -24 18 -100 18 -19 0
-30 5 -27 10 7 11 7 11 -20 1z m-38 -17 c-3 -3 -12 -4 -19 -1 -8 3 -5 6 6 6
11 1 17 -2 13 -5z m91 -21 c-21 -2 -57 -2 -80 0 -24 2 -7 4 37 4 44 0 63 -2
43 -4z m-145 -10 c-7 -2 -19 -2 -25 0 -7 3 -2 5 12 5 14 0 19 -2 13 -5z m-83
-23 c-8 -5 -19 -10 -25 -10 -5 0 -3 5 5 10 8 5 20 10 25 10 6 0 3 -5 -5 -10z
m380 0 c8 -5 11 -10 5 -10 -5 0 -17 5 -25 10 -8 5 -10 10 -5 10 6 0 17 -5 25
-10z m-420 -14 c0 -2 -7 -7 -16 -10 -8 -3 -12 -2 -9 4 6 10 25 14 25 6z m248
-73 c-10 -2 -28 -2 -40 0 -13 2 -5 4 17 4 22 1 32 -1 23 -4z m65 -10 c-7 -2
-19 -2 -25 0 -7 3 -2 5 12 5 14 0 19 -2 13 -5z m-118 -19 c-19 -15 -19 -15 5
-10 17 4 33 -1 50 -15 23 -19 23 -20 4 -14 -22 6 -22 5 -5 -30 l16 -37 7 34
c6 28 3 37 -17 55 -26 23 -34 40 -13 27 7 -4 26 -7 43 -6 24 2 39 -6 68 -37
20 -22 37 -49 37 -60 0 -12 6 -21 15 -21 18 0 20 31 3 48 -23 23 0 23 35 -1
50 -34 69 -55 57 -62 -6 -4 -5 -13 2 -25 7 -10 15 -17 19 -14 4 2 10 -3 13
-12 3 -8 2 -13 -3 -10 -11 7 -33 -18 -24 -27 10 -11 25 -8 18 3 -3 6 -1 10 4
10 14 0 14 -13 -1 -28 -9 -9 -9 -15 0 -24 15 -15 15 -28 1 -28 -5 0 -8 4 -5 9
3 5 -1 12 -10 15 -9 4 -14 13 -10 21 7 20 4 19 -24 -5 -15 -13 -18 -20 -9 -20
11 0 11 -2 -1 -10 -8 -5 -10 -10 -4 -10 6 0 11 -7 11 -15 0 -18 -2 -18 -28 -5
-13 7 -19 21 -19 43 0 18 -3 43 -7 57 l-7 25 -6 -25 c-4 -14 0 -44 7 -67 8
-23 13 -56 11 -75 l-3 -33 -18 33 c-12 22 -15 38 -9 45 6 8 4 25 -4 47 l-14
35 5 -45 c3 -30 2 -38 -4 -25 -8 20 -8 19 -15 -2 -4 -12 -13 -20 -19 -17 -7 2
-21 -2 -32 -11 -19 -15 -19 -15 8 -9 17 4 34 1 44 -7 15 -12 16 -12 10 4 -4
11 -3 16 3 12 6 -3 10 -16 10 -27 0 -11 8 -27 18 -35 9 -8 11 -12 5 -8 -17 8
-16 -6 2 -31 12 -18 12 -24 0 -40 -18 -25 -92 -26 -119 -2 -11 10 -22 15 -25
12 -3 -3 5 -16 19 -27 14 -12 24 -21 22 -20 -2 0 -17 -3 -34 -8 -21 -6 -36 -5
-45 3 -10 8 -17 8 -25 0 -15 -15 -28 -15 -28 -2 0 6 7 10 16 10 13 0 15 7 10
38 l-7 37 19 -34 c36 -67 58 -39 28 34 -24 56 -40 47 -59 -33 -7 -26 -17 -47
-24 -47 -6 0 -15 -3 -19 -8 -4 -4 3 -7 16 -7 18 0 21 -3 13 -11 -6 -6 -9 -18
-6 -27 4 -9 2 -13 -4 -9 -5 3 -23 -7 -38 -23 -16 -17 -23 -30 -17 -30 7 0 12
-7 12 -15 0 -12 -7 -9 -25 10 -14 14 -28 25 -30 25 -3 0 -11 -12 -18 -27 -14
-27 -12 -58 2 -49 4 3 6 -9 4 -27 -3 -31 -3 -31 6 -5 12 35 36 69 44 62 3 -4
2 -15 -4 -26 -6 -11 -8 -22 -5 -25 3 -3 10 6 15 20 12 32 29 43 37 23 3 -9 10
-13 15 -10 5 3 9 0 9 -5 0 -14 -13 -14 -27 0 -14 14 -43 -37 -43 -73 0 -20 3
-18 18 12 18 37 49 50 64 28 6 -9 7 -6 3 9 -5 18 -3 22 8 17 8 -3 18 -1 21 5
4 6 -10 15 -33 21 -27 7 -40 17 -44 32 -8 30 -5 31 29 13 16 -8 37 -15 47 -15
12 0 16 -4 11 -12 -4 -7 1 -5 12 4 16 14 23 15 34 5 9 -9 11 -9 6 0 -4 7 3 17
15 23 19 11 20 10 13 -12 -4 -12 -12 -27 -19 -33 -8 -6 -9 -19 -5 -35 l8 -25
1 27 c1 29 16 45 26 28 5 -8 11 -8 20 0 12 10 20 -1 49 -70 3 -8 4 2 2 23 -3
20 -1 35 4 32 18 -11 28 31 25 102 -2 56 0 73 12 77 8 3 13 12 10 19 -2 6 10
17 27 24 l31 12 -30 -2 c-26 -2 -29 2 -32 27 -1 22 1 26 9 18 7 -7 23 -12 38
-11 22 1 22 2 -8 10 -28 8 -32 14 -30 39 1 17 3 30 4 30 1 0 10 -3 18 -6 15
-6 15 -8 -1 -20 -16 -12 -16 -15 -3 -24 8 -5 33 -8 55 -6 22 2 32 1 23 -1 -10
-2 -18 -11 -18 -19 0 -8 8 -14 18 -15 13 0 12 -2 -5 -9 -28 -12 -30 -20 -3
-13 11 3 20 0 20 -6 0 -6 -6 -11 -14 -11 -8 0 -17 -4 -20 -9 -3 -4 7 -7 22 -5
18 2 20 1 7 -3 -20 -6 -20 -6 0 -14 12 -5 0 -6 -31 -3 -33 4 -54 2 -58 -5 -4
-6 -2 -11 4 -11 6 0 9 -4 5 -9 -3 -6 10 -5 30 0 20 6 44 8 53 6 11 -3 9 -5 -7
-6 -24 -1 -24 -1 -5 -16 17 -13 16 -14 -13 -4 -22 7 -37 7 -50 0 -14 -8 -15
-10 -3 -11 13 0 13 -1 0 -10 -13 -9 -13 -10 0 -10 12 0 12 -2 2 -8 -9 -6 -5
-12 13 -20 19 -9 24 -9 19 -1 -4 8 1 9 17 5 16 -5 12 0 -11 13 -19 11 -28 20
-20 21 13 0 13 1 0 10 -25 16 7 12 40 -5 33 -17 40 -28 13 -18 -15 5 -16 4 -7
-8 6 -8 10 -23 8 -34 -10 -66 -16 -85 -27 -85 -9 0 -9 -2 0 -8 8 -5 4 -16 -15
-38 -28 -32 -65 -43 -55 -16 5 11 7 11 14 0 5 -7 9 -8 9 -3 0 6 -4 16 -9 24
-12 18 -2 43 13 34 6 -4 5 1 -3 10 -7 9 -18 14 -25 11 -6 -3 -3 1 6 9 14 11
15 16 5 27 -7 7 -7 10 -1 7 6 -3 10 4 10 18 0 13 -3 22 -6 20 -3 -2 -6 11 -7
28 -2 38 -7 64 -15 72 -3 3 -4 -31 -2 -75 2 -51 -2 -95 -11 -121 -8 -21 -12
-47 -9 -57 5 -13 4 -14 -4 -3 -8 11 -20 4 -62 -39 -28 -29 -49 -55 -46 -58 3
-2 12 0 19 6 8 7 17 8 22 4 4 -4 4 4 1 18 -6 18 -5 21 3 10 9 -12 11 -12 17 3
3 9 10 14 15 11 5 -3 9 0 9 7 0 9 3 9 14 0 10 -8 16 -9 21 -1 5 9 -15 15 -38
11 -5 -1 -6 3 -3 8 8 12 46 10 46 -2 0 -4 6 -7 13 -6 33 4 41 -1 22 -15 -11
-8 -25 -12 -32 -9 -9 4 -11 0 -6 -13 4 -11 3 -15 -5 -10 -6 3 -13 2 -17 -3 -3
-5 -15 -8 -26 -6 -11 2 -22 -2 -26 -10 -6 -17 -40 -20 -62 -6 -10 7 -23 3 -39
-10 -30 -23 -45 -24 -62 -4 -7 8 -19 15 -27 15 -8 0 -39 25 -69 56 -31 31 -58
53 -61 50 -4 -4 3 -13 15 -22 30 -21 28 -29 -8 -30 -17 -1 -27 3 -23 9 3 5 0
7 -8 5 -8 -3 -13 -12 -11 -19 2 -8 -7 -4 -21 9 -17 16 -23 31 -20 45 4 17 2
19 -5 8 -8 -11 -15 -5 -31 28 -13 29 -15 39 -5 31 7 -7 14 -19 14 -26 0 -8 5
-14 11 -14 6 0 8 9 4 20 -4 11 -2 20 4 20 6 0 11 -5 11 -12 0 -6 9 -3 20 7 21
19 21 19 15 -12 -3 -18 -1 -35 5 -38 6 -4 7 1 3 12 -3 10 -3 15 2 11 4 -4 9
-18 10 -30 4 -37 4 -38 16 -38 8 0 8 4 -1 15 -6 8 -9 18 -6 24 3 5 1 22 -4 37
-21 55 -26 153 -10 185 12 21 7 25 -45 33 l-40 6 35 -12 c45 -17 41 -33 -10
-34 -22 0 -43 -3 -46 -7 -4 -4 1 -7 11 -7 24 0 11 -13 -15 -15 -27 -2 -25 19
3 33 20 10 21 11 2 11 -17 1 -17 3 -5 11 12 8 12 10 -5 11 -20 0 -20 0 0 9 11
5 15 9 9 9 -7 1 -15 8 -18 17 -3 8 -2 12 4 9 6 -3 10 -1 10 5 0 6 5 8 10 5 6
-3 10 -1 10 4 0 6 -7 11 -16 11 -11 0 -15 6 -11 20 3 11 0 20 -6 21 -7 1 -1 5
13 9 25 8 25 8 2 9 -13 1 -21 5 -17 10 3 6 17 6 36 -1 16 -6 33 -8 36 -4 4 3
-2 6 -13 6 -12 1 -7 6 15 16 39 16 40 16 46 -19 4 -19 0 -26 -18 -31 -38 -10
-65 -5 -28 5 18 6 31 12 29 14 -2 3 -22 0 -43 -6 -33 -9 -36 -13 -21 -21 10
-5 34 -7 54 -3 48 9 34 -6 -15 -16 l-38 -8 43 2 c23 2 42 -1 42 -5 0 -5 -4 -8
-10 -8 -5 0 -10 -5 -10 -11 0 -5 5 -7 10 -4 6 3 10 -1 10 -9 0 -8 -6 -14 -12
-12 -31 10 -102 15 -83 6 11 -5 34 -9 52 -9 17 -1 35 -6 38 -11 4 -6 11 -8 16
-4 5 3 7 10 3 15 -3 6 2 37 13 69 19 62 40 78 86 65 22 -6 22 -6 2 10 -10 8
-24 14 -30 12 -5 -2 -16 3 -23 12 -11 14 -12 13 -7 -9 4 -18 3 -21 -3 -10 -15
25 -24 73 -13 65 7 -4 8 1 4 11 -6 15 1 16 68 10 101 -9 111 -9 120 6 9 15 1
31 -12 22 -5 -3 -7 -10 -4 -15 4 -5 1 -9 -4 -9 -14 0 -14 27 -1 35 13 8 13 71
0 95 -6 11 -20 25 -33 31 -21 11 -21 11 -6 -7 33 -39 44 -94 25 -120 -14 -19
-15 -19 -22 1 -11 30 -25 46 -36 39 -5 -3 -1 -12 8 -19 16 -11 15 -12 -9 -12
-15 0 -24 3 -21 8 3 5 -18 9 -47 9 -29 0 -49 -3 -45 -7 4 -4 24 -6 44 -5 32 1
34 0 15 -8 -32 -13 -29 -24 5 -17 15 2 45 -1 67 -8 39 -12 37 -13 -30 -7 -71
5 -118 26 -110 49 2 7 0 15 -5 18 -9 6 -14 -8 -11 -28 1 -5 -3 -6 -9 -2 -6 3
-8 11 -5 16 10 15 -12 10 -25 -6 -11 -13 -10 -14 2 -10 13 5 15 -5 14 -61 -1
-50 -6 -69 -16 -72 -13 -3 -13 -2 0 7 8 6 12 11 8 11 -3 0 -15 3 -25 6 -15 5
-15 4 -3 -5 18 -13 1 -15 -18 -2 -11 7 -11 9 2 14 9 4 24 4 34 1 14 -5 15 -4
2 5 -12 8 -12 11 -1 11 8 0 4 8 -10 20 -13 10 -19 19 -13 20 5 0 15 -5 21 -11
9 -9 11 -7 9 5 -1 9 -8 22 -16 29 -10 10 -11 9 -5 -2 5 -9 3 -12 -5 -9 -23 7
-22 24 4 49 13 12 22 28 19 34 -2 7 3 12 11 12 8 0 15 -3 14 -6 -2 -18 3 -24
11 -13 10 16 2 64 -9 57 -5 -3 -11 -1 -14 3 -3 5 7 9 22 8 16 -1 27 4 27 12 0
18 34 42 58 42 12 0 17 -5 14 -14 -5 -11 1 -13 27 -9 22 3 42 -1 60 -12 14
-10 26 -13 26 -8 0 18 -25 33 -54 33 l-31 1 35 19 c42 23 52 25 25 4z m-145
-8 c0 -2 -16 -13 -35 -25 -19 -11 -35 -18 -35 -16 0 5 61 45 68 45 1 0 2 -2 2
-4z m-174 -58 l19 -21 -27 18 c-29 18 -34 25 -20 25 5 0 17 -10 28 -22z m-1
-48 c-2 -11 1 -20 7 -20 6 0 7 -7 3 -17 -4 -10 -10 -85 -12 -168 -3 -82 -7
-152 -10 -155 -2 -2 -3 48 -1 113 2 64 -1 117 -5 117 -4 0 -7 -87 -5 -192 2
-159 0 -196 -12 -210 -8 -10 -21 -18 -29 -18 -11 0 -10 -4 5 -16 10 -8 13 -12
6 -9 -9 5 -12 1 -10 -11 2 -12 -2 -18 -11 -16 -7 1 -19 -2 -26 -8 -10 -8 -15
-8 -21 1 -4 7 -3 9 3 6 6 -4 14 0 17 10 5 13 -7 36 -34 63 -3 3 -5 98 -5 213
0 114 2 207 5 207 3 0 11 -4 19 -9 11 -7 11 -10 -1 -17 -10 -6 -12 -17 -7 -34
l7 -25 1 27 c1 15 6 30 13 34 8 5 9 2 4 -11 -5 -15 -4 -16 8 -6 8 7 19 10 24
8 4 -3 14 -2 22 4 11 6 6 9 -18 9 -20 0 -35 6 -38 15 -4 8 -10 12 -15 9 -16
-9 -10 13 7 27 13 11 15 11 14 -2 -5 -29 0 -39 19 -39 11 0 23 5 26 10 4 6 -5
10 -20 10 -22 0 -24 3 -15 19 5 11 7 26 4 34 -3 10 2 18 15 22 11 3 20 9 19
13 -1 4 1 17 6 29 6 19 11 21 26 13 11 -6 17 -18 15 -30z m-85 -64 c0 -5 -7
-3 -15 4 -8 7 -12 17 -9 22 7 10 24 -9 24 -26z m900 -38 c0 -6 -7 -5 -15 2 -8
7 -15 17 -15 22 0 6 7 5 15 -2 8 -7 15 -17 15 -22z m-774 6 c-5 -12 -2 -15 11
-10 10 4 14 4 10 0 -4 -4 0 -15 8 -24 14 -15 14 -18 1 -23 -8 -3 -20 1 -26 9
-7 8 -9 14 -6 14 4 0 0 7 -8 16 -16 16 -13 34 6 34 5 0 7 -7 4 -16z m117 -13
c-3 -10 0 -35 6 -56 7 -26 7 -44 -2 -62 l-12 -26 -6 24 c-3 13 -2 36 2 52 9
33 2 36 -11 5 -7 -19 -9 -16 -9 19 -1 23 2 48 5 57 8 21 33 9 27 -13z m-118
-64 c0 -5 11 -14 24 -21 l23 -13 -23 -6 c-30 -8 -39 1 -45 49 -5 35 -4 37 8
19 7 -11 13 -24 13 -28z m587 18 c0 -5 -5 -11 -10 -13 -5 -1 -9 4 -9 13 0 9 4
14 9 13 5 -2 10 -8 10 -13z m53 -37 c6 -6 3 -7 -10 -2 -16 6 -18 5 -7 -7 21
-22 13 -36 -23 -43 -51 -10 -64 4 -25 24 33 17 33 18 11 25 -18 6 -21 9 -10
16 15 9 48 3 64 -13z m-311 -134 c3 -8 2 -12 -4 -9 -6 3 -10 10 -10 16 0 14 7
11 14 -7z m259 -51 c-7 -2 -19 -2 -25 0 -7 3 -2 5 12 5 14 0 19 -2 13 -5z
m-101 -38 c1 2 3 -7 3 -20 0 -13 -4 -21 -9 -18 -5 4 -6 -6 -2 -22 6 -24 5 -27
-7 -17 -8 7 -12 23 -10 36 3 16 -3 29 -21 44 -37 28 -32 35 8 13 19 -11 36
-18 38 -16z m-2 25 c0 -13 -11 -13 -30 0 -12 8 -11 10 8 10 12 0 22 -4 22 -10z
m-53 -30 c13 0 25 -28 17 -41 -3 -5 -10 -7 -15 -3 -5 3 -6 10 -3 16 4 7 2 8
-5 4 -7 -4 -20 2 -31 16 -11 13 -19 19 -20 14 0 -15 52 -66 67 -66 7 0 17 -9
23 -20 6 -11 15 -18 20 -15 6 3 7 -1 4 -8 -6 -17 -29 -16 -46 1 -7 7 -19 12
-27 12 -14 0 -14 1 -1 10 13 9 12 12 -5 22 -25 15 -45 19 -45 8 0 -4 -12 -10
-26 -13 -24 -4 -26 -2 -22 29 3 22 -1 35 -9 39 -8 2 -13 -1 -12 -8 3 -28 -4
-40 -10 -17 l-7 25 -6 -27 c-4 -20 -1 -28 8 -28 8 0 14 -4 14 -9 0 -10 -48 -2
-56 10 -3 5 2 9 12 9 11 0 15 6 11 19 -3 13 3 22 19 30 32 14 71 -6 65 -34 -4
-20 -4 -20 -12 0 -7 19 -8 18 -8 -4 -1 -18 3 -22 17 -16 9 4 22 8 29 8 7 0 10
4 7 9 -3 5 -10 6 -15 3 -5 -4 -8 4 -6 17 3 29 27 40 48 22 8 -8 20 -14 26 -14z
m-378 1 c14 -8 17 -21 16 -60 -1 -28 3 -51 8 -51 5 0 4 -6 -2 -14 -10 -12 -29
-14 -70 -7 -2 1 4 10 14 21 11 12 20 27 21 35 2 16 -20 27 -41 19 -10 -4 -15
0 -15 16 0 12 4 18 10 15 6 -4 7 -11 4 -17 -4 -5 4 -4 17 2 34 18 38 24 10 15
-16 -5 -21 -4 -17 4 4 6 15 11 24 12 14 0 13 2 -3 9 -11 5 -14 9 -7 9 7 1 21
-3 31 -8z m116 -90 c6 -10 -11 -24 -32 -27 -9 -2 -10 3 -3 17 12 21 25 25 35
10z m369 -62 c-4 -7 -8 -21 -9 -33 -4 -39 -5 -41 -14 -27 -6 9 -6 22 0 33 5
10 6 18 2 18 -4 0 -1 5 7 10 20 13 23 12 14 -1z m246 -19 c0 -5 -2 -10 -4 -10
-3 0 -8 5 -11 10 -3 6 -1 10 4 10 6 0 11 -4 11 -10z m-128 -84 c7 4 8 2 4 -5
-5 -7 -13 -8 -24 -2 -11 6 -25 3 -46 -13 -17 -12 -35 -22 -41 -22 -5 1 -30
-10 -53 -22 -24 -13 -47 -21 -50 -18 -3 3 -1 6 4 6 6 0 36 15 67 34 30 19 58
32 61 29 2 -3 12 7 22 21 17 26 17 26 31 6 8 -11 19 -17 25 -14z m-512 -16 c0
-5 -8 -10 -17 -11 -13 0 -14 -2 -4 -6 8 -3 20 2 27 11 11 16 14 16 33 -5 11
-12 18 -26 15 -31 -3 -4 0 -8 7 -8 7 0 10 -2 8 -5 -8 -7 -49 7 -49 17 0 6 7 7
16 4 8 -3 12 -2 9 4 -3 6 -20 8 -37 5 -35 -6 -68 13 -46 26 18 12 38 11 38 -1z
m535 -70 c-3 -5 -12 -10 -18 -10 -7 0 -6 4 3 10 19 12 23 12 15 0z m-432 -17
c-7 -2 -19 -2 -25 0 -7 3 -2 5 12 5 14 0 19 -2 13 -5z m145 0 c-10 -2 -26 -2
-35 0 -10 3 -2 5 17 5 19 0 27 -2 18 -5z m282 -12 c0 -5 -7 -12 -16 -15 -14
-5 -15 -4 -4 9 14 17 20 19 20 6z m-591 -67 c14 -12 -19 -1 -35 12 -18 14 -18
14 6 3 14 -6 27 -13 29 -15z m491 21 c0 -7 -57 -35 -72 -35 -7 0 5 9 27 19 48
23 45 22 45 16z m-450 -35 c8 -5 11 -10 5 -10 -5 0 -17 5 -25 10 -8 5 -10 10
-5 10 6 0 17 -5 25 -10z m355 -10 c-3 -5 -14 -10 -23 -9 -14 0 -13 2 3 9 27
11 27 11 20 0z m-272 -17 c-7 -2 -19 -2 -25 0 -7 3 -2 5 12 5 14 0 19 -2 13
-5z m220 0 c-7 -2 -19 -2 -25 0 -7 3 -2 5 12 5 14 0 19 -2 13 -5z m-85 -10
c-21 -2 -55 -2 -75 0 -21 2 -4 4 37 4 41 0 58 -2 38 -4z"/>
<path d="M685 1049 c4 -6 13 -8 21 -5 17 7 28 -10 13 -20 -8 -5 -9 -3 -4 6 5
8 4 11 -3 7 -5 -4 -8 -17 -4 -29 3 -11 1 -19 -4 -16 -5 4 -9 -7 -10 -22 -2
-43 -25 -94 -35 -78 -5 7 -9 9 -8 3 0 -11 28 -63 29 -55 1 3 4 14 6 25 3 11 5
28 5 38 0 9 3 16 7 13 4 -2 8 12 9 31 1 19 9 46 18 59 13 20 14 28 4 40 -13
16 -54 20 -44 3z"/>
<path d="M470 1025 c-6 -8 -9 -23 -5 -36 5 -16 4 -19 -5 -14 -8 5 -11 4 -7 -3
4 -5 16 -8 27 -5 11 3 18 9 15 13 -6 9 42 23 54 16 4 -3 8 2 8 10 0 9 -6 13
-15 9 -8 -3 -24 -3 -35 1 -16 5 -17 8 -6 15 11 7 11 9 -2 9 -9 0 -22 -7 -29
-15z"/>
<path d="M750 988 c0 -17 -3 -28 -7 -25 -3 4 -16 -17 -28 -46 -24 -58 -18 -80
17 -58 19 12 23 11 34 -3 11 -15 13 -15 27 -2 8 9 13 25 10 36 -4 14 0 20 10
20 19 0 37 -50 37 -101 0 -22 4 -39 9 -39 6 0 8 9 6 20 -2 12 6 27 22 40 15
12 20 20 12 20 -10 1 -9 4 4 11 22 13 21 18 -9 54 -15 17 -24 25 -20 19 3 -7
-3 -14 -15 -17 -15 -4 -17 -2 -10 6 7 9 2 12 -15 13 -13 1 -24 -2 -24 -7 0 -5
-5 -9 -11 -9 -5 0 -8 4 -5 8 3 5 2 22 -3 38 -7 27 -8 28 -13 6 -3 -12 -2 -22
2 -22 20 0 2 -52 -23 -65 -15 -8 -27 -11 -27 -8 0 3 -8 -1 -17 -8 -11 -9 -9
-2 6 19 16 23 26 30 31 22 5 -9 9 -9 14 -1 4 6 2 11 -4 11 -7 0 -9 16 -4 50 4
28 4 50 0 50 -3 0 -6 -14 -6 -32z m147 -97 c10 -16 9 -20 -3 -25 -8 -3 -13
-10 -10 -15 3 -5 -2 -15 -12 -22 -9 -7 -14 -10 -10 -5 3 4 2 21 -3 38 -13 48
14 68 38 29z"/>
<path d="M862 891 c4 -13 18 -16 19 -4 0 4 -5 9 -11 12 -7 2 -11 -2 -8 -8z"/>
<path d="M630 996 c0 -2 7 -17 15 -32 15 -29 22 -13 9 20 -5 14 -24 23 -24 12z"/>
<path d="M551 982 l-24 -4 24 -12 c13 -6 24 -16 24 -21 1 -6 8 -23 16 -39 11
-20 18 -25 24 -16 4 7 2 16 -5 20 -7 4 -9 13 -5 20 5 9 4 11 -3 6 -8 -4 -12 0
-12 11 0 28 -13 39 -39 35z"/>
<path d="M433 951 c1 -19 8 -36 15 -37 7 -1 8 0 2 3 -5 2 -10 9 -10 14 0 5 15
2 33 -7 29 -16 31 -16 18 -1 -19 23 6 23 31 0 13 -12 22 -13 29 -6 13 13 -50
37 -73 28 -10 -4 -22 2 -32 17 -16 23 -16 23 -13 -11z"/>
<path d="M880 961 c0 -6 4 -13 10 -16 6 -3 7 1 4 9 -7 18 -14 21 -14 7z"/>
<path d="M520 956 c0 -2 11 -6 25 -8 13 -3 22 -1 19 3 -5 9 -44 13 -44 5z"/>
<path d="M738 820 c-20 -4 -48 -14 -62 -24 -18 -11 -25 -13 -24 -4 2 7 7 16
13 20 5 4 1 6 -11 6 -18 -2 -20 -7 -16 -57 3 -34 12 -65 23 -80 10 -13 16 -27
13 -32 -5 -9 21 -14 41 -9 6 2 20 2 32 2 24 -2 36 11 40 44 4 26 -32 44 -67
33 -54 -15 -70 -11 -68 19 3 34 22 49 76 58 23 3 45 11 48 16 9 14 3 15 -38 8z
m42 -131 c0 -5 -4 -9 -10 -9 -5 0 -10 7 -10 16 0 8 5 12 10 9 6 -3 10 -10 10
-16z m-38 4 c-6 -3 -9 -9 -6 -15 4 -6 -2 -6 -14 1 -21 11 -42 -2 -22 -14 5 -3
10 -11 10 -18 0 -6 -6 -2 -14 9 -18 24 -6 39 31 40 15 1 22 -1 15 -3z"/>
<path d="M505 811 c-3 -5 12 -12 32 -16 49 -8 68 -24 71 -57 2 -31 -10 -35
-66 -19 -23 7 -30 7 -26 -1 5 -7 2 -9 -8 -6 -26 11 -41 -7 -33 -41 5 -22 12
-31 26 -31 10 0 19 4 19 10 0 5 6 7 14 4 8 -3 17 -1 21 5 3 6 11 11 17 11 6 0
0 -10 -13 -22 -18 -16 -19 -19 -6 -15 10 4 23 7 28 7 5 0 9 8 9 17 0 9 7 25
16 34 16 18 26 84 13 84 -4 0 -16 9 -28 19 -23 21 -77 31 -86 17z m-8 -133
c-3 -7 -5 -2 -5 12 0 14 2 19 5 13 2 -7 2 -19 0 -25z m47 7 c3 -8 1 -15 -4
-15 -6 0 -10 5 -10 11 0 5 -4 7 -10 4 -5 -3 -10 -1 -10 4 0 17 27 13 34 -4z"/>
<path d="M567 759 c7 -7 15 -10 18 -7 3 3 -2 9 -12 12 -14 6 -15 5 -6 -5z"/>
<path d="M675 750 c-3 -5 1 -10 10 -10 9 0 13 5 10 10 -3 6 -8 10 -10 10 -2 0
-7 -4 -10 -10z"/>
<path d="M868 653 c12 -2 30 -2 40 0 9 3 -1 5 -23 4 -22 0 -30 -2 -17 -4z"/>
<path d="M360 630 c0 -6 7 -10 15 -10 8 0 15 2 15 4 0 2 -7 6 -15 10 -8 3 -15
1 -15 -4z"/>
<path d="M442 619 c3 -8 20 -15 44 -16 37 -2 37 -1 8 6 -17 4 -37 11 -44 16
-8 5 -11 3 -8 -6z"/>
<path d="M780 614 l-35 -13 32 0 c17 -1 35 4 38 10 10 16 3 16 -35 3z"/>
<path d="M552 603 c-6 -2 -10 -8 -8 -12 3 -4 -20 -7 -50 -6 -48 0 -54 -2 -54
-20 0 -16 2 -17 10 -5 5 8 12 11 16 7 9 -8 -16 -38 -26 -32 -15 9 -19 -25 -4
-39 8 -8 10 -17 5 -20 -5 -3 -11 -16 -14 -28 -6 -23 -6 -23 14 2 14 16 19 33
15 51 -3 19 1 32 14 44 11 10 20 14 20 10 0 -5 5 -4 12 3 7 7 16 12 21 12 6 0
-4 -14 -22 -31 -33 -31 -38 -62 -11 -67 17 -3 70 43 70 60 0 6 -11 1 -24 -11
-16 -15 -26 -19 -31 -11 -3 6 2 18 12 28 57 52 72 80 35 65z m-51 -106 c-1
-12 -15 -9 -19 4 -3 6 1 10 8 8 6 -3 11 -8 11 -12z"/>
<path d="M856 594 c-5 -13 -3 -14 6 -6 7 5 22 12 33 15 16 4 14 5 -6 6 -17 1
-29 -5 -33 -15z"/>
<path d="M348 563 c7 -3 16 -2 19 1 4 3 -2 6 -13 5 -11 0 -14 -3 -6 -6z"/>
<path d="M633 394 c-13 -14 -23 -28 -23 -31 0 -2 -7 -11 -15 -19 -8 -9 -15
-30 -14 -47 l1 -32 8 34 c4 18 15 41 25 50 15 15 18 14 36 -8 10 -13 19 -35
18 -50 -1 -25 -1 -24 -10 6 -5 18 -14 35 -20 39 -18 11 -38 -29 -39 -75 0 -55
12 -47 14 9 1 22 8 46 15 53 10 10 12 8 10 -8 -1 -11 1 -27 5 -35 8 -19 4 -49
-9 -70 -8 -13 -7 -13 8 -1 9 7 17 22 17 32 0 10 5 21 10 24 18 11 11 70 -10
88 -24 20 -25 33 -4 41 12 4 15 2 11 -9 -4 -8 -2 -17 2 -19 4 -3 8 7 7 21 -1
36 -16 38 -43 7z"/>
<path d="M718 394 c-3 -5 3 -27 13 -49 16 -34 18 -36 18 -15 0 29 -24 77 -31
64z"/>
<path d="M756 380 c4 -14 6 -38 6 -55 l0 -30 11 33 c7 23 7 36 0 40 -5 4 -13
14 -17 22 -3 8 -3 4 0 -10z"/>
<path d="M893 354 c-15 -16 -16 -24 -4 -24 8 0 24 30 19 35 -2 2 -9 -3 -15
-11z"/>
<path d="M480 349 c0 -5 5 -7 10 -4 6 3 10 8 10 11 0 2 -4 4 -10 4 -5 0 -10
-5 -10 -11z"/>
<path d="M560 343 c0 -14 -2 -15 -9 -5 -6 10 -11 5 -20 -19 -13 -39 -14 -49
-1 -29 8 12 10 11 10 -6 0 -23 26 -51 37 -40 3 3 2 6 -3 6 -5 0 -8 25 -7 55 1
30 -1 55 -3 55 -2 0 -4 -8 -4 -17z m-1 -58 c0 -20 0 -20 -9 0 -5 11 -9 27 -9
35 -1 13 0 13 9 0 5 -8 9 -24 9 -35z"/>
<path d="M693 339 c3 -9 2 -33 -3 -53 -4 -20 -4 -34 0 -31 5 3 10 0 12 -6 2
-7 3 11 2 40 -1 28 -5 55 -9 59 -5 4 -6 0 -2 -9z"/>
<path d="M714 310 c-1 -28 2 -37 12 -33 9 3 12 14 8 32 -10 42 -19 43 -20 1z"/>
<path d="M383 316 c-8 -10 -8 -17 0 -25 14 -14 38 5 30 25 -6 17 -14 17 -30 0z"/>
<path d="M800 254 c0 -8 5 -12 10 -9 6 3 10 10 10 16 0 5 -4 9 -10 9 -5 0 -10
-7 -10 -16z"/>
<path d="M253 943 c6 -9 -19 -34 -26 -27 -2 3 -4 -8 -3 -23 1 -26 32 -70 42
-60 3 3 -1 11 -8 18 -14 15 -19 59 -7 59 4 0 10 -10 12 -22 2 -13 5 -4 6 20 0
24 -4 42 -10 42 -5 0 -8 -3 -6 -7z"/>
<path d="M223 790 c-13 -5 -23 -16 -23 -24 0 -13 4 -14 25 -4 14 6 25 17 25
25 0 7 -1 13 -2 12 -2 0 -13 -4 -25 -9z"/>
<path d="M182 760 c0 -14 2 -19 5 -12 2 6 2 18 0 25 -3 6 -5 1 -5 -13z"/>
<path d="M216 727 c-28 -21 -16 -41 12 -22 22 16 30 35 14 35 -5 0 -16 -6 -26
-13z"/>
<path d="M181 708 c-1 -14 14 -59 25 -76 1 -2 12 1 23 8 29 15 26 32 -3 24
-22 -5 -26 -1 -35 28 -5 18 -10 25 -10 16z"/>
<path d="M182 630 c0 -14 2 -19 5 -12 2 6 2 18 0 25 -3 6 -5 1 -5 -13z"/>
<path d="M162 610 c0 -19 2 -27 5 -17 2 9 2 25 0 35 -3 9 -5 1 -5 -18z"/>
<path d="M218 603 c-21 -5 -24 -33 -5 -33 14 0 37 20 37 32 0 8 -4 9 -32 1z"/>
<path d="M182 570 c0 -14 2 -19 5 -12 2 6 2 18 0 25 -3 6 -5 1 -5 -13z"/>
<path d="M207 525 c-8 -8 -17 -11 -21 -8 -3 4 -6 -5 -6 -18 0 -13 4 -19 8 -14
4 6 19 16 35 22 29 13 37 33 13 33 -8 0 -21 -7 -29 -15z"/>
<path d="M210 467 c-14 -8 -31 -12 -37 -10 -24 8 -23 -19 1 -48 14 -17 26 -35
26 -41 0 -6 3 -9 6 -6 3 4 1 16 -6 27 -9 18 -8 21 7 22 10 1 21 1 25 0 4 0 6
8 5 18 -1 19 -2 19 -27 1 -21 -15 -27 -15 -37 -4 -20 20 -16 24 20 18 24 -4
28 -3 17 5 -12 9 -10 11 13 11 15 0 27 5 27 10 0 13 -10 13 -40 -3z"/>
<path d="M320 750 c0 -5 5 -10 11 -10 5 0 7 5 4 10 -3 6 -8 10 -11 10 -2 0 -4
-4 -4 -10z"/>
<path d="M930 730 c-9 -6 -10 -10 -3 -10 6 0 15 5 18 10 8 12 4 12 -15 0z"/>
<path d="M760 449 c0 -5 5 -7 10 -4 6 3 10 8 10 11 0 2 -4 4 -10 4 -5 0 -10
-5 -10 -11z"/>
<path d="M362 491 c-11 -6 -10 -10 4 -15 9 -3 19 -4 22 -1 3 3 -1 5 -9 5 -11
0 -11 2 1 10 8 5 11 10 5 10 -5 0 -16 -4 -23 -9z"/>
<path d="M363 423 c-10 -10 -14 -15 -9 -10 16 11 28 8 20 -5 -4 -7 -3 -9 1 -5
9 7 16 37 10 37 -1 0 -11 -8 -22 -17z"/>
<path d="M415 1240 c-3 -6 1 -7 9 -4 18 7 21 14 7 14 -6 0 -13 -4 -16 -10z"/>
<path d="M840 1220 c0 -5 5 -10 10 -10 6 0 10 5 10 10 0 6 -4 10 -10 10 -5 0
-10 -4 -10 -10z"/>
<path d="M336 1168 c3 -5 10 -6 15 -3 13 9 11 12 -6 12 -8 0 -12 -4 -9 -9z"/>
<path d="M440 1140 c-9 -6 -10 -10 -3 -10 6 0 15 5 18 10 8 12 4 12 -15 0z"/>
<path d="M803 1115 c0 -8 4 -12 9 -9 5 3 6 10 3 15 -9 13 -12 11 -12 -6z"/>
<path d="M826 1102 c-3 -5 1 -9 9 -9 8 0 12 4 9 9 -3 4 -7 8 -9 8 -2 0 -6 -4
-9 -8z"/>
<path d="M918 1081 c18 -17 38 -31 45 -31 13 0 -25 34 -58 51 -11 6 -5 -4 13
-20z"/>
<path d="M1050 813 c14 -2 30 -11 36 -19 10 -12 12 -12 16 3 4 15 -2 18 -36
19 -23 1 -30 0 -16 -3z"/>
<path d="M1011 795 c-1 -11 8 -26 19 -33 18 -11 20 -10 20 8 0 11 -6 20 -14
20 -8 0 -17 6 -19 13 -3 6 -6 3 -6 -8z"/>
<path d="M1072 760 c0 -14 2 -19 5 -12 2 6 2 18 0 25 -3 6 -5 1 -5 -13z"/>
<path d="M1093 730 c0 -25 2 -35 4 -22 2 12 2 32 0 45 -2 12 -4 2 -4 -23z"/>
<path d="M1010 727 c0 -7 9 -18 20 -25 17 -11 20 -10 20 7 0 10 -7 22 -16 25
-22 8 -24 8 -24 -7z"/>
<path d="M1071 694 c0 -11 3 -14 6 -6 3 7 2 16 -1 19 -3 4 -6 -2 -5 -13z"/>
<path d="M1010 661 c0 -10 9 -21 20 -24 12 -3 20 0 20 7 0 6 -9 17 -20 24 -17
11 -20 10 -20 -7z"/>
<path d="M1071 634 c0 -11 3 -14 6 -6 3 7 2 16 -1 19 -3 4 -6 -2 -5 -13z"/>
<path d="M1010 601 c0 -10 9 -21 20 -24 12 -3 20 0 20 7 0 6 -9 17 -20 24 -17
11 -20 10 -20 -7z"/>
<path d="M990 525 c-6 -166 -3 -192 19 -198 22 -5 48 7 33 17 -5 3 -8 17 -7
31 2 14 -1 25 -6 25 -6 0 -8 4 -4 10 3 6 15 6 29 0 33 -12 60 17 48 50 l-9 24
-5 -22 c-4 -12 -2 -20 3 -16 14 8 10 -6 -6 -22 -8 -9 -15 -12 -15 -7 0 5 -11
10 -25 11 -23 2 -31 -8 -25 -33 9 -37 9 -65 -1 -59 -6 3 -8 13 -5 21 3 8 -1
22 -10 30 -13 13 -13 18 -2 25 8 6 9 11 3 14 -7 2 -9 31 -7 73 2 37 2 76 -1
87 -2 10 -6 -17 -7 -61z"/>
<path d="M1071 574 c0 -11 3 -14 6 -6 3 7 2 16 -1 19 -3 4 -6 -2 -5 -13z"/>
<path d="M1093 525 c0 -22 2 -30 4 -17 2 12 2 30 0 40 -3 9 -5 -1 -4 -23z"/>
<path d="M1010 532 c0 -11 9 -22 20 -25 13 -3 20 0 20 9 0 7 -9 18 -20 24 -17
9 -20 8 -20 -8z"/>
<path d="M1071 504 c0 -11 3 -14 6 -6 3 7 2 16 -1 19 -3 4 -6 -2 -5 -13z"/>
<path d="M1010 475 c0 -9 9 -15 26 -15 14 0 23 -4 19 -10 -3 -5 -1 -10 4 -10
21 0 10 20 -19 35 -27 14 -30 14 -30 0z"/>
<path d="M111 394 c0 -11 3 -14 6 -6 3 7 2 16 -1 19 -3 4 -6 -2 -5 -13z"/>
<path d="M130 386 c0 -2 7 -7 16 -10 8 -3 12 -2 9 4 -6 10 -25 14 -25 6z"/>
<path d="M280 384 c0 -6 7 -19 16 -30 14 -18 14 -18 3 6 -14 31 -19 36 -19 24z"/>
<path d="M252 355 c-9 -19 -9 -25 0 -25 7 0 4 -6 -6 -13 -15 -11 -17 -17 -7
-35 7 -13 10 -26 7 -31 -3 -5 4 -17 15 -27 18 -16 19 -16 13 -1 -3 9 -10 17
-16 17 -5 0 -6 5 -3 11 4 6 13 8 21 5 7 -3 16 -1 19 5 7 11 43 8 64 -5 7 -5 3
5 -10 23 -25 34 -31 39 -23 16 4 -9 0 -15 -10 -15 -8 0 -13 6 -10 13 2 7 -3
21 -11 32 -16 19 -16 19 -6 -2 14 -28 14 -36 -1 -27 -6 4 -8 3 -5 -3 4 -6 -2
-13 -12 -16 -12 -3 -22 1 -25 10 -8 21 -8 23 9 23 10 0 15 11 15 35 0 42 -3
43 -18 10z"/>
<path d="M194 308 c-4 -6 -2 -14 5 -16 9 -3 8 -9 -5 -23 -20 -22 -8 -25 19 -5
15 12 16 18 7 35 -12 24 -16 25 -26 9z"/>
<path d="M988 313 c7 -3 16 -2 19 1 4 3 -2 6 -13 5 -11 0 -14 -3 -6 -6z"/>
<path d="M165 231 c-3 -5 -2 -12 3 -15 5 -3 9 1 9 9 0 17 -3 19 -12 6z"/>
<path d="M290 224 c0 -13 47 -57 85 -79 l30 -17 -30 23 c-16 13 -42 37 -57 54
-16 16 -28 25 -28 19z"/>
<path d="M396 172 c-3 -4 4 -9 15 -9 23 -2 25 3 4 10 -8 4 -16 3 -19 -1z"/>
<path d="M800 150 c-9 -6 -10 -10 -3 -10 6 0 15 5 18 10 8 12 4 12 -15 0z"/>
<path d="M508 123 c7 -3 16 -2 19 1 4 3 -2 6 -13 5 -11 0 -14 -3 -6 -6z"/>
<path d="M637 105 c3 -8 9 -12 14 -9 12 7 11 11 -5 17 -10 4 -13 1 -9 -8z"/>
</g>
</svg>
