<?xml version="1.0" standalone="no"?>
<!DOCTYPE svg PUBLIC "-//W3C//DTD SVG 20010904//EN"
 "http://www.w3.org/TR/2001/REC-SVG-20010904/DTD/svg10.dtd">
<svg version="1.0" xmlns="http://www.w3.org/2000/svg"
 width="259.000000pt" height="194.000000pt" viewBox="0 0 259.000000 194.000000"
 preserveAspectRatio="xMidYMid meet">
<metadata>
Created by potrace 1.10, written by Peter Selinger 2001-2011
</metadata>
<g transform="translate(0.000000,194.000000) scale(0.100000,-0.100000)"
fill="#867979" stroke="none">
<path d="M202 1828 c4 -62 9 -143 12 -180 l5 -68 -112 -2 c-94 -1 -83 -3 73
-9 102 -3 235 -7 296 -8 l112 -1 10 -77 11 -78 -4 77 -5 77 108 4 c59 1 6 4
-118 5 -124 1 -255 5 -292 8 l-67 7 -5 36 c-3 20 -8 100 -12 179 -3 78 -9 142
-13 142 -3 0 -3 -51 1 -112z"/>
<path d="M964 1845 c2 -55 7 -108 11 -118 13 -31 29 -12 32 38 2 27 6 51 8 54
3 2 -5 9 -17 15 -16 8 -23 22 -26 51 -6 81 -11 57 -8 -40z"/>
<path d="M1730 1755 l0 -185 -287 -2 c-159 -1 -247 -4 -197 -5 l91 -4 7 -57
c4 -31 4 -111 0 -178 l-7 -122 -81 1 -81 2 -1 57 c-1 63 -1 62 -26 54 -10 -3
-25 -8 -33 -11 -9 -2 -20 -15 -25 -27 l-9 -23 -1 25 c-1 25 -1 25 -10 3 -11
-27 -30 -30 -31 -5 0 14 -2 14 -8 -3 -8 -19 -9 -18 -12 5 l-4 25 -22 -22 c-18
-18 -23 -20 -23 -7 0 13 -2 13 -17 -2 -17 -16 -18 -16 -24 7 -5 17 -7 19 -8 6
-1 -18 -4 -19 -78 -7 -2 0 -3 7 -3 15 0 8 -5 15 -10 15 -6 0 -9 -22 -8 -50 1
-28 3 -50 3 -50 0 0 15 -4 33 -9 20 -6 32 -6 32 0 0 5 -9 9 -19 9 -11 0 -23 5
-26 10 -3 6 -1 10 5 10 6 0 8 5 5 10 -3 6 -1 10 5 10 7 0 10 -6 8 -12 -6 -17
36 -37 64 -32 13 2 6 -2 -15 -10 -26 -11 -45 -12 -62 -6 -13 5 -60 10 -104 11
l-81 3 0 42 c0 24 -4 46 -10 49 -5 3 -10 28 -10 54 0 26 -2 50 -4 52 -3 3 -23
3 -45 1 l-41 -4 -1 -57 c0 -47 -2 -52 -10 -31 -6 13 -13 59 -16 102 -6 78 -6
78 -34 78 l-29 0 0 -96 c0 -62 -4 -93 -10 -89 -7 4 -8 41 -4 103 4 66 3 94 -4
87 -5 -5 -13 -53 -17 -106 -6 -84 -5 -97 10 -103 9 -3 13 -11 9 -17 -5 -9 -10
-8 -18 3 -6 8 -19 17 -29 21 -15 6 -18 2 -15 -21 3 -26 6 -27 68 -33 l65 -7
-67 2 -67 1 1 -45 0 -45 46 0 c36 -1 48 -5 50 -18 2 -10 -3 -17 -12 -17 -9 0
-16 -5 -16 -11 0 -5 4 -8 9 -5 5 3 11 -5 13 -18 6 -31 -24 -29 -32 3 -3 12 -8
22 -13 22 -4 -1 -14 -1 -22 -1 -16 0 -22 -55 -6 -64 4 -3 31 -3 60 1 37 4 51
10 51 21 0 13 3 12 15 -4 8 -11 15 -14 15 -6 0 19 57 15 64 -5 4 -9 1 -20 -6
-25 -10 -6 -10 -8 -1 -8 7 0 10 -7 7 -15 -3 -8 -9 -14 -12 -13 -18 2 -32 -3
-32 -12 0 -5 11 -10 25 -10 14 0 25 -4 25 -10 0 -12 -65 -24 -87 -15 -16 6
-15 8 7 20 22 12 21 19 -1 17 -4 -1 -5 8 -2 18 3 11 10 20 15 20 5 0 6 -5 3
-10 -3 -6 2 -10 11 -10 10 0 15 3 11 6 -3 4 0 13 8 21 19 19 19 33 0 33 -8 0
-15 -7 -15 -16 0 -11 -6 -15 -20 -11 -15 4 -20 0 -21 -16 -1 -19 -2 -19 -6 -4
-4 14 -11 17 -26 13 -12 -3 -39 -6 -59 -6 l-38 0 0 -55 c0 -41 4 -57 15 -60 8
-3 22 -7 31 -10 9 -3 15 -8 12 -11 -3 -2 -18 0 -33 6 -22 9 -26 8 -22 -4 3 -8
-1 -20 -9 -27 -12 -10 -20 -7 -44 16 -16 15 -26 33 -23 39 13 21 1 80 -19 94
-14 10 -19 23 -16 42 4 27 2 28 -51 33 -30 3 -62 2 -70 -3 -12 -7 -6 -9 22
-10 34 0 37 -2 37 -30 0 -19 -7 -33 -20 -40 -15 -8 -20 -21 -20 -50 0 -21 4
-40 10 -42 10 -3 0 -24 -33 -71 -10 -14 -21 -41 -24 -61 l-6 -36 89 -1 c49 -1
78 -3 64 -6 -64 -10 -72 -14 -67 -33 3 -10 0 -21 -6 -23 -6 -2 -3 -13 7 -29
19 -29 39 -91 26 -83 -4 3 -10 -2 -14 -10 -7 -20 -36 -19 -36 0 0 8 9 15 19
15 14 0 19 6 18 20 -1 22 -17 28 -17 6 0 -15 -22 -26 -48 -25 -14 0 -14 2 -2
6 17 7 49 44 50 58 0 6 -3 6 -8 -1 -9 -14 -45 -27 -37 -14 3 6 2 10 -4 10 -5
0 -12 -6 -14 -12 -8 -19 -8 23 0 50 4 17 11 22 24 19 14 -4 18 0 15 16 -2 12
-11 24 -21 25 -19 4 -37 -16 -31 -34 2 -6 -2 -11 -10 -11 -8 0 -14 6 -14 14 0
7 5 13 10 13 6 0 10 7 10 15 0 12 -14 15 -70 15 -56 0 -70 -3 -70 -15 0 -11
11 -15 40 -15 30 0 40 -4 40 -16 0 -10 -4 -12 -12 -7 -7 4 -25 8 -40 8 -27 0
-28 -2 -28 -47 l0 -47 73 -3 72 -3 5 -57 c3 -31 8 -60 12 -64 4 -4 36 -10 70
-15 l63 -7 -60 2 c-33 1 -64 3 -70 5 -5 2 -46 2 -90 1 -85 -2 -73 -17 15 -19
25 -1 63 -10 85 -21 27 -14 59 -20 102 -20 60 0 63 -1 63 -25 0 -25 32 -48 90
-66 14 -4 -78 -8 -205 -10 -198 -2 -216 -3 -130 -10 55 -4 169 -8 252 -9 152
-1 153 -2 153 -24 0 -30 30 -56 63 -56 30 0 37 -15 10 -22 -10 -3 -38 -3 -63
-1 -93 6 -489 5 -500 -2 -9 -6 -9 -10 1 -16 10 -6 11 -9 2 -9 -9 0 -13 -21
-13 -70 0 -69 0 -70 26 -70 23 0 25 3 19 23 -25 76 -18 103 24 98 7 -2 10 2 7
7 -3 6 1 13 10 16 23 9 34 7 34 -5 0 -6 -7 -9 -15 -5 -9 3 -15 0 -15 -9 0 -8
-9 -15 -20 -15 -11 0 -20 -5 -20 -11 0 -5 4 -8 9 -5 5 3 12 -2 15 -11 6 -15 8
-15 16 -3 14 21 13 -5 0 -30 -7 -13 -7 -21 0 -25 5 -3 10 2 10 11 0 22 11 12
14 -13 2 -15 14 -18 74 -21 l72 -3 0 39 c0 42 25 66 33 34 3 -12 5 -9 6 7 1
19 -3 22 -19 18 -13 -3 -21 1 -25 14 -4 10 -10 19 -15 19 -5 0 -16 3 -26 7
-11 4 -15 2 -11 -4 4 -6 -4 -8 -20 -5 -26 5 -26 5 -5 13 18 7 72 7 150 0 7 -1
10 -6 7 -11 -4 -6 -11 -7 -17 -4 -8 5 -9 -6 -4 -37 5 -24 8 -54 8 -66 0 -19 6
-23 35 -23 29 0 33 3 28 19 -6 21 3 51 16 51 5 0 9 -17 9 -37 0 -25 3 -33 9
-24 5 7 7 23 4 35 -3 13 2 8 13 -11 l16 -33 195 0 c209 0 228 4 212 47 -5 14
-5 23 1 23 5 0 7 6 4 14 -3 8 -14 12 -27 8 -12 -3 -19 -2 -16 2 3 3 26 9 50
12 30 3 40 2 30 -5 -13 -8 -16 -29 -12 -88 2 -17 2 -17 12 0 5 9 7 22 3 29 -4
7 -3 8 5 4 6 -4 9 -16 6 -27 -6 -17 -1 -19 44 -19 34 0 51 4 51 13 0 9 3 8 9
-2 7 -11 9 -11 14 0 4 10 6 10 6 2 1 -7 12 -13 25 -13 13 0 27 6 29 13 4 10 6
10 6 0 1 -10 34 -13 131 -13 l130 0 0 28 c0 18 9 37 26 51 l26 23 -7 -44 c-4
-24 -13 -46 -19 -50 -6 -5 -2 -8 12 -8 21 0 22 4 22 64 0 75 10 83 73 61 49
-17 99 -21 58 -4 -32 13 -22 20 34 23 32 2 50 8 57 19 11 21 38 22 38 2 0 -8
-5 -15 -11 -15 -5 0 -8 -4 -4 -10 10 -16 34 0 30 21 -3 14 2 19 20 19 20 0 23
-4 19 -26 -3 -17 0 -24 8 -23 16 3 89 -11 103 -20 6 -3 20 -4 32 -3 12 2 39
-1 60 -7 24 -7 41 -7 47 -1 13 13 29 13 21 0 -4 -6 20 -10 64 -10 38 0 72 -3
74 -7 3 -5 42 -7 86 -5 46 2 79 8 76 13 -4 5 -21 9 -38 9 l-32 1 40 15 c22 8
54 12 70 9 22 -4 26 -2 15 5 -8 5 -10 10 -5 11 6 0 1 4 -10 9 -32 14 53 18
128 6 22 -3 37 -2 37 4 0 6 4 10 10 10 5 0 7 -7 4 -15 -4 -9 0 -15 9 -15 8 0
17 7 21 15 3 8 12 15 21 15 13 0 15 25 15 175 0 168 -1 175 -20 175 -11 0 -20
7 -20 15 0 13 4 14 20 5 20 -10 20 -8 20 141 l0 152 -49 -5 c-72 -7 -79 0 -75
74 2 35 7 111 10 170 l6 107 56 4 c32 2 -53 4 -186 5 l-244 2 7 178 c4 97 9
180 12 185 2 4 109 8 236 9 128 1 212 3 188 5 l-43 4 6 87 c17 260 18 285 9
279 -6 -4 -13 -84 -18 -179 -4 -95 -9 -176 -11 -180 -3 -5 -110 -8 -238 -8
l-234 0 4 98 4 97 -122 0 c-71 0 -126 -4 -130 -10 -4 -5 -8 -49 -8 -97 0 -74
-3 -88 -16 -88 -14 0 -16 21 -12 185 1 102 0 185 -4 185 -5 0 -8 -83 -8 -185z
m123 -37 c-9 -50 -22 -56 -20 -9 1 25 7 41 14 41 9 0 11 -10 6 -32z m140 12
c-3 -11 -7 -20 -9 -20 -2 0 -4 9 -4 20 0 11 4 20 9 20 5 0 7 -9 4 -20z m-6
-47 c-4 -3 -7 0 -7 7 0 7 3 10 7 7 3 -4 3 -10 0 -14z m-215 -155 c-2 -18 -6
-100 -10 -183 l-7 -150 -129 4 c-92 2 -127 0 -122 -8 5 -7 45 -11 107 -11
l100 0 -2 -127 c-1 -71 3 -128 7 -128 5 0 10 57 12 128 2 107 5 127 18 127 14
0 15 -16 9 -130 l-8 -130 40 0 c52 0 153 -27 175 -47 14 -12 16 -25 12 -57 -4
-23 -11 -45 -17 -51 -7 -7 -8 -6 -3 3 9 15 11 15 -48 -3 -29 -9 -91 -15 -150
-16 -66 0 -94 -3 -81 -9 18 -8 18 -9 -5 -9 -35 -1 -71 10 -65 19 6 9 -81 41
-89 33 -3 -3 -13 -2 -23 1 -17 7 -16 8 4 19 12 7 22 15 22 20 1 4 1 20 1 36 0
25 6 31 34 41 28 9 34 17 40 48 6 41 -11 92 -32 92 -7 0 -10 -5 -6 -11 3 -6
-8 -4 -24 5 -36 19 -42 19 -42 6 0 -5 7 -10 15 -10 8 0 15 -5 15 -11 0 -6 -10
-9 -22 -7 -17 2 -22 9 -21 26 3 21 1 22 -20 11 -20 -11 -21 -11 -9 4 8 9 12
22 9 29 -4 8 -6 7 -6 -4 -1 -10 -8 -18 -16 -18 -7 0 -19 -8 -24 -17 -9 -16
-12 -16 -21 -3 -15 23 -12 50 5 44 25 -10 17 12 -11 26 -21 12 -27 12 -34 1
-5 -9 -14 -11 -26 -6 -32 14 -48 15 -92 9 -59 -8 -43 -24 24 -24 51 0 55 -2
52 -22 -2 -15 -11 -23 -28 -24 -14 -1 -43 -5 -64 -9 -37 -7 -39 -6 -33 14 3
11 2 21 -1 21 -4 0 -6 25 -6 56 l2 57 95 -2 c87 -2 124 7 97 24 -6 4 -10 73
-10 181 l0 174 208 0 208 0 -4 -32z m81 17 c7 -16 -8 -29 -23 -20 -10 6 -2 35
10 35 4 0 10 -7 13 -15z m250 -157 c-2 -95 -6 -179 -9 -186 -5 -17 -79 -12
-78 6 1 6 2 89 3 182 l1 170 44 0 44 0 -5 -172z m-113 148 c0 -3 -4 -8 -10
-11 -5 -3 -10 -1 -10 4 0 6 5 11 10 11 6 0 10 -2 10 -4z m-139 -136 c6 -67 2
-93 -12 -95 -9 -2 -16 3 -16 11 0 7 4 11 8 8 4 -2 10 0 14 6 3 6 -4 10 -17 10
-21 0 -24 5 -25 40 -2 36 0 40 23 38 13 -1 25 -9 25 -18z m66 -7 c-4 -3 -7 0
-7 7 0 7 3 10 7 7 3 -4 3 -10 0 -14z m83 7 c0 -5 -2 -10 -4 -10 -3 0 -8 5 -11
10 -3 6 -1 10 4 10 6 0 11 -4 11 -10z m-207 -51 c-8 -29 -13 -23 -13 14 0 22
3 28 9 18 5 -7 6 -22 4 -32z m97 6 c0 -5 -5 -3 -10 5 -8 12 -10 12 -10 1 0 -8
-2 -12 -5 -9 -3 3 -2 13 1 22 5 14 9 15 15 4 5 -7 9 -17 9 -23z m97 18 c-4 -3
-10 -3 -14 0 -3 4 0 7 7 7 7 0 10 -3 7 -7z m-80 -20 c-4 -3 -7 0 -7 7 0 7 3
10 7 7 3 -4 3 -10 0 -14z m86 -10 c-3 -7 -6 -13 -8 -13 -2 0 -5 6 -8 13 -3 8
1 14 8 14 7 0 11 -6 8 -14z m-110 -54 c-6 -6 -7 3 -4 23 4 28 6 29 9 9 2 -13
0 -27 -5 -32z m24 14 c-4 -3 -7 0 -7 7 0 7 3 10 7 7 3 -4 3 -10 0 -14z m83 11
c0 -8 -19 -13 -24 -6 -3 5 1 9 9 9 8 0 15 -2 15 -3z m-1403 -31 c-4 -3 -7 0
-7 7 0 7 3 10 7 7 3 -4 3 -10 0 -14z m1273 -1 c0 -13 -12 -22 -22 -16 -10 6
-1 24 13 24 5 0 9 -4 9 -8z m67 -9 c-4 -3 -7 0 -7 7 0 7 3 10 7 7 3 -4 3 -10
0 -14z m-917 -3 c0 -5 -4 -10 -10 -10 -5 0 -10 5 -10 10 0 6 5 10 10 10 6 0
10 -4 10 -10z m-420 -25 c0 -8 -2 -15 -4 -15 -2 0 -6 7 -10 15 -3 8 -1 15 4
15 6 0 10 -7 10 -15z m348 -12 c-10 -2 -28 -2 -40 0 -13 2 -5 4 17 4 22 1 32
-1 23 -4z m139 -10 c-4 -3 -7 0 -7 7 0 7 3 10 7 7 3 -4 3 -10 0 -14z m10 -20
c-4 -3 -10 -3 -14 0 -3 4 0 7 7 7 7 0 10 -3 7 -7z m-570 -30 c-4 -3 -7 0 -7 7
0 7 3 10 7 7 3 -4 3 -10 0 -14z m61 0 c-4 -22 -22 -20 -26 1 -2 10 3 16 13 16
10 0 15 -7 13 -17z m162 7 c0 -6 11 -8 25 -4 42 10 75 -3 75 -31 0 -13 -7 -28
-17 -33 -13 -8 -15 -19 -10 -60 4 -38 2 -54 -9 -63 -22 -18 -44 -64 -44 -93 0
-21 6 -26 50 -35 28 -6 68 -12 88 -12 l37 -2 -40 -6 c-26 -4 -40 -11 -40 -21
0 -8 5 -14 11 -13 6 1 11 -4 11 -11 0 -7 -6 -13 -13 -13 -7 0 -10 5 -7 10 3 6
1 7 -6 3 -7 -5 -9 -16 -5 -28 4 -12 1 -24 -7 -28 -19 -12 -20 -40 -1 -41 14 0
14 -2 2 -6 -8 -3 -18 -10 -21 -16 -4 -5 -16 0 -29 13 -12 12 -20 23 -18 24 2
1 15 7 31 14 22 9 27 18 26 44 0 18 -3 26 -6 18 -3 -8 -15 -23 -25 -35 -19
-20 -19 -20 -12 0 4 11 12 23 18 27 7 5 4 12 -8 21 -13 10 -15 16 -8 21 23 14
12 23 -23 19 -23 -2 -37 1 -39 9 -3 7 -7 86 -10 176 -4 137 -3 162 10 162 8 0
14 -5 14 -10z m1723 -72 c-2 -40 -8 -118 -11 -173 l-7 -100 -77 -3 c-61 -2
-78 0 -78 11 0 8 -13 32 -28 53 -23 32 -27 47 -24 83 3 34 0 47 -13 57 -12 9
-16 22 -13 42 l4 29 -60 1 c-71 2 -116 -5 -116 -20 0 -6 18 -7 49 -3 58 8 73
-6 42 -39 -15 -16 -21 -35 -21 -70 0 -37 -5 -52 -25 -72 -14 -14 -28 -35 -31
-49 -4 -15 -12 -23 -25 -22 -18 1 -19 11 -19 174 l0 173 229 0 229 0 -5 -72z
m-1873 22 c33 0 60 -3 60 -8 0 -7 -76 -5 -117 4 -14 2 -23 12 -23 22 1 16 1
16 11 0 8 -14 23 -18 69 -18z m485 9 c-29 -11 -32 -11 -38 4 -4 10 3 12 27 9
27 -4 28 -6 11 -13z m785 4 c0 -16 -2 -16 -11 -3 -8 11 -12 12 -16 2 -2 -6 -9
-10 -14 -6 -14 8 0 24 22 24 11 0 19 -7 19 -17z m-925 -23 c3 -5 1 -10 -4 -10
-6 0 -11 5 -11 10 0 6 2 10 4 10 3 0 8 -4 11 -10z m915 -10 c0 -5 -4 -10 -10
-10 -5 0 -10 5 -10 10 0 6 5 10 10 10 6 0 10 -4 10 -10z m17 -7 c-4 -3 -7 0
-7 7 0 7 3 10 7 7 3 -4 3 -10 0 -14z m30 0 c-4 -3 -7 0 -7 7 0 7 3 10 7 7 3
-4 3 -10 0 -14z m-1457 -19 c0 -8 -5 -12 -10 -9 -6 4 -8 11 -5 16 9 14 15 11
15 -7z m597 -21 c-4 -3 -10 -3 -14 0 -3 4 0 7 7 7 7 0 10 -3 7 -7z m30 -8 c0
-8 -4 -15 -9 -15 -10 0 -11 14 -1 23 9 10 10 9 10 -8z m-617 1 c0 -3 -4 -8
-10 -11 -5 -3 -10 -1 -10 4 0 6 5 11 10 11 6 0 10 -2 10 -4z m-200 -36 c0 -16
-4 -30 -8 -30 -5 0 -7 14 -4 30 2 17 6 30 8 30 2 0 4 -13 4 -30z m1596 -16
c-1 -46 -26 -60 -26 -16 0 37 9 64 20 57 4 -2 7 -21 6 -41z m-646 6 c0 -5 -4
-10 -10 -10 -5 0 -10 5 -10 10 0 6 5 10 10 10 6 0 10 -4 10 -10z m226 -15 c-9
-9 -16 -13 -16 -8 0 5 5 14 12 21 6 6 14 10 16 7 2 -2 -3 -11 -12 -20z m-109
8 c-4 -3 -10 -3 -14 0 -3 4 0 7 7 7 7 0 10 -3 7 -7z m-327 -69 c0 -8 -5 -14
-11 -14 -6 0 -9 6 -6 14 3 8 -3 27 -15 43 l-20 28 26 -28 c14 -15 26 -35 26
-43z m221 33 c-8 -8 -11 -7 -11 4 0 20 13 34 18 19 3 -7 -1 -17 -7 -23z m276
16 c-4 -3 -10 -3 -14 0 -3 4 0 7 7 7 7 0 10 -3 7 -7z m-1250 -43 c1 -22 -2
-40 -8 -40 -5 0 -9 18 -9 40 0 22 4 40 8 40 4 0 8 -18 9 -40z m840 13 c-4 -3
-7 0 -7 7 0 7 3 10 7 7 3 -4 3 -10 0 -14z m480 10 c-4 -3 -10 -3 -14 0 -3 4 0
7 7 7 7 0 10 -3 7 -7z m320 0 c-4 -3 -10 -3 -14 0 -3 4 0 7 7 7 7 0 10 -3 7
-7z m-687 -25 c19 -29 31 -70 19 -62 -5 3 -9 12 -9 21 0 9 -10 27 -22 40 -12
13 -17 23 -12 23 5 0 16 -10 24 -22z m725 12 c3 -5 1 -10 -4 -10 -6 0 -11 5
-11 10 0 6 2 10 4 10 3 0 8 -4 11 -10z m-1070 -46 c0 -10 -8 -20 -17 -22 -18
-3 -26 27 -11 42 12 11 28 0 28 -20z m682 4 c-3 -8 -6 -5 -6 6 -1 11 2 17 5
13 3 -3 4 -12 1 -19z m-96 -5 c13 -17 13 -17 -6 -3 -11 8 -22 16 -24 17 -2 2
0 3 6 3 6 0 17 -8 24 -17z m-371 -42 c0 -23 -16 -36 -25 -21 -9 14 1 40 15 40
5 0 10 -9 10 -19z m398 -6 c-3 -3 -9 2 -12 12 -6 14 -5 15 5 6 7 -7 10 -15 7
-18z m-1005 -2 c-7 -2 -19 -2 -25 0 -7 3 -2 5 12 5 14 0 19 -2 13 -5z m1684
-10 c-4 -3 -10 -3 -14 0 -3 4 0 7 7 7 7 0 10 -3 7 -7z m121 -5 c-2 -6 -10 -14
-16 -16 -7 -2 -10 2 -6 12 7 18 28 22 22 4z m-1468 -54 c0 -2 -6 -4 -12 -4 -7
0 -14 14 -15 32 l-3 33 15 -29 c8 -15 15 -30 15 -32z m515 26 c0 -13 -6 -25
-12 -27 -16 -6 -27 21 -19 43 9 23 31 11 31 -16z m-555 10 c0 -5 -4 -10 -10
-10 -5 0 -10 5 -10 10 0 6 5 10 10 10 6 0 10 -4 10 -10z m-263 -17 c-4 -3 -7
0 -7 7 0 7 3 10 7 7 3 -4 3 -10 0 -14z m146 10 c-13 -2 -33 -2 -45 0 -13 2 -3
4 22 4 25 0 35 -2 23 -4z m472 -14 l40 -2 -35 -4 c-35 -5 -50 -17 -50 -42 0
-11 3 -11 15 -1 12 10 15 10 15 -4 0 -10 -8 -16 -21 -16 -16 0 -19 -4 -14 -20
4 -11 2 -20 -4 -20 -6 0 -11 5 -11 10 0 6 -5 10 -11 10 -5 0 -8 -4 -5 -8 3 -5
-1 -9 -8 -9 -14 0 -16 21 -3 33 14 14 7 26 -8 14 -18 -15 -30 -7 -22 14 4 9
13 13 21 10 11 -4 13 0 9 15 -3 12 -12 21 -19 21 -8 0 -14 4 -14 9 0 4 19 5
43 0 23 -4 60 -9 82 -10z m-638 4 c-4 -3 -10 -3 -14 0 -3 4 0 7 7 7 7 0 10 -3
7 -7z m-242 -34 c0 -15 -7 -25 -17 -27 -13 -3 -18 3 -18 21 0 13 3 27 7 31 13
12 28 -1 28 -25z m120 1 c3 -5 1 -10 -4 -10 -6 0 -11 5 -11 10 0 6 2 10 4 10
3 0 8 -4 11 -10z m102 4 c-3 -3 -12 -4 -19 -1 -8 3 -5 6 6 6 11 1 17 -2 13 -5z
m170 0 c-3 -3 -12 -4 -19 -1 -8 3 -5 6 6 6 11 1 17 -2 13 -5z m1463 -4 c0 -5
-7 -10 -15 -10 -8 0 -15 5 -15 10 0 6 7 10 15 10 8 0 15 -4 15 -10z m-1306
-15 c-4 -8 -8 -15 -10 -15 -2 0 -4 7 -4 15 0 8 4 15 10 15 5 0 7 -7 4 -15z
m93 -2 c-4 -3 -7 0 -7 7 0 7 3 10 7 7 3 -4 3 -10 0 -14z m20 0 c-4 -3 -7 0 -7
7 0 7 3 10 7 7 3 -4 3 -10 0 -14z m453 0 c3 -3 -23 -3 -57 -1 -34 1 -59 6 -57
10 5 7 105 -1 114 -9z m230 7 c8 -5 11 -10 5 -10 -5 0 -17 5 -25 10 -8 5 -10
10 -5 10 6 0 17 -5 25 -10z m560 0 c0 -5 -8 -10 -17 -10 -15 0 -16 2 -3 10 19
12 20 12 20 0z m-604 -17 c-2 -11 -12 -19 -27 -20 -15 -1 -17 0 -6 3 9 3 17
12 17 20 0 8 4 14 9 14 5 0 8 -8 7 -17z m381 0 c-4 -3 -10 -3 -14 0 -3 4 0 7
7 7 7 0 10 -3 7 -7z m-1547 -7 c0 -2 -7 -7 -16 -10 -8 -3 -12 -2 -9 4 6 10 25
14 25 6z m517 -13 c-4 -3 -7 0 -7 7 0 7 3 10 7 7 3 -4 3 -10 0 -14z m-30 -10
c-4 -3 -7 0 -7 7 0 7 3 10 7 7 3 -4 3 -10 0 -14z m60 -10 c-4 -3 -7 0 -7 7 0
7 3 10 7 7 3 -4 3 -10 0 -14z m1363 2 c0 -8 -4 -15 -10 -15 -5 0 -7 7 -4 15 4
8 8 15 10 15 2 0 4 -7 4 -15z m-1403 -12 c-4 -3 -7 0 -7 7 0 7 3 10 7 7 3 -4
3 -10 0 -14z m413 7 c0 -5 -2 -10 -4 -10 -3 0 -8 5 -11 10 -3 6 -1 10 4 10 6
0 11 -4 11 -10z m-1170 -10 c0 -5 -4 -10 -10 -10 -5 0 -10 5 -10 10 0 6 5 10
10 10 6 0 10 -4 10 -10z m570 -19 c47 -6 118 -8 158 -6 59 4 72 2 72 -10 0 -8
9 -15 19 -15 40 0 52 -10 39 -33 -6 -12 -12 -23 -13 -25 -1 -1 -31 8 -66 22
-35 13 -69 21 -76 19 -6 -2 -14 1 -18 6 -3 6 -16 11 -28 11 -22 0 -22 -1 3
-20 18 -14 20 -18 8 -16 -10 1 -21 5 -24 9 -4 4 -15 0 -24 -8 -15 -13 -17 -13
-17 0 0 8 3 15 7 15 4 0 7 7 7 15 0 12 -16 15 -86 14 -47 0 -95 -4 -106 -8
-28 -11 -44 -3 -38 19 6 22 27 30 68 24 17 -2 68 -8 115 -13z m453 12 c-7 -2
-19 -2 -25 0 -7 3 -2 5 12 5 14 0 19 -2 13 -5z m44 1 c-3 -3 -12 -4 -19 -1 -8
3 -5 6 6 6 11 1 17 -2 13 -5z m1093 -8 c0 -2 -7 -7 -16 -10 -8 -3 -12 -2 -9 4
6 10 25 14 25 6z m-2003 -38 c-3 -7 -5 -2 -5 12 0 14 2 19 5 13 2 -7 2 -19 0
-25z m80 25 c-4 -3 -10 -3 -14 0 -3 4 0 7 7 7 7 0 10 -3 7 -7z m593 3 c0 -3
-4 -8 -10 -11 -5 -3 -10 -1 -10 4 0 6 5 11 10 11 6 0 10 -2 10 -4z m55 -6 c3
-5 4 -10 1 -10 -3 0 -8 5 -11 10 -3 6 -4 10 -1 10 3 0 8 -4 11 -10z m60 2
c-53 -42 -60 -46 -33 -19 16 15 31 27 35 27 4 0 3 -3 -2 -8z m718 -38 c-3 -8
-15 -13 -27 -13 -17 1 -18 2 -3 6 14 4 16 8 6 19 -9 11 -9 14 0 14 7 0 9 6 6
13 -4 6 0 4 9 -6 8 -11 12 -25 9 -33z m597 28 c0 -7 -4 -10 -10 -7 -5 3 -10 1
-10 -4 0 -6 -4 -11 -9 -11 -6 0 -9 9 -8 19 1 22 37 25 37 3z m-2120 -14 c0
-12 -1 -19 -3 -17 -1 2 -9 12 -16 22 -12 14 -11 17 3 17 10 0 16 -8 16 -22z
m1336 -7 c-4 -6 -13 -11 -19 -11 -8 0 -7 3 2 9 8 5 10 14 6 22 -6 11 -5 11 5
2 7 -6 9 -16 6 -22z m-323 4 c-3 -9 -8 -14 -10 -11 -3 3 -2 9 2 15 9 16 15 13
8 -4z m1054 -2 c-4 -3 -7 0 -7 7 0 7 3 10 7 7 3 -4 3 -10 0 -14z m-1100 -10
c-4 -3 -7 0 -7 7 0 7 3 10 7 7 3 -4 3 -10 0 -14z m433 -4 c0 -6 -4 -7 -10 -4
-5 3 -10 11 -10 16 0 6 5 7 10 4 6 -3 10 -11 10 -16z m-995 1 c3 -5 4 -10 1
-10 -3 0 -8 5 -11 10 -3 6 -4 10 -1 10 3 0 8 -4 11 -10z m1012 -7 c-4 -3 -7 0
-7 7 0 7 3 10 7 7 3 -4 3 -10 0 -14z m20 -5 c-3 -8 -6 -5 -6 6 -1 11 2 17 5
13 3 -3 4 -12 1 -19z m-1202 -12 c0 -15 -4 -21 -9 -16 -5 5 -6 16 -3 24 9 22
12 20 12 -8z m65 13 c0 -5 -4 -8 -9 -5 -5 4 -11 0 -14 -6 -3 -10 -8 -10 -18 1
-9 9 -9 11 -1 7 6 -4 12 -2 12 3 0 6 7 11 15 11 8 0 15 -5 15 -11z m281 -40
c-13 -10 -28 -19 -35 -19 -6 1 1 8 17 16 29 16 32 23 17 42 -5 7 -2 5 8 -4 16
-14 16 -16 -7 -35z m346 14 c-3 -10 -5 -4 -5 12 0 17 2 24 5 18 2 -7 2 -21 0
-30z m134 20 c13 -16 12 -17 -3 -4 -17 13 -22 21 -14 21 2 0 10 -8 17 -17z
m1022 -17 c4 4 0 -8 -9 -27 -22 -44 -28 -50 -21 -19 5 23 5 23 -7 7 -8 -10
-20 -15 -30 -11 -16 6 -16 8 0 25 9 10 20 16 25 14 4 -3 11 0 15 6 4 8 3 9 -4
5 -14 -8 -15 -5 -5 19 5 15 7 15 18 -4 6 -12 14 -18 18 -15z m-2066 -8 c-3 -7
-5 -2 -5 12 0 14 2 19 5 13 2 -7 2 -19 0 -25z m353 10 c0 -6 -6 -5 -15 2 -8 7
-15 14 -15 16 0 2 7 1 15 -2 8 -4 15 -11 15 -16z m31 5 c13 -16 12 -17 -3 -4
-17 13 -22 21 -14 21 2 0 10 -8 17 -17z m46 0 c-4 -3 -7 0 -7 7 0 7 3 10 7 7
3 -4 3 -10 0 -14z m460 -30 c-3 -10 -5 -2 -5 17 0 19 2 27 5 18 2 -10 2 -26 0
-35z m501 26 c30 -12 28 -17 -5 -13 -21 3 -19 0 9 -9 42 -14 84 -66 111 -135
14 -39 14 -48 1 -93 -38 -126 -183 -196 -292 -140 -89 45 -131 129 -113 226
14 75 35 111 82 141 65 41 138 49 207 23z m-981 -6 c-4 -3 -7 0 -7 7 0 7 3 10
7 7 3 -4 3 -10 0 -14z m127 -2 c-12 -11 -207 -35 -225 -28 -8 3 3 6 24 6 21 1
36 5 33 10 -4 5 2 7 11 5 10 -2 50 2 88 9 71 14 86 14 69 -2z m179 4 c-3 -9
-8 -14 -10 -11 -3 3 -2 9 2 15 9 16 15 13 8 -4z m767 5 c0 -5 -2 -10 -4 -10
-3 0 -8 5 -11 10 -3 6 -1 10 4 10 6 0 11 -4 11 -10z m-700 -11 c0 -5 -4 -7
-10 -4 -16 10 -12 -6 6 -26 21 -23 11 -57 -11 -39 -8 6 -20 8 -26 4 -8 -4 -9
-3 -5 4 4 7 2 12 -3 12 -6 0 -11 5 -11 11 0 6 14 1 30 -11 33 -24 41 -13 11
14 -11 10 -17 24 -14 32 6 16 33 19 33 3z m44 -21 c7 -5 7 -8 -2 -8 -7 0 -11
-4 -7 -9 3 -5 1 -12 -5 -16 -6 -4 -10 8 -9 32 0 21 3 31 6 23 3 -8 11 -18 17
-22z m43 -5 c0 -7 -5 -13 -11 -13 -5 0 -1 -6 9 -14 16 -12 17 -18 8 -47 l-11
-34 3 37 c2 25 -1 38 -11 42 -18 7 -18 43 -1 43 8 0 14 -6 14 -14z m-170 -10
c-4 -3 -7 0 -7 7 0 7 3 10 7 7 3 -4 3 -10 0 -14z m-392 -8 c38 -10 43 -14 20
-13 -46 0 -53 -4 -20 -11 18 -4 29 -13 27 -20 -2 -11 6 -12 35 -7 175 29 203
30 231 14 55 -33 41 -44 -85 -67 -205 -38 -251 -51 -255 -69 -3 -13 -5 -12
-10 6 -4 15 -3 20 5 15 7 -4 6 1 -2 10 -7 9 -20 17 -27 17 -10 0 -11 6 -5 22
6 15 22 26 52 34 42 11 39 18 -7 15 -11 -1 -26 5 -33 13 -8 9 -17 13 -22 10
-5 -3 -6 2 -3 10 3 9 11 16 18 16 6 0 4 5 -4 10 -22 14 23 11 85 -5z m202 8
c-4 -3 -10 -3 -14 0 -3 4 0 7 7 7 7 0 10 -3 7 -7z m1643 3 c0 -2 -7 -7 -16
-10 -8 -3 -12 -2 -9 4 6 10 25 14 25 6z m-2129 -37 c-13 -11 -32 -19 -43 -19
-10 0 -17 -4 -13 -9 3 -5 1 -12 -5 -16 -5 -3 -10 -2 -10 4 0 5 -12 11 -27 13
-16 2 -27 10 -29 21 -2 14 6 17 47 17 28 0 48 4 45 8 -3 5 9 6 26 4 l32 -5
-23 -18z m1798 12 c40 -21 101 -84 101 -104 0 -7 -6 -3 -12 8 -36 65 -103 105
-178 105 -88 0 -158 -47 -184 -125 l-13 -37 -7 33 c-4 20 -2 37 5 43 8 8 9 4
5 -14 l-7 -25 15 25 c19 31 20 43 4 34 -8 -4 -10 -3 -5 2 5 5 13 10 18 10 22
3 23 5 9 15 -12 8 -10 9 7 4 12 -3 24 -1 28 6 25 40 151 51 214 20z m231 -44
c0 -5 -4 -5 -10 -2 -5 3 -10 14 -10 23 0 15 2 15 10 2 5 -8 10 -19 10 -23z
m-1210 13 c0 -5 -4 -10 -10 -10 -5 0 -10 5 -10 10 0 6 5 10 10 10 6 0 10 -4
10 -10z m1170 -10 c0 -5 -2 -10 -4 -10 -3 0 -8 5 -11 10 -3 6 -1 10 4 10 6 0
11 -4 11 -10z m-1933 -17 c-4 -3 -7 0 -7 7 0 7 3 10 7 7 3 -4 3 -10 0 -14z
m853 7 c0 -5 -4 -10 -10 -10 -5 0 -10 5 -10 10 0 6 5 10 10 10 6 0 10 -4 10
-10z m750 0 c0 -5 -7 -7 -16 -3 -13 5 -14 0 -9 -30 8 -40 -10 -60 -30 -34 -15
20 -22 21 -28 5 -2 -8 -3 -7 -3 2 2 20 36 26 36 6 0 -9 5 -16 10 -16 15 0 12
16 -6 35 -13 12 -14 19 -4 30 14 17 50 20 50 5z m-830 -10 c0 -5 -5 -10 -11
-10 -5 0 -7 5 -4 10 3 6 8 10 11 10 2 0 4 -4 4 -10z m-659 -9 c-8 -5 -26 -7
-40 -4 -42 7 -37 13 10 13 30 0 39 -3 30 -9z m1416 -8 c-4 -3 -7 0 -7 7 0 7 3
10 7 7 3 -4 3 -10 0 -14z m96 0 c-4 -10 -13 -24 -21 -32 -12 -12 -13 -11 -10
5 3 21 19 43 30 44 4 0 4 -8 1 -17z m72 -32 c-21 -43 -29 -39 -8 4 9 19 18 33
21 31 2 -2 -4 -18 -13 -35z m-1694 2 c-12 -20 -14 -14 -5 12 4 9 9 14 11 11 3
-2 0 -13 -6 -23z m869 11 c0 -3 -15 -4 -34 -2 -19 1 -33 5 -31 8 4 7 65 1 65
-6z m799 -16 c-9 -17 -13 -18 -20 -7 -7 11 -9 11 -9 -3 0 -9 4 -20 10 -23 12
-7 -11 -55 -36 -76 -12 -9 -10 -3 5 18 17 23 22 38 17 58 -5 19 -2 33 10 46
21 24 38 14 23 -13z m71 28 c0 -3 -5 -8 -12 -12 -7 -4 -8 -3 -4 4 7 12 16 16
16 8z m-1640 -23 c12 -4 11 -7 -5 -14 -15 -7 -11 -8 18 -6 25 2 37 -1 37 -10
0 -19 -114 -18 -130 2 -11 13 -8 15 21 16 21 1 27 3 14 6 -35 9 -37 20 -3 16
18 -3 40 -7 48 -10z m688 -10 c-2 -9 -9 -18 -17 -21 -8 -3 -11 0 -7 7 4 6 0
11 -11 12 -16 0 -16 1 2 9 30 13 37 12 33 -7z m39 -15 c-5 -16 -3 -17 9 -7 11
9 14 8 14 -4 0 -15 -23 -17 -37 -4 -13 14 -11 34 4 34 9 0 13 -7 10 -19z m886
2 c-3 -12 -8 -19 -11 -16 -5 6 5 36 12 36 2 0 2 -9 -1 -20z m97 -4 c-1 -27
-15 -33 -45 -19 l-30 14 28 -4 c23 -4 27 -1 22 14 -5 14 -2 17 9 13 9 -3 16
-11 16 -18z m167 7 c-4 -3 -7 0 -7 7 0 7 3 10 7 7 3 -4 3 -10 0 -14z m-1587 3
c0 -3 -5 -8 -12 -12 -7 -4 -8 -3 -4 4 7 12 16 16 16 8z m336 -5 c-4 -5 0 -12
6 -14 8 -3 6 -6 -4 -6 -10 -1 -18 6 -18 14 0 8 5 15 11 15 5 0 8 -4 5 -9z
m1121 -8 c-4 -3 -7 0 -7 7 0 7 3 10 7 7 3 -4 3 -10 0 -14z m-234 -23 c-3 -11
-9 -20 -14 -20 -12 0 -11 17 1 25 6 4 7 11 4 17 -4 6 -2 8 4 5 5 -4 8 -16 5
-27z m-1186 13 c-4 -3 -10 -3 -14 0 -3 4 0 7 7 7 7 0 10 -3 7 -7z m1254 -26
c-24 -24 -9 -29 16 -6 l26 24 -23 -32 c-12 -17 -20 -38 -17 -47 4 -10 1 -13
-9 -9 -9 3 -13 13 -9 27 6 21 6 21 -9 2 -21 -26 -20 -15 1 28 9 19 20 33 26
29 5 -3 4 -10 -2 -16z m-234 -4 c-4 -3 -7 0 -7 7 0 7 3 10 7 7 3 -4 3 -10 0
-14z m103 7 c11 -8 7 -9 -15 -4 -37 8 -45 14 -19 14 10 0 26 -5 34 -10z m220
0 c0 -5 7 -10 15 -10 20 0 19 -5 -10 -36 -19 -21 -24 -23 -19 -8 7 17 6 18
-12 4 -18 -14 -18 -14 -5 2 7 10 17 16 21 13 5 -3 11 -1 14 4 12 19 -16 23
-35 5 -10 -9 -19 -13 -20 -8 0 5 -5 0 -10 -11 -9 -20 -9 -20 -6 0 2 11 9 19
15 18 7 -2 17 6 24 17 14 21 28 27 28 10z m177 -12 c-3 -8 -6 -5 -6 6 -1 11 2
17 5 13 3 -3 4 -12 1 -19z m-1097 -3 c0 -9 -6 -12 -16 -8 -13 5 -13 7 -2 14
17 11 18 11 18 -6z m-653 -57 c-2 -13 -4 -3 -4 22 0 25 2 35 4 23 2 -13 2 -33
0 -45z m220 45 c-4 -3 -7 0 -7 7 0 7 3 10 7 7 3 -4 3 -10 0 -14z m1440 0 c-4
-3 -7 0 -7 7 0 7 3 10 7 7 3 -4 3 -10 0 -14z m-1680 -25 c-3 -7 -5 -2 -5 12 0
14 2 19 5 13 2 -7 2 -19 0 -25z m1412 11 c-16 -10 -23 -4 -14 10 3 6 11 8 17
5 6 -4 5 -9 -3 -15z m-659 1 c0 -5 -7 -10 -16 -10 -8 0 -12 5 -9 10 3 6 10 10
16 10 5 0 9 -4 9 -10z m527 -22 c-3 -7 -5 -2 -5 12 0 14 2 19 5 13 2 -7 2 -19
0 -25z m-597 12 c11 -7 7 -10 -17 -10 -23 0 -33 -5 -33 -15 0 -8 7 -15 15 -15
8 0 15 5 15 11 0 5 5 7 11 3 8 -4 7 -9 -2 -14 -8 -6 -3 -10 17 -13 l29 -4 -31
-2 c-42 -2 -68 19 -60 47 8 23 31 28 56 12z m27 -7 c-4 -3 -7 0 -7 7 0 7 3 10
7 7 3 -4 3 -10 0 -14z m679 -17 c21 -2 51 -5 67 -5 17 -1 27 -6 27 -16 0 -8 5
-15 11 -15 5 0 7 5 3 12 -5 8 5 9 36 4 50 -8 88 -25 56 -26 -15 0 -16 -2 -6
-15 11 -14 10 -14 -12 -6 -14 5 -69 15 -123 21 -98 12 -161 28 -138 37 7 2 9
11 6 20 -5 13 -3 13 14 5 11 -6 38 -13 59 -16z m-1268 -6 c-12 -19 -38 -28
-38 -12 0 6 13 14 48 31 1 0 -3 -8 -10 -19z m29 -2 c-3 -8 -6 -5 -6 6 -1 11 2
17 5 13 3 -3 4 -12 1 -19z m40 15 c-4 -3 -10 -3 -14 0 -3 4 0 7 7 7 7 0 10 -3
7 -7z m1480 -10 c-4 -3 -7 0 -7 7 0 7 3 10 7 7 3 -4 3 -10 0 -14z m-1350 0
c-4 -3 -10 -3 -14 0 -3 4 0 7 7 7 7 0 10 -3 7 -7z m1040 -92 c19 -15 21 -19 6
-12 -24 12 -83 80 -83 96 0 5 11 -7 25 -27 13 -19 37 -45 52 -57z m-773 67
c-4 -5 1 -8 9 -6 9 2 22 -6 30 -16 9 -13 31 -22 62 -25 31 -4 50 -11 52 -21 3
-10 2 -11 -4 -4 -5 7 -36 12 -78 11 -40 0 -53 -2 -30 -4 22 -3 44 -9 50 -14 5
-5 22 -9 37 -9 23 0 28 -4 28 -23 0 -32 -7 -36 -38 -28 -15 4 -40 4 -57 0 -16
-4 -24 -7 -17 -8 7 0 10 -6 7 -11 -3 -6 -42 -10 -87 -10 -67 0 -79 2 -74 15 3
8 1 15 -4 15 -6 0 -10 8 -9 18 0 11 2 12 6 4 3 -9 9 -10 18 -2 14 12 48 3 39
-11 -3 -5 -9 -7 -14 -4 -5 3 -12 0 -16 -7 -4 -7 -4 -10 0 -6 4 3 20 3 36 -2
24 -7 27 -5 23 11 -4 13 0 19 11 19 10 0 14 5 11 10 -4 6 -16 8 -26 5 -11 -4
-25 -3 -32 2 -7 5 -48 10 -92 12 -44 1 -85 7 -92 13 -10 8 -13 7 -13 -3 0 -11
-2 -11 -10 1 -6 10 -10 11 -10 3 0 -7 -5 -13 -11 -13 -5 0 -8 4 -5 9 3 4 -33
6 -79 3 -47 -2 -85 -2 -85 1 0 5 99 28 223 50 44 9 77 11 77 5 0 -5 5 -6 12
-2 7 4 35 7 62 5 35 -1 46 1 37 8 -11 7 -9 10 10 13 40 6 48 5 43 -4z m1061
-17 c-8 -16 -29 -39 -47 -51 l-33 -22 31 29 c18 15 37 38 43 51 7 12 14 22 17
22 2 0 -2 -13 -11 -29z m-1628 -13 c-3 -7 -5 -2 -5 12 0 14 2 19 5 13 2 -7 2
-19 0 -25z m470 25 c-4 -3 -10 -3 -14 0 -3 4 0 7 7 7 7 0 10 -3 7 -7z m-490
-25 c-3 -8 -6 -5 -6 6 -1 11 2 17 5 13 3 -3 4 -12 1 -19z m807 -29 c-5 -37
-12 -51 -25 -44 -5 4 -9 1 -9 -4 0 -6 4 -11 10 -11 5 0 9 -11 8 -25 -3 -27 -6
-29 -26 -16 -23 14 5 131 31 131 10 0 13 -9 11 -31z m513 -2 c4 -4 8 -15 9
-23 1 -9 -1 -13 -4 -9 -4 4 -7 12 -7 18 0 7 -5 12 -12 12 -6 0 -14 3 -18 7 -4
3 0 5 9 4 8 -1 19 -5 23 -9z m90 7 c-3 -3 -12 -4 -19 -1 -8 3 -5 6 6 6 11 1
17 -2 13 -5z m40 -11 c-4 -3 -10 -3 -14 0 -3 4 0 7 7 7 7 0 10 -3 7 -7z m-484
-10 c-7 -2 -19 -2 -25 0 -7 3 -2 5 12 5 14 0 19 -2 13 -5z m120 -10 c-7 -2
-19 -2 -25 0 -7 3 -2 5 12 5 14 0 19 -2 13 -5z m-1113 -24 c0 -3 -18 -9 -40
-13 -22 -3 -40 -11 -40 -16 0 -6 -4 -10 -10 -10 -5 0 -10 7 -10 15 0 8 -8 15
-17 16 -15 0 -15 2 2 9 23 10 115 10 115 -1z m78 -11 c-9 -7 -4 -8 16 -5 37 6
54 -10 45 -43 -7 -24 -7 -25 -8 -2 -1 13 -5 20 -11 17 -5 -3 -10 -2 -10 3 0 5
-18 12 -40 16 -39 6 -53 20 -27 29 6 2 20 2 30 -1 15 -4 16 -7 5 -14z m1399
16 c-3 -3 -12 -4 -19 -1 -8 3 -5 6 6 6 11 1 17 -2 13 -5z m80 0 c-3 -3 -12 -4
-19 -1 -8 3 -5 6 6 6 11 1 17 -2 13 -5z m-1157 -14 c20 -6 21 -8 5 -8 -11 0
-31 4 -45 8 -20 6 -21 8 -5 8 11 0 31 -4 45 -8z m74 -5 c4 -10 -1 -15 -14 -15
-13 0 -18 5 -14 15 4 8 10 15 14 15 4 0 10 -7 14 -15z m-307 -1 c-3 -3 -12 -4
-19 -1 -8 3 -5 6 6 6 11 1 17 -2 13 -5z m43 -8 c0 -3 -4 -8 -10 -11 -5 -3 -10
-1 -10 4 0 6 5 11 10 11 6 0 10 -2 10 -4z m-320 -16 c0 -5 -7 -7 -15 -4 -8 4
-15 8 -15 10 0 2 7 4 15 4 8 0 15 -4 15 -10z m347 3 c-4 -3 -10 -3 -14 0 -3 4
0 7 7 7 7 0 10 -3 7 -7z m1370 1 c-3 -3 -12 -4 -19 -1 -8 3 -5 6 6 6 11 1 17
-2 13 -5z m-1670 -21 c-4 -3 -7 0 -7 7 0 7 3 10 7 7 3 -4 3 -10 0 -14z m110
11 c-3 -3 -12 -4 -19 -1 -8 3 -5 6 6 6 11 1 17 -2 13 -5z m689 -1 c-4 -5 -11
-8 -14 -8 -4 0 -12 -3 -18 -7 -6 -4 -11 -1 -11 7 0 9 10 15 25 15 14 0 22 -3
18 -7z m-542 -28 c3 -8 1 -15 -4 -15 -6 0 -10 7 -10 15 0 8 2 15 4 15 2 0 6
-7 10 -15z m223 8 c-4 -3 -10 -3 -14 0 -3 4 0 7 7 7 7 0 10 -3 7 -7z m208 -20
c-2 -10 -4 -22 -5 -28 -1 -5 -5 -1 -10 10 -12 29 -12 35 4 35 8 0 13 -8 11
-17z m-97 -18 c-3 -3 -9 2 -12 12 -6 14 -5 15 5 6 7 -7 10 -15 7 -18z m42 1
c0 -3 -4 -8 -10 -11 -5 -3 -10 -1 -10 4 0 6 5 11 10 11 6 0 10 -2 10 -4z"/>
<path d="M1430 1090 c0 -7 3 -10 7 -7 3 4 3 10 0 14 -4 3 -7 0 -7 -7z"/>
<path d="M1606 1005 c4 -8 10 -12 15 -9 14 8 10 24 -6 24 -9 0 -12 -6 -9 -15z"/>
<path d="M1930 810 c-9 -6 -10 -10 -3 -10 6 0 15 5 18 10 8 12 4 12 -15 0z"/>
<path d="M1563 803 c4 -3 10 -3 14 0 3 4 0 7 -7 7 -7 0 -10 -3 -7 -7z"/>
<path d="M1582 791 c-11 -6 -10 -10 4 -15 9 -3 19 -4 22 -1 3 3 -1 5 -9 5 -11
0 -11 2 1 10 8 5 11 10 5 10 -5 0 -16 -4 -23 -9z"/>
<path d="M1893 793 c4 -3 10 -3 14 0 3 4 0 7 -7 7 -7 0 -10 -3 -7 -7z"/>
<path d="M1690 781 l35 -4 -35 -7 c-23 -5 2 -8 70 -8 111 -1 167 9 120 21 -14
3 -70 5 -125 5 -55 -1 -84 -4 -65 -7z m168 -8 c-10 -2 -26 -2 -35 0 -10 3 -2
5 17 5 19 0 27 -2 18 -5z"/>
<path d="M1810 1391 c0 -6 5 -13 12 -17 6 -4 8 -3 4 4 -3 5 0 13 6 15 8 3 6 6
-4 6 -10 1 -18 -3 -18 -8z"/>
<path d="M1030 740 c0 -7 3 -10 7 -7 3 4 3 10 0 14 -4 3 -7 0 -7 -7z"/>
<path d="M885 650 c3 -5 8 -10 11 -10 2 0 4 5 4 10 0 6 -5 10 -11 10 -5 0 -7
-4 -4 -10z"/>
<path d="M1463 513 c4 -3 10 -3 14 0 3 4 0 7 -7 7 -7 0 -10 -3 -7 -7z"/>
<path d="M1449 471 c-17 -16 -28 -34 -24 -40 3 -6 11 -9 16 -6 5 3 6 -1 3 -9
-3 -9 -10 -16 -15 -16 -17 0 -9 -19 11 -25 11 -4 18 -11 15 -16 -4 -5 1 -9 10
-9 8 0 18 7 21 15 4 8 10 15 16 15 5 0 7 -4 3 -9 -5 -9 32 -27 48 -23 5 1 6
-2 2 -8 -4 -7 -12 -7 -26 0 -17 9 -19 7 -19 -16 0 -23 3 -25 23 -20 21 7 119
17 162 17 25 0 65 25 65 41 0 7 -6 3 -14 -8 -14 -18 -15 -18 -21 8 -4 15 -5
49 -3 77 1 27 0 47 -4 45 -4 -2 -9 0 -13 5 -3 6 -26 9 -50 8 -38 -1 -45 -5
-46 -22 0 -20 -1 -20 -8 0 -7 18 -9 17 -19 -10 -6 -17 -11 -24 -11 -18 -1 18
-33 53 -43 47 -5 -3 -6 -9 -4 -13 7 -10 -32 -7 -41 4 -5 4 -2 5 6 0 9 -5 12
-4 7 3 -10 16 -10 16 -47 -17z m39 -47 c-4 -19 -21 -20 -26 -2 -2 9 0 8 7 -2
9 -13 11 -13 11 2 0 9 -4 20 -10 23 -5 3 -10 14 -10 23 0 13 3 12 16 -6 8 -12
14 -29 12 -38z m139 39 c-4 -3 -7 0 -7 7 0 7 3 10 7 7 3 -4 3 -10 0 -14z m83
-13 c0 -15 -7 -20 -27 -20 -21 0 -24 3 -13 9 8 6 18 7 24 4 5 -4 7 1 3 10 -3
10 -2 17 3 17 6 0 10 -9 10 -20z m-183 -5 c0 -8 -4 -12 -9 -9 -4 3 -8 9 -8 15
0 5 4 9 8 9 5 0 9 -7 9 -15z m90 -17 c-3 -8 -6 -5 -6 6 -1 11 2 17 5 13 3 -3
4 -12 1 -19z m-110 -15 c-4 -3 -7 0 -7 7 0 7 3 10 7 7 3 -4 3 -10 0 -14z m188
-3 c16 -7 14 -9 -12 -7 -17 0 -29 5 -27 9 6 10 13 9 39 -2z m-162 -20 c-3 -12
-8 -19 -11 -16 -5 6 5 36 12 36 2 0 2 -9 -1 -20z m57 -25 c-16 -47 -23 -40 -8
8 6 20 13 35 16 33 2 -3 -1 -21 -8 -41z m-23 3 c-3 -7 -5 -2 -5 12 0 14 2 19
5 13 2 -7 2 -19 0 -25z m101 -13 c-3 -3 -9 2 -12 12 -6 14 -5 15 5 6 7 -7 10
-15 7 -18z m-61 -17 c-3 -7 -5 -2 -5 12 0 14 2 19 5 13 2 -7 2 -19 0 -25z m80
15 c-4 -3 -7 0 -7 7 0 7 3 10 7 7 3 -4 3 -10 0 -14z m20 0 c-4 -3 -7 0 -7 7 0
7 3 10 7 7 3 -4 3 -10 0 -14z"/>
<path d="M1733 443 c4 -3 10 -3 14 0 3 4 0 7 -7 7 -7 0 -10 -3 -7 -7z"/>
<path d="M1740 420 c0 -7 3 -10 7 -7 3 4 3 10 0 14 -4 3 -7 0 -7 -7z"/>
<path d="M1423 353 c4 -3 10 -3 14 0 3 4 0 7 -7 7 -7 0 -10 -3 -7 -7z"/>
<path d="M1390 340 c0 -7 3 -10 7 -7 3 4 3 10 0 14 -4 3 -7 0 -7 -7z"/>
<path d="M1620 300 l-25 -8 28 -1 c15 -1 27 4 27 9 0 6 -1 10 -2 9 -2 -1 -14
-5 -28 -9z"/>
<path d="M1710 303 c25 -12 6 -21 -47 -22 -32 -1 -84 -5 -116 -10 -32 -4 -71
-7 -87 -7 -17 1 -30 -3 -30 -8 0 -4 34 -5 78 -1 42 5 109 11 147 14 51 4 70
10 70 20 0 8 -6 15 -13 17 -7 1 -8 0 -2 -3z"/>
<path d="M1430 290 c0 -7 3 -10 7 -7 3 4 3 10 0 14 -4 3 -7 0 -7 -7z"/>
<path d="M1550 290 c0 -7 3 -10 7 -7 3 4 3 10 0 14 -4 3 -7 0 -7 -7z"/>
<path d="M1690 250 c0 -7 3 -10 7 -7 3 4 3 10 0 14 -4 3 -7 0 -7 -7z"/>
<path d="M518 523 c7 -3 16 -2 19 1 4 3 -2 6 -13 5 -11 0 -14 -3 -6 -6z"/>
<path d="M2004 418 c-4 -7 -3 -8 4 -4 12 7 16 16 8 16 -3 0 -8 -5 -12 -12z"/>
<path d="M1950 250 c0 -7 3 -10 7 -7 3 4 3 10 0 14 -4 3 -7 0 -7 -7z"/>
<path d="M1970 250 c0 -7 3 -10 7 -7 3 4 3 10 0 14 -4 3 -7 0 -7 -7z"/>
<path d="M1090 217 c0 -10 8 -17 18 -17 9 0 13 4 7 8 -5 4 -13 11 -17 16 -5 5
-8 2 -8 -7z"/>
<path d="M1126 215 c4 -8 10 -15 15 -15 4 0 6 7 3 15 -4 8 -10 15 -15 15 -4 0
-6 -7 -3 -15z"/>
<path d="M1053 183 c4 -3 10 -3 14 0 3 4 0 7 -7 7 -7 0 -10 -3 -7 -7z"/>
<path d="M990 176 c0 -2 7 -6 15 -10 8 -3 15 -1 15 4 0 6 -7 10 -15 10 -8 0
-15 -2 -15 -4z"/>
<path d="M1123 133 c4 -3 10 -3 14 0 3 4 0 7 -7 7 -7 0 -10 -3 -7 -7z"/>
<path d="M1178 1669 c-12 -6 -18 -21 -17 -42 1 -30 1 -30 8 -7 5 18 15 26 34
28 16 2 27 9 24 15 -5 16 -28 19 -49 6z"/>
<path d="M850 1645 c0 -11 7 -15 23 -13 12 2 22 8 22 13 0 6 -10 11 -22 13
-16 2 -23 -2 -23 -13z"/>
<path d="M968 1653 c-50 -13 18 -40 73 -28 16 4 28 12 26 18 -4 12 -69 19 -99
10z"/>
<path d="M970 1570 c0 -7 3 -10 7 -7 3 4 3 10 0 14 -4 3 -7 0 -7 -7z"/>
<path d="M993 1335 c-18 -19 -16 -24 6 -22 12 1 17 7 13 19 -5 21 -4 21 -19 3z"/>
<path d="M1113 1333 c4 -3 10 -3 14 0 3 4 0 7 -7 7 -7 0 -10 -3 -7 -7z"/>
<path d="M890 1290 c0 -7 3 -10 7 -7 3 4 3 10 0 14 -4 3 -7 0 -7 -7z"/>
<path d="M1050 1280 c0 -7 3 -10 7 -7 3 4 3 10 0 14 -4 3 -7 0 -7 -7z"/>
<path d="M37 1203 c24 -2 62 -2 85 0 24 2 5 4 -42 4 -47 0 -66 -2 -43 -4z"/>
<path d="M217 1193 c19 -4 23 -12 26 -61 l3 -57 2 57 2 57 68 4 c51 2 45 3
-28 4 -52 0 -85 -2 -73 -4z"/>
<path d="M0 840 c0 -6 33 -10 80 -10 47 0 80 4 80 10 0 6 -33 10 -80 10 -47 0
-80 -4 -80 -10z"/>
<path d="M175 650 c4 -6 11 -8 16 -5 14 9 11 15 -7 15 -8 0 -12 -5 -9 -10z"/>
<path d="M0 570 c0 -6 7 -10 15 -10 8 0 15 2 15 4 0 2 -7 6 -15 10 -8 3 -15 1
-15 -4z"/>
<path d="M55 540 c3 -5 17 -10 31 -10 13 0 24 5 24 10 0 6 -14 10 -31 10 -17
0 -28 -4 -24 -10z"/>
<path d="M2426 124 c12 -17 20 -22 27 -15 8 8 5 15 -9 26 -29 22 -36 18 -18
-11z"/>
<path d="M2480 108 c0 -12 7 -18 23 -17 15 0 17 2 7 6 -8 3 -18 11 -22 17 -5
7 -8 4 -8 -6z"/>
<path d="M2530 105 c0 -10 10 -15 30 -15 17 0 30 5 30 11 0 6 -9 9 -20 6 -11
-3 -18 -1 -14 4 3 5 -2 9 -10 9 -9 0 -16 -7 -16 -15z"/>
<path d="M1523 93 c4 -3 10 -3 14 0 3 4 0 7 -7 7 -7 0 -10 -3 -7 -7z"/>
<path d="M2340 90 c-12 -8 -9 -10 13 -10 16 0 26 4 22 10 -8 12 -16 12 -35 0z"/>
<path d="M1460 70 c8 -5 35 -10 60 -10 33 0 41 3 30 10 -8 5 -35 10 -60 10
-33 0 -41 -3 -30 -10z"/>
<path d="M1510 31 c0 -10 19 -25 25 -20 1 2 -3 10 -11 17 -8 7 -14 8 -14 3z"/>
<path d="M2433 23 c4 -3 10 -3 14 0 3 4 0 7 -7 7 -7 0 -10 -3 -7 -7z"/>
<path d="M2180 10 c0 -7 3 -10 7 -7 3 4 3 10 0 14 -4 3 -7 0 -7 -7z"/>
<path d="M2300 10 c0 -5 14 -10 30 -10 17 0 30 5 30 10 0 6 -13 10 -30 10 -16
0 -30 -4 -30 -10z"/>
<path d="M1723 3 c4 -3 10 -3 14 0 3 4 0 7 -7 7 -7 0 -10 -3 -7 -7z"/>
<path d="M1788 3 c7 -3 16 -2 19 1 4 3 -2 6 -13 5 -11 0 -14 -3 -6 -6z"/>
</g>
</svg>
