 <svg  version="1.0" xmlns="http://www.w3.org/2000/svg"  width="300.000000pt" height="157.000000pt" viewBox="0 0 300.000000 157.000000"  preserveAspectRatio="xMidYMid meet">  <g transform="translate(0.000000,157.000000) scale(0.050000,-0.050000)" fill="#888686" stroke="none"> <path d="M864 3075 c-25 -62 -27 -63 -55 -26 -27 35 -29 30 -29 -67 0 -89 -6 -107 -40 -116 -24 -6 -41 -28 -41 -53 -5 -151 -41 -373 -61 -373 -10 0 -17 -7 -16 -15 9 -53 -9 -109 -53 -175 -41 -60 -49 -90 -39 -148 21 -125 22 -125 232 -103 1013 109 1098 114 1098 66 0 -21 6 -80 12 -130 l13 -91 -98 -11 c-53 -6 -302 -36 -552 -66 -505 -61 -481 -64 -484 72 -2 122 -25 150 -98 122 -63 -24 -61 -14 -22 -123 29 -83 72 -287 96 -468 12 -84 -59 -190 -106 -161 -12 8 -16 1 -9 -17 6 -16 23 -25 36 -20 14 5 25 -3 25 -19 0 -18 -12 -25 -31 -18 -18 6 -7 -9 23 -33 53 -43 54 -47 20 -79 -20 -18 -27 -26 -16 -18 32 25 56 17 44 -14 -6 -17 6 -82 27 -145 22 -64 39 -131 40 -149 0 -18 14 -38 30 -44 19 -7 30 -38 30 -83 0 -45 11 -76 30 -83 17 -6 30 -22 30 -36 0 -41 87 -107 150 -114 98 -11 184 -297 89 -297 -22 0 -39 -9 -39 -20 0 -14 133 -20 379 -19 l379 2 8 53 8 54 3 -55 3 -55 750 0 c427 0 750 8 750 18 0 29 57 42 105 25 27 -10 82 -6 135 8 l90 25 -80 6 c-44 3 -102 4 -130 1 -121 -9 -146 11 -133 108 19 136 -21 109 -112 -78 l-38 -78 -294 12 c-530 23 -712 35 -771 54 -32 11 -111 19 -175 19 -135 0 -145 18 -61 109 104 112 127 218 28 126 l-48 -45 17 230 c21 289 22 631 1 713 -12 47 -8 70 17 95 24 25 27 40 11 59 -28 34 -30 132 -6 283 14 92 19 103 21 49 3 -82 137 -137 537 -218 111 -22 228 -50 258 -62 35 -13 61 -14 74 -1 34 34 -33 77 -118 77 -45 0 -137 19 -205 42 -68 24 -143 43 -168 44 -25 0 -62 13 -82 28 -20 16 -51 23 -68 16 -20 -7 -27 -4 -18 10 8 13 -5 25 -32 29 -29 4 -47 22 -51 51 -8 51 -34 59 -51 15 -7 -17 -23 -29 -37 -28 -20 1 -21 3 -1 11 14 6 25 19 25 30 0 11 -9 14 -20 7 -11 -7 -20 -3 -20 9 0 11 -12 21 -27 21 -18 0 -32 34 -40 93 -19 138 -16 167 17 167 17 0 30 -13 30 -30 0 -17 18 -30 40 -30 22 0 40 -13 40 -29 0 -45 43 -60 64 -23 10 18 27 28 37 21 11 -6 19 3 19 20 0 17 -16 31 -36 31 -20 0 -45 8 -55 18 -10 10 -41 22 -69 25 -46 6 -50 16 -56 122 -6 122 2 134 58 83 24 -22 15 10 -28 99 -69 142 -129 181 -106 69 7 -34 6 -57 -2 -49 -8 8 -21 84 -28 169 -8 85 -20 169 -28 188 -12 30 -6 31 57 12 58 -18 76 -16 103 11 29 29 29 33 1 33 -25 0 -31 27 -31 150 0 150 19 183 72 130 38 -38 568 -48 568 -11 0 37 25 38 330 12 566 -46 850 -48 850 -4 0 43 -1851 65 -1950 23 -22 -9 -30 -18 -17 -19 15 -1 22 -44 20 -129 -3 -138 -20 -155 -42 -43 -20 111 -69 211 -102 211 -25 0 -23 -10 10 -55 22 -30 48 -95 59 -144 21 -97 13 -141 -10 -51 -9 37 -18 46 -29 28 -13 -20 -22 -20 -49 2 -28 23 -36 23 -52 -1 -14 -24 -20 -21 -30 14 -9 33 -27 43 -80 43 -37 0 -63 -8 -57 -18 12 -20 -5 -23 -109 -22 -37 1 -74 12 -83 25 -10 17 -20 13 -35 -14 -12 -20 -26 -35 -33 -32 -6 3 -13 4 -16 4 -11 -3 -108 -19 -164 -26 -116 -16 -136 22 -81 154 36 87 37 93 4 93 -14 0 -37 -29 -50 -65z m918 -315 c54 -193 35 -211 -232 -230 -99 -7 -314 -26 -478 -41 -415 -40 -438 -38 -364 36 17 17 25 58 20 111 -8 97 -22 90 267 125 186 23 661 56 734 51 24 -1 45 -22 53 -52z m57 -485 c2 -99 -33 -58 -46 53 -17 140 10 221 30 92 8 -49 15 -115 16 -145z m-219 120 c0 14 14 25 30 25 17 0 31 -11 32 -25 1 -20 3 -20 11 0 18 45 47 26 47 -30 1 -43 5 -48 20 -25 26 40 25 20 -2 -57 -16 -46 -34 -63 -69 -63 -25 0 -69 -9 -98 -20 -37 -14 -51 -13 -51 5 0 16 -6 17 -15 5 -8 -11 -73 -19 -145 -18 -169 4 -175 5 -140 30 27 19 27 20 0 12 -16 -4 -29 -24 -27 -42 2 -28 -14 -33 -105 -30 -59 3 -114 -1 -121 -8 -7 -7 -29 -4 -48 7 -24 12 -41 12 -49 -1 -7 -11 -23 -20 -36 -20 -14 0 -12 8 6 20 24 16 21 19 -15 20 -25 0 -44 -7 -43 -15 14 -85 -26 -83 -68 5 -59 123 -38 133 221 103 47 -6 85 -2 85 7 0 10 -16 18 -35 18 -77 1 -163 13 -175 25 -20 20 66 42 94 25 34 -22 115 -23 102 -1 -6 10 18 11 56 2 91 -20 131 -16 333 34 47 12 103 17 125 11 23 -6 40 0 40 13 0 13 9 10 20 -7 13 -20 19 -22 20 -5z m275 -692 c-20 -223 -124 -320 -340 -317 -118 1 -155 31 -45 35 37 1 37 3 -4 19 -24 10 -182 21 -350 24 l-306 6 0 50 c0 30 12 51 30 52 17 1 45 8 63 16 18 8 45 13 60 11 90 -12 237 4 237 26 0 17 35 25 105 26 272 2 535 70 535 140 0 16 6 29 13 29 7 0 8 -53 2 -117z m-49 -411 c-8 -49 -17 -66 -28 -49 -28 45 -46 0 -55 -136 -6 -108 -15 -134 -45 -142 -40 -10 -55 -105 -18 -105 11 0 20 9 20 20 0 11 17 37 37 57 37 37 38 33 28 -178 -6 -119 -3 -232 7 -252 12 -25 21 43 29 203 l11 240 4 -243 c5 -288 -42 -342 -129 -149 -23 51 -24 51 -25 -23 -2 -62 5 -75 38 -75 37 0 40 -13 40 -158 l0 -157 -108 -14 c-60 -7 -141 -7 -181 0 -71 13 -73 12 -60 -39 18 -71 -65 -73 -130 -3 -26 28 -55 45 -64 39 -9 -6 -17 24 -17 66 1 56 6 68 20 46 11 -16 20 -21 20 -10 0 11 19 -10 41 -48 30 -48 48 -61 63 -46 15 15 0 46 -51 106 -40 47 -73 92 -73 101 0 8 -57 56 -128 106 -91 65 -130 107 -137 146 -5 30 -60 190 -121 355 l-111 300 532 10 c432 8 533 15 541 38 7 20 -3 25 -33 17 -57 -15 -54 -3 12 54 67 58 89 33 71 -77z"/> <path d="M3900 3090 c0 -38 11 -51 45 -52 34 -2 36 -5 10 -12 -58 -15 -39 -48 20 -35 30 7 104 21 163 31 136 24 165 40 143 77 -15 24 -23 24 -51 1 -27 -22 -31 -22 -26 0 9 40 -67 50 -88 12 -23 -40 -56 -42 -56 -2 0 22 -22 30 -80 30 -72 0 -80 -5 -80 -50z"/> <path d="M4640 3097 c0 -40 -7 -42 -140 -32 -77 5 -140 2 -140 -8 0 -9 77 -17 170 -17 94 0 170 8 170 18 0 10 5 33 12 50 9 23 0 32 -30 32 -30 0 -42 -13 -42 -43z"/> <path d="M4725 2975 c-36 -91 -77 -205 -93 -255 -16 -49 -56 -162 -90 -250 -72 -186 -68 -170 -38 -170 50 0 195 187 196 251 0 84 53 257 120 389 90 180 92 200 26 200 -53 0 -62 -12 -121 -165z"/> <path d="M5145 3119 c-45 -18 -63 -59 -25 -59 10 0 49 18 85 40 70 43 31 56 -60 19z"/> <path d="M5210 3028 c-22 -17 -38 -39 -35 -49 3 -11 -8 -19 -25 -19 -16 0 -30 -8 -30 -17 0 -9 -24 -27 -53 -41 -90 -41 -34 -50 83 -13 86 27 107 41 90 60 -15 19 -12 33 10 51 64 53 27 80 -40 28z"/> <path d="M3730 2960 c-15 -70 5 -214 32 -231 10 -7 18 54 18 140 0 153 -26 200 -50 91z"/> <path d="M2033 2975 c8 -13 13 -51 11 -84 -3 -51 0 -55 17 -26 32 54 58 23 45 -54 -7 -44 0 -83 21 -112 l31 -45 11 48 c18 82 27 252 14 273 -20 29 -168 29 -150 0z"/> <path d="M0 2474 c0 -341 7 -516 21 -525 12 -7 17 -25 11 -40 -12 -33 75 -364 128 -485 22 -49 40 -92 40 -95 0 -3 -45 -11 -100 -19 -117 -16 -150 -97 -50 -122 65 -16 65 -48 0 -48 -31 0 -50 -11 -50 -30 0 -19 19 -30 52 -30 39 0 49 -8 40 -32 -7 -17 -13 -69 -14 -115 -3 -77 -4 -78 -16 -23 -9 40 -18 -16 -27 -167 -13 -243 7 -376 27 -173 l11 120 4 -141 c2 -100 -6 -153 -29 -185 -20 -29 -25 -54 -13 -70 10 -13 20 -46 23 -74 2 -27 6 -67 8 -88 2 -21 14 -42 26 -46 22 -7 48 506 48 959 0 298 45 305 186 30 52 -102 136 -265 188 -362 87 -164 95 -191 106 -364 14 -207 25 -235 72 -178 17 22 26 29 20 16 -7 -13 1 -28 16 -34 21 -7 28 8 28 58 0 38 -8 69 -17 69 -10 0 -13 -13 -6 -30 7 -18 0 -30 -16 -30 -21 0 -27 44 -26 195 1 107 -6 205 -15 217 -8 11 -18 40 -22 64 -3 24 -14 50 -23 58 -10 9 -11 3 -2 -14 8 -16 -4 -8 -26 20 -22 27 -36 54 -31 59 6 5 19 -3 29 -20 13 -21 18 -22 19 -3 0 14 -23 47 -50 72 -28 26 -50 54 -50 63 0 9 -13 31 -30 49 -16 18 -33 59 -37 92 -9 77 -58 165 -133 237 -54 52 -58 63 -32 82 50 37 33 197 -23 224 -35 17 -45 15 -45 -7 0 -32 -32 -37 -50 -8 -7 11 -3 20 9 20 11 0 21 14 21 31 0 17 -9 26 -20 19 -12 -7 -20 18 -20 62 0 41 -6 69 -13 62 -7 -8 -26 11 -41 41 -19 36 -21 57 -7 61 11 4 21 20 21 36 0 15 7 28 16 28 36 0 64 -52 64 -121 0 -91 17 -108 63 -66 47 43 47 48 -15 180 -47 99 -50 121 -33 209 16 82 14 98 -11 98 -47 0 -83 -63 -83 -147 -1 -62 -7 -75 -33 -65 -17 7 -33 12 -36 12 -18 0 17 812 35 825 33 21 57 18 43 -4 -6 -11 18 -17 59 -14 39 3 74 -4 79 -16 5 -13 9 -13 10 -1 2 20 63 21 192 5 33 -4 83 -2 110 5 52 13 -252 85 -475 112 l-105 13 0 -511z"/> <path d="M2300 2916 c1 -239 84 -405 93 -186 2 44 5 85 7 90 3 6 3 34 1 63 -3 36 6 52 27 50 16 -2 32 6 36 17 3 11 -32 23 -79 26 -84 6 -85 6 -85 -60z"/> <path d="M2589 2891 c-7 -48 -7 -98 0 -110 8 -12 8 -71 0 -131 l-14 -110 -92 12 c-83 10 -507 12 -515 2 -2 -2 -9 -25 -17 -50 l-14 -46 166 12 c92 7 221 15 287 19 66 4 207 13 312 22 193 15 309 3 289 -30 -12 -19 131 -40 312 -47 127 -4 168 -25 90 -45 -28 -7 -66 -36 -84 -64 -31 -46 -31 -50 -1 -39 35 14 44 -16 11 -37 -12 -7 -38 2 -58 20 -45 41 -73 -51 -35 -119 12 -22 24 -52 27 -67 5 -34 7 -35 65 -53 36 -11 43 -8 31 13 -9 15 1 13 23 -7 27 -24 48 -28 73 -14 26 15 32 13 24 -9 -6 -15 -31 -37 -55 -48 -40 -18 -38 -19 18 -17 41 1 60 11 53 27 -5 14 1 25 13 25 55 0 12 37 -93 79 -63 26 -118 50 -122 52 -3 3 38 63 92 132 154 197 143 214 -132 219 -98 1 -191 10 -205 19 -15 10 90 13 232 9 246 -7 250 -7 80 9 -99 10 -277 22 -396 27 -256 12 -232 -4 -236 150 -2 68 -10 124 -18 124 -7 0 -25 36 -40 80 -34 104 -54 101 -71 -9z"/> <path d="M4236 2885 l-6 -75 -130 0 c-130 0 -140 -4 -140 -60 0 -23 28 -31 125 -32 69 -2 109 -7 90 -12 -20 -5 -30 -18 -24 -28 8 -12 -7 -15 -36 -8 -46 12 -48 8 -53 -101 -3 -83 2 -111 21 -105 14 5 25 40 26 77 1 69 1 69 86 63 l85 -7 0 107 c0 58 6 140 13 181 10 60 6 75 -19 75 -22 0 -33 -23 -38 -75z"/> <path d="M4366 2801 c2 -87 11 -165 19 -173 22 -22 18 -52 -4 -38 -25 15 -36 -39 -49 -245 -12 -178 -4 -191 67 -116 42 44 46 67 43 209 l-4 159 55 7 c48 5 58 19 82 114 15 60 40 127 56 150 56 79 39 92 -121 92 l-149 0 5 -159z"/> <path d="M5984 2816 c-2 -29 -12 -58 -21 -64 -16 -10 -8 -253 9 -270 23 -23 29 30 23 200 -4 104 -9 164 -11 134z"/> <path d="M5700 2810 c0 -16 1 -36 1 -44 1 -8 -11 -19 -27 -25 -34 -13 -174 -176 -174 -203 0 -10 -18 -18 -40 -18 -25 0 -40 -14 -41 -35 0 -40 -51 -114 -80 -117 -10 -2 -27 -4 -36 -5 -10 -2 -24 -31 -30 -64 -7 -34 -21 -56 -31 -50 -11 6 -25 3 -32 -9 -7 -11 6 -20 29 -20 48 0 111 57 130 118 8 23 22 42 32 42 11 0 19 9 19 19 0 25 96 121 121 121 10 0 19 7 19 16 0 9 33 52 74 95 40 43 76 91 78 106 3 14 21 44 40 65 33 36 32 38 -9 38 -25 0 -43 -13 -43 -30z"/> <path d="M3815 2806 c-19 -33 -17 -303 2 -314 32 -20 41 12 47 168 4 133 -18 201 -49 146z"/> <path d="M3742 2656 c-1 -29 -11 -76 -22 -105 -16 -43 -13 -51 16 -51 29 0 35 14 29 75 -11 109 -20 143 -23 81z"/> <path d="M5880 2431 c0 -16 -18 -46 -39 -66 -39 -36 -39 -37 0 -61 31 -19 39 -19 39 1 0 15 18 41 40 60 22 19 34 47 27 64 -15 39 -67 40 -67 2z"/> <path d="M4034 2420 c-39 -109 -28 -161 40 -193 37 -18 72 -28 77 -22 12 11 -27 119 -48 135 -8 5 -24 33 -36 60 -17 37 -25 42 -33 20z"/> <path d="M3033 2407 c-7 -8 -13 -124 -13 -258 l0 -244 -91 -2 c-50 -1 -99 -7 -110 -13 -10 -7 -19 6 -19 29 0 22 -9 42 -20 44 -11 1 -29 4 -40 7 -11 3 -30 6 -41 8 -12 1 -16 11 -9 22 7 11 3 20 -7 20 -11 0 -26 -18 -33 -40 -13 -41 -70 -57 -70 -20 0 11 14 20 30 20 17 0 30 18 30 40 0 51 -32 52 -60 1 -24 -45 -79 -34 -82 16 -1 25 -4 26 -12 5 -9 -21 -21 -16 -51 20 -26 33 -35 37 -27 13 7 -23 0 -35 -19 -35 -16 0 -29 13 -29 29 0 19 -12 25 -31 18 -46 -18 120 -161 222 -192 99 -29 285 -100 342 -129 54 -28 82 -29 205 -9 144 24 279 -11 326 -84 15 -24 399 133 437 179 33 39 -17 55 -125 41 -48 -6 -99 -12 -116 -12 -27 -1 -27 -4 0 -21 22 -14 7 -19 -55 -20 -47 0 -85 -9 -85 -20 0 -11 -18 -20 -40 -20 -22 0 -38 11 -35 24 3 13 -13 27 -35 32 -22 5 -45 17 -51 27 -7 10 -56 10 -120 0 -93 -16 -99 -19 -36 -21 44 -1 77 -14 84 -32 12 -30 -28 -42 -54 -16 -25 24 -81 24 -110 0 -25 -21 -28 19 -18 291 9 291 4 338 -32 302z"/> <path d="M2794 2387 c-29 -28 -12 -47 41 -47 70 1 145 20 145 39 0 18 -168 26 -186 8z"/> <path d="M3498 2258 c-57 -66 -100 -122 -96 -125 33 -23 521 -215 533 -210 197 88 224 213 60 286 l-105 46 -5 -62 c-9 -104 -25 -153 -48 -153 -14 0 -19 40 -13 118 l8 119 -115 50 -116 50 -103 -119z"/> <path d="M2710 2300 c-7 -12 -23 -15 -34 -7 -13 8 -16 4 -8 -10 17 -27 132 -31 132 -5 0 10 -14 23 -32 30 -41 16 -43 15 -58 -8z"/> <path d="M5966 2275 c-12 -25 -22 -71 -24 -103 -1 -33 -13 -73 -27 -90 -38 -48 -77 -122 -85 -159 -14 -69 -50 -143 -70 -143 -25 0 -25 -21 1 -60 24 -36 119 64 119 125 0 19 9 35 20 35 11 0 20 18 20 40 0 22 18 58 40 80 32 32 40 67 40 180 0 153 -3 162 -34 95z"/> <path d="M2145 2226 c-33 -12 -32 -46 1 -46 14 0 41 -18 59 -40 43 -50 68 -51 94 -1 33 60 27 91 -11 59 -44 -36 -88 -40 -88 -7 0 33 -22 47 -55 35z"/> <path d="M3580 1978 c0 -12 -14 -17 -31 -10 -19 7 -26 3 -18 -10 7 -11 25 -16 39 -11 14 5 58 3 98 -6 92 -21 92 -10 0 29 -87 36 -88 36 -88 8z"/> <path d="M4901 1962 c-17 -32 -14 -37 19 -28 30 8 40 1 40 -29 0 -22 14 -51 30 -65 17 -14 30 -38 30 -53 0 -16 14 -33 30 -40 17 -6 30 -19 30 -30 0 -33 207 -295 225 -284 9 6 3 32 -14 58 -17 26 -31 61 -31 78 0 17 -8 31 -18 31 -11 0 -25 28 -33 63 -13 60 -24 79 -84 146 -14 16 -25 37 -25 48 0 109 -153 190 -199 105z"/> <path d="M4668 1934 c-34 -20 -18 -54 25 -54 17 0 47 -20 68 -45 l38 -45 0 45 c1 26 13 45 31 45 17 0 30 9 30 20 0 11 -13 20 -30 20 -16 0 -30 8 -30 18 0 21 -91 19 -132 -4z"/> <path d="M5981 1850 c-3 -11 -4 -40 -2 -65 2 -25 -6 -45 -19 -45 -12 0 -16 -10 -9 -22 25 -39 52 14 44 84 -5 38 -11 59 -14 48z"/> <path d="M4620 1790 c-14 -17 -22 -35 -17 -40 14 -14 157 35 157 53 0 29 -114 18 -140 -13z"/> <path d="M3940 1735 c0 -25 18 -57 40 -70 45 -29 50 -10 17 64 -29 63 -57 66 -57 6z"/> <path d="M5580 1719 c0 -12 8 -16 18 -10 24 15 82 -8 82 -33 0 -21 50 -76 69 -76 7 0 2 19 -10 42 -12 22 -17 54 -11 70 8 21 -8 28 -69 28 -43 0 -79 -10 -79 -21z"/> <path d="M4820 1668 c0 -11 -23 -21 -52 -24 -66 -5 -137 -42 -83 -43 19 -1 53 -19 75 -41 22 -22 47 -38 55 -35 8 3 18 -15 21 -40 4 -25 23 -54 44 -65 20 -11 52 -35 71 -54 42 -42 24 34 -24 103 -15 22 -27 56 -27 75 0 39 -66 82 -92 60 -9 -8 -4 2 11 21 14 20 21 42 14 49 -7 7 -13 4 -13 -6z"/> <path d="M3150 1620 c-44 -21 -105 -38 -135 -39 -68 -1 -74 -41 -7 -41 27 0 65 -5 85 -12 31 -10 32 -8 7 10 -26 18 -25 21 5 22 20 0 52 10 73 23 39 25 112 9 94 -20 -14 -22 76 -63 139 -63 27 0 49 -8 49 -18 0 -10 -20 -14 -45 -10 -25 5 -34 3 -20 -3 14 -7 25 -21 25 -32 0 -11 -8 -14 -18 -8 -9 6 -28 -2 -41 -17 -29 -36 13 -55 64 -29 24 13 35 11 35 -7 1 -19 5 -19 18 2 16 25 22 25 46 0 40 -41 45 -158 6 -158 -16 0 -30 13 -30 29 0 46 -57 14 -64 -35 -8 -54 -69 -69 -82 -20 -8 30 -10 28 -12 -7 -4 -87 -256 -110 -927 -85 -370 14 -343 -3 -349 210 -5 184 -12 208 -60 208 -26 0 -29 -17 -17 -105 27 -204 36 -286 37 -360 1 -87 5 -90 53 -31 39 48 217 53 661 21 105 -8 235 -12 291 -9 l101 4 -5 -135 c-9 -246 -7 -369 7 -391 7 -13 11 -54 8 -93 -3 -39 -7 -107 -9 -151 l-3 -80 -270 -6 c-306 -7 -566 11 -549 38 6 10 33 18 60 18 27 0 49 10 49 22 0 14 -24 19 -59 14 -63 -9 -142 80 -87 99 17 5 12 28 -15 77 -26 47 -36 90 -28 132 7 40 1 69 -15 79 -20 13 -20 16 -1 17 14 0 25 10 25 21 0 12 -7 17 -15 12 -8 -5 -16 18 -17 51 -1 32 4 49 12 37 9 -16 21 -14 39 8 14 17 39 31 55 31 164 0 209 131 50 145 -174 14 -287 -3 -275 -43 5 -17 11 -185 14 -372 3 -187 9 -360 13 -384 8 -43 16 -44 331 -49 770 -12 755 -14 756 56 1 129 -11 307 -21 307 -7 0 -12 125 -12 278 l0 279 65 7 c37 5 65 -1 65 -13 0 -12 10 -7 22 9 16 23 24 24 31 5 14 -35 48 -31 77 8 13 18 48 36 78 39 30 3 78 29 106 57 28 28 60 51 72 51 11 0 31 16 45 35 14 19 33 28 41 20 26 -27 6 -1031 -24 -1173 -9 -44 -5 -46 51 -35 62 12 91 -31 36 -54 -14 -5 -2 -11 25 -11 56 -2 88 250 40 308 -12 15 -22 109 -23 213 0 103 -10 198 -21 212 -16 19 -11 25 19 25 51 0 65 36 65 164 0 97 2 100 50 88 43 -11 50 -6 50 37 0 48 6 50 95 46 154 -8 150 104 -7 180 -67 33 -108 66 -108 87 0 65 -113 61 -285 -11 -127 -53 -145 -44 -206 99 -57 136 -109 203 -109 142 0 -45 -31 -40 -79 12 -53 57 -93 60 -191 16z"/> <path d="M4390 1608 c-79 -46 -80 -47 -92 -192 -7 -80 -9 -150 -4 -155 17 -19 45 51 46 112 0 44 14 72 50 95 130 85 130 215 0 140z"/> <path d="M2829 1619 c-19 -32 2 -44 50 -29 23 7 36 21 30 31 -15 26 -64 24 -80 -2z"/> <path d="M5953 1525 c-20 -118 -15 -160 17 -172 25 -10 30 11 30 118 0 141 -28 173 -47 54z"/> <path d="M4153 1471 c-63 -59 -67 -78 -13 -61 28 9 40 4 40 -19 0 -17 14 -31 30 -31 22 0 30 22 30 80 0 93 -15 98 -87 31z"/> <path d="M3026 1447 c-24 -16 -55 -33 -70 -36 -14 -2 -51 -15 -82 -28 -100 -41 -154 -49 -154 -23 0 13 13 19 29 13 17 -6 36 -2 43 10 7 12 -6 18 -35 14 -26 -4 -47 -20 -47 -37 0 -31 55 -50 96 -34 13 5 33 8 44 6 19 -2 22 -10 28 -67 1 -14 16 -25 33 -25 17 0 35 -25 42 -60 16 -81 36 -89 75 -31 40 62 40 67 -3 64 -22 -2 -34 10 -32 33 2 23 -7 33 -23 27 -37 -14 -56 45 -24 73 36 34 158 97 145 76 -6 -10 7 -22 29 -28 22 -6 35 -2 29 8 -6 10 5 18 25 19 29 0 26 6 -14 29 -63 36 -79 35 -134 -3z"/> <path d="M4514 1407 c-16 -15 22 -67 48 -67 10 0 18 18 18 40 0 38 -39 54 -66 27z"/> <path d="M3291 1322 c-36 -14 -36 -16 -2 -29 20 -7 48 -4 63 8 14 13 36 17 47 10 12 -8 21 -4 21 8 0 24 -71 26 -129 3z"/> <path d="M3147 1256 c-5 -9 0 -16 11 -16 11 0 15 -16 9 -35 -11 -30 -8 -30 17 3 17 21 40 32 53 24 14 -9 19 -4 12 13 -11 28 -86 37 -102 11z"/> <path d="M5460 1258 c-567 -104 -980 -134 -980 -71 0 15 -6 15 -21 0 -16 -16 -12 -44 10 -98 22 -52 25 -83 11 -97 -26 -26 -26 -112 0 -112 11 0 20 -31 20 -70 0 -38 10 -70 22 -70 14 0 19 27 14 69 -5 45 1 73 18 80 14 5 26 2 26 -8 0 -10 6 -33 13 -53 10 -23 6 -30 -10 -20 -12 8 -23 5 -23 -7 0 -11 9 -21 20 -21 11 0 19 -50 18 -115 -2 -63 -7 -99 -12 -79 -6 23 -21 33 -39 25 -17 -6 -39 -11 -50 -11 -32 0 -3 -226 32 -252 40 -29 40 -48 0 -48 -23 0 -28 -12 -18 -42 7 -25 4 -49 -9 -57 -14 -9 -18 -47 -9 -107 l12 -94 148 0 c81 0 147 4 147 9 0 58 -114 344 -161 403 -54 67 -58 79 -30 100 17 12 31 44 32 70 1 91 55 136 99 83 30 -38 63 -47 193 -57 87 -7 175 -22 197 -33 34 -19 37 -17 15 9 -22 26 -17 27 43 9 38 -12 63 -31 56 -42 -6 -11 13 0 45 24 31 25 68 45 81 45 16 0 22 23 17 65 -4 36 -2 79 5 95 21 49 27 160 10 160 -18 0 -41 -116 -42 -205 0 -36 -11 -55 -31 -55 -17 0 -26 -8 -20 -19 6 -10 1 -25 -12 -33 -14 -9 -18 -6 -9 9 10 16 -21 21 -108 18 -90 -4 -126 3 -140 25 -11 17 -20 21 -20 10 -1 -11 -10 -5 -21 14 -11 19 -32 30 -47 24 -32 -12 -59 45 -30 63 12 8 13 22 2 36 -48 61 31 153 131 154 146 1 307 13 390 29 54 10 75 8 75 -10 0 -19 7 -19 28 -2 21 18 30 16 39 -7 6 -17 28 -30 47 -29 27 2 28 5 6 11 -33 9 -52 267 -19 267 23 0 47 -171 28 -202 -11 -17 -3 -21 27 -13 24 6 52 -1 65 -16 34 -41 83 -13 66 38 -8 24 -16 79 -18 123 -6 105 -99 130 -329 88z m-830 -275 c14 -84 13 -86 -28 -64 -23 12 -42 32 -42 43 0 11 9 15 20 8 11 -7 20 -3 20 8 0 11 -8 24 -17 30 -10 6 -13 35 -8 64 13 67 35 32 55 -89z m171 122 c2 -41 56 -210 58 -180 0 19 9 35 20 35 10 0 13 -31 7 -69 -20 -125 7 -206 75 -221 46 -10 87 -50 52 -50 -95 0 -173 96 -173 213 0 26 -8 47 -18 47 -25 0 -88 194 -72 220 14 23 50 27 51 5z m-159 -419 c-18 -31 -21 -29 -21 17 -1 84 27 142 35 73 4 -30 -3 -71 -14 -90z"/> <path d="M4284 1136 c6 -41 47 -51 151 -38 24 3 -102 82 -131 82 -16 0 -24 -18 -20 -44z"/> <path d="M2524 996 c-13 -13 -24 -35 -24 -48 0 -52 154 -68 173 -18 26 69 -93 122 -149 66z"/> <path d="M2803 957 c4 -26 16 -45 27 -42 30 7 24 70 -7 81 -18 6 -24 -6 -20 -39z"/> <path d="M5626 930 c-147 -36 -246 -170 -126 -170 51 0 50 -16 -5 -77 -25 -27 -33 -42 -18 -34 21 12 24 6 14 -25 -15 -48 6 -144 32 -144 10 0 12 22 6 48 -10 37 -2 54 31 72 54 29 66 19 45 -38 -9 -25 -12 -93 -5 -152 6 -59 7 -106 1 -105 -6 1 -24 -4 -41 -10 -16 -7 -57 -21 -90 -33 l-60 -22 74 6 c40 3 69 -1 64 -8 -4 -8 2 -18 15 -22 13 -5 26 -30 30 -57 6 -38 3 -42 -13 -19 -11 17 -20 21 -20 10 -1 -11 -14 -3 -29 17 -40 53 -109 27 -102 -38 6 -58 -25 -87 -51 -47 -14 21 -22 22 -34 4 -8 -13 -53 -30 -100 -38 -130 -20 -121 -48 15 -48 83 0 121 8 121 25 1 17 7 15 20 -5 11 -17 20 -21 20 -9 0 11 27 36 60 56 35 20 60 26 60 14 0 -12 -13 -27 -30 -34 -62 -24 -26 -47 72 -47 94 0 102 3 92 42 -10 36 -5 40 39 29 66 -17 287 9 287 33 0 10 -69 17 -155 14 -154 -5 -155 -4 -161 48 -14 112 51 162 125 98 22 -20 75 -51 116 -70 l75 -33 0 65 c0 60 -10 71 -111 120 -98 48 -110 60 -97 99 8 25 27 90 42 145 16 55 34 117 40 138 9 29 6 34 -16 21 -23 -14 -24 -11 -3 14 34 42 10 60 -65 46 -44 -9 -70 -3 -89 20 -33 39 -22 51 52 60 31 3 63 7 71 9 8 1 10 16 3 32 -13 35 -58 35 -201 0z m163 -169 c19 -30 -25 -44 -69 -21 -61 32 -48 -6 15 -45 53 -33 54 -34 9 -34 -26 -1 -41 8 -34 19 7 11 3 20 -8 20 -11 0 -19 -16 -18 -35 1 -19 -1 -44 -4 -55 -17 -68 1 -111 39 -91 40 22 54 11 52 -39 0 -16 -21 -33 -46 -36 -33 -5 -46 -21 -48 -60 -1 -30 -12 40 -25 156 -15 148 -29 209 -47 205 -14 -3 -25 4 -25 15 0 25 194 27 209 1z"/> <path d="M4119 875 c-15 -151 -19 -875 -4 -875 22 0 55 347 36 378 -32 52 11 72 139 65 122 -6 172 16 100 44 -16 7 -30 27 -30 46 0 32 -2 31 -27 -2 -36 -50 -101 -27 -83 29 9 27 4 40 -16 40 -44 0 -37 95 9 106 20 6 33 3 27 -6 -5 -9 6 -22 25 -29 18 -7 28 -7 20 1 -7 7 9 52 36 98 44 75 46 87 18 98 -30 11 -248 18 -250 7z"/> <path d="M4965 835 c3 -43 28 -74 60 -75 28 0 15 56 -16 68 -17 6 -26 21 -19 32 7 11 3 20 -8 20 -11 0 -18 -20 -17 -45z"/> <path d="M5283 807 c-29 -32 -20 -52 27 -59 18 -3 27 10 23 33 -8 54 -19 59 -50 26z"/> <path d="M4675 550 c5 -28 24 -51 42 -52 35 -1 62 -6 163 -28 92 -20 62 14 -67 77 -133 66 -150 66 -138 3z"/> <path d="M5355 583 c17 -11 3 -26 -47 -50 -84 -40 -81 -65 4 -32 83 31 112 100 42 99 -18 -1 -17 -5 1 -17z"/> <path d="M5375 495 c-18 -22 -27 -52 -21 -68 6 -17 0 -26 -14 -23 -14 3 -29 -4 -33 -16 -5 -13 11 -21 37 -20 34 2 45 14 42 45 -3 24 11 49 33 59 29 14 32 23 13 40 -19 17 -33 13 -57 -17z"/> <path d="M5420 419 c0 -12 10 -15 21 -8 12 7 39 -3 60 -22 37 -34 39 -33 39 8 0 34 -12 43 -60 43 -33 0 -60 -10 -60 -21z"/> <path d="M4840 384 c0 -47 38 -84 72 -70 20 7 28 -7 28 -49 0 -67 0 -66 220 -65 222 2 229 4 236 79 6 59 3 63 -40 50 -73 -23 -134 -69 -90 -69 18 0 34 -9 34 -20 0 -33 -60 -23 -74 12 -8 23 -28 29 -71 20 -67 -13 -155 4 -155 30 0 10 44 18 98 18 209 0 220 49 12 53 -177 3 -210 8 -210 30 0 10 -13 17 -30 17 -16 0 -30 -16 -30 -36z"/> <path d="M4335 292 c-39 -29 -52 -252 -15 -252 28 0 47 91 34 169 -10 60 -7 65 33 55 38 -10 40 -7 16 23 -16 18 -29 33 -30 32 -2 0 -19 -12 -38 -27z"/> <path d="M225 105 c-54 -4 -81 -15 -73 -29 9 -14 -15 -18 -69 -13 -69 7 -83 2 -83 -27 0 -33 28 -36 365 -35 308 0 360 4 330 27 -19 14 -35 41 -35 59 0 33 -183 41 -435 18z"/> </g> </svg> 