<?xml version="1.0" standalone="no"?>
<!DOCTYPE svg PUBLIC "-//W3C//DTD SVG 20010904//EN"
 "http://www.w3.org/TR/2001/REC-SVG-20010904/DTD/svg10.dtd">
<svg version="1.0" xmlns="http://www.w3.org/2000/svg"
 width="224.000000pt" height="225.000000pt" viewBox="0 0 224.000000 225.000000"
 preserveAspectRatio="xMidYMid meet">
<metadata>
Created by potrace 1.10, written by Peter Selinger 2001-2011
</metadata>
<g transform="translate(0.000000,225.000000) scale(0.100000,-0.100000)"
fill="#247053" stroke="none">
<path d="M0 1125 l0 -1125 1120 0 1120 0 0 1125 0 1125 -1120 0 -1120 0 0
-1125z m1331 949 c85 -17 126 -32 235 -88 90 -46 131 -76 214 -158 71 -69 142
-148 133 -148 -7 0 29 -63 48 -83 10 -11 21 -34 25 -51 4 -17 17 -55 30 -85
13 -29 24 -62 24 -72 0 -11 5 -19 10 -19 6 0 10 -35 11 -82 0 -60 3 -77 10
-63 6 13 8 -8 4 -65 -8 -154 -18 -240 -26 -240 -5 0 -5 -7 -2 -17 5 -12 3 -14
-7 -8 -9 5 -11 4 -6 -4 4 -6 2 -18 -4 -26 -6 -8 -9 -23 -5 -34 3 -12 0 -23 -8
-28 -8 -4 -22 -29 -32 -55 -14 -39 -15 -51 -5 -63 9 -10 9 -15 1 -15 -6 0 -11
5 -11 10 0 6 -4 10 -10 10 -12 0 -14 -26 -2 -33 4 -2 2 -2 -5 -1 -17 4 -56
-53 -49 -71 3 -9 0 -12 -10 -8 -7 3 -14 0 -14 -6 0 -7 -11 -24 -24 -38 -14
-15 -23 -30 -20 -35 3 -4 -2 -5 -10 -2 -22 9 -22 9 20 57 62 71 139 220 173
334 29 98 44 272 31 363 -19 133 -95 360 -120 360 -4 0 -11 11 -14 25 -4 14
-22 42 -41 62 -19 21 -35 40 -35 44 0 14 -159 162 -198 183 -9 5 -19 12 -22
15 -11 13 -159 82 -217 100 -85 28 -117 33 -283 37 -135 4 -153 2 -250 -25
-58 -15 -114 -31 -125 -35 -20 -8 -20 -7 -1 8 11 9 28 16 38 16 10 0 18 5 18
11 0 5 4 7 10 4 5 -3 19 -1 30 5 12 6 38 13 58 16 20 3 62 9 92 14 75 12 239
5 341 -16z m76 10 c-3 -3 -12 -4 -19 -1 -8 3 -5 6 6 6 11 1 17 -2 13 -5z m113
-34 c0 -5 -5 -10 -11 -10 -5 0 -7 5 -4 10 3 6 8 10 11 10 2 0 4 -4 4 -10z
m-287 -27 c-7 -2 -19 -2 -25 0 -7 3 -2 5 12 5 14 0 19 -2 13 -5z m-513 -23 c0
-5 -2 -10 -4 -10 -3 0 -8 5 -11 10 -3 6 -1 10 4 10 6 0 11 -4 11 -10z m-30
-14 c0 -11 -19 -15 -25 -6 -3 5 1 10 9 10 9 0 16 -2 16 -4z m-54 -33 c-10 -10
-19 5 -10 18 6 11 8 11 12 0 2 -7 1 -15 -2 -18z m-26 -13 c0 -5 -8 -10 -17
-10 -15 0 -16 2 -3 10 19 12 20 12 20 0z m-49 -29 c-6 -10 -21 -25 -34 -34
-13 -9 -31 -23 -40 -31 -9 -9 -18 -12 -21 -7 -3 5 1 12 10 15 10 4 13 13 9 28
-4 16 -3 19 3 9 11 -15 39 -4 62 23 17 22 23 20 11 -3z m316 13 c-3 -3 -12 -4
-19 -1 -8 3 -5 6 6 6 11 1 17 -2 13 -5z m402 -21 c159 -33 285 -104 409 -232
39 -41 72 -78 72 -82 0 -3 16 -32 35 -64 46 -77 82 -190 95 -300 18 -146 -8
-283 -82 -433 -28 -56 -54 -102 -58 -102 -4 0 -10 9 -13 20 -3 11 -1 18 3 15
5 -3 11 9 15 26 6 24 9 28 17 18 7 -10 8 -5 3 15 -5 23 -3 27 10 22 9 -3 13
-2 10 3 -3 5 -1 12 5 16 14 9 12 52 -2 59 -7 3 -4 4 7 3 16 -2 22 7 32 43 6
25 12 61 12 80 1 19 8 53 15 75 8 24 10 42 5 46 -5 3 -9 32 -10 65 0 103 -1
117 -10 102 -6 -8 -9 4 -9 32 0 25 -7 56 -16 68 -9 13 -14 32 -11 42 3 12 0
17 -8 13 -10 -3 -12 2 -8 18 4 15 3 20 -5 15 -8 -5 -12 1 -12 18 0 14 -4 28
-10 31 -5 3 -8 0 -6 -7 2 -7 7 -29 10 -48 4 -26 3 -31 -4 -18 -6 9 -11 35 -12
57 -1 43 -6 49 -26 29 -8 -8 -12 -9 -12 -1 0 6 6 13 12 15 9 3 8 12 -5 31 -10
16 -23 24 -32 21 -8 -4 -15 -1 -15 6 0 6 5 8 10 5 19 -12 10 2 -29 43 -30 32
-41 38 -52 29 -11 -10 -11 -9 -1 4 10 14 7 20 -21 42 -27 20 -37 23 -47 14
-10 -10 -12 -8 -7 5 5 14 -3 20 -33 29 -22 7 -37 16 -34 20 3 5 -2 9 -11 9
-10 0 -13 5 -9 12 4 7 3 8 -5 4 -6 -4 -22 -1 -35 8 -13 8 -32 15 -42 14 -11 0
-32 3 -48 7 -21 6 -27 5 -22 -4 4 -6 2 -11 -3 -11 -18 0 -12 28 7 33 9 2 1 4
-18 5 -203 2 -305 0 -314 -6 -6 -3 -20 -5 -31 -4 -17 2 -18 1 -5 -8 12 -9 10
-11 -10 -9 -25 2 -40 -2 -97 -27 -37 -17 -46 -18 -38 -4 4 6 -1 7 -11 3 -11
-4 -13 -8 -6 -11 7 -2 9 -9 5 -15 -4 -7 0 -8 13 -3 14 5 16 4 8 -4 -9 -9 -17
-9 -34 0 -17 9 -25 9 -34 -1 -8 -9 -8 -10 4 -4 13 8 13 7 1 -8 -14 -18 -36
-24 -26 -7 3 6 -1 7 -10 4 -9 -4 -13 -9 -10 -12 3 -3 -9 -14 -26 -24 -19 -12
-29 -24 -25 -33 3 -8 0 -17 -6 -21 -7 -4 -8 -3 -4 4 14 23 -13 11 -40 -17 -15
-17 -31 -28 -35 -25 -4 2 -5 -6 -1 -18 3 -14 1 -19 -6 -14 -12 7 -48 -39 -78
-99 -10 -22 -25 -46 -31 -53 -7 -7 -13 -24 -13 -38 0 -13 -3 -24 -7 -24 -5 0
-13 -11 -20 -25 -6 -14 -7 -23 -2 -19 5 3 9 -2 9 -11 0 -10 -5 -13 -12 -9 -8
5 -9 -2 -5 -26 6 -25 4 -31 -7 -27 -12 5 -14 -13 -12 -111 2 -64 7 -126 11
-137 5 -16 5 -17 -4 -5 -6 8 -11 10 -11 5 0 -6 4 -15 9 -20 10 -12 36 -134 33
-152 -4 -19 26 -15 37 4 5 10 13 15 17 11 4 -4 -4 -17 -17 -28 -19 -16 -21
-21 -10 -29 7 -5 11 -13 7 -19 -3 -5 2 -16 12 -23 16 -13 16 -13 2 6 -14 19
-14 19 3 6 10 -8 16 -20 13 -26 -2 -7 2 -24 9 -38 10 -19 12 -49 8 -104 -5
-55 -8 -71 -14 -55 -12 31 -16 27 -11 -8 2 -16 8 -27 13 -24 12 7 11 -7 -1
-26 -8 -13 -10 -12 -10 3 0 9 -5 17 -10 17 -6 0 -8 -10 -4 -24 3 -14 0 -29
-10 -39 -9 -8 -16 -17 -16 -19 0 -10 43 -5 68 8 32 17 67 20 42 4 -17 -11 -10
-13 14 -4 9 3 14 9 12 13 -3 4 12 8 32 9 20 2 41 7 47 11 32 25 109 4 167 -46
9 -8 22 -13 30 -12 7 1 30 -6 52 -15 45 -20 155 -32 279 -29 105 1 127 4 120
16 -3 5 3 7 13 5 11 -3 31 1 46 9 15 7 35 10 45 7 10 -3 7 2 -7 10 -14 8 -22
15 -18 16 3 0 15 3 25 6 15 5 16 4 3 -5 -11 -8 -3 -10 34 -7 27 3 53 9 58 14
6 6 -1 8 -16 7 -14 -2 -29 1 -32 6 -3 5 -2 8 3 7 17 -4 83 13 83 22 0 6 5 10
11 10 5 0 7 -4 4 -10 -4 -6 1 -7 11 -3 14 5 14 8 -6 23 -21 16 -20 48 1 34 5
-3 7 -9 4 -14 -3 -4 2 -13 11 -20 13 -12 14 -10 10 13 -4 24 -2 25 19 17 25
-10 38 -3 28 14 -15 23 -11 34 12 30 19 -3 23 0 22 16 -1 23 -8 25 -27 7 -12
-10 -12 -9 -1 5 13 18 35 19 60 4 9 -6 12 -5 8 1 -4 6 0 16 7 22 11 9 16 9 21
0 5 -7 -17 -36 -53 -72 -55 -55 -62 -59 -79 -46 -16 13 -17 12 -5 -2 10 -14 7
-20 -26 -42 -68 -45 -159 -86 -239 -109 -117 -33 -297 -30 -413 5 -77 24 -167
64 -196 88 -7 6 -67 -6 -160 -30 -82 -22 -150 -38 -151 -37 -1 1 4 19 11 39 7
20 16 34 20 30 4 -4 4 0 1 8 -3 9 6 59 20 113 l26 97 -35 57 c-19 31 -47 92
-61 135 -159 480 166 978 670 1025 92 9 132 7 234 -15z m170 17 c-10 -7 -49
-2 -49 5 0 2 14 3 31 3 17 -1 25 -4 18 -8z m-789 -24 c0 -3 -4 -8 -10 -11 -5
-3 -10 -1 -10 4 0 6 5 11 10 11 6 0 10 -2 10 -4z m936 -23 c-10 -10 -19 5 -10
18 6 11 8 11 12 0 2 -7 1 -15 -2 -18z m-559 1 c-3 -3 -12 -4 -19 -1 -8 3 -5 6
6 6 11 1 17 -2 13 -5z m172 -3 c10 -6 -1 -8 -30 -4 -24 3 -46 7 -48 9 -10 9
65 3 78 -5z m-749 -46 c0 -2 -20 -26 -45 -51 -25 -26 -47 -56 -51 -66 -3 -10
-12 -18 -19 -18 -8 0 -17 -11 -21 -25 -3 -14 -10 -25 -15 -25 -12 0 13 47 45
85 14 17 40 47 58 68 28 33 48 46 48 32z m215 -5 c3 -6 -1 -7 -9 -4 -18 7 -21
14 -7 14 6 0 13 -4 16 -10z m922 -22 c-3 -7 -5 -2 -5 12 0 14 2 19 5 13 2 -7
2 -19 0 -25z m241 7 c-3 -3 -9 2 -12 12 -6 14 -5 15 5 6 7 -7 10 -15 7 -18z
m-1061 -31 c-3 -3 -12 -4 -19 -1 -8 3 -5 6 6 6 11 1 17 -2 13 -5z m888 -13 c3
-5 0 -13 -6 -17 -7 -4 -9 -3 -5 4 3 5 0 13 -6 15 -9 4 -10 6 -1 6 6 1 14 -3
18 -8z m-79 -36 c16 -12 16 -14 3 -15 -9 0 -22 7 -29 15 -16 19 0 19 26 0z
m167 -66 c-6 -6 -17 -1 -29 13 l-19 23 24 -20 c20 -16 23 -17 18 -3 -3 9 -3
19 1 23 4 4 9 -1 10 -10 2 -9 0 -21 -5 -26z m-1482 -99 c-17 -33 -31 -67 -31
-74 0 -8 -5 -16 -10 -18 -10 -3 -16 -24 -25 -78 -2 -14 -8 -47 -14 -73 -42
-182 -11 -408 80 -589 29 -58 29 -58 13 -110 -9 -29 -18 -60 -21 -68 -9 -25
-75 -274 -75 -287 -2 -17 -18 -17 -18 0 0 6 5 28 11 47 6 19 16 60 23 90 18
77 20 84 27 90 4 3 9 23 12 45 2 22 12 54 21 70 18 34 21 71 6 80 -6 3 -10 15
-10 26 0 10 -4 19 -10 19 -5 0 -10 10 -10 23 0 12 -7 31 -15 41 -8 11 -15 31
-15 45 0 21 -2 23 -11 11 -8 -12 -9 -9 -5 13 4 15 2 27 -3 27 -5 0 -9 10 -9
23 1 12 1 38 -1 57 -2 27 -4 31 -10 16 -13 -33 -13 280 0 326 7 24 13 52 15
63 8 51 17 90 23 95 10 8 48 83 56 109 8 25 27 52 33 46 2 -2 -10 -31 -27 -65z
m584 40 c-11 -5 -14 -9 -8 -9 7 -1 28 -16 47 -34 27 -27 32 -37 24 -52 -8 -13
-8 -16 2 -10 12 7 30 -10 30 -30 0 -5 -5 -3 -10 5 -13 20 -12 7 2 -27 6 -15
10 -34 9 -42 -1 -7 2 -10 8 -7 13 8 25 -55 16 -83 -3 -12 -19 -35 -35 -53 -28
-31 -30 -42 -12 -88 l10 -25 10 25 c10 24 10 24 10 -7 -1 -19 -5 -30 -11 -26
-6 4 -7 1 -3 -6 5 -7 15 -10 23 -7 8 3 11 1 8 -5 -8 -13 13 -39 28 -35 7 1 9
1 5 -1 -17 -10 -7 -25 13 -20 17 5 18 3 7 -11 -7 -9 -8 -13 -2 -9 7 4 17 0 23
-7 24 -29 -10 -28 -41 0 -42 40 -128 156 -128 173 0 7 16 31 35 52 52 57 52
72 4 185 -52 123 -61 134 -111 134 -65 0 -108 -35 -149 -119 -29 -62 -24 -173
12 -251 56 -120 191 -276 335 -389 19 -15 127 -69 166 -82 20 -7 34 -17 31
-22 -3 -6 -1 -7 5 -3 6 4 39 0 73 -9 84 -22 142 -17 208 19 30 16 51 23 46 16
-5 -8 -4 -11 3 -6 6 4 8 14 5 23 -4 11 -2 14 8 11 19 -6 24 -38 6 -38 -8 0
-26 -9 -39 -20 -14 -10 -28 -16 -32 -13 -3 3 -6 1 -6 -5 0 -6 -7 -9 -15 -6
-25 10 -17 -4 13 -21 15 -9 18 -13 7 -9 -11 3 -60 8 -110 11 -67 3 -114 12
-190 37 -55 19 -113 33 -128 31 -16 -2 -26 -1 -23 3 3 3 -6 14 -21 24 -16 10
-23 18 -16 18 6 0 14 -4 18 -9 3 -6 13 -9 23 -9 9 0 26 -2 37 -6 11 -3 4 2
-16 12 -20 10 -44 24 -53 31 -10 9 -16 10 -16 2 0 -6 -5 -11 -11 -11 -6 0 -8
9 -4 23 5 17 4 18 -4 7 -10 -15 -26 -7 -26 13 0 6 -14 20 -30 32 -17 11 -32
25 -34 30 -8 27 -18 37 -25 26 -4 -6 -2 -11 3 -11 6 0 11 -4 11 -10 0 -14 -33
-13 -48 2 -9 9 -12 9 -12 -2 0 -7 -3 -10 -6 -7 -4 4 -1 13 6 22 10 12 10 18 0
30 -7 8 -9 22 -6 31 5 14 4 15 -9 4 -13 -11 -14 -10 -9 5 6 14 4 16 -6 10 -9
-5 -11 -4 -6 3 11 18 -4 37 -16 21 -6 -10 -7 -6 -2 11 6 22 5 23 -9 12 -13
-11 -16 -9 -22 18 -4 17 -19 42 -33 57 -15 14 -21 22 -15 19 9 -5 11 -2 7 8
-7 19 -9 19 -26 3 -11 -11 -13 -5 -15 33 -1 25 -7 59 -13 74 -5 15 -10 47 -10
71 0 24 -5 45 -11 47 -8 3 -9 10 -1 23 5 11 16 40 22 65 7 25 14 51 16 58 2 7
11 15 20 19 9 3 28 17 42 29 14 13 34 24 46 24 13 0 16 3 9 8 -6 4 17 8 50 8
41 1 55 -1 42 -6z m988 4 c-7 -3 -9 -13 -6 -22 5 -13 3 -14 -7 -5 -14 13 -5
33 13 32 9 0 9 -2 0 -5z m-1123 -11 c0 -9 -52 -35 -58 -29 -2 3 9 11 25 20 33
18 33 18 33 9z m995 -3 c3 -5 1 -10 -4 -10 -6 0 -11 5 -11 10 0 6 2 10 4 10 3
0 8 -4 11 -10z m-1388 -42 c-3 -8 -6 -5 -6 6 -1 11 2 17 5 13 3 -3 4 -12 1
-19z m150 -40 c-3 -8 -6 -5 -6 6 -1 11 2 17 5 13 3 -3 4 -12 1 -19z m1420
-140 c-3 -8 -6 -5 -6 6 -1 11 2 17 5 13 3 -3 4 -12 1 -19z m-90 6 c-3 -3 -12
-4 -19 -1 -8 3 -5 6 6 6 11 1 17 -2 13 -5z m-1230 -26 c-3 -8 -6 -5 -6 6 -1
11 2 17 5 13 3 -3 4 -12 1 -19z m1340 -50 c-3 -7 -5 -2 -5 12 0 14 2 19 5 13
2 -7 2 -19 0 -25z m-957 -69 c0 -5 -9 -13 -19 -19 -16 -8 -19 -7 -16 8 4 21 2
19 20 19 8 0 15 -4 15 -8z m-153 -31 c-3 -7 -5 -2 -5 12 0 14 2 19 5 13 2 -7
2 -19 0 -25z m1040 -100 c-2 -13 -4 -3 -4 22 0 25 2 35 4 23 2 -13 2 -33 0
-45z m-844 17 c-3 -9 -8 -14 -10 -11 -3 3 -2 9 2 15 9 16 15 13 8 -4z m-204
-33 c-1 -15 -2 -15 -6 1 -2 9 -9 14 -15 11 -7 -4 -8 -2 -4 5 10 15 26 4 25
-17z m276 -50 c-2 -10 6 -24 17 -31 16 -10 19 -10 12 1 -15 23 -13 37 4 30 11
-4 12 -7 4 -10 -10 -3 -10 -7 0 -20 7 -8 12 -18 10 -21 -1 -3 12 -10 28 -14
19 -5 28 -12 24 -19 -5 -8 -1 -9 12 -4 10 4 27 9 38 12 36 7 65 32 59 53 -2
10 1 22 8 27 19 11 119 16 119 5 0 -5 9 -7 20 -4 11 3 27 0 34 -7 10 -8 20 -8
34 -1 14 7 19 7 19 -3 0 -9 -12 -12 -36 -10 -31 2 -33 1 -16 -9 11 -6 25 -12
30 -12 6 0 27 -8 49 -18 21 -9 42 -15 46 -12 14 9 30 -90 21 -123 -5 -17 -6
-34 -3 -38 4 -4 2 -4 -5 0 -7 4 -17 -3 -24 -16 -11 -21 -11 -22 4 -9 18 14 22
5 8 -17 -6 -10 -10 -10 -19 1 -9 11 -9 22 2 48 17 40 24 125 11 136 -4 4 -5 2
-1 -4 10 -18 9 -18 -107 37 -58 28 -112 50 -120 50 -8 0 -35 -27 -61 -60 -53
-67 -66 -71 -129 -39 -79 41 -118 71 -107 84 6 8 6 15 -2 23 -9 9 -8 12 4 12
11 0 16 -7 13 -18z m-56 -48 c5 4 12 3 15 -2 9 -14 -32 -11 -44 4 -7 7 -17 11
-23 7 -6 -4 -7 -1 -3 6 6 9 12 8 26 -4 10 -9 23 -14 29 -11z m-789 -21 c-11
-17 -11 -17 -6 0 3 10 6 24 7 30 0 9 2 9 5 0 3 -7 0 -20 -6 -30z m535 8 c-6
-5 -25 10 -25 20 0 5 6 4 14 -3 8 -7 12 -15 11 -17z m589 11 c3 -5 -1 -9 -9
-9 -8 0 -12 4 -9 9 3 4 7 8 9 8 2 0 6 -4 9 -8z m566 -64 c0 -23 -3 -29 -9 -19
-8 12 -4 51 5 51 2 0 4 -15 4 -32z m-413 -4 c-3 -3 -12 -4 -19 -1 -8 3 -5 6 6
6 11 1 17 -2 13 -5z m-466 -31 c-12 -20 -14 -14 -5 12 4 9 9 14 11 11 3 -2 0
-13 -6 -23z m1039 -8 c0 -5 -5 -3 -10 5 -5 8 -10 20 -10 25 0 6 5 3 10 -5 5
-8 10 -19 10 -25z m-942 11 c-7 -8 -15 -12 -17 -11 -5 6 10 25 20 25 5 0 4 -6
-3 -14z m640 -21 c-3 -3 -9 2 -12 12 -6 14 -5 15 5 6 7 -7 10 -15 7 -18z
m-323 5 c3 -5 1 -10 -4 -10 -6 0 -11 5 -11 10 0 6 2 10 4 10 3 0 8 -4 11 -10z
m82 -12 c-3 -8 -6 -5 -6 6 -1 11 2 17 5 13 3 -3 4 -12 1 -19z m360 -10 c-3 -7
-5 -2 -5 12 0 14 2 19 5 13 2 -7 2 -19 0 -25z m-1527 -28 c0 -5 -5 -10 -11
-10 -5 0 -7 5 -4 10 3 6 8 10 11 10 2 0 4 -4 4 -10z m767 -7 c-4 -3 -1 -13 6
-22 11 -14 10 -14 -5 -2 -21 15 -23 31 -6 31 6 0 8 -3 5 -7z m587 -108 c9 -14
14 -30 11 -35 -10 -16 -25 -1 -19 18 4 11 -2 8 -15 -8 -11 -14 -21 -21 -21
-16 0 5 7 18 17 28 9 10 13 21 9 25 -4 4 -11 1 -16 -7 -6 -8 -10 -10 -10 -4 0
12 10 24 21 24 3 0 14 -11 23 -25z m273 3 c-3 -8 -6 -5 -6 6 -1 11 2 17 5 13
3 -3 4 -12 1 -19z m-482 -27 c-3 -6 3 -14 12 -20 10 -6 14 -10 8 -10 -5 0 -18
6 -28 13 -14 11 -15 15 -5 19 19 8 20 8 13 -2z m-282 -8 c-7 -2 -19 -2 -25 0
-7 3 -2 5 12 5 14 0 19 -2 13 -5z m-846 -45 c-3 -8 -6 -5 -6 6 -1 11 2 17 5
13 3 -3 4 -12 1 -19z m1364 -11 c-10 -9 -11 -8 -5 6 3 10 9 15 12 12 3 -3 0
-11 -7 -18z m-1394 -79 c-3 -8 -6 -5 -6 6 -1 11 2 17 5 13 3 -3 4 -12 1 -19z
m1323 9 c0 -2 -10 -12 -22 -23 l-23 -19 19 23 c18 21 26 27 26 19z m220 -27
c0 -5 -5 -10 -11 -10 -5 0 -7 5 -4 10 3 6 8 10 11 10 2 0 4 -4 4 -10z m-200
-26 c0 -2 -9 -4 -20 -4 -11 0 -20 4 -20 9 0 5 9 7 20 4 11 -3 20 -7 20 -9z
m115 -3 c5 -9 -32 -44 -58 -55 -9 -3 -8 -8 3 -16 13 -10 13 -11 -1 -7 -9 3
-27 -5 -40 -16 -13 -12 -45 -33 -71 -47 -27 -14 -48 -28 -48 -31 0 -5 -35 -22
-168 -80 -23 -11 -49 -19 -57 -19 -9 0 -12 -6 -9 -17 4 -12 3 -14 -3 -6 -6 9
-45 8 -163 -4 -114 -12 -155 -13 -158 -4 -2 6 -14 8 -28 5 -24 -6 -205 33
-214 46 -3 4 -25 14 -50 21 -25 7 -53 18 -63 25 -22 14 -91 1 -114 -21 -17
-17 -27 -20 -18 -5 8 13 6 13 -62 -6 -32 -9 -71 -19 -87 -21 -16 -3 -23 -9
-17 -13 6 -3 -3 -7 -21 -7 -42 -1 -137 -28 -119 -34 8 -3 -2 -5 -23 -5 -20 0
-36 3 -36 7 0 10 36 21 205 64 77 20 170 45 208 57 63 19 69 19 86 4 9 -9 24
-16 32 -16 8 0 24 -6 35 -14 11 -8 68 -27 125 -42 89 -24 124 -28 239 -28 119
0 147 3 235 28 165 48 327 141 415 238 26 30 35 34 45 19z m-1482 -33 c-8 -46
-13 -48 -13 -5 0 21 4 37 10 37 5 0 7 -14 3 -32z m502 22 c3 -5 2 -10 -4 -10
-5 0 -13 5 -16 10 -3 6 -2 10 4 10 5 0 13 -4 16 -10z m42 -20 c1 -16 -1 -17
-12 -7 -11 10 -8 19 10 27 1 0 1 -9 2 -20z m718 -10 c-3 -5 -11 -10 -16 -10
-6 0 -7 5 -4 10 3 6 11 10 16 10 6 0 7 -4 4 -10z m-930 -18 c-3 -3 -11 0 -18
7 -9 10 -8 11 6 5 10 -3 15 -9 12 -12z m-475 -12 c0 -5 -5 -10 -11 -10 -5 0
-7 5 -4 10 3 6 8 10 11 10 2 0 4 -4 4 -10z m963 -17 c-13 -2 -33 -2 -45 0 -13
2 -3 4 22 4 25 0 35 -2 23 -4z m-493 -23 c0 -5 -4 -10 -10 -10 -5 0 -10 5 -10
10 0 6 5 10 10 10 6 0 10 -4 10 -10z m730 -4 c0 -2 -9 -6 -20 -9 -11 -3 -18
-1 -14 4 5 9 34 13 34 5z m-525 -16 c3 -5 -1 -10 -10 -10 -9 0 -13 5 -10 10 3
6 8 10 10 10 2 0 7 -4 10 -10z m-388 -22 c-3 -8 -6 -5 -6 6 -1 11 2 17 5 13 3
-3 4 -12 1 -19z m253 -2 c0 -2 -9 -6 -20 -9 -11 -3 -18 -1 -14 4 5 9 34 13 34
5z m223 -3 c-7 -2 -21 -2 -30 0 -10 3 -4 5 12 5 17 0 24 -2 18 -5z m340 0
c-13 -2 -35 -2 -50 0 -16 2 -5 4 22 4 28 0 40 -2 28 -4z m257 -73 c-8 -5 -19
-10 -25 -10 -5 0 -3 5 5 10 8 5 20 10 25 10 6 0 3 -5 -5 -10z m-277 -17 c-7
-2 -19 -2 -25 0 -7 3 -2 5 12 5 14 0 19 -2 13 -5z m-1098 -13 c3 -5 1 -10 -4
-10 -6 0 -11 5 -11 10 0 6 2 10 4 10 3 0 8 -4 11 -10z m188 -37 c-7 -2 -19 -2
-25 0 -7 3 -2 5 12 5 14 0 19 -2 13 -5z"/>
<path d="M858 1863 c7 -3 16 -2 19 1 4 3 -2 6 -13 5 -11 0 -14 -3 -6 -6z"/>
<path d="M1861 1034 c0 -11 3 -14 6 -6 3 7 2 16 -1 19 -3 4 -6 -2 -5 -13z"/>
<path d="M1655 631 c-3 -5 -2 -12 3 -15 5 -3 9 1 9 9 0 17 -3 19 -12 6z"/>
<path d="M770 456 c0 -2 7 -7 16 -10 8 -3 12 -2 9 4 -6 10 -25 14 -25 6z"/>
<path d="M650 1510 c0 -5 5 -10 11 -10 5 0 7 5 4 10 -3 6 -8 10 -11 10 -2 0
-4 -4 -4 -10z"/>
<path d="M820 950 c6 -10 9 -24 8 -31 -2 -6 2 -13 9 -16 10 -3 11 15 3 37 -1
3 -2 8 -2 12 1 3 -5 9 -14 12 -12 4 -12 2 -4 -14z"/>
<path d="M1047 749 c7 -7 15 -10 18 -7 3 3 -2 9 -12 12 -14 6 -15 5 -6 -5z"/>
<path d="M1302 1028 c-15 -15 -15 -28 -1 -28 5 0 8 4 4 9 -3 6 3 14 12 20 10
6 13 11 8 11 -6 0 -16 -5 -23 -12z"/>
<path d="M1240 951 c-8 -6 -17 -8 -21 -5 -4 2 -10 1 -13 -4 -2 -4 6 -8 19 -8
14 0 27 6 29 13 6 15 5 16 -14 4z"/>
</g>
</svg>
